<svg width="75" height="75" xmlns="http://www.w3.org/2000/svg" xmlns:xlink="http://www.w3.org/1999/xlink" viewBox="0 0 392.37259 414.61758"><defs><style>.cls-1{fill:none;}.cls-2{isolation:isolate;}.cls-3{clip-path:url(#clip-path);}.cls-4{fill:url(#linear-gradient);}.cls-5{fill:url(#linear-gradient-2);}.cls-6{fill:#afc1db;}.cls-7{fill:url(#linear-gradient-3);}.cls-8{fill:#dceff8;}.cls-9{fill:url(#linear-gradient-4);}.cls-10,.cls-14,.cls-48{mix-blend-mode:multiply;}.cls-10{fill:url(#linear-gradient-5);}.cls-11{fill:#fefefe;}.cls-12{fill:url(#linear-gradient-6);}.cls-13{fill:url(#linear-gradient-7);}.cls-14{fill:url(#linear-gradient-8);}.cls-15{fill:url(#linear-gradient-9);}.cls-16{fill:url(#linear-gradient-10);}.cls-17{fill:url(#linear-gradient-11);}.cls-18,.cls-19,.cls-20,.cls-21,.cls-22,.cls-23,.cls-24,.cls-25,.cls-26,.cls-27,.cls-28,.cls-29,.cls-30,.cls-31,.cls-32,.cls-33,.cls-39,.cls-40,.cls-42,.cls-44,.cls-46,.cls-47,.cls-50,.cls-53,.cls-54,.cls-60,.cls-61,.cls-62,.cls-63,.cls-64,.cls-66,.cls-67,.cls-68,.cls-69,.cls-70,.cls-71,.cls-72,.cls-73,.cls-74,.cls-75,.cls-76,.cls-77,.cls-78{mix-blend-mode:screen;}.cls-18{fill:url(#radial-gradient);}.cls-19{fill:url(#radial-gradient-2);}.cls-20{fill:url(#radial-gradient-3);}.cls-21{fill:url(#radial-gradient-4);}.cls-22{fill:url(#radial-gradient-5);}.cls-23{fill:url(#radial-gradient-6);}.cls-24{fill:url(#radial-gradient-7);}.cls-25{fill:url(#radial-gradient-8);}.cls-26{fill:url(#radial-gradient-9);}.cls-27{fill:url(#radial-gradient-10);}.cls-28{fill:url(#radial-gradient-11);}.cls-29{fill:url(#radial-gradient-12);}.cls-30{fill:url(#radial-gradient-13);}.cls-31{fill:url(#radial-gradient-14);}.cls-32{fill:url(#radial-gradient-15);}.cls-33{fill:url(#radial-gradient-16);}.cls-34{fill:#ba1c1d;}.cls-35{fill:#ff9191;}.cls-36{fill:#ff6e6e;}.cls-37{fill:#a61c1d;}.cls-38{fill:#ff5050;}.cls-39{fill:url(#linear-gradient-12);}.cls-40{fill:#302e2e;}.cls-41{fill:#ffa8a9;}.cls-42{fill:url(#linear-gradient-13);}.cls-43{fill:url(#linear-gradient-14);}.cls-44{fill:url(#linear-gradient-15);}.cls-45{fill:#a81b1c;}.cls-46{fill:url(#linear-gradient-16);}.cls-47{fill:url(#linear-gradient-17);}.cls-48{fill:url(#linear-gradient-18);}.cls-49{fill:url(#Áåçûìÿííûé_ãðàäèåíò_157);}.cls-50{fill:url(#linear-gradient-19);}.cls-51{fill:#ff2628;}.cls-52{fill:#f53b3c;}.cls-53{fill:url(#linear-gradient-20);}.cls-54{fill:url(#linear-gradient-21);}.cls-55{fill:#ab6a6a;}.cls-56{fill:#e8b3b3;}.cls-57{fill:#fff;}.cls-58{fill:#ff9696;}.cls-59{fill:url(#Áåçûìÿííûé_ãðàäèåíò_155);}.cls-60{fill:url(#linear-gradient-22);}.cls-61{fill:url(#linear-gradient-23);}.cls-62{fill:url(#linear-gradient-24);}.cls-63{fill:url(#linear-gradient-25);}.cls-64{fill:url(#linear-gradient-26);}.cls-65{fill:url(#Áåçûìÿííûé_ãðàäèåíò_157-2);}.cls-66{fill:url(#linear-gradient-27);}.cls-67{fill:url(#linear-gradient-28);}.cls-68{fill:url(#linear-gradient-29);}.cls-69{fill:url(#linear-gradient-30);}.cls-70{fill:url(#linear-gradient-31);}.cls-71{fill:url(#linear-gradient-32);}.cls-72{fill:#635e5e;}.cls-73{fill:url(#linear-gradient-33);}.cls-74{fill:url(#linear-gradient-34);}.cls-75{fill:url(#linear-gradient-35);}.cls-76{fill:url(#linear-gradient-36);}.cls-77{fill:url(#linear-gradient-37);}.cls-78{fill:url(#linear-gradient-38);}</style><clipPath id="clip-path" transform="translate(-294.16565 -19.32211)"><polygon class="cls-1" points="551.343 86.886 397.638 140.683 366.189 205.601 536.137 287.022 617.731 117.54 551.343 86.886"/></clipPath><linearGradient id="linear-gradient" x1="320.24494" y1="334.12737" x2="586.76635" y2="334.12737" gradientTransform="translate(-327.05305 15.49239) rotate(-19.29383)" gradientUnits="userSpaceOnUse"><stop offset="0" stop-color="#899596"/><stop offset="1" stop-color="#fff"/></linearGradient><linearGradient id="linear-gradient-2" x1="453.75151" y1="359.56353" x2="586.76635" y2="359.56353" gradientTransform="translate(-327.05305 15.49239) rotate(-19.29383)" gradientUnits="userSpaceOnUse"><stop offset="0" stop-color="#182d2e"/><stop offset="1" stop-color="#5d7089"/></linearGradient><linearGradient id="linear-gradient-3" x1="510.8101" y1="245.28268" x2="511.59803" y2="293.25371" gradientTransform="translate(-327.05305 15.49239) rotate(-19.29383)" gradientUnits="userSpaceOnUse"><stop offset="0" stop-color="#abb4bd"/><stop offset="1" stop-color="#fff"/></linearGradient><linearGradient id="linear-gradient-4" x1="444.87491" y1="349.9367" x2="500.03978" y2="362.59749" gradientTransform="translate(-327.05305 15.49239) rotate(-19.29383)" gradientUnits="userSpaceOnUse"><stop offset="0" stop-color="#485d6f"/><stop offset="0.13736" stop-color="#687e8d"/><stop offset="0.2967" stop-color="#8096a3"/><stop offset="0.6978" stop-color="#a3bac3"/><stop offset="1" stop-color="#b1c9d0"/></linearGradient><linearGradient id="linear-gradient-5" x1="486.81053" y1="292.25879" x2="449.72941" y2="417.06808" gradientTransform="translate(-327.05305 15.49239) rotate(-19.29383)" gradientUnits="userSpaceOnUse"><stop offset="0" stop-color="#a8acbe"/><stop offset="0.24725" stop-color="#b9bccc"/><stop offset="0.38461" stop-color="#cccddb"/><stop offset="1" stop-color="#faf7ff"/></linearGradient><linearGradient id="linear-gradient-6" x1="453.30618" y1="421.76089" x2="351.12996" y2="289.92067" gradientTransform="translate(-327.05305 15.49239) rotate(-19.29383)" gradientUnits="userSpaceOnUse"><stop offset="0" stop-color="#c2ebed"/><stop offset="0.28022" stop-color="#b7dce0"/><stop offset="0.55495" stop-color="#abccd2"/><stop offset="0.7967" stop-color="#9ab5bd"/><stop offset="1" stop-color="#7a8996"/></linearGradient><linearGradient id="linear-gradient-7" x1="459.5699" y1="359.15833" x2="399.97069" y2="358.22706" gradientTransform="translate(-327.05305 15.49239) rotate(-19.29383)" gradientUnits="userSpaceOnUse"><stop offset="0" stop-color="#c2ebed"/><stop offset="1" stop-color="#7a8996"/></linearGradient><linearGradient id="linear-gradient-8" x1="431.51086" y1="409.04134" x2="419.77219" y2="290.06527" gradientTransform="translate(-327.05305 15.49239) rotate(-19.29383)" gradientUnits="userSpaceOnUse"><stop offset="0" stop-color="#faf7ff"/><stop offset="0.30769" stop-color="#eeecf5"/><stop offset="0.65385" stop-color="#d5d7e0"/><stop offset="0.77473" stop-color="#c9ccd6"/><stop offset="1" stop-color="#a7b0ba"/></linearGradient><linearGradient id="linear-gradient-9" x1="395.17917" y1="262.85483" x2="451.30631" y2="298.30212" gradientTransform="translate(-327.05305 15.49239) rotate(-19.29383)" gradientUnits="userSpaceOnUse"><stop offset="0" stop-color="#fff"/><stop offset="1" stop-color="#d9dde1"/></linearGradient><linearGradient id="linear-gradient-10" x1="395.31403" y1="229.2652" x2="396.16171" y2="285.42934" gradientTransform="translate(-327.05305 15.49239) rotate(-19.29383)" gradientUnits="userSpaceOnUse"><stop offset="0" stop-color="#fff"/><stop offset="1" stop-color="#899596"/></linearGradient><linearGradient id="linear-gradient-11" x1="320.24494" y1="267.6242" x2="386.87964" y2="267.6242" xlink:href="#linear-gradient"/><radialGradient id="radial-gradient" cx="656.30294" cy="185.52996" r="55.03945" gradientTransform="matrix(0.1361, 0.3768, -2.391, 0.8638, 845.9998, -245.9027)" gradientUnits="userSpaceOnUse"><stop offset="0" stop-color="#fff"/><stop offset="0.05612" stop-color="#a1c2e3"/><stop offset="0.15385" stop-color="#5c697a"/><stop offset="0.23077" stop-color="#49505c"/><stop offset="0.37363" stop-color="#363840"/><stop offset="0.56044" stop-color="#131312"/><stop offset="0.65385" stop-color="#0d0c09"/><stop offset="0.8022" stop-color="#060503"/><stop offset="1"/></radialGradient><radialGradient id="radial-gradient-2" cx="228.97063" cy="290.00379" r="90.96707" gradientTransform="translate(262.8501 448.0704) rotate(-102.67298)" gradientUnits="userSpaceOnUse"><stop offset="0" stop-color="#fff"/><stop offset="0.06044" stop-color="#bfb496"/><stop offset="0.16483" stop-color="#81775d"/><stop offset="0.24176" stop-color="#665c44"/><stop offset="0.37363" stop-color="#3f3621"/><stop offset="0.51648" stop-color="#1e190f"/><stop offset="0.65934" stop-color="#100d08"/><stop offset="0.8022" stop-color="#070603"/><stop offset="0.91758"/></radialGradient><radialGradient id="radial-gradient-3" cx="379.47564" cy="213.08548" r="50.23274" gradientTransform="matrix(0.9986, -0.05, 0.05, 0.9986, 105.8938, -34.88441)" gradientUnits="userSpaceOnUse"><stop offset="0" stop-color="#fff"/><stop offset="0.1044" stop-color="#8caaa3"/><stop offset="0.23626" stop-color="#4f605c"/><stop offset="0.35714" stop-color="#27302e"/><stop offset="0.47802" stop-color="#101313"/><stop offset="0.65934" stop-color="#070808"/><stop offset="0.81319" stop-color="#060707"/><stop offset="1"/></radialGradient><radialGradient id="radial-gradient-4" cx="225.14443" cy="2028.32179" r="55.04797" gradientTransform="matrix(0.2811, 0.9597, -0.0766, 0.0224, 585.0914, -104.9348)" gradientUnits="userSpaceOnUse"><stop offset="0" stop-color="#fff"/><stop offset="0.05612" stop-color="#8caaa3"/><stop offset="0.25824" stop-color="#4f605c"/><stop offset="0.43407" stop-color="#27302e"/><stop offset="0.5989" stop-color="#101313"/><stop offset="0.75275" stop-color="#070808"/><stop offset="0.81319" stop-color="#060707"/><stop offset="1"/></radialGradient><radialGradient id="radial-gradient-5" cx="370.01886" cy="2233.74878" r="55.05856" gradientTransform="matrix(-0.6812, 1.2458, -0.072, -0.0393, 908.3782, -214.2472)" xlink:href="#radial-gradient-4"/><radialGradient id="radial-gradient-6" cx="498.62575" cy="1670.12874" r="47.07815" gradientTransform="matrix(-1.3626, 0.3993, -0.0312, -0.1064, 1225.1796, 139.7063)" xlink:href="#radial-gradient-4"/><radialGradient id="radial-gradient-7" cx="866.97416" cy="138.69122" r="55.04428" gradientTransform="matrix(0.6887, 0.3251, -1.4144, 2.9965, 176.2123, -512.2159)" gradientUnits="userSpaceOnUse"><stop offset="0" stop-color="#fff"/><stop offset="0.05612" stop-color="#a1c2e3"/><stop offset="0.14835" stop-color="#5c697a"/><stop offset="0.20879" stop-color="#3d444d"/><stop offset="0.28571" stop-color="#2a2d31"/><stop offset="0.45055" stop-color="#161617"/><stop offset="0.54396" stop-color="#101010"/><stop offset="0.64835" stop-color="#0a0a09"/><stop offset="0.78571" stop-color="#040403"/><stop offset="1"/></radialGradient><radialGradient id="radial-gradient-8" cx="1058.24306" cy="170.03358" r="14.64865" gradientTransform="matrix(-0.5183, 1.0831, -8.4891, -4.0633, 2413.137, -231.2822)" xlink:href="#radial-gradient-7"/><radialGradient id="radial-gradient-9" cx="991.17999" cy="154.3121" r="16.95618" gradientTransform="matrix(-0.7992, 2.1644, -5.9772, -2.2075, 2298.791, -1698.8273)" gradientUnits="userSpaceOnUse"><stop offset="0" stop-color="#fff"/><stop offset="0.05612" stop-color="#a1c2e3"/><stop offset="0.15385" stop-color="#5e6a7c"/><stop offset="0.27472" stop-color="#474d59"/><stop offset="0.39286" stop-color="#363840"/><stop offset="0.84694" stop-color="#120c00"/><stop offset="1"/></radialGradient><radialGradient id="radial-gradient-10" cx="503.81341" cy="203.81293" r="55.03503" gradientTransform="matrix(0.092, 0.2545, -2.391, 0.8638, 889.3476, -127.7946)" xlink:href="#radial-gradient"/><radialGradient id="radial-gradient-11" cx="1095.40028" cy="128.25435" r="9.17371" gradientTransform="matrix(-2.2993, -0.1905, 0.7104, -8.5693, 2963.3236, 1548.3718)" xlink:href="#radial-gradient-7"/><radialGradient id="radial-gradient-12" cx="388.31217" cy="500.93256" r="35.55025" gradientTransform="matrix(-0.9932, 0.1179, -0.1179, -0.9932, 825.6155, 652.1903)" xlink:href="#radial-gradient-2"/><radialGradient id="radial-gradient-13" cx="559.4901" cy="19.77845" r="19.63015" gradientTransform="matrix(0.0529, -0.9986, 0.9986, 0.0529, 330.7099, 758.0506)" xlink:href="#radial-gradient-4"/><radialGradient id="radial-gradient-14" cx="81.95344" cy="-753.66124" r="21.51612" gradientTransform="matrix(0.9835, -0.1809, 0.0144, 0.0784, 309.29809, 275.1815)" xlink:href="#radial-gradient-4"/><radialGradient id="radial-gradient-15" cx="187.39469" cy="1557.45814" r="21.52441" gradientTransform="matrix(1.1692, 0.8057, -0.0466, 0.0677, 233.5306, -56.0248)" xlink:href="#radial-gradient-4"/><radialGradient id="radial-gradient-16" cx="341.88418" cy="2975.92994" r="18.38961" gradientTransform="matrix(0.257, 1.3964, -0.1091, 0.0201, 617.6396, -336.0243)" xlink:href="#radial-gradient-4"/><linearGradient id="linear-gradient-12" x1="315.96998" y1="226.72682" x2="438.73646" y2="156.75713" gradientTransform="translate(-15.2511 49.6671) rotate(-2.63092)" gradientUnits="userSpaceOnUse"><stop offset="0" stop-color="#ad9e80"/><stop offset="1"/></linearGradient><linearGradient id="linear-gradient-13" x1="254.54994" y1="145.06056" x2="401.49553" y2="189.58897" xlink:href="#linear-gradient-12"/><linearGradient id="linear-gradient-14" x1="337.77119" y1="301.63051" x2="493.30124" y2="301.63051" gradientUnits="userSpaceOnUse"><stop offset="0" stop-color="#9d0057"/><stop offset="1" stop-color="#b2003b"/></linearGradient><linearGradient id="linear-gradient-15" x1="488.76238" y1="348.05785" x2="366.634" y2="212.57182" gradientTransform="translate(-15.2511 49.6671) rotate(-2.63092)" gradientUnits="userSpaceOnUse"><stop offset="0" stop-color="#9e8a62"/><stop offset="1"/></linearGradient><linearGradient id="linear-gradient-16" x1="560.40937" y1="398.53953" x2="389.93261" y2="231.24392" gradientTransform="translate(-15.2511 49.6671) rotate(-2.63092)" gradientUnits="userSpaceOnUse"><stop offset="0" stop-color="#2b261b"/><stop offset="1"/></linearGradient><linearGradient id="linear-gradient-17" x1="520.92025" y1="464.98864" x2="358.72243" y2="284.97925" xlink:href="#linear-gradient-16"/><linearGradient id="linear-gradient-18" x1="367.73372" y1="412.78149" x2="490.18667" y2="242.61974" gradientTransform="translate(-15.2511 49.6671) rotate(-2.63092)" gradientUnits="userSpaceOnUse"><stop offset="0" stop-color="#ffdf9e"/><stop offset="1" stop-color="#a1a1a1"/></linearGradient><linearGradient id="Áåçûìÿííûé_ãðàäèåíò_157" x1="294.27045" y1="295.40151" x2="353.83634" y2="295.40151" gradientUnits="userSpaceOnUse"><stop offset="0" stop-color="#de004c"/><stop offset="1" stop-color="#ff003b"/></linearGradient><linearGradient id="linear-gradient-19" x1="318.43452" y1="304.86029" x2="329.56548" y2="256.5163" gradientTransform="translate(-15.2511 49.6671) rotate(-2.63092)" gradientUnits="userSpaceOnUse"><stop offset="0" stop-color="#594418"/><stop offset="1"/></linearGradient><linearGradient id="linear-gradient-20" x1="246.77095" y1="395.13214" x2="359.03714" y2="267.91698" xlink:href="#linear-gradient-15"/><linearGradient id="linear-gradient-21" x1="219.75944" y1="360.3502" x2="360.97718" y2="198.45729" xlink:href="#linear-gradient-15"/><linearGradient id="Áåçûìÿííûé_ãðàäèåíò_155" x1="557.48659" y1="347.78342" x2="638.4358" y2="347.78342" gradientUnits="userSpaceOnUse"><stop offset="0" stop-color="#b80057"/><stop offset="1" stop-color="#ce003b"/></linearGradient><linearGradient id="linear-gradient-22" x1="635.06517" y1="418.49881" x2="586.40413" y2="297.32356" xlink:href="#linear-gradient-15"/><linearGradient id="linear-gradient-23" x1="671.7294" y1="356.20868" x2="595.87734" y2="292.52151" gradientTransform="translate(-15.2511 49.6671) rotate(-2.63092)" gradientUnits="userSpaceOnUse"><stop offset="0" stop-color="#1f1b13"/><stop offset="1"/></linearGradient><linearGradient id="linear-gradient-24" x1="627.57225" y1="405.1453" x2="576.05165" y2="368.17455" xlink:href="#linear-gradient-23"/><linearGradient id="linear-gradient-25" x1="552.01616" y1="282.18048" x2="541.52065" y2="218.25332" xlink:href="#linear-gradient-12"/><linearGradient id="linear-gradient-26" x1="457.00223" y1="257.81914" x2="565.46188" y2="235.23758" xlink:href="#linear-gradient-12"/><linearGradient id="Áåçûìÿííûé_ãðàäèåíò_157-2" x1="440.51256" y1="348.01675" x2="557.58264" y2="348.01675" xlink:href="#Áåçûìÿííûé_ãðàäèåíò_157"/><linearGradient id="linear-gradient-27" x1="478.92279" y1="393.56425" x2="500.63049" y2="317.94518" xlink:href="#linear-gradient-19"/><linearGradient id="linear-gradient-28" x1="484.01017" y1="410.91338" x2="550.16583" y2="360.02568" xlink:href="#linear-gradient-15"/><linearGradient id="linear-gradient-29" x1="396.61334" y1="367.92761" x2="551.82085" y2="272.51388" xlink:href="#linear-gradient-15"/><linearGradient id="linear-gradient-30" x1="536.49465" y1="295.26178" x2="538.08596" y2="267.91343" gradientTransform="translate(-15.2511 49.6671) rotate(-2.63092)" gradientUnits="userSpaceOnUse"><stop offset="0" stop-color="#fff"/><stop offset="1"/></linearGradient><linearGradient id="linear-gradient-31" x1="535.04588" y1="350.50357" x2="532.82027" y2="316.14675" xlink:href="#linear-gradient-30"/><linearGradient id="linear-gradient-32" x1="529.53282" y1="394.30445" x2="537.80137" y2="346.28977" xlink:href="#linear-gradient-30"/><linearGradient id="linear-gradient-33" x1="561.18269" y1="406.35655" x2="573.90382" y2="372.00611" xlink:href="#linear-gradient-30"/><linearGradient id="linear-gradient-34" x1="613.30341" y1="290.87771" x2="631.10692" y2="249.54179" xlink:href="#linear-gradient-30"/><linearGradient id="linear-gradient-35" x1="591.46784" y1="341.64549" x2="608.64417" y2="305.06757" xlink:href="#linear-gradient-30"/><linearGradient id="linear-gradient-36" x1="463.75908" y1="272.18832" x2="463.75908" y2="242.9168" xlink:href="#linear-gradient-30"/><linearGradient id="linear-gradient-37" x1="462.50941" y1="315.42296" x2="462.19077" y2="286.79989" xlink:href="#linear-gradient-30"/><linearGradient id="linear-gradient-38" x1="456.9695" y1="361.01522" x2="462.38171" y2="335.55253" xlink:href="#linear-gradient-30"/></defs><g class="cls-2"><g id="layer1"><g class="cls-3"><polygon class="cls-4" points="257.177 67.563 103.472 121.361 72.023 186.279 241.492 267.856 241.161 266.905 241.972 267.699 323.565 98.218 257.177 67.563"/><polygon class="cls-5" points="323.565 98.218 241.972 267.699 260.444 120.307 323.565 98.218"/><polygon class="cls-6" points="323.565 98.218 260.444 120.307 257.177 67.563 323.565 98.218"/><polygon class="cls-7" points="257.177 67.563 260.444 120.307 213.042 83.548 213.352 82.904 257.177 67.563"/><polygon class="cls-8" points="213.042 83.548 260.444 120.307 197.794 142.239 197.558 142.332 213.042 83.548"/><polygon class="cls-9" points="260.444 120.307 241.972 267.699 241.161 266.905 197.558 142.332 197.794 142.239 260.444 120.307"/><polygon class="cls-10" points="260.444 120.307 241.972 267.699 241.161 266.905 197.558 142.332 197.794 142.239 260.444 120.307"/><polygon class="cls-11" points="213.042 83.548 197.558 142.332 149.255 106.06 149.65 105.207 212.427 83.222 213.042 83.548"/><polygon class="cls-12" points="241.161 266.905 241.492 267.856 72.023 186.279 134.909 164.251 241.161 266.905"/><polygon class="cls-13" points="197.558 142.332 241.161 266.905 134.909 164.251 197.558 142.332"/><polygon class="cls-14" points="197.558 142.332 241.161 266.905 134.909 164.251 197.558 142.332"/><polygon class="cls-15" points="149.255 106.06 197.558 142.332 134.909 164.251 149.255 106.06"/><polygon class="cls-16" points="148.408 105.636 149.255 106.06 134.909 164.251 103.472 121.361 148.408 105.636"/><polygon class="cls-17" points="103.472 121.361 134.909 164.251 72.023 186.279 103.472 121.361"/><path class="cls-18" d="M499.20059,182.39368c-72.707,26.275-134.97246,38.26132-139.0871,26.81814-4.11464-11.45892,51.43436-42.04172,124.13863-68.30368,72.67552-26.2484,134.89324-38.24233,139.07679-26.81C627.43053,125.55705,571.88424,156.12683,499.20059,182.39368Z" transform="translate(-294.16565 -19.32211)"/><path class="cls-19" d="M475.61262,72.28161a90.97159,90.97159,0,1,1-68.79637,108.72894A90.98761,90.98761,0,0,1,475.61262,72.28161Z" transform="translate(-294.16565 -19.32211)"/><path class="cls-20" d="M545.65918,156.42364a50.22925,50.22925,0,1,1-52.67152-47.65343A50.19727,50.19727,0,0,1,545.65918,156.42364Z" transform="translate(-294.16565 -19.32211)"/><path class="cls-21" d="M508.48959,209.37894c-2.33378.68315-11.15125-22.42514-19.69851-51.57761-8.53694-29.16006-13.57348-53.36877-11.26032-54.0389,2.33433-.69672,11.1518,22.404,19.69363,51.56187C505.75807,184.49739,510.80547,208.69254,508.48959,209.37894Z" transform="translate(-294.16565 -19.32211)"/><path class="cls-22" d="M458.00372,227.49085c-2.19107-1.203,12.83173-32.8672,33.51888-70.71506,20.69529-37.87661,39.276-67.5961,41.46438-66.39042,2.178,1.19755-12.8236,32.86124-33.53462,70.72537C478.7549,198.96347,460.20565,228.68568,458.00372,227.49085Z" transform="translate(-294.16565 -19.32211)"/><path class="cls-23" d="M429.453,179.91664c-.7971-2.77655,27.27936-13.4438,62.73211-23.81911,35.43919-10.39106,64.82444-16.56166,65.65681-13.77968.7971,2.75268-27.28967,13.42209-62.74243,23.79741C459.67606,176.496,430.27453,182.68235,429.453,179.91664Z" transform="translate(-294.16565 -19.32211)"/><path class="cls-24" d="M615.03614,203.13943C572.0378,294.26,520.203,360.06007,499.29609,350.159c-20.91505-9.88806-3.06794-91.73808,39.93854-182.85921C582.23568,76.22912,634.03576,10.46108,654.97686,20.296,675.89733,30.21548,658.04262,112.02644,615.03614,203.13943Z" transform="translate(-294.16565 -19.32211)"/><path class="cls-25" d="M413.6011,239.85864c-68.69273-32.88022-120.95675-66.61886-116.733-75.37285,4.19115-8.74856,63.26659,10.78879,131.95715,43.65816,68.67211,32.87751,120.896,66.61615,116.7363,75.38859C541.34323,292.28653,482.30251,272.75677,413.6011,239.85864Z" transform="translate(-294.16565 -19.32211)"/><path class="cls-26" d="M570.72359,142.53761c-55.99177-20.68444-95.27538-53.87992-87.78514-74.1167,7.49513-20.25251,58.9322-19.953,114.92125.72331,55.95162,20.68443,95.22221,53.83488,87.77158,74.11669C678.12042,163.51614,626.70722,163.20631,570.72359,142.53761Z" transform="translate(-294.16565 -19.32211)"/><path class="cls-27" d="M453.42026,190.49327c-72.707,26.275-133.865,41.2788-136.63882,33.53462-2.78741-7.73388,53.856-35.30463,126.5576-61.56062,72.67281-26.26468,133.79608-41.25818,136.64154-33.54C582.74683,136.67684,526.11423,164.22371,453.42026,190.49327Z" transform="translate(-294.16565 -19.32211)"/><path class="cls-28" d="M514.68678,238.88845c3.60079-43.4091,15.96587-77.81244,27.60765-76.84279,11.63906.97508,18.19167,36.94169,14.58274,80.3535-3.60024,43.4091-15.94959,77.794-27.61253,76.85093C517.62015,318.2647,511.09142,282.303,514.68678,238.88845Z" transform="translate(-294.16565 -19.32211)"/><path class="cls-29" d="M345.57578,204.64409a35.55681,35.55681,0,1,1,39.49848,31.11022A35.57127,35.57127,0,0,1,345.57578,204.64409Z" transform="translate(-294.16565 -19.32211)"/><path class="cls-30" d="M381.1083,180.78808a19.63012,19.63012,0,1,1-20.653,18.55685A19.62287,19.62287,0,0,1,381.1083,180.78808Z" transform="translate(-294.16565 -19.32211)"/><path class="cls-31" d="M400.19745,197.36873c.159.93275-9.16691,3.43637-20.84071,5.58784-11.68681,2.15363-21.29921,3.12871-21.46363,2.19867-.18286-.9295,9.15444-3.42824,20.83312-5.57156C390.41033,197.41919,400.02,196.43326,400.19745,197.36873Z" transform="translate(-294.16565 -19.32211)"/><path class="cls-32" d="M405.21066,217.72217c-.56974.79222-12.262-6.31928-26.15615-15.86277-13.87518-9.58853-24.68784-17.99253-24.1474-18.79505.56486-.79,12.27555,6.30842,26.15344,15.878C394.95146,208.50425,405.756,216.91639,405.21066,217.72217Z" transform="translate(-294.16565 -19.32211)"/><path class="cls-33" d="M385.56424,226.90754c-1.10476.19642-4.12766-11.14909-6.7398-25.34766-2.62028-14.19044-3.83411-25.85338-2.72392-26.07042,1.11561-.20674,4.13309,11.14366,6.73492,25.34983C385.46115,215.02755,386.67443,226.70623,385.56424,226.90754Z" transform="translate(-294.16565 -19.32211)"/></g><path class="cls-34" d="M462.51891,215.82832a32.2695,32.2695,0,0,1,14.64232,22.16994l-.04024.00411a18.9848,18.9848,0,0,0-21.26211-13.90218C463.94014,222.8684,466.24484,219.50549,462.51891,215.82832Z" transform="translate(-294.16565 -19.32211)"/><path class="cls-35" d="M307.64474,208.22491c-7.86186,2.11525-8.90569,7.40839-1.952,12.567-6.31992-3.97675-10.74428-2.38223-11.3637,3.70273-.24231-1.39539-1.83125-13.82171,13.30978-16.31437Z" transform="translate(-294.16565 -19.32211)"/><path class="cls-36" d="M353.99063,239.58573a19.05949,19.05949,0,0,0-15.99893,21.73086c-1.58894-10.45175-9.7448-23.95655-18.21875-30.19482C328.2469,237.36,343.57178,241.16909,353.99063,239.58573Z" transform="translate(-294.16565 -19.32211)"/><path class="cls-37" d="M372.1521,379.382c-16.53112,2.70736-24.36127-8.64341-25.36661-10.195,5.2103,5.57861,8.10417,3.28244,6.69586-5.9945A19.04472,19.04472,0,0,0,372.1521,379.382Z" transform="translate(-294.16565 -19.32211)"/><path class="cls-38" d="M462.51891,215.82832c3.72593,3.67717,1.42123,7.04008-6.66,8.27187L353.99063,239.58573c-10.41885,1.58336-25.74373-2.22569-34.21768-8.464l-12.64307-9.27017-.0934-.109c-.39709-.32542-.81591-.56655-1.20742-.85468-.04288-.03142-.07871-.02584-.13627-.096-6.95374-5.15861-5.90991-10.45175,1.952-12.567a16.61105,16.61105,0,0,1,2.88094-.63117L397.3005,194.4c10.41709-1.58453,26.47623.98979,35.8912,5.73222l24.50871,12.451a18.96331,18.96331,0,0,1,4.68222,3.14763S462.42875,215.764,462.51891,215.82832Z" transform="translate(-294.16565 -19.32211)"/><path class="cls-39" d="M462.51891,215.82832c3.72593,3.67717,1.42123,7.04008-6.66,8.27187L353.99063,239.58573c-10.41885,1.58336-25.74373-2.22569-34.21768-8.464l-12.64307-9.27017-.0934-.109c-.39709-.32542-.81591-.56655-1.20742-.85468-.04288-.03142-.07871-.02584-.13627-.096-6.95374-5.15861-5.90991-10.45175,1.952-12.567a16.61105,16.61105,0,0,1,2.88094-.63117L397.3005,194.4c10.41709-1.58453,26.47623.98979,35.8912,5.73222l24.50871,12.451a18.96331,18.96331,0,0,1,4.68222,3.14763S462.42875,215.764,462.51891,215.82832Z" transform="translate(-294.16565 -19.32211)"/><path class="cls-40" d="M462.51891,215.82832c-.09016-.06433-.13628-.09751-.13628-.09751a18.96331,18.96331,0,0,0-4.68222-3.14763l-24.50871-12.451c-9.415-4.74243-25.47411-7.31675-35.8912-5.73222l-86.77482,13.19377a16.61105,16.61105,0,0,0-2.88094.63117c-6.34606,1.70789-8.16732,5.494-4.99649,9.60412,46.29713-15.11694,99.73744-14.24053,139.287,8.39082l13.92361-2.11966C463.94014,222.8684,466.24484,219.50549,462.51891,215.82832Z" transform="translate(-294.16565 -19.32211)"/><path class="cls-41" d="M353.99063,239.58573a23.61264,23.61264,0,0,1-9.09513,1.66207,37.87869,37.87869,0,0,1-17.849-4.40849,23.6504,23.6504,0,0,1-7.27358-5.71754,133.17556,133.17556,0,0,0,16.8448,5.31193A128.65822,128.65822,0,0,0,353.99063,239.58573Z" transform="translate(-294.16565 -19.32211)"/><path class="cls-42" d="M455.85888,224.10019a16.82016,16.82016,0,0,0,6.34606-2.0292,823.64766,823.64766,0,0,0-114.65641-20.11167l-37.02285,5.63442a16.61105,16.61105,0,0,0-2.88094.63117c-3.53237.94514-5.59741,2.55845-6.28,4.49161A773.56331,773.56331,0,0,1,395.859,233.21706Z" transform="translate(-294.16565 -19.32211)"/><path class="cls-43" d="M477.6015,240.09472l15.48113,101.86855A19.09385,19.09385,0,0,1,477.08516,363.7L375.211,379.18407a14.025,14.025,0,0,1-2.90414.17623c-.04318.0044-.11631.01586-.15479.02173a19.04472,19.04472,0,0,1-18.67075-16.18955L337.9917,261.31659a19.05949,19.05949,0,0,1,15.99893-21.73086l101.86825-15.48554A18.9848,18.9848,0,0,1,477.121,238.00237,13.5158,13.5158,0,0,1,477.6015,240.09472Z" transform="translate(-294.16565 -19.32211)"/><path class="cls-44" d="M478.60134,240.09472l15.48113,101.86855A19.09384,19.09384,0,0,1,478.085,363.7L376.21087,379.18407a14.025,14.025,0,0,1-2.90414.17623c-.04318.0044-.11631.01586-.15478.02173a19.04473,19.04473,0,0,1-18.67076-16.18955L338.99154,261.31659a19.05949,19.05949,0,0,1,15.99893-21.73086l101.86826-15.48554a18.98478,18.98478,0,0,1,21.2621,13.90218A13.5158,13.5158,0,0,1,478.60134,240.09472Z" transform="translate(-294.16565 -19.32211)"/><path class="cls-45" d="M337.9917,261.31659a19.29442,19.29442,0,0,1,6.45913-18.58,20.10634,20.10634,0,0,1,9.53393-4.36973l9.89811-1.76839c13.20228-2.35609,26.44216-4.4226,39.6888-6.48058,13.25838-1.97339,26.5194-3.94092,39.82066-5.61033l9.97712-1.25206a22.91332,22.91332,0,0,1,10.38008.32425A19.22023,19.22023,0,0,1,477.121,238.00237a18.83173,18.83173,0,0,0-13.83756-12.61282,21.12956,21.12956,0,0,0-9.54538.24525l-9.90252,1.7769c-13.20081,2.352-26.4448,4.417-39.69173,6.47206-13.25662,1.96606-26.51647,3.93652-39.82067,5.6074l-9.9827,1.25323a18.09982,18.09982,0,0,0-8.73093,3.45778A18.88615,18.88615,0,0,0,337.9917,261.31659Z" transform="translate(-294.16565 -19.32211)"/><path class="cls-46" d="M489.16314,316.2169A582.72791,582.72791,0,0,0,382.0558,235.31939l-28.06517,4.26634a19.04355,19.04355,0,0,0-16.01773,21.4398c50.96526,28.16444,97.10027,63.65826,140.5749,102.3003a19.03793,19.03793,0,0,0,14.53483-21.36256Z" transform="translate(-294.16565 -19.32211)"/><path class="cls-47" d="M343.84287,299.815l3.32707,21.89445c19.90109,17.26245,39.26557,35.10819,58.76369,52.805l16.48942-2.5053C397.35043,346.55093,371.72036,321.65659,343.84287,299.815Z" transform="translate(-294.16565 -19.32211)"/><path class="cls-48" d="M477.96127,242.48547c-11.47706,2.39927-22.88247,4.899-34.27347,7.32262-6.1854,1.31227-12.25861,7.34965-13.4346,13.56237a861.05717,861.05717,0,0,0-13.09332,109.43907L477.08516,363.7a19.09385,19.09385,0,0,0,15.99747-21.73673Z" transform="translate(-294.16565 -19.32211)"/><path class="cls-49" d="M319.773,231.12177c8.474,6.23827,16.62981,19.74307,18.21875,30.19482l15.48965,101.87589c1.40831,9.27694-1.48556,11.57311-6.69586,5.9945l-.00558-.0373c-.60386-.68139-1.255-1.42975-1.94168-2.33054l-25.332-33.62968c-6.34459-8.41668-12.78934-23.64816-14.3727-34.067l-10.60946-69.79756a18.90313,18.90313,0,0,1-.178-4.71982s-.007-.03994-.017-.11043c.61942-6.085,5.04378-7.67948,11.3637-3.70273.05756.0702.09339.06462.13627.096.43469.31691.86761.63969,1.30082.96365Z" transform="translate(-294.16565 -19.32211)"/><path class="cls-50" d="M320.52283,230.37189c8.474,6.23827,16.62981,19.74307,18.21875,30.19482L354.23123,362.4426c1.40831,9.27693-1.48555,11.57311-6.69586,5.9945l-.00558-.0373c-.60386-.68139-1.255-1.42975-1.94168-2.33054l-25.332-33.62969c-6.34459-8.41667-12.78934-23.64815-14.37269-34.067L295.274,228.575a18.90261,18.90261,0,0,1-.178-4.71982s-.007-.04-.017-.11044c.61942-6.085,5.04378-7.67947,11.3637-3.70272.05756.07019.0934.06461.13628.096.43468.31691.8676.63969,1.30081.96364Z" transform="translate(-294.16565 -19.32211)"/><path class="cls-51" d="M337.9917,261.31659c2.06943,8.37379,3.71858,16.80339,5.31633,25.24884,1.63476,8.43841,2.96847,16.91676,4.31216,25.39805,1.24208,8.50419,2.48679,16.99547,3.43751,25.53256l1.40978,12.81958c.32983,4.2966.79594,8.56294,1.01387,12.87686-1.07555-4.18351-1.90585-8.39963-2.86685-12.59167l-2.46212-12.65306c-1.63358-8.444-2.96582-16.92233-4.3054-25.40509-1.24766-8.49979-2.485-16.99253-3.42606-25.53844C339.43143,278.47007,338.50362,269.92711,337.9917,261.31659Z" transform="translate(-294.16565 -19.32211)"/><path class="cls-52" d="M294.32909,224.49464a8.06475,8.06475,0,0,1,.7228-3.88071,5.21,5.21,0,0,1,3.27686-2.7103,7.776,7.776,0,0,1,4.29659.119,17.0297,17.0297,0,0,1,3.80611,1.59187l.29694.16918.08752.18209a1.19558,1.19558,0,0,0-.35156-.31544l.23085.13481.168.11484.34833.23379.70283.4617,1.39245.92077,2.76934,1.87c1.82977,1.26616,3.69127,2.50236,5.48815,3.822,1.79688,1.33782,3.61549,2.46359,5.46553,4.10568a43.56552,43.56552,0,0,1,4.79971,5.05377,52.1689,52.1689,0,0,1,7.02569,11.76548,37.121,37.121,0,0,1,3.13647,13.18349,54.69294,54.69294,0,0,0-5.42794-12.0307,68.8819,68.8819,0,0,0-7.54056-10.5707,49.99086,49.99086,0,0,0-9.64435-8.53c-1.79424-1.31638-3.53943-2.71764-5.2949-4.08131l-2.6213-2.07678-1.29524-1.05381-.64233-.53366-.3313-.26815-.16065-.13187c-.05023-.04318-.02585-.01586.04728.03289a2.25147,2.25147,0,0,1-.50047-.4573l.373.35421c-1.94315-1.33107-4.126-2.59575-6.30436-2.428a3.89534,3.89534,0,0,0-2.81956,1.55311A9.7197,9.7197,0,0,0,294.32909,224.49464Z" transform="translate(-294.16565 -19.32211)"/><path class="cls-53" d="M346.942,320.17074l-1.65355-10.85912q-12.4576,12.64263-24.17037,26.01747l5.30312,7.03861Q336.46943,331.0551,346.942,320.17074Z" transform="translate(-294.16565 -19.32211)"/><path class="cls-54" d="M312.8433,321.94911c9.15534-12.352,18.78677-24.36685,28.91133-35.87974l-3.76293-24.75278c-1.43827-9.44934-8.246-21.34082-15.801-28.15857a228.12506,228.12506,0,0,0-21.88446,34.21768l4.82731,31.74675C306.146,305.781,309.152,314.3927,312.8433,321.94911Z" transform="translate(-294.16565 -19.32211)"/><path class="cls-55" d="M370.13142,260.08186a9.53794,9.53794,0,1,1-10.86205-7.99932A9.53158,9.53158,0,0,1,370.13142,260.08186Z" transform="translate(-294.16565 -19.32211)"/><path class="cls-56" d="M325.98391,288.03689c1.43268,10.0761-2.88241,10.83327-5.78362,7.15609a19.21155,19.21155,0,0,1-3.17523-7.86891c-.49313-2.8037-.43586-6.11492.489-8.06247C319.35119,275.38941,324.42081,277.1161,325.98391,288.03689Z" transform="translate(-294.16565 -19.32211)"/><path class="cls-55" d="M426.60921,298.31212a9.54274,9.54274,0,1,1-10.8691-7.99492A9.55019,9.55019,0,0,1,426.60921,298.31212Z" transform="translate(-294.16565 -19.32211)"/><path class="cls-55" d="M477.83087,339.42068a9.539,9.539,0,1,1-10.86323-8.00519A9.53076,9.53076,0,0,1,477.83087,339.42068Z" transform="translate(-294.16565 -19.32211)"/><path class="cls-57" d="M355.75873,226.21839c.1536,2.49677-4.1891,4.80852-9.71749,5.15009-5.52545.34834-10.12192-1.4042-10.27376-3.90362-.16066-2.50265,4.19027-4.80734,9.70867-5.15274C350.999,221.96937,355.60806,223.71162,355.75873,226.21839Z" transform="translate(-294.16565 -19.32211)"/><path class="cls-57" d="M446.72822,214.33982c.15478,2.49678-4.192,4.81587-9.72042,5.15715-5.52134.34275-10.12339-1.40126-10.27964-3.90655-.15214-2.50412,4.19174-4.80852,9.709-5.15128C441.96963,210.09786,446.569,211.83747,446.72822,214.33982Z" transform="translate(-294.16565 -19.32211)"/><path class="cls-57" d="M414.11945,200.20239c.10339,1.59334-3.39316,3.1206-7.81281,3.3961-4.4129.27666-8.07128-.79741-8.17026-2.40221-.09751-1.596,3.399-3.11355,7.80871-3.38875C410.365,197.52939,414.02782,198.59906,414.11945,200.20239Z" transform="translate(-294.16565 -19.32211)"/><path class="cls-57" d="M324.60879,213.5295c.10455,1.59334-3.3961,3.115-7.82163,3.39316-4.41.2752-8.06247-.80152-8.16585-2.40074-.10192-1.59481,3.39463-3.11767,7.81428-3.39316C320.84849,210.84915,324.50687,211.9291,324.60879,213.5295Z" transform="translate(-294.16565 -19.32211)"/><path class="cls-37" d="M557.4866,418.8526c-.007,9.5398,6.05617,13.51215,13.849,9.46961-10.314,6.40744-17.678,7.582-30.72407,2.2342C549.91727,434.22624,557.48072,429.00037,557.4866,418.8526Z" transform="translate(-294.16565 -19.32211)"/><path class="cls-34" d="M625.55483,259.0724c12.89242,4.70513,12.8839,12.95,12.881,20.12459.00441-10.15041-7.69974-15.80509-17.1661-12.64865C628.75267,264.0357,630.17126,261.06283,625.55483,259.0724Z" transform="translate(-294.16565 -19.32211)"/><path class="cls-35" d="M458.2696,264.73853c-9.15387-2.0665-16.71585,3.42606-17.56759,12.50826l-.11044-.00734c-.55774-14.42556,7.8043-19.72163,17.76145-20.09463C448.58677,259.07651,448.50366,262.514,458.2696,264.73853Z" transform="translate(-294.16565 -19.32211)"/><path class="cls-58" d="M574.77313,282.008c-9.46491,3.15908-17.18315,13.95093-17.19049,24.10868.00734-10.15775-7.88595-20.19214-17.6566-22.46247C549.69669,285.92457,565.30822,285.16711,574.77313,282.008Z" transform="translate(-294.16565 -19.32211)"/><path class="cls-59" d="M571.33562,428.32221c-7.79285,4.04254-13.85607.07019-13.849-9.46961l.096-112.73589c.00734-10.15775,7.72558-20.9496,17.19049-24.10868l46.49656-15.45969c9.46636-3.15644,17.17051,2.49824,17.1661,12.64865l-.0746,88.23893c-.00411,10.14776-6.89088,22.74061-15.36629,28.15122l-50.172,31.89889A14.26977,14.26977,0,0,1,571.33562,428.32221Z" transform="translate(-294.16565 -19.32211)"/><path class="cls-60" d="M571.33562,429.32205c-7.79285,4.04254-13.85607.07019-13.849-9.4696l.096-112.73589c.00734-10.15775,7.72558-20.94961,17.19049-24.10869l46.49656-15.45969c9.46636-3.15644,17.17051,2.49824,17.1661,12.64865l-.0746,88.23893c-.00411,10.14776-6.89088,22.74061-15.36629,28.15123l-50.172,31.89888A14.268,14.268,0,0,1,571.33562,429.32205Z" transform="translate(-294.16565 -19.32211)"/><path class="cls-61" d="M574.70882,282.038c-9.435,3.18815-17.11884,13.94535-17.12618,24.07872l-.00851,10.37832c28.59588,13.548,55.33322,30.66974,80.78853,50.03305l.03878-46.9753C617.65008,306.24565,596.24612,294.02992,574.70882,282.038Z" transform="translate(-294.16565 -19.32211)"/><path class="cls-62" d="M557.50392,395.79655c10.67379,6.752,21.10557,13.99823,31.0495,21.688l29.20121-18.56737c-19.68167-13.57088-39.75605-26.52939-60.21928-38.44966Z" transform="translate(-294.16565 -19.32211)"/><path class="cls-38" d="M625.55483,259.0724c4.61643,1.99043,3.19784,4.9633-4.28514,7.47594L574.77313,282.008c-9.46491,3.15908-25.07644,3.91654-34.84709,1.64621L458.2696,264.73853c-9.76594-2.22451-9.68283-5.662.08342-7.59371l56.1879-11.2518c9.81206-1.93463,25.72494-2.15255,35.57019-.42734l70.52182,12.26713c.79888.15508,1.52168.31427,2.17136.45906.49019.15478.95218.26522,1.40538.42C624.67283,258.76959,625.126,258.92173,625.55483,259.0724Z" transform="translate(-294.16565 -19.32211)"/><path class="cls-63" d="M625.55483,259.0724c4.61643,1.99043,3.19784,4.9633-4.28514,7.47594L574.77313,282.008c-9.46491,3.15908-25.07644,3.91654-34.84709,1.64621L458.2696,264.73853c-9.76594-2.22451-9.68283-5.662.08342-7.59371l56.1879-11.2518c9.81206-1.93463,25.72494-2.15255,35.57019-.42734l70.52182,12.26713c.79888.15508,1.52168.31427,2.17136.45906.49019.15478.95218.26522,1.40538.42C624.67283,258.76959,625.126,258.92173,625.55483,259.0724Z" transform="translate(-294.16565 -19.32211)"/><path class="cls-40" d="M625.55483,259.0724c-.4288-.15067-.882-.30281-1.34516-.46053-.4532-.15478-.91519-.26522-1.40538-.42-.64968-.14479-1.37248-.304-2.17136-.45906l-70.52182-12.26713c-9.84525-1.72521-25.75813-1.50729-35.57019.42734l-56.1879,11.2518c-9.76625,1.93169-9.84936,5.3692-.08342,7.59371l6.25854,1.44826c45.041-11.781,97.51029-11.53287,136.65543,7.04155l20.08612-6.68C628.75267,264.0357,630.17126,261.06283,625.55483,259.0724Z" transform="translate(-294.16565 -19.32211)"/><path class="cls-64" d="M625.55483,259.0724c-.4288-.15067-.882-.30281-1.34516-.46053-.4532-.15478-.91519-.26522-1.40538-.42-.64968-.14479-1.37248-.304-2.17136-.45906l-44.658-7.767c-41.5544,1.0497-82.83065,4.8329-123.09746,12.97a22.89118,22.89118,0,0,0,5.3921,1.80275l44.25207,10.25232c39.55105-5.015,79.80493-8.89717,119.828-8.85693C628.82022,263.71879,629.92014,260.95386,625.55483,259.0724Z" transform="translate(-294.16565 -19.32211)"/><path class="cls-65" d="M557.58264,306.11671l-.096,112.73589c-.00588,10.14777-7.56933,15.37364-16.875,11.70381L457.3647,397.73706c-9.30718-3.66837-16.86065-14.85731-16.85213-25.00507l.079-93.69419a14.16758,14.16758,0,0,1,.11044-1.791c.85174-9.0822,8.41372-14.57476,17.56759-12.50826L539.926,283.65424C549.69669,285.92457,557.59,295.959,557.58264,306.11671Z" transform="translate(-294.16565 -19.32211)"/><path class="cls-66" d="M557.08272,305.11687l-.096,112.73589c-.00587,10.14776-7.56932,15.37364-16.875,11.70381l-83.24684-32.81936c-9.30718-3.66836-16.86065-14.8573-16.85213-25.00507l.079-93.69418a14.16947,14.16947,0,0,1,.11043-1.791c.85175-9.0822,8.41373-14.57476,17.5676-12.50826l81.65644,18.91571C549.19677,284.92473,557.09006,294.95912,557.08272,305.11687Z" transform="translate(-294.16565 -19.32211)"/><path class="cls-67" d="M557.50392,396.60248l.03584-43.26376q-28.307,30.44064-55.51268,62.00765l28.23023,11.12579Q543.75814,411.46111,557.50392,396.60248Z" transform="translate(-294.16565 -19.32211)"/><path class="cls-68" d="M457.3647,397.73706l14.49018,5.71635c25.76664-36.07476,54.61776-70.46044,84.81581-103.11327-2.27033-7.9394-8.85429-14.85877-16.74465-16.6859l-39.60979-9.16973q-30.738,32.87383-59.77637,67.55043l-.02731,30.697C440.50405,382.87975,448.05752,394.06869,457.3647,397.73706Z" transform="translate(-294.16565 -19.32211)"/><path class="cls-56" d="M540.70054,307.634c-.00441,6.26118-3.6572,11.3308-8.14735,11.32346-4.50307-.00294-8.14117-5.08108-8.13971-11.33521.00265-6.25824,3.65955-11.3308,8.16-11.32787C537.06654,296.29584,540.712,301.37839,540.70054,307.634Z" transform="translate(-294.16565 -19.32211)"/><path class="cls-56" d="M532.57346,296.29437c-4.50043-.00293-8.15733,5.06963-8.16,11.32787a12.97009,12.97009,0,0,0,3.59376,9.405c-.73573-7.96789,3.32-15.67468,9.46226-18.39085A6.76516,6.76516,0,0,0,532.57346,296.29437Z" transform="translate(-294.16565 -19.32211)"/><path class="cls-69" d="M528.00724,317.02722a6.58735,6.58735,0,0,0,4.54595,1.93023c4.49015.00734,8.14294-5.06228,8.14735-11.32346a13.15043,13.15043,0,0,0-3.231-8.99762C531.32727,301.35254,527.27151,309.05933,528.00724,317.02722Z" transform="translate(-294.16565 -19.32211)"/><path class="cls-57" d="M596.593,266.88962c-5.68024-.00587-10.28816-1.82273-10.2911-4.0584.00294-2.236,4.61352-4.05135,10.30256-4.04577,5.68345.00294,10.29255,1.82272,10.29549,4.06427C606.89993,265.08833,602.285,266.8952,596.593,266.88962Z" transform="translate(-294.16565 -19.32211)"/><path class="cls-57" d="M481.12652,264.654c-5.26758.00146-9.53979-1.68792-9.53392-3.76176-.00147-2.075,4.27368-3.75883,9.541-3.74737,5.27463.00587,9.54685,1.69232,9.54538,3.76469C490.679,262.98306,486.4038,264.661,481.12652,264.654Z" transform="translate(-294.16565 -19.32211)"/><path class="cls-56" d="M540.66177,356.34008c-.00441,6.26147-3.65544,11.33814-8.14588,11.32963-4.50865-.00294-8.15116-5.08108-8.14265-11.34109.01-6.26118,3.651-11.33227,8.15851-11.32933C537.02483,345.0081,540.66735,350.0833,540.66177,356.34008Z" transform="translate(-294.16565 -19.32211)"/><path class="cls-70" d="M526.47117,363.86771c1.48732,2.31615,3.627,3.802,6.04472,3.802,4.49044.00851,8.14147-5.06816,8.14588-11.32963a13.27593,13.27593,0,0,0-3.09769-8.84695C532.45715,349.89974,527.70884,356.10658,526.47117,363.86771Z" transform="translate(-294.16565 -19.32211)"/><path class="cls-56" d="M532.53175,344.99929c-4.50747-.00294-8.14852,5.06815-8.15851,11.32933a13.96215,13.96215,0,0,0,2.09793,7.53909c1.23767-7.76113,5.986-13.968,11.09291-16.37458A6.85411,6.85411,0,0,0,532.53175,344.99929Z" transform="translate(-294.16565 -19.32211)"/><path class="cls-56" d="M540.62448,402.59991c-.00442,6.25854-3.65428,11.33374-8.14706,11.32963-4.499-.00587-8.14735-5.08548-8.13707-11.34813.00118-6.25413,3.651-11.32787,8.1541-11.32229C536.98753,391.265,540.623,396.33873,540.62448,402.59991Z" transform="translate(-294.16565 -19.32211)"/><path class="cls-71" d="M526.1387,409.62707c1.49554,2.60163,3.76146,4.2966,6.33872,4.30247,4.49278.00411,8.14264-5.07109,8.14706-11.32963a14.09326,14.09326,0,0,0-1.84418-7.11028c-1.02268.264-2.0897.58389-3.19667.97951C532.93471,396.58691,526.88294,402.38786,526.1387,409.62707Z" transform="translate(-294.16565 -19.32211)"/><path class="cls-56" d="M532.49445,391.25912c-4.50307-.00558-8.15292,5.06816-8.1541,11.32229a14.16019,14.16019,0,0,0,1.79835,7.04566c.74424-7.23921,6.796-13.04016,9.44493-13.15793,1.107-.39562,2.174-.71547,3.19667-.97951C537.2874,392.93,535.04439,391.25912,532.49445,391.25912Z" transform="translate(-294.16565 -19.32211)"/><path class="cls-72" d="M581.9953,405.46822c-2.12083,5.88407-7.25947,9.37474-11.47853,7.80577-4.22757-1.57748-5.93576-7.61515-3.809-13.49481,2.11966-5.877,7.2539-9.36328,11.48-7.79725C582.40973,393.55941,584.1135,399.59561,581.9953,405.46822Z" transform="translate(-294.16565 -19.32211)"/><path class="cls-73" d="M574.12228,391.94756c-3.05335.90637-5.94868,3.77733-7.41456,7.83162-2.12671,5.87966-.41852,11.91733,3.809,13.49481a6.14378,6.14378,0,0,0,3.19667.27109C579.1314,410.32109,581.9768,395.83826,574.12228,391.94756Z" transform="translate(-294.16565 -19.32211)"/><path class="cls-72" d="M629.64347,285.067c-1.67646,4.66226-5.74806,7.42131-9.09659,6.181-3.34852-1.248-4.69809-6.0362-3.01869-10.68553,1.682-4.65668,5.75366-7.42161,9.09924-6.17395C629.97183,275.63054,631.32258,280.41762,629.64347,285.067Z" transform="translate(-294.16565 -19.32211)"/><path class="cls-74" d="M624.68575,274.13764c-2.85245.15038-5.788,2.64011-7.15756,6.42478-1.65943,4.602-.35157,9.31717,2.91824,10.625C623.92271,290.24965,630.39183,281.4356,624.68575,274.13764Z" transform="translate(-294.16565 -19.32211)"/><path class="cls-72" d="M609.82257,341.09156c-1.73667,4.82-5.94721,7.678-9.41056,6.396-3.466-1.29788-4.86873-6.24561-3.13205-11.06706,1.74107-4.82,5.966-7.68241,9.42348-6.393C610.16533,331.31651,611.55924,336.26718,609.82257,341.09156Z" transform="translate(-294.16565 -19.32211)"/><path class="cls-75" d="M603.55846,329.947c-2.56551.67111-5.04642,3.06333-6.2785,6.47352-1.73668,4.82145-.33395,9.76918,3.13205,11.06706.0044-.00734.00734-.00734.01439-.00734C608.925,343.02589,607.87092,330.65978,603.55846,329.947Z" transform="translate(-294.16565 -19.32211)"/><path class="cls-56" d="M465.81456,287.63393c-.00293,5.74484-3.34852,10.38566-7.47182,10.3886-4.12419-.007-7.463-4.65785-7.45568-10.39712.01-5.73809,3.35439-10.38743,7.4686-10.383C462.486,277.24386,465.82161,281.90024,465.81456,287.63393Z" transform="translate(-294.16565 -19.32211)"/><path class="cls-76" d="M455.92937,297.41015a5.67282,5.67282,0,0,0,2.41337.61238c4.1233-.00294,7.46889-4.64376,7.47182-10.3886a11.62316,11.62316,0,0,0-3.60815-8.86575C455.80161,282.47384,451.63131,290.42029,455.92937,297.41015Z" transform="translate(-294.16565 -19.32211)"/><path class="cls-56" d="M450.88706,287.62541c-.00587,4.553,2.10792,8.37937,5.04231,9.78474-4.29806-6.98986-.12776-14.93631,6.277-18.642a5.96034,5.96034,0,0,0-3.85075-1.52579C454.24145,277.238,450.89705,281.88732,450.88706,287.62541Z" transform="translate(-294.16565 -19.32211)"/><path class="cls-56" d="M465.78314,332.28455c-.00735,5.7378-3.35439,10.386-7.47888,10.383-4.1145-.00147-7.45743-4.65521-7.4545-10.39742.00706-5.73192,3.35146-10.38713,7.47447-10.37714C462.44872,321.89155,465.78431,326.55116,465.78314,332.28455Z" transform="translate(-294.16565 -19.32211)"/><path class="cls-77" d="M456.56465,342.35772a5.50971,5.50971,0,0,0,1.73961.30986c4.12449.00293,7.47153-4.64523,7.47888-10.383a11.52789,11.52789,0,0,0-3.73592-8.95444C456.688,326.80345,454.10518,334.50319,456.56465,342.35772Z" transform="translate(-294.16565 -19.32211)"/><path class="cls-56" d="M450.84976,332.27016c-.00293,4.90486,2.44362,8.98323,5.71489,10.08756-2.45947-7.85453.12336-15.55427,5.48257-19.02761a5.84361,5.84361,0,0,0-3.723-1.43709C454.20122,321.883,450.85682,326.53824,450.84976,332.27016Z" transform="translate(-294.16565 -19.32211)"/><path class="cls-56" d="M465.74437,374.68659c-.00294,5.73926-3.35028,10.38742-7.47036,10.383-4.12742-.00147-7.46595-4.65785-7.45861-10.39448.00558-5.73486,3.35-10.3886,7.48005-10.38272C462.41,364.29652,465.75288,368.94732,465.74437,374.68659Z" transform="translate(-294.16565 -19.32211)"/><path class="cls-78" d="M454.31018,383.45776a6.02469,6.02469,0,0,0,3.96383,1.61185c4.12008.0044,7.46742-4.64376,7.47036-10.383a12.31718,12.31718,0,0,0-2.56139-7.78433C455.78164,365.14415,452.85605,376.22413,454.31018,383.45776Z" transform="translate(-294.16565 -19.32211)"/><path class="cls-41" d="M574.77313,282.008a27.43835,27.43835,0,0,1-8.34208,3.44456,45.56906,45.56906,0,0,1-17.87452.86055,27.4995,27.4995,0,0,1-8.63049-2.6589c6.02035-.22938,11.66651-.40737,17.42868-.69549l8.62021-.43322Z" transform="translate(-294.16565 -19.32211)"/><path class="cls-52" d="M440.702,277.24679a14.61376,14.61376,0,0,1,2.71059-8.31358,13.82767,13.82767,0,0,1,7.404-5.13835,18.3443,18.3443,0,0,1,9.08661.09017l8.52711,1.70818c11.37544,2.27591,22.68481,4.84729,33.99388,7.41867,11.29085,2.65743,22.57143,5.32191,33.79475,8.27892,2.72174.75717,5.76657,1.31668,8.50977,2.81369a24.505,24.505,0,0,1,7.06592,5.65057c3.819,4.5991,6.20833,10.509,5.788,16.36165a23.7685,23.7685,0,0,0-7.16344-15.09109,22.54654,22.54654,0,0,0-6.7502-4.75272c-2.45242-1.17158-5.22293-1.50729-8.11562-2.1226-11.37515-2.28-22.68158-4.8514-33.988-7.42277-11.29086-2.66155-22.57291-5.33044-33.79181-8.28774l-8.41109-2.2157a16.54475,16.54475,0,0,0-8.1171-.618,12.38831,12.38831,0,0,0-7.05124,3.958A15.48493,15.48493,0,0,0,440.702,277.24679Z" transform="translate(-294.16565 -19.32211)"/><path class="cls-45" d="M557.58264,306.11671c-.63528-8.95885,4.30658-18.01814,12.00191-23.254A23.99111,23.99111,0,0,1,575.876,279.881l6.24415-2.21423,12.53557-4.28073c8.38789-2.74055,16.77608-5.47964,25.26148-7.935,4.27368-1.48262,9.805-1.55428,13.6957,1.43709,3.87924,2.98433,5.289,7.95791,4.82291,12.30884-.38-4.36826-2.25447-8.74063-5.87554-10.76278-3.51769-2.18281-7.85746-1.85738-11.71379-.198-8.2704,3.11473-16.62834,5.95015-24.99626,8.77235l-12.59138,4.0772-6.33167,1.96311a26.36544,26.36544,0,0,0-5.80506,2.29618,26.73471,26.73471,0,0,0-9.0637,8.68336A25.8933,25.8933,0,0,0,557.58264,306.11671Z" transform="translate(-294.16565 -19.32211)"/><path class="cls-51" d="M557.58264,306.11671c.776,9.39471,1.13722,18.78648,1.43415,28.183.34569,9.3947.383,18.78647.42294,28.18147-.04729,9.39618-.11044,18.79235-.46317,28.183l-.54481,14.0972c-.31692,4.69368-.51077,9.38766-.94515,14.09132-.43028-4.7022-.61385-9.39764-.92781-14.09426l-.51634-14.09573c-.34128-9.38913-.383-18.7853-.41735-28.18.0558-9.39911.11632-18.79675.46758-28.18441C556.41106,324.90172,556.78376,315.51,557.58264,306.11671Z" transform="translate(-294.16565 -19.32211)"/></g></g></svg>