<svg id="Capa_1" enable-background="new 0 0 512 512" viewBox="0 0 512 512" xmlns="http://www.w3.org/2000/svg" xmlns:xlink="http://www.w3.org/1999/xlink"><linearGradient id="lg1"><stop offset="0" stop-color="#d7d1eb"/><stop offset="1" stop-color="#f2effa"/></linearGradient><linearGradient id="SVGID_1_" gradientUnits="userSpaceOnUse" x1="317.956" x2="335.392" xlink:href="#lg1" y1="142.042" y2="142.042"/><linearGradient id="lg2"><stop offset="0" stop-color="#7662bd"/><stop offset="1" stop-color="#7662bd" stop-opacity="0"/></linearGradient><linearGradient id="SVGID_00000138545031961244124850000014335392920222131075_" gradientUnits="userSpaceOnUse" x1="326.231" x2="317.528" xlink:href="#lg2" y1="50.567" y2="148.331"/><linearGradient id="SVGID_00000056425225203621364900000001409481558115656852_" gradientUnits="userSpaceOnUse" x1="316.089" x2="336.626" y1="73.163" y2="73.163"><stop offset="0" stop-color="#594a8e"/><stop offset=".1603" stop-color="#5f4f98"/><stop offset=".6898" stop-color="#705db3"/><stop offset="1" stop-color="#7662bd"/></linearGradient><linearGradient id="SVGID_00000137112426042699074820000008162537477966145193_" gradientUnits="userSpaceOnUse" x1="333.921" x2="314.421" y1="36.562" y2="36.562"><stop offset="0" stop-color="#594a8e"/><stop offset="1" stop-color="#7662bd"/></linearGradient><linearGradient id="SVGID_00000111873677040184423970000007099017829682061734_" gradientUnits="userSpaceOnUse" x1="247.364" x2="247.364" xlink:href="#lg1" y1="372.046" y2="542.399"/><linearGradient id="SVGID_00000022539336308893618210000017905534604443433133_" gradientUnits="userSpaceOnUse" x1="198.024" x2="134.579" xlink:href="#lg2" y1="215.172" y2="466.102"/><linearGradient id="SVGID_00000031914923035382340420000016032559989693403051_" gradientUnits="userSpaceOnUse" x1="298.406" x2="350.518" xlink:href="#lg1" y1="236.774" y2="441.275"/><linearGradient id="SVGID_00000091007421512808737510000014727976444636955543_" gradientUnits="userSpaceOnUse" x1="118.031" x2="272.259" y1="371.398" y2="104.265"><stop offset="0" stop-color="#594a8e"/><stop offset=".2561" stop-color="#5c4d91"/><stop offset=".4527" stop-color="#64549b"/><stop offset=".6295" stop-color="#7262ab"/><stop offset=".7946" stop-color="#8675c2"/><stop offset=".9503" stop-color="#9f8de0"/><stop offset="1" stop-color="#a996eb"/></linearGradient><g><g><path d="m374.765 59.269h-100.689v136.018h.009c.025 1.091.568 2.172 1.648 2.795l44.155 25.493c2.861 1.652 6.385 1.652 9.246 0l43.974-25.388c1.115-.644 1.663-1.774 1.654-2.9h.004v-136.018z" fill="url(#SVGID_1_)"/><path d="m274.076 59.269v64.827h43.055c6.745 0 13.258-2.46 18.318-6.919l39.316-34.644v-23.264z" fill="url(#SVGID_00000138545031961244124850000014335392920222131075_)"/><g><path d="m386.759 36.562h-124.677v36.641h.012c.03 1.35.703 2.689 2.04 3.461l54.674 31.566c3.542 2.045 7.907 2.045 11.449 0l54.45-31.437c1.38-.797 2.06-2.197 2.047-3.591h.005z" fill="url(#SVGID_00000056425225203621364900000001409481558115656852_)"/><path d="m318.696 1.525-54.556 31.387c-2.741 1.577-2.744 5.53-.006 7.111l54.675 31.567c3.542 2.045 7.907 2.045 11.449 0l54.45-31.437c2.736-1.58 2.736-5.529 0-7.108l-54.579-31.511c-3.537-2.042-7.893-2.046-11.433-.009z" fill="#a996eb"/><path d="m320.53 12.751-37.076 21.33c-1.863 1.072-1.865 3.758-.004 4.833l37.156 21.452c2.407 1.39 5.374 1.39 7.781 0l37.004-21.364c1.859-1.073 1.859-3.757 0-4.831l-37.091-21.414c-2.403-1.388-5.364-1.39-7.77-.006z" fill="url(#SVGID_00000137112426042699074820000008162537477966145193_)"/><path d="m320.53 29.131-27.06 15.568 27.136 15.667c2.407 1.39 5.374 1.39 7.781 0l27.001-15.589-27.088-15.64c-2.403-1.387-5.365-1.39-7.77-.006z" fill="#43386b"/></g></g><path d="m95.524 221.804v190.032c0 6.353 2.167 10.779 5.567 12.581l-.001.003 150.163 86.674 147.952-278.587z" fill="url(#SVGID_00000111873677040184423970000007099017829682061734_)"/><path d="m95.524 221.804v178.276l105.934 8.26c15.433 1.203 30.866-2.327 44.241-10.121l49.691-169.371z" fill="url(#SVGID_00000022539336308893618210000017905534604443433133_)"/><path d="m416.477 228.54-85.389-21.319-85.389 101.263v190.032c0 11.335 6.891 16.544 15.392 11.636l139.994-80.825c8.501-4.908 15.392-18.075 15.392-29.41z" fill="url(#SVGID_00000031914923035382340420000016032559989693403051_)"/><path d="m345.686 155.221-150.718-87.04-.014.028c-8.479-4.823-21.267 3.033-29.302 18.387l-96.416 184.219c-8.428 16.104-8.428 34.323 0 40.695.67.506 1.382.89 2.112 1.219l148.063 85.489z" fill="url(#SVGID_00000091007421512808737510000014727976444636955543_)"/><g><path d="m427.503 286.506c-5.523 3.189-11.047 3.569-15.261.382l-81.154-61.35-81.155 155.059c-8.428 16.105-22.094 23.993-30.521 17.622-8.428-6.372-8.428-24.591 0-40.695l96.416-184.219c8.427-16.103 22.093-23.993 30.521-17.622l96.415 72.888c8.428 6.372 8.428 24.591 0 40.695-4.214 8.053-9.738 14.051-15.261 17.24z" fill="#7662bd"/></g><g fill="#43386b"><path d="m324.421 297.069-32.566 18.802v43.421l32.566-18.801z"/><path d="m291.855 377.071v43.421l32.566-18.802v-43.421z"/><path d="m337.755 393.992 32.565-18.802v-43.421l-32.565 18.802z"/><path d="m337.755 289.371v43.421l32.565-18.802v-43.421z"/></g></g><g/><g/><g/><g/><g/><g/><g/><g/><g/><g/><g/><g/><g/><g/><g/></svg>