<?xml version="1.0" encoding="utf-8"?>
<!-- Generator: Adobe Illustrator 26.5.0, SVG Export Plug-In . SVG Version: 6.00 Build 0)  -->
<svg  width="65" height="65" version="1.1" id="Layer_1" xmlns="http://www.w3.org/2000/svg" xmlns:xlink="http://www.w3.org/1999/xlink" x="0px" y="0px"
	 viewBox="0 0 73.252258 73.376068" style="enable-background:new 0 0 73.252258 73.376068;" xml:space="preserve">
<style type="text/css">
	.st0{display:none;}
	.st1{fill:url(#SVGID_1_);}
	.st2{fill:url(#SVGID_00000106117082613023546050000007531269605410551430_);}
	.st3{fill:url(#SVGID_00000090268305191910562750000006977069727455145660_);}
	.st4{fill:url(#SVGID_00000086675696440706139320000013061179939915926423_);}
	.st5{fill:url(#SVGID_00000096781907134973668590000014911933946455049860_);}
	.st6{fill:url(#SVGID_00000053509940915580708330000015751219723776207764_);}
	.st7{fill:url(#SVGID_00000024692215875970110350000013751852434803319456_);}
	.st8{opacity:0.74;fill:#552E8D;enable-background:new    ;}
	.st9{fill:url(#SVGID_00000093152557701272376440000013048350800946775466_);}
	.st10{fill:#FDD8BF;}
	.st11{opacity:0.74;fill:#F4858A;enable-background:new    ;}
	.st12{fill:#FFFFFF;}
	.st13{opacity:0.5;fill:#CA2A90;enable-background:new    ;}
	.st14{fill:#622468;}
	.st15{fill:#100D17;}
	.st16{fill:#A54092;}
	.st17{fill:url(#SVGID_00000052784650464146282890000003340076466970807201_);}
	.st18{fill:url(#SVGID_00000085250952692907624110000012945739614210035094_);}
	.st19{opacity:0.5;fill:#972168;enable-background:new    ;}
	.st20{fill:#FEC867;}
	.st21{opacity:0.5;fill:#C37BB4;enable-background:new    ;}
	.st22{opacity:0.2;fill:#ADA7D3;enable-background:new    ;}
	.st23{opacity:0.74;fill:#CA2A90;enable-background:new    ;}
	.st24{opacity:0.17;fill:#A6DDE8;enable-background:new    ;}
	.st25{opacity:0.74;fill:#AB2A90;enable-background:new    ;}
	.st26{fill:#7653A2;}
	.st27{opacity:0.17;fill:#FFFFFF;enable-background:new    ;}
	.st28{opacity:0.5;fill:#FFFFFF;enable-background:new    ;}
	.st29{fill:url(#SVGID_00000034801593576059854200000009601290020787579055_);}
	.st30{opacity:0.5;fill:#967667;enable-background:new    ;}
	.st31{fill:url(#SVGID_00000118387905671060541230000017612328643484922784_);}
	.st32{opacity:0.5;fill:#622468;enable-background:new    ;}
</style>
<g id="Layer_1_00000016753441884565294130000015968277322992489622_" class="st0">
</g>
<g id="Layer_2_00000086679352712432207500000012081163020593053583_">
	
		<linearGradient id="SVGID_1_" gradientUnits="userSpaceOnUse" x1="15.194944" y1="832.079834" x2="5.860521" y2="798.264465" gradientTransform="matrix(1 0 0 1 0 -766.550415)">
		<stop  offset="0" style="stop-color:#170E39"/>
		<stop  offset="1" style="stop-color:#230F48"/>
	</linearGradient>
	<path class="st1" d="M13.332294,66.039162c0,0,2.664978-0.600006,4.424009-2.309998
		c2.23999-2.143005-6.216002-13.253006-8.023986-19.014008c-2.450013-7.787994,2.434999-14.742004,2.434999-14.742004
		l-2.93103,0.917007c0,0-6.125,5.419998-5.743958,13.996002C3.86629,53.438164,8.926288,64.669151,13.332294,66.039162z"/>
	
		<linearGradient id="SVGID_00000101808507216579275430000011579992150371604403_" gradientUnits="userSpaceOnUse" x1="13.149539" y1="832.654114" x2="3.664544" y2="798.297546" gradientTransform="matrix(1 0 0 1 0 -766.550415)">
		<stop  offset="0" style="stop-color:#3B296F"/>
		<stop  offset="1" style="stop-color:#492D84"/>
	</linearGradient>
	<path style="fill:url(#SVGID_00000101808507216579275430000011579992150371604403_);" d="M9.397296,31.580162l-1.070984-1.12001
		c0,0-5.583984,5.10701-5.871033,13.73201C2.16231,52.792152,8.553302,67.956154,13.35628,66.031151
		c4.783996-1.891998-6.063965-14.274994-6.782959-22.104996C5.972308,37.805153,9.397296,31.580162,9.397296,31.580162z
		 M12.239276,63.563164c-1.393982,0.765991-4.743958-3.480011-7.537964-12.615005
		c-2.794006-9.136002,1.031982-13.811996,1.031982-13.811996s-1.182983,3.701996,0.112976,9.875992
		C7.168292,53.179161,14.651324,62.244164,12.239276,63.563164z"/>
	
		<linearGradient id="SVGID_00000158726423189134430020000014766378071654121130_" gradientUnits="userSpaceOnUse" x1="21.96867" y1="809.354126" x2="14.356721" y2="781.781372" gradientTransform="matrix(1 0 0 1 0 -766.550415)">
		<stop  offset="0" style="stop-color:#271D5D"/>
		<stop  offset="1" style="stop-color:#492D84"/>
	</linearGradient>
	<path style="fill:url(#SVGID_00000158726423189134430020000014766378071654121130_);" d="M12.26131,15.929161
		c-12.890991,5.354996-4.90503,29.059998,8.002013,27.21199C39.171284,40.452156,29.349321,8.817162,12.26131,15.929161z"/>
	
		<linearGradient id="SVGID_00000142134247154142830190000003086814605796042628_" gradientUnits="userSpaceOnUse" x1="25.437397" y1="808.862244" x2="17.493055" y2="780.08374" gradientTransform="matrix(1 0 0 1 0 -766.550415)">
		<stop  offset="0" style="stop-color:#271D5D"/>
		<stop  offset="1" style="stop-color:#492D84"/>
	</linearGradient>
	<path style="fill:url(#SVGID_00000142134247154142830190000003086814605796042628_);" d="M11.644305,16.155159
		c0,0,5.026-1.904999,11.601989-4.210007l8.67798,28.576004c0,0-9.377991,2.507004-13.210999,2.722L11.644305,16.155159z"/>
	
		<linearGradient id="SVGID_00000163775752853052664300000010191026636202570372_" gradientUnits="userSpaceOnUse" x1="42.796829" y1="807.938171" x2="32.963718" y2="772.318298" gradientTransform="matrix(1 0 0 1 0 -766.550415)">
		<stop  offset="0" style="stop-color:#3B296F"/>
		<stop  offset="1" style="stop-color:#492D84"/>
	</linearGradient>
	<path style="fill:url(#SVGID_00000163775752853052664300000010191026636202570372_);" d="M29.758318,6.853157
		c-17.545044,7.429001-7.322998,37.457001,10.356997,35.052994C66.974319,38.248161,53.905293-3.377846,29.758318,6.853157z"/>
	
		<linearGradient id="SVGID_00000129177040199454478640000012384436993528122555_" gradientUnits="userSpaceOnUse" x1="46.474064" y1="807.925781" x2="36.070362" y2="770.239014" gradientTransform="matrix(1 0 0 1 0 -766.550415)">
		<stop  offset="0" style="stop-color:#3B296F"/>
		<stop  offset="1" style="stop-color:#492D84"/>
	</linearGradient>
	<path style="fill:url(#SVGID_00000129177040199454478640000012384436993528122555_);" d="M26.325274,8.808159
		c0,0,6.519045-4.384995,20.065004-7.960999l10.452026,37.666c0,0-14.530029,3.957001-19.913025,3.483002L26.325274,8.808159z"/>
	
		<linearGradient id="SVGID_00000097488659845930563840000013670452889252368801_" gradientUnits="userSpaceOnUse" x1="56.823616" y1="805.206726" x2="46.38752" y2="767.40332" gradientTransform="matrix(1 0 0 1 0 -766.550415)">
		<stop  offset="0" style="stop-color:#592B81"/>
		<stop  offset="1" style="stop-color:#623C97"/>
	</linearGradient>
	<path style="fill:url(#SVGID_00000097488659845930563840000013670452889252368801_);" d="M44.556293,1.407158
		c-18.362001,6.539001-6.721008,41.018997,11.015991,37.537994C78.503311,34.466164,66.016312-6.23185,44.556293,1.407158z"/>
	<path class="st8" d="M46.053303,5.241158c-14.343018,5.128997-5.156006,32.395004,8.718018,29.708008
		C72.691299,31.44416,62.824299-0.74984,46.053303,5.241158z"/>
	
		<linearGradient id="SVGID_00000071528375735969931170000017111256292369591990_" gradientUnits="userSpaceOnUse" x1="55.482777" y1="800.365845" x2="47.720284" y2="772.24762" gradientTransform="matrix(1 0 0 1 0 -766.550415)">
		<stop  offset="0" style="stop-color:#F8ED3D"/>
		<stop  offset="0.050764" style="stop-color:#FAEE46"/>
		<stop  offset="0.3041" style="stop-color:#FED93C"/>
		<stop  offset="0.5512" style="stop-color:#FFC33E"/>
		<stop  offset="0.7872" style="stop-color:#FCB53E"/>
		<stop  offset="1" style="stop-color:#FBB03E"/>
	</linearGradient>
	<path style="fill:url(#SVGID_00000071528375735969931170000017111256292369591990_);" d="M46.349323,6.11216
		c-13.655029,4.858002-4.998047,30.5,8.19696,27.918991C71.618301,30.707161,62.332294,0.420158,46.349323,6.11216z"/>
	<path class="st10" d="M43.559284,15.345161c-6.08197,2.222992-1.906006,14.787003,3.993042,13.675995
		C55.194294,27.619164,50.682331,12.753151,43.559284,15.345161z"/>
	<path class="st11" d="M43.71529,19.84716c-2.674988,0.957001-0.909973,6.265991,1.700012,5.763992
		C48.747272,24.963158,46.839314,18.74015,43.71529,19.84716z"/>
	<path class="st12" d="M44.669331,19.448158c-2.669006,0.981995-0.841003,6.518997,1.768982,6.016006
		C49.777302,24.842155,47.811298,18.309151,44.669331,19.448158z"/>
	<path class="st13" d="M9.402301,28.340157c-1.590027,0.847,0.031006,7.014008,1.98999,7.208008
		c1.958008,0.194,10.565-2.345001,10.335998-2.881012c-0.885986-2.123001-1.687012-6.011993-2.286011-6.30899
		C17.741289,25.521156,11.607318,27.160164,9.402301,28.340157z"/>
	<path class="st14" d="M8.8763,31.370155c-0.028015-2.169998,1.854004-3.042999,5.716002-4.136002
		c3.862-1.093994,5.452024,0.427002,5.452024,0.427002s-0.372009-1.447998-0.672058-1.746994
		c-0.299988-0.298004-9.33496,1.679001-10.270995,2.427002C8.132281,29.072151,8.8763,31.370155,8.8763,31.370155z"/>
	<path class="st15" d="M11.961322,30.519157c0,0,7.092956-2.503006,7.559997-0.807999
		c0.488953,1.770004-6.820005,2.998001-7.817992,3.028992C10.730304,32.763161,10.098285,31.659157,11.961322,30.519157z"/>
	<path class="st16" d="M16.019304,33.80616c0,0,1.703979,0.455002,4.20697-0.236008
		c2.504028-0.690994-0.371948-6.673996-0.690979-6.939987c-0.317993-0.266006-0.619995-0.373001-0.619995-0.373001
		L16.019304,33.80616z"/>
	
		<linearGradient id="SVGID_00000005228409869873811740000001769042694789362311_" gradientUnits="userSpaceOnUse" x1="20.192581" y1="799.376953" x2="15.71895" y2="793.08905" gradientTransform="matrix(1 0 0 1 0 -766.550415)">
		<stop  offset="0" style="stop-color:#A31E22"/>
		<stop  offset="0.5531" style="stop-color:#D55327"/>
		<stop  offset="1" style="stop-color:#F37021"/>
	</linearGradient>
	<path style="fill:url(#SVGID_00000005228409869873811740000001769042694789362311_);" d="M15.52431,26.677162
		c0,0,2.747008-0.893997,3.516967-0.372009c0.369019,0.251999,1.707031,5.789001,1.632019,6.109009
		c-0.075012,0.319992-2.109009,1.235001-3.143982,1.330002C16.526323,33.858162,15.52431,26.677162,15.52431,26.677162z"/>
	
		<linearGradient id="SVGID_00000113330812036493221720000003056790711956825506_" gradientUnits="userSpaceOnUse" x1="18.959053" y1="799.938965" x2="14.496778" y2="793.667236" gradientTransform="matrix(1 0 0 1 0 -766.550415)">
		<stop  offset="0" style="stop-color:#F8961D"/>
		<stop  offset="1" style="stop-color:#FBA919"/>
	</linearGradient>
	<path style="fill:url(#SVGID_00000113330812036493221720000003056790711956825506_);" d="M13.88631,27.621162
		c-0.632019,0.963989,0.846985,5.237,1.61499,5.949997c0.794005,0.705994,3.575988-0.061996,3.882995-0.528
		c0.307007-0.464996-1.60498-6.306-1.778992-6.639008C17.432329,26.071159,14.401324,26.826164,13.88631,27.621162z"/>
	<path class="st12" d="M17.498308,26.349159c0,0,1.33197-0.205002,1.546997-0.018997
		c0.20697,0.160995-0.61499,0.631989-0.900024,0.68399C17.84627,27.01516,17.814287,26.506157,17.498308,26.349159z"/>
	<path class="st19" d="M19.404314,33.037163c0,0,0.119995-0.55101-0.057007-1.291
		c-0.171021-0.715012,0.95697-0.673004,1.015015-0.661011c0.057007,0.011002,0.414978,1.110001,0.274963,1.393005
		C20.480303,32.794151,19.404314,33.037163,19.404314,33.037163z"/>
	<path class="st20" d="M13.785296,29.062157c0,0-0.140991-1.104004,0.262024-1.514999
		c0.589966-0.625,2.950988-1.141006,3.270995-1.065994c0.320007,0.074997,0.584961,0.737,0.584961,0.737
		s-0.174988-0.633011-0.307007-0.814011c-0.105957-0.187988-0.942993-0.065994-2.225951,0.315002
		c-1.28302,0.382004-1.525024,0.884003-1.63501,1.078003C13.657306,28.008156,13.785296,29.062157,13.785296,29.062157z"/>
	<path class="st21" d="M30.155291,39.647163c-4.684021-2.871002,9.270021-6.940002,10.281008-6.730011
		c1.036011,0.20401,4.484009,5.104004,10.776978,6.605011C51.245319,39.541161,37.696308,44.288155,30.155291,39.647163z"/>
	<path class="st22" d="M21.400286,24.674156c0.978027,4.330002,12.757998-1.697998,13.342043-2.048996
		c0.582947-0.352005-1.909058-11.449005,4.330994-17.63501c0,0-12.080019,3.961014-15.018007,6.922012
		C21.098284,14.906151,20.602312,21.193153,21.400286,24.674156z"/>
	<path class="st23" d="M9.635272,38.155159c3.058043,2.994003,12.05902,1.488998,15.148009,1.044006
		c3.088989-0.444-2.911987-5.619003-3.867981-14.01001c0,0,1.21698,10.223999,11.01001,15.332001
		c0,0-10.085022,2.511002-11.660034,2.619995C18.714312,43.242165,14.326312,43.909157,9.635272,38.155159z"/>
	<path class="st24" d="M9.630328,38.155159c0,0-3.51001-6.406006-2.037049-13.589996
		c1.474-7.182999,7.79303-9.826004,7.79303-9.826004s-3.452026,1.197998-3.752991,1.389999
		c-0.294006,0.216995-4.335022,2.041-5.723023,8.057007C4.523272,30.203163,9.630328,38.155159,9.630328,38.155159z"/>
	<path class="st24" d="M22.068316,29.36216c0,0-2.127014-7.115005,0.075989-13.330002
		c2.328979-6.548996,7.088989-8.923996,7.088989-8.923996s-2.573975,0.927994-4.870972,3.548996
		C21.718279,13.700157,19.264299,20.093163,22.068316,29.36216z"/>
	<path class="st22" d="M9.20827,23.196159c-0.096985,2.313004,8.022033,0.371002,9.409057-0.718994
		c1.392944-1.065002,3.424988-9.084015,3.770996-9.506012C22.723284,12.607155,9.519305,15.054161,9.20827,23.196159z"/>
	<path class="st25" d="M37.732319,42.047157c0,0,18.109985-1.733002,23.925964-6.496002
		c5.822994-4.737,6.192013-12.567993,6.192013-12.567993s0.700989,10.720001-9.531002,15.259003
		c0,0-3.945007,1.088989-9.148987,2.252991C43.94228,41.667152,38.331318,42.045158,37.732319,42.047157z"/>
	<path class="st26" d="M46.530293,32.025154c0,0,3.611023,3.221008,8.377991,2.449005
		c4.768005-0.770996,6.642029-4.826996,6.642029-4.826996s-1.903992,3.355988-6.345032,4.227997
		C50.765278,34.747154,46.530293,32.025154,46.530293,32.025154z"/>
	<path class="st27" d="M34.976276,16.274162c0,0-2.416992-0.966003-3.055971-2.395004
		c-0.640015-1.429993,4.510012-5.056,4.510012-5.056S35.429279,13.182152,34.976276,16.274162z"/>
	<path class="st27" d="M25.9153,13.630165c-1.140991,0.695999,0.159973,1.071991,1.487976,0.459991
		C28.680315,13.493156,27.752275,12.497154,25.9153,13.630165z"/>
	<path class="st26" d="M39.242329,29.980156c0,0-3.713013-5.561005-3.743042-13.854004
		c-0.029968-8.291992,4.63501-12.192993,4.63501-12.192993s-4.637024,2.722992-5.150024,11.709991
		C34.57729,22.940163,39.242329,29.980156,39.242329,29.980156z"/>
	<path class="st28" d="M47.270283,32.445152c-1.904968-2.167999,3.984009-4.201996,6.862-5.213989
		c2.859009-0.980011,7.487,0.599991,7.487,0.599991s-0.230957,4.391006-7.005981,5.581009
		C49.791279,34.281151,47.270283,32.445152,47.270283,32.445152z"/>
	<path class="st28" d="M18.242327,16.999153c-6.353025,2.325012-4.862,3.193008-1.351013,3.094009
		C20.4023,19.995155,20.563311,16.141151,18.242327,16.999153z"/>
	<path class="st28" d="M54.778278,1.36216c0,0-0.652954,1.377991,1.916016,4.668991
		c2.567993,3.292007,6.270996,1.916,6.270996,1.916S60.040302,3.366158,54.778278,1.36216z"/>
	
		<linearGradient id="SVGID_00000028326638857781425550000004552336148959222948_" gradientUnits="userSpaceOnUse" x1="36.687965" y1="792.046692" x2="34.938778" y2="785.711548" gradientTransform="matrix(1 0 0 1 0 -766.550415)">
		<stop  offset="0" style="stop-color:#492D84"/>
		<stop  offset="1" style="stop-color:#271D5D"/>
	</linearGradient>
	<path style="fill:url(#SVGID_00000028326638857781425550000004552336148959222948_);" d="M35.379292,19.128151
		c-0.960999-0.523987-1.909973,4.419006,0.619995,6.088013C38.514301,26.835152,37.481281,20.235161,35.379292,19.128151z"/>
	<path class="st30" d="M34.389301,21.850151c0.309998,2.800003,2.672974,2.093002,2.494995-0.225998
		c-0.184021-2.343994-1.906006-2.468002-2.052002-2.209991C34.711323,19.666161,34.320332,21.107155,34.389301,21.850151z"/>
	<path class="st27" d="M36.342304,25.367165c-1.163025-0.958008,0.88501-2.313004,0.955017-2.849014
		C37.367329,21.982155,37.858295,26.228157,36.342304,25.367165z"/>
	
		<linearGradient id="SVGID_00000032631518477460193670000014044937758490690489_" gradientUnits="userSpaceOnUse" x1="10.810664" y1="821.732422" x2="9.522639" y2="819.388428" gradientTransform="matrix(1 0 0 1 0 -766.550415)">
		<stop  offset="0" style="stop-color:#170E39"/>
		<stop  offset="1" style="stop-color:#230F48"/>
	</linearGradient>
	<path style="fill:url(#SVGID_00000032631518477460193670000014044937758490690489_);" d="M9.745318,52.742165
		c-0.434998-0.098007-0.429016,1.995987,0.721008,2.413986C11.615314,55.573158,10.687274,52.999153,9.745318,52.742165z"/>
	<path class="st14" d="M9.563312,53.962151c0.333008,1.106003,1.248962,0.580002,0.990967-0.354996
		c-0.257996-0.936005-0.961975-0.822998-1.009949-0.701004C9.496295,53.02816,9.454303,53.665154,9.563312,53.962151z"/>
	<path class="st27" d="M10.611285,55.197151c-0.541992-0.285995,0.179016-1.028992,0.173035-1.245987
		C10.772296,53.710152,11.290301,55.39016,10.611285,55.197151z"/>
	<path class="st14" d="M3.7643,43.09716c-0.309021,4.304001,3.372009,7.778992,3.372009,7.778992
		s-1.97998-3.916992-1.934021-7.00499c0.05304-3.063004,0.419983-6.266998,0.419983-6.266998S3.95827,40.350151,3.7643,43.09716z"/>
	<path class="st14" d="M6.490313,43.349159c0.119995,2.307999,1.984009,3.044998,2.554993,3.240997
		c0.546021,0.203003-0.229004-3.393005-0.241028-5.703003c0.006042-2.641998,0.348022-3.470993,0.348022-3.470993
		l-1.354004-2.048004C7.798296,35.368156,6.330279,39.910164,6.490313,43.349159z"/>
	<path class="st32" d="M13.740314,65.927162c0,0,0.842957-1.186005,0.757996-2.577011
		c-0.085022-1.391998,3.020019-1.97699,3.278014-1.830994c0.257996,0.147003,0.43396,1.376999-0.526001,2.432007
		C16.2773,65.063164,13.740314,65.927162,13.740314,65.927162z"/>
	<path class="st24" d="M7.702288,58.665154c0,0,1.99701,4.674011,3.691041,5.486008
		c1.370972,0.627991,1.310974-1.559998,1.310974-1.559998s0.117004,1.110992-1.04303,1.049988
		C10.16933,63.563164,7.702288,58.665154,7.702288,58.665154z"/>
</g>
</svg>
