<?xml version="1.0" encoding="utf-8"?>
<!-- Generator: Adobe Illustrator 26.5.0, SVG Export Plug-In . SVG Version: 6.00 Build 0)  -->
<svg  width="65" height="65" version="1.1" id="Layer_1" xmlns="http://www.w3.org/2000/svg" xmlns:xlink="http://www.w3.org/1999/xlink" x="0px" y="0px"
	 viewBox="0 0 73.252258 74.230011" style="enable-background:new 0 0 73.252258 74.230011;" xml:space="preserve">
<style type="text/css">
	.st0{fill:url(#SVGID_1_);}
	.st1{fill:url(#SVGID_00000103959731591485252680000013541992115295767463_);}
	.st2{fill:url(#SVGID_00000001641910435639561210000014370754727019199163_);}
	.st3{fill:url(#SVGID_00000078027594415092472910000017539195293853895043_);}
	.st4{fill:url(#SVGID_00000086677301756168714710000000804226109238818230_);}
	.st5{fill:url(#SVGID_00000111192086896754354340000005458851298850901902_);}
	.st6{fill:url(#SVGID_00000031921955098616318100000017654001042926017932_);}
	.st7{opacity:0.74;fill:#552E8D;enable-background:new    ;}
	.st8{fill:url(#SVGID_00000161598203835108518490000011831964967719331478_);}
	.st9{fill:url(#SVGID_00000055672081375397407580000010156376125805434031_);}
	.st10{opacity:0.74;fill:#7A60A9;enable-background:new    ;}
	.st11{fill:#DCC4DF;}
	.st12{opacity:0.5;fill:#CA2A90;enable-background:new    ;}
	.st13{fill:#622468;}
	.st14{fill:#A54092;}
	.st15{fill:#100D17;}
	.st16{fill:url(#SVGID_00000044883625827379280030000007996465936442457522_);}
	.st17{fill:url(#SVGID_00000163756137820183965340000018355310668324007853_);}
	.st18{fill:#FFFFFF;}
	.st19{opacity:0.5;fill:#972168;enable-background:new    ;}
	.st20{fill:#FEC867;}
	.st21{opacity:0.5;fill:#C37BB4;enable-background:new    ;}
	.st22{opacity:0.2;fill:#ADA7D3;enable-background:new    ;}
	.st23{opacity:0.74;fill:#CA2A90;enable-background:new    ;}
	.st24{opacity:0.1;fill:#A6DDE8;enable-background:new    ;}
	.st25{opacity:0.74;fill:#A17FB9;enable-background:new    ;}
	.st26{opacity:0.5;fill:#A17FB9;enable-background:new    ;}
	.st27{opacity:0.74;fill:#AB2A90;enable-background:new    ;}
	.st28{fill:#7653A2;}
	.st29{opacity:0.1;fill:#FFFFFF;enable-background:new    ;}
	.st30{opacity:0.5;fill:#FFFFFF;enable-background:new    ;}
	.st31{fill:url(#SVGID_00000098919164428583642340000010576624612541342629_);}
	.st32{opacity:0.5;fill:#967667;enable-background:new    ;}
	.st33{fill:url(#SVGID_00000159443483620187706220000008056081113426531993_);}
	.st34{opacity:0.5;fill:#622468;enable-background:new    ;}
</style>
<linearGradient id="SVGID_1_" gradientUnits="userSpaceOnUse" x1="8.82344" y1="11.912929" x2="8.82344" y2="45.297981" gradientTransform="matrix(1 0 0 -1 0 75.339447)">
	<stop  offset="0" style="stop-color:#170E39"/>
	<stop  offset="1" style="stop-color:#230F48"/>
</linearGradient>
<path class="st0" d="M6.993146,63.422462c0,0,2.596008,0.123993,4.643981-0.999008
	c2.596008-1.397995-2.346985-13.731995-2.546997-19.473999c-0.274963-7.764999,5.967041-12.907988,5.967041-12.907988
	l-2.921021,0.098999c0,0-6.991027,3.420988-8.812988,11.384993C1.475141,49.465462,3.273114,61.050468,6.993146,63.422462z"/>
<linearGradient id="SVGID_00000107568296993300563350000000039822695283841421_" gradientUnits="userSpaceOnUse" x1="6.796965" y1="11.901813" x2="6.796965" y2="45.820992" gradientTransform="matrix(1 0 0 -1 0 75.339447)">
	<stop  offset="0" style="stop-color:#3B296F"/>
	<stop  offset="1" style="stop-color:#492D84"/>
</linearGradient>
<path style="fill:url(#SVGID_00000107568296993300563350000000039822695283841421_);" d="M12.098126,30.816462l-0.698975-1.298004
	c0,0-6.416015,3.271009-8.863037,11.109999c-2.44696,7.815002-0.424988,23.344009,4.469055,22.794998
	c4.868957-0.523987-1.947021-14.630997-0.624023-21.995987C7.379133,35.660454,12.098126,30.816462,12.098126,30.816462z
	 M6.606122,60.877464c-1.473999,0.348999-3.471009-4.419998-3.721009-13.483002
	c-0.248962-9.087997,4.445007-12.408005,4.445007-12.408005s-2.022949,3.096008-2.396973,9.087997
	C4.583173,50.06646,9.152143,60.277458,6.606122,60.877464z"/>
<linearGradient id="SVGID_00000099652391009397238720000005847694042105362048_" gradientUnits="userSpaceOnUse" x1="20.794077" y1="31.044575" x2="20.794077" y2="58.26585" gradientTransform="matrix(1 0 0 -1 0 75.339447)">
	<stop  offset="0" style="stop-color:#271D5D"/>
	<stop  offset="1" style="stop-color:#492D84"/>
</linearGradient>
<path style="fill:url(#SVGID_00000099652391009397238720000005847694042105362048_);" d="M18.68614,17.183466
	c-13.182983,1.647995-11.859985,25.41699,0.448975,26.988997C37.186138,46.494453,36.188152,14.98646,18.68614,17.183466z"/>
<linearGradient id="SVGID_00000171692033171633411890000017732361437521180304_" gradientUnits="userSpaceOnUse" x1="24.087141" y1="30.616982" x2="24.087141" y2="59.029991" gradientTransform="matrix(1 0 0 -1 0 75.339447)">
	<stop  offset="0" style="stop-color:#271D5D"/>
	<stop  offset="1" style="stop-color:#492D84"/>
</linearGradient>
<path style="fill:url(#SVGID_00000171692033171633411890000017732361437521180304_);" d="M18.058149,17.233469
	c0,0,5.093018-0.475006,11.708984-0.924011l0.723999,28.413008c0,0-9.237-0.074997-12.807983-0.848999L18.058149,17.233469z"/>
<linearGradient id="SVGID_00000137125122626475912000000012918448520461665409_" gradientUnits="userSpaceOnUse" x1="40.255238" y1="27.067444" x2="40.255238" y2="62.233761" gradientTransform="matrix(1 0 0 -1 0 75.339447)">
	<stop  offset="0" style="stop-color:#3B296F"/>
	<stop  offset="1" style="stop-color:#492D84"/>
</linearGradient>
<path style="fill:url(#SVGID_00000137125122626475912000000012918448520461665409_);" d="M37.040142,13.289469
	c-17.976988,2.371994-16.203978,32.506989,0.624023,34.778992C63.230145,51.514458,61.782146,10.019464,37.040142,13.289469z"/>
<linearGradient id="SVGID_00000119831728352390812420000005477571003671803298_" gradientUnits="userSpaceOnUse" x1="43.622631" y1="26.148979" x2="43.622631" y2="63.356812" gradientTransform="matrix(1 0 0 -1 0 75.339447)">
	<stop  offset="0" style="stop-color:#3B296F"/>
	<stop  offset="1" style="stop-color:#492D84"/>
</linearGradient>
<path style="fill:url(#SVGID_00000119831728352390812420000005477571003671803298_);" d="M33.38615,14.211466
	c0,0,7.091003-2.372009,20.422974-2.222l0.049988,37.201004c0,0-14.330994-0.050003-19.148987-1.848007L33.38615,14.211466z"/>
<linearGradient id="SVGID_00000067203346316109165130000013586678392863074970_" gradientUnits="userSpaceOnUse" x1="53.819202" y1="26.021036" x2="53.819202" y2="63.343666" gradientTransform="matrix(1 0 0 -1 0 75.339447)">
	<stop  offset="0" style="stop-color:#592B81"/>
	<stop  offset="1" style="stop-color:#623C97"/>
</linearGradient>
<path style="fill:url(#SVGID_00000067203346316109165130000013586678392863074970_);" d="M51.989117,12.040461
	c-18.5,1.348007-16.552979,35.928009,0.598999,37.225998C74.784164,50.964455,73.636154,10.467463,51.989117,12.040461z"/>
<path class="st7" d="M52.385113,15.934458c-14.455994,1.074005-12.932983,28.413008,0.473999,29.460997
	C70.186142,46.71946,69.287155,14.686457,52.385113,15.934458z"/>
<linearGradient id="SVGID_00000098204414065272852670000014233680977380658864_" gradientUnits="userSpaceOnUse" x1="53.822777" y1="30.801746" x2="53.822777" y2="58.563377" gradientTransform="matrix(1 0 0 -1 0 75.339447)">
	<stop  offset="0" style="stop-color:#D0A0C9"/>
	<stop  offset="0.04418" style="stop-color:#CB9CC7"/>
	<stop  offset="0.2992" style="stop-color:#AD85B5"/>
	<stop  offset="0.548" style="stop-color:#9676A6"/>
	<stop  offset="0.7857" style="stop-color:#896C9B"/>
	<stop  offset="1" style="stop-color:#846898"/>
</linearGradient>
<path style="fill:url(#SVGID_00000098204414065272852670000014233680977380658864_);" d="M52.469158,16.809458
	c-13.757019,0.999008-12.309021,26.71501,0.448975,27.689009C69.397141,45.771461,68.548141,15.636469,52.469158,16.809458z"/>
<linearGradient id="SVGID_00000117661216465283139590000013871696611293986203_" gradientUnits="userSpaceOnUse" x1="48.172985" y1="37.167992" x2="48.172985" y2="50.762131" gradientTransform="matrix(1 0 0 -1 0 75.339447)">
	<stop  offset="0" style="stop-color:#E8E5ED"/>
	<stop  offset="0.2771" style="stop-color:#EAE1ED"/>
	<stop  offset="1" style="stop-color:#EDD9EA"/>
</linearGradient>
<path style="fill:url(#SVGID_00000117661216465283139590000013871696611293986203_);" d="M47.574139,24.574457
	c-6.141968,0.5-5.492981,13.083006,0.200012,13.557005C55.114117,38.781456,54.739117,24.000467,47.574139,24.574457z"/>
<path class="st10" d="M46.554119,28.742456c-2.69696,0.200012-2.421997,5.518003,0.098999,5.718
	C49.874126,34.710457,49.699139,28.518457,46.554119,28.742456z"/>
<path class="st11" d="M47.522137,28.618464c-2.695984,0.223999-2.421021,5.766996,0.099976,5.966993
	C50.868145,34.859459,50.693157,28.368464,47.522137,28.618464z"/>
<path class="st12" d="M12.911115,27.84347c-1.671997,0.375-1.746948,6.441984,0,7.115995
	c1.748047,0.673996,10.287049,0.524002,10.212037-0.025009c-0.275024-2.171997-0.025024-5.941999-0.499023-6.366987
	C21.300154,27.369455,15.233136,27.319468,12.911115,27.84347z"/>
<path class="st13" d="M11.670148,30.491465c0.523987-1.997009,2.471985-2.322006,6.291993-2.347
	c3.820007-0.025009,4.893005,1.772995,4.893005,1.772995s0.025024-1.423004-0.174011-1.772995
	c-0.200012-0.348999-8.989015-0.824005-10.036988-0.374008C11.570172,28.194468,11.670148,30.491465,11.670148,30.491465z"/>
<path class="st14" d="M13.089154,34.535454c0,0,1.448975,0.849014,3.919984,0.849014
	c2.471985,0,1.348999-6.217009,1.124023-6.540998c-0.225037-0.325012-0.475037-0.5-0.475037-0.5L13.089154,34.535454z"/>
<path class="st15" d="M14.716168,30.490458c0,0,7.140992-0.498993,7.140992,1.174011
	c0,1.747999-7.015992,1.023985-7.940003,0.798994C13.01817,32.238457,12.719159,31.06547,14.716168,30.490458z"/>
<linearGradient id="SVGID_00000080205584229694920830000015689913193168897195_" gradientUnits="userSpaceOnUse" x1="17.141989" y1="40.637562" x2="14.630686" y2="47.538261" gradientTransform="matrix(1 0 0 -1 0 75.339447)">
	<stop  offset="0" style="stop-color:#A31E22"/>
	<stop  offset="0.5531" style="stop-color:#D55327"/>
	<stop  offset="1" style="stop-color:#F37021"/>
</linearGradient>
<path style="fill:url(#SVGID_00000080205584229694920830000015689913193168897195_);" d="M14.412152,27.870462
	c0,0,2.745973-0.125,3.320985,0.548996c0.273987,0.324997,0.100037,5.742002-0.049988,6.016996
	c-0.150024,0.275009-2.24701,0.598999-3.221009,0.424011C13.513165,34.686455,14.412152,27.870462,14.412152,27.870462z"/>
<linearGradient id="SVGID_00000144336453227038258880000003633646144501609127_" gradientUnits="userSpaceOnUse" x1="15.880402" y1="40.451775" x2="13.375151" y2="47.336094" gradientTransform="matrix(1 0 0 -1 0 75.339447)">
	<stop  offset="0" style="stop-color:#F8961D"/>
	<stop  offset="1" style="stop-color:#FBA919"/>
</linearGradient>
<path style="fill:url(#SVGID_00000144336453227038258880000003633646144501609127_);" d="M12.690167,28.319468
	c-0.824036,0.723999-0.549011,5.017988-0.025024,5.866987c0.549011,0.848999,3.296021,0.848999,3.695008,0.5
	c0.399963-0.349991,0.125-6.191999,0.049988-6.54199C16.310163,27.795465,13.364118,27.720469,12.690167,28.319468z"/>
<path class="st18" d="M16.339155,28.069468c0,0,1.273987,0.149994,1.424011,0.375
	c0.148987,0.199997-0.723999,0.423996-0.999023,0.399002C16.464155,28.768457,16.589155,28.294458,16.339155,28.069468z"/>
<path class="st19" d="M16.363142,34.686455c0,0,0.25-0.474991,0.275024-1.19899
	c0.024963-0.699005,1.047974-0.374008,1.097961-0.348999c0.049988,0.024994,0.100037,1.123001-0.099976,1.347992
	C17.412153,34.736458,16.363142,34.686455,16.363142,34.686455z"/>
<path class="st20" d="M12.215131,29.616465c0,0,0.148987-1.048004,0.624023-1.322998
	c0.698975-0.424011,2.995972-0.300003,3.269959-0.150009c0.275024,0.150009,0.350037,0.824005,0.350037,0.824005
	s0-0.623993-0.075012-0.824005c-0.049988-0.19899-0.849-0.298996-2.12201-0.274002
	c-1.273987,0.025009-1.622986,0.424011-1.77301,0.574005C12.364118,28.618464,12.215131,29.616465,12.215131,29.616465z"/>
<path class="st21" d="M29.130171,43.474464c-3.570007-3.820007,10.261961-4.020004,11.134947-3.570999
	c0.899048,0.449997,2.822021,5.817993,8.215027,8.789001C48.480145,48.717461,34.848125,49.616463,29.130171,43.474464z"/>
<path class="st22" d="M24.850142,27.519464c-0.200012,4.220001,12.13397,1.673004,12.757994,1.498001
	s1.14801-10.985001,8.439026-15.080002c0,0-12.084045,0.574005-15.530027,2.546997
	C27.047163,18.48147,25.024153,24.12446,24.850142,27.519464z"/>
<path class="st23" d="M10.668134,36.907463c2.046997,3.520004,10.686036,4.418991,13.63202,4.792999
	c2.945984,0.375-1.249023-5.891998,0-13.831007c0,0-1.473022,9.68701,6.216003,16.852003c0,0-9.887024-0.248993-11.359985-0.548996
	C17.683149,43.873466,13.489118,43.373466,10.668134,36.907463z"/>
<path class="st24" d="M10.670148,36.907463c0,0-1.598022-6.766005,1.572998-12.983s9.638001-7.041,9.638001-7.041
	s-3.471008,0.225006-3.794983,0.324997c-0.325012,0.125-4.49402,0.774002-7.291017,5.942001
	C7.999128,28.31846,10.670148,36.907463,10.670148,36.907463z"/>
<path class="st24" d="M24.286116,31.989466c0,0-0.148987-7.065002,3.446045-12.209
	c3.794983-5.417007,8.762999-6.391006,8.762999-6.391006s-2.596008,0.199997-5.36804,2.022003
	C27.932173,17.533457,24.062117,22.776468,24.286116,31.989466z"/>
<path class="st22" d="M14.044171,23.075464c-0.674011,2.097,7.264955,2.371994,8.812989,1.722992
	c1.547974-0.623993,5.442993-7.464996,5.867981-7.764999C29.149153,16.784464,16.391157,15.685465,14.044171,23.075464z"/>
<path class="st25" d="M42.997112,26.696466c-0.748962,3.544998,6.242004,1.322998,9.462036,1.373001
	c3.245972,0.049988,10.935974,4.792997,11.859989,4.293989c0.923035-0.498991-0.349979-11.559996-7.216007-14.106001
	C50.237164,15.710459,44.520123,19.655466,42.997112,26.696466z"/>
<path class="st26" d="M53.565166,33.063454c-0.575012,0.050003,7.339966,4.943008,8.412964,5.118011
	c1.074036,0.149994,2.023014-1.921997,1.174011-3.470001C62.303143,33.138466,54.788128,32.988457,53.565166,33.063454z"/>
<path class="st27" d="M35.441143,47.593468c0,0,17.052979,2.995987,23.593994,0.099991
	c6.541019-2.871002,8.86298-9.96199,8.86298-9.96199s-2.07196,10.011993-12.607975,11.584991c0,0-3.89502,0-8.963013-0.25
	C41.233135,48.817467,36.015118,47.743462,35.441143,47.593468z"/>
<path class="st28" d="M46.050152,40.627464c0,0,2.497009,3.869995,7.065979,4.369995
	c4.569031,0.499008,7.315002-2.746994,7.315002-2.746994s-2.596008,2.597-6.890015,2.272003
	C49.221111,44.198463,46.050152,40.627464,46.050152,40.627464z"/>
<path class="st29" d="M39.457134,19.855463c0,0-1.971985-1.498001-2.197021-2.970993
	c-0.224976-1.474014,5.41803-3.496002,5.41803-3.496002S40.631145,17.133463,39.457134,19.855463z"/>
<path class="st29" d="M29.658125,31.898462c-1.222961,0.348997-0.125,1.022993,1.248047,0.798994
	C32.255169,32.472466,31.630171,31.324457,29.658125,31.898462z"/>
<path class="st28" d="M39.891155,36.908455c0,0-1.997009-6.04199,0.075012-13.656996
	c2.072998-7.61499,7.341003-10.011993,7.341003-10.011993s-4.944031,1.32399-7.690002,9.438004
	C37.420147,29.268457,39.891155,36.908455,39.891155,36.908455z"/>
<path class="st30" d="M46.62315,41.201454c-1.199036-2.472,4.718018-2.847,7.61499-3.04599
	c2.870972-0.175003,6.716003,2.445999,6.716003,2.445999s-1.323975,3.970001-7.840027,3.345993
	C48.470135,43.52346,46.62315,41.201454,46.62315,41.201454z"/>
<path class="st30" d="M23.90312,19.68046c-6.415955,0.524002-5.268005,1.697006-2.021973,2.496002
	C25.127119,22.975458,26.250166,19.480463,23.90312,19.68046z"/>
<path class="st30" d="M61.405132,14.587458c0,0-0.948975,1.098007,0.574036,4.768005
	c1.522949,3.671005,5.267948,3.345993,5.267948,3.345993S65.699142,17.758463,61.405132,14.587458z"/>
<linearGradient id="SVGID_00000060012046171765232590000005125119472011384236_" gradientUnits="userSpaceOnUse" x1="38.676857" y1="43.199989" x2="38.676857" y2="49.454597" gradientTransform="matrix(1 0 0 -1 0 75.339447)">
	<stop  offset="0" style="stop-color:#492D84"/>
	<stop  offset="1" style="stop-color:#271D5D"/>
</linearGradient>
<path style="fill:url(#SVGID_00000060012046171765232590000005125119472011384236_);" d="M39.089153,25.972467
	c-0.749023-0.723999-2.871033,3.569992-0.973022,5.741989C40.013165,33.836464,40.737164,27.520456,39.089153,25.972467z"/>
<path class="st32" d="M37.484112,28.219461c-0.42395,2.647003,1.923035,2.597,2.347046,0.425003
	c0.424988-2.197006-1.122986-2.746994-1.322998-2.546997C38.333172,26.297464,37.609112,27.520456,37.484112,28.219461z"/>
<path class="st18" d="M38.381145,31.939463c-0.823975-1.173004,1.39801-1.897003,1.598022-2.371994
	C40.179119,29.09347,39.555157,33.113457,38.381145,31.939463z"/>
<linearGradient id="SVGID_00000170281010767628101120000004883554486866294204_" gradientUnits="userSpaceOnUse" x1="7.403743" y1="22.516558" x2="6.815731" y2="24.993563" gradientTransform="matrix(1 0 0 -1 0 75.339447)">
	<stop  offset="0" style="stop-color:#170E39"/>
	<stop  offset="1" style="stop-color:#230F48"/>
</linearGradient>
<path style="fill:url(#SVGID_00000170281010767628101120000004883554486866294204_);" d="M7.044172,50.315468
	c-0.374023-0.200012-0.89801,1.722,0.049988,2.395996C8.043134,53.386467,7.843122,50.789467,7.044172,50.315468z"/>
<path class="st13" d="M6.576154,51.388466c0.024963,1.097992,0.997986,0.848999,0.997986-0.075012
	c0-0.923996-0.674011-0.998993-0.749023-0.898987C6.776166,50.514458,6.55113,51.088463,6.576154,51.388466z"/>
<path class="st29" d="M7.231122,52.786461c-0.42395-0.399994,0.425049-0.899002,0.475037-1.098999
	C7.756147,51.463463,7.831159,53.13546,7.231122,52.786461z"/>
<path class="st25" d="M43.859112,25.89747c-0.099976,0.82399,1.822021-2.123001,4.619019-1.324005
	c2.796021,0.798996,8.164001-5.068008,8.414001-5.692001c0.223999-0.624008-5.044006-2.322006-9.088013,0.498993
	C43.759136,22.177469,43.859112,25.89747,43.859112,25.89747z"/>
<path class="st13" d="M4.002119,39.953468c-1.372986,3.869995,1.123047,7.98999,1.123047,7.98999s-0.824036-4.095001,0-6.916
	c0.823975-2.796997,1.972961-5.64299,1.972961-5.64299S4.876142,37.481468,4.002119,39.953468z"/>
<path class="st13" d="M6.477155,40.878456c-0.475037,2.147003,1.047974,3.294998,1.52301,3.62001
	c0.448975,0.32399,0.648987-3.171005,1.222961-5.292999c0.674011-2.422012,1.199036-3.096008,1.199036-3.096008l-0.723999-2.222
	C9.673139,33.887459,7.17613,37.682457,6.477155,40.878456z"/>
<path class="st34" d="M7.371137,63.421455c0,0,1.072998-0.873993,1.348022-2.171997
	c0.274963-1.298004,3.270996-1.048996,3.469971-0.848999c0.200012,0.199997,0.049988,1.373001-1.097961,2.097
	C9.942121,63.271461,7.371137,63.421455,7.371137,63.421455z"/>
<path class="st24" d="M3.683149,55.233467c0,0,0.648987,4.792999,1.997986,5.966995
	c1.098022,0.923004,1.598022-1.098999,1.598022-1.098999s-0.174988,1.048996-1.223999,0.699005
	C4.73216,60.351463,3.683149,55.233467,3.683149,55.233467z"/>
</svg>
