<?xml version="1.0" encoding="utf-8"?>
<!-- Generator: Adobe Illustrator 26.5.0, SVG Export Plug-In . SVG Version: 6.00 Build 0)  -->
<svg version="1.1" id="Layer_1" xmlns="http://www.w3.org/2000/svg" xmlns:xlink="http://www.w3.org/1999/xlink" x="0px" y="0px"
	 viewBox="0 0 61.550457 61.568886" style="enable-background:new 0 0 61.550457 61.568886;" xml:space="preserve">
<style type="text/css">
	.st0{display:none;}
	.st1{fill-rule:evenodd;clip-rule:evenodd;fill:url(#SVGID_1_);}
	.st2{fill-rule:evenodd;clip-rule:evenodd;fill:url(#SVGID_00000096032984444428896280000008413324669876841857_);}
	.st3{fill-rule:evenodd;clip-rule:evenodd;fill:url(#SVGID_00000151535778689570511920000005755979782429818538_);}
	.st4{opacity:0.5;fill:#684EA0;enable-background:new    ;}
	.st5{fill:url(#SVGID_00000063605540283537438000000004131252583162773433_);}
	.st6{fill:url(#SVGID_00000056426639996260625820000003497485024898926243_);}
	.st7{fill:url(#SVGID_00000078766690089779120670000006654774764772503717_);}
	.st8{fill-rule:evenodd;clip-rule:evenodd;fill:url(#SVGID_00000154407718866019160270000009419256070077023401_);}
	.st9{fill-rule:evenodd;clip-rule:evenodd;fill:url(#SVGID_00000144318012754013152550000005138345535439447727_);}
	.st10{fill-rule:evenodd;clip-rule:evenodd;fill:url(#SVGID_00000022529471912412814760000014155417561265684873_);}
	.st11{fill-rule:evenodd;clip-rule:evenodd;fill:url(#SVGID_00000067220310079626882830000004680308954978915238_);}
	.st12{fill-rule:evenodd;clip-rule:evenodd;fill:url(#SVGID_00000044163224491022572200000002709170867281458878_);}
	.st13{fill-rule:evenodd;clip-rule:evenodd;fill:url(#SVGID_00000119830256592247305290000004964516053474808452_);}
	.st14{fill-rule:evenodd;clip-rule:evenodd;fill:url(#SVGID_00000129189110097578444120000006056053188374549691_);}
	
		.st15{opacity:0.8;fill-rule:evenodd;clip-rule:evenodd;fill:url(#SVGID_00000062896966912467888130000014031046502391981470_);enable-background:new    ;}
	.st16{fill-rule:evenodd;clip-rule:evenodd;fill:url(#SVGID_00000049926108812525523990000004047524328680865964_);}
	.st17{fill-rule:evenodd;clip-rule:evenodd;fill:#F89A49;}
	.st18{fill-rule:evenodd;clip-rule:evenodd;fill:#68174D;}
	.st19{fill-rule:evenodd;clip-rule:evenodd;fill:#D37B4E;}
	.st20{fill-rule:evenodd;clip-rule:evenodd;fill:#5A1044;}
	.st21{fill-rule:evenodd;clip-rule:evenodd;fill:#FFFFFF;}
	.st22{opacity:0.8;fill-rule:evenodd;clip-rule:evenodd;fill:#582C40;enable-background:new    ;}
	.st23{fill-rule:evenodd;clip-rule:evenodd;fill:#FFFFFF;fill-opacity:0.41;}
	.st24{fill-rule:evenodd;clip-rule:evenodd;fill:#FCF8CA;fill-opacity:0.52;}
</style>
<g id="Layer_1_00000021106748192317381240000013374781017546476937_" class="st0">
</g>
<g id="Layer_2_00000044884105187611529490000007118620904139219080_">
	
		<linearGradient id="SVGID_1_" gradientUnits="userSpaceOnUse" x1="55.957634" y1="854.586121" x2="70.648148" y2="836.526489" gradientTransform="matrix(0.875657 0 0 0.875657 -32.522911 -719.906799)">
		<stop  offset="0" style="stop-color:#8D3933"/>
		<stop  offset="1" style="stop-color:#AC4B31"/>
	</linearGradient>
	<path class="st1" d="M25.673283,9.626178c0,0-2.096306-1.901042-5.729395-1.527134c0,0-8.176892,16.453583,4.408052,26.691757
		l12.86425-15.813486L25.691668,9.602542L25.673283,9.626178z"/>
	
		<linearGradient id="SVGID_00000021817834654414229310000015525141221272846742_" gradientUnits="userSpaceOnUse" x1="89.274879" y1="832.679993" x2="96.869576" y2="823.341187" gradientTransform="matrix(0.875657 0 0 0.875657 -32.522911 -719.906799)">
		<stop  offset="0" style="stop-color:#8D3933"/>
		<stop  offset="1" style="stop-color:#AC4B31"/>
	</linearGradient>
	<path style="fill-rule:evenodd;clip-rule:evenodd;fill:url(#SVGID_00000021817834654414229310000015525141221272846742_);" d="
		M52.301121,1.057007c-3.940456-1.213662-9.32571,0.830121-9.32571,0.830121L41.85807,6.14807l3.796844,3.086698l3.791611,3.086684
		l3.940453-1.960594C53.386978,10.360858,54.297642,4.67434,52.301121,1.057007z"/>
	
		<linearGradient id="SVGID_00000005961686374375913310000001816759925731522706_" gradientUnits="userSpaceOnUse" x1="73.887581" y1="869.168701" x2="88.577728" y2="851.108154" gradientTransform="matrix(0.875657 0 0 0.875657 -32.522911 -719.906799)">
		<stop  offset="0" style="stop-color:#8D3933"/>
		<stop  offset="1" style="stop-color:#AC4B31"/>
	</linearGradient>
	<path style="fill-rule:evenodd;clip-rule:evenodd;fill:url(#SVGID_00000005961686374375913310000001816759925731522706_);" d="
		M48.702183,28.358234c0,0,2.28545,1.66461,2.662029,5.29771c0,0-14.446621,11.354649-27.031565,1.11647l12.86516-15.813484
		l11.521908,9.375654L48.702183,28.358234z"/>
	<path class="st4" d="M44.656654,34.452797c6.786339-5.185637,8.082294-14.889662,2.898422-21.675133
		c-5.183872-6.785457-14.88702-8.083175-21.672501-2.898421c-6.786339,5.185637-8.083202,14.889662-2.89842,21.675133
		C28.16979,38.340714,37.873844,39.637566,44.656654,34.452797z"/>
	
		<linearGradient id="SVGID_00000051371026783670456730000012902472331078533780_" gradientUnits="userSpaceOnUse" x1="67.734978" y1="859.385498" x2="90.021194" y2="831.988464" gradientTransform="matrix(0.875657 0 0 0.875657 -32.522911 -719.906799)">
		<stop  offset="0" style="stop-color:#8D3933"/>
		<stop  offset="1" style="stop-color:#AC4B31"/>
	</linearGradient>
	<path style="fill:url(#SVGID_00000051371026783670456730000012902472331078533780_);" d="M26.78891,32.619179
		c6.624344,5.389664,16.361641,4.387917,21.755661-2.23731c5.385311-6.624344,4.387051-16.364273-2.241676-21.753937
		c-6.621727-5.389666-16.361643-4.387917-21.751333,2.237309C19.161922,17.489584,20.163658,27.229511,26.78891,32.619179z"/>
	
		<linearGradient id="SVGID_00000137127666821152225900000012096864866078794941_" gradientUnits="userSpaceOnUse" x1="69.042183" y1="857.769043" x2="88.70768" y2="833.600647" gradientTransform="matrix(0.875657 0 0 0.875657 -32.522911 -719.906799)">
		<stop  offset="0" style="stop-color:#4BC3CA"/>
		<stop  offset="0.9944" style="stop-color:#005899"/>
	</linearGradient>
	<path style="fill:url(#SVGID_00000137127666821152225900000012096864866078794941_);" d="M27.93511,31.204987
		c5.844141,4.753941,14.436094,3.870399,19.190901-1.973728c4.75481-5.843258,3.870388-14.435198-1.970226-19.189138
		c-5.847614-4.754808-14.439568-3.871282-19.193521,1.97286C21.208311,17.859108,22.090969,26.450178,27.93511,31.204987z"/>
	
		<radialGradient id="SVGID_00000143609709890174332990000001897764768061946538_" cx="-1172.709595" cy="-111.183418" r="1" gradientTransform="matrix(34.994324 28.468945 -15.609516 19.187382 39353.90625 35541.273438)" gradientUnits="userSpaceOnUse">
		<stop  offset="0.005587" style="stop-color:#0282AF"/>
		<stop  offset="0.9547" style="stop-color:#6FC59E"/>
	</radialGradient>
	<path style="fill:url(#SVGID_00000143609709890174332990000001897764768061946538_);" d="M28.436005,30.59203
		c5.505241,4.478977,13.598919,3.647106,18.077038-1.85902c4.483356-5.505253,3.651474-13.598944-1.856388-18.077932
		c-5.507008-4.478974-13.600683-3.647103-18.079657,1.858151C22.097969,18.019352,22.929853,26.113041,28.436005,30.59203z"/>
	
		<linearGradient id="SVGID_00000046307006000260104150000011254383617454529422_" gradientUnits="userSpaceOnUse" x1="41.690121" y1="884.714172" x2="63.102108" y2="858.394165" gradientTransform="matrix(0.875657 0 0 0.875657 -32.522911 -719.906799)">
		<stop  offset="0" style="stop-color:#AC4B31"/>
		<stop  offset="1" style="stop-color:#8D3933"/>
	</linearGradient>
	<path style="fill-rule:evenodd;clip-rule:evenodd;fill:url(#SVGID_00000046307006000260104150000011254383617454529422_);" d="
		M24.78977,34.205864L6.421984,56.782921c-3.415937-4.033276-2.089304-7.300354-2.00176-7.503502
		c0,0,0.443119-0.305603,1.192644-0.792465c0.647977-0.412441,1.49301-1.017517,2.485124-1.659374
		c0.987733-0.684761,2.119074-1.448341,3.264472-2.279331c0.782821-0.577068,1.589317-1.134857,2.39138-1.735561
		c0.682129-0.502617,1.341545-1.023632,1.981612-1.521015c0.420351-0.323986,0.839794-0.647976,1.236469-0.991245
		c0.717136-0.591938,1.351967-1.132225,1.902779-1.663742c0.649742-0.606823,1.156729-1.133972,1.43609-1.573551
		c0.412441-0.603325,0.739904-1.19878,0.9632-1.761829c0.464979-1.148861,0.619972-2.158489,0.607733-2.912426
		c0.019241-0.023647-0.004381-0.042915-0.004381-0.042915c-0.007002-0.906296-0.17338-1.472847-0.17338-1.472847L24.78977,34.205864
		z"/>
	
		<linearGradient id="SVGID_00000009556447184328021230000006461425454673949061_" gradientUnits="userSpaceOnUse" x1="47.243744" y1="889.272949" x2="68.656303" y2="862.952332" gradientTransform="matrix(0.875657 0 0 0.875657 -32.522911 -719.906799)">
		<stop  offset="0" style="stop-color:#AC4B31"/>
		<stop  offset="1" style="stop-color:#8D3933"/>
	</linearGradient>
	<path style="fill-rule:evenodd;clip-rule:evenodd;fill:url(#SVGID_00000009556447184328021230000006461425454673949061_);" d="
		M14.180288,57.217236c-0.181234,0.126106-3.11119,2.090202-7.773162-0.410675L24.774,34.230381l3.847616,2.346756
		c0,0-0.569143-0.070923-1.477242,0.130474c0,0,0,0-0.018385,0.023647c-0.465834,0.091061-1.03236,0.256569-1.647093,0.578808
		c-0.823975,0.387039-1.753933,1.001747-2.629589,1.933456c-0.430826,0.433445-0.915955,1.174244-1.469334,2.094566
		c-0.366051,0.642727-0.784584,1.398426-1.180405,2.173378c-0.178616,0.363392-0.376526,0.751312-0.592821,1.161991
		c-0.395819,0.774963-0.767963,1.569183-1.134869,2.406307c-0.603296,1.27058-1.140963,2.556915-1.662861,3.776707
		c-0.34852,0.813488-0.677746,1.603325-0.992115,2.326618C14.848415,55.528976,14.180288,57.217236,14.180288,57.217236z"/>
	
		<radialGradient id="SVGID_00000163037270493451686820000016303952367824652202_" cx="-1052.066284" cy="-42.478199" r="1" gradientTransform="matrix(3.629376 2.952607 -2.952607 3.629376 3704.369873 3310.365234)" gradientUnits="userSpaceOnUse">
		<stop  offset="0" style="stop-color:#DDDBE3"/>
		<stop  offset="1" style="stop-color:#A08BC1"/>
	</radialGradient>
	<path style="fill-rule:evenodd;clip-rule:evenodd;fill:url(#SVGID_00000163037270493451686820000016303952367824652202_);" d="
		M5.639163,48.507088c0,0-0.030678-3.235558,2.48598-1.658489c0,0,4.103305,3.572678,8.725944,4.004375
		c0,0,1.872154,1.405422-0.992169,2.326618C15.835293,53.160324,11.556847,53.556999,5.639163,48.507088z"/>
	
		<radialGradient id="SVGID_00000085957707267597433540000000404818542871694469_" cx="-1003.295227" cy="-11.77678" r="1.000764" gradientTransform="matrix(2.664083 2.167313 -2.167319 2.664091 2663.120605 2250.661377)" gradientUnits="userSpaceOnUse">
		<stop  offset="0" style="stop-color:#DDDBE3"/>
		<stop  offset="1" style="stop-color:#A08BC1"/>
	</radialGradient>
	<path style="fill-rule:evenodd;clip-rule:evenodd;fill:url(#SVGID_00000085957707267597433540000000404818542871694469_);" d="
		M11.34055,44.571884c0,0-0.142754-2.231174,2.391435-1.736427c0,0,0.908046,3.794228,5.887007,1.813484
		c0,0,1.944839,1.268829-1.133961,2.405437C18.504324,47.030727,15.351074,47.873112,11.34055,44.571884z"/>
	
		<radialGradient id="SVGID_00000056406970710292803470000012379263750391123591_" cx="-933.764343" cy="31.992813" r="1" gradientTransform="matrix(1.931658 1.571462 -1.571462 1.931658 1874.089478 1445.503418)" gradientUnits="userSpaceOnUse">
		<stop  offset="0" style="stop-color:#DDDBE3"/>
		<stop  offset="1" style="stop-color:#A08BC1"/>
	</radialGradient>
	<path style="fill-rule:evenodd;clip-rule:evenodd;fill:url(#SVGID_00000056406970710292803470000012379263750391123591_);" d="
		M21.416748,41.291672c0,0-0.954489,0.162876-2.28112-0.133091c-0.662836-0.147991-1.40103-0.395809-2.180376-0.833637
		c0,0-0.077925-2.021881,1.901922-1.664608c0,0,0.666416,0.385277,1.869535,0.542019
		c0.592821,0.090202,1.328396,0.101589,2.159372-0.005249C22.866842,39.219872,24.234573,40.763657,21.416748,41.291672z"/>
	
		<radialGradient id="SVGID_00000183228053903665420470000009730594943167684768_" cx="-975.701172" cy="5.593783" r="1.000224" gradientTransform="matrix(2.315634 1.883839 -1.883839 2.315634 2294.102295 1861.003662)" gradientUnits="userSpaceOnUse">
		<stop  offset="0" style="stop-color:#DDDBE3"/>
		<stop  offset="1" style="stop-color:#A08BC1"/>
	</radialGradient>
	<path style="fill-rule:evenodd;clip-rule:evenodd;fill:url(#SVGID_00000183228053903665420470000009730594943167684768_);" d="
		M28.195177,37.289928c-0.908045,0.201397-1.818708,0.165497-2.70051-0.003498
		c-0.946579-0.183014-1.802996-0.527153-2.506985-0.865158c-1.021029-0.478111-1.681299-1.014881-1.728544-1.053417
		c-0.986023-1.194393,0.607677-2.912437,0.607677-2.912437c0.714518,0.854652,1.614706,1.626106,2.462357,2.316116
		c0.118223,0.096325,0.259212,0.211033,0.377382,0.307354c0.023676,0.018398,0.047298,0.037651,0.070976,0.056919
		c0.909754,0.662876,1.745167,1.224163,2.364229,1.570934c0.254829,0.168129,0.481655,0.274952,0.641886,0.366024
		c0,0,0,0,0.023623,0.019268C28.057714,37.217243,28.195177,37.289928,28.195177,37.289928z"/>
	
		<radialGradient id="SVGID_00000166675081568775139620000005882521075338697396_" cx="-999.391968" cy="-9.319836" r="0.999972" gradientTransform="matrix(2.608568 2.122149 -2.122149 2.608568 2635.914551 2150.646484)" gradientUnits="userSpaceOnUse">
		<stop  offset="0" style="stop-color:#DDDBE3"/>
		<stop  offset="1" style="stop-color:#A08BC1"/>
	</radialGradient>
	<path style="fill-rule:evenodd;clip-rule:evenodd;fill:url(#SVGID_00000166675081568775139620000005882521075338697396_);" d="
		M46.259121,8.243522c0,0-1.497391-2.868652-0.105076-4.394918c1.401031-1.525397,4.982491-1.159374,4.982491-1.159374
		s1.068275,3.258326-0.45536,5.077929C49.166306,9.585907,46.259121,8.243522,46.259121,8.243522z"/>
	
		<linearGradient id="SVGID_00000153665134381671043310000017308799377710620545_" gradientUnits="userSpaceOnUse" x1="89.822166" y1="832.009338" x2="94.135208" y2="826.703613" gradientTransform="matrix(0.875657 0 0 0.875657 -32.522911 -719.906799)">
		<stop  offset="0" style="stop-color:#C57CB4"/>
		<stop  offset="1" style="stop-color:#984678"/>
	</linearGradient>
	
		<path style="opacity:0.8;fill-rule:evenodd;clip-rule:evenodd;fill:url(#SVGID_00000153665134381671043310000017308799377710620545_);enable-background:new    ;" d="
		M46.057682,8.588528c0,0-0.761814-1.950961,0.385292-3.213658c1.129631-1.23818,3.537689-1.313485,3.537689-1.313485
		s0.429062,2.267079-0.82312,3.755692C47.949131,9.30219,46.057682,8.588528,46.057682,8.588528z"/>
	
		<linearGradient id="SVGID_00000032641204814966100650000009518762653246579124_" gradientUnits="userSpaceOnUse" x1="91.139198" y1="830.393066" x2="94.399208" y2="826.391052" gradientTransform="matrix(0.875657 0 0 0.875657 -32.522911 -719.906799)">
		<stop  offset="0" style="stop-color:#EE2635"/>
		<stop  offset="0.9578" style="stop-color:#8B2475"/>
	</linearGradient>
	<path style="fill-rule:evenodd;clip-rule:evenodd;fill:url(#SVGID_00000032641204814966100650000009518762653246579124_);" d="
		M47.213558,7.175219c0,0-0.91943-1.763566-0.035007-2.696142c0.875656-0.931708,3.029789-0.700528,3.029789-0.700528
		s0.656742,1.984244-0.280216,3.095449C49.008694,8.00534,47.213558,7.175219,47.213558,7.175219z"/>
	<path class="st17" d="M25.677666,9.626178c0,0-2.909805,0.688276-5.72854-1.527134
		C19.929886,8.12268,22.628633,7.067512,25.677666,9.626178z"/>
	<path class="st17" d="M49.464001,29.099033c0,0-0.779346,1.44046,1.891449,4.556046
		C51.337917,33.678715,51.731976,30.981689,49.464001,29.099033z"/>
	<path class="st18" d="M4.442137,49.298676c0,0,2.160227,5.04641,9.756538,7.936958c0,0-3.554255,3.021881-7.773163-0.409809
		C2.207459,53.394123,4.442137,49.298676,4.442137,49.298676z"/>
	<path class="st19" d="M42.97541,1.887127l1.488625,1.05605c0,0,3.10857-1.896672,7.189106-1.084937
		c0,0,1.567459,3.466725,0.621735,7.948331l1.112103,0.554287c0,0,1.584938-5.172502-1.085857-9.303851
		C52.301121,1.057007,47.992905-0.52968,42.97541,1.887127z"/>
	<path class="st20" d="M44.464035,2.942296L42.88781,6.516727l-1.027977-0.369524L42.97541,1.88626L44.464035,2.942296z"/>
	<path class="st20" d="M52.274876,9.80569l-3.257469,1.695275l0.429119,0.819618l3.940453-1.960594L52.274876,9.80569z"/>
	<path class="st21" d="M50.26088,4.916905c-0.035061,0.284586-0.201439,0.496499-0.376526,0.471098
		c-0.175144-0.024518-0.332756-0.267951-0.297749-0.552536c0.035007-0.284585,0.210148-0.496498,0.385292-0.471098
		C50.173279,4.408141,50.278355,4.655956,50.26088,4.916905z"/>
	<path class="st21" d="M51.285381,4.811817c0,0.151492-0.09631,0.268833-0.210148,0.259199
		c-0.105076-0.010502-0.166378-0.134844-0.157612-0.286336c0.008762-0.151492,0.105072-0.269701,0.210148-0.259199
		C51.241608,4.535996,51.320389,4.678724,51.285381,4.811817z"/>
	<path class="st22" d="M25.515671,37.262779c-0.823975,0.387039-1.754787,1.001747-2.630444,1.933456
		c0,0,1.367731,1.543781-1.469387,2.09457c-0.365997,0.642723-0.784584,1.398422-1.180351,2.173374
		c-0.799496-0.220665-1.546402-0.553417-2.227676-0.872158c-0.864271-0.429943-1.64362-0.867771-2.247825-1.281082
		c0.420299-0.32399,0.84065-0.647991,1.237325-0.990364c0,0-0.078833-2.021896,1.901924-1.664623
		c0.650597-0.606838,1.157583-1.133976,1.436035-1.572685c0.413351-0.604206,0.740814-1.199646,0.964109-1.761814
		c-0.986877-1.194397,0.606825-2.913307,0.606825-2.913307c0.019293-0.023651-0.004383-0.042915-0.004383-0.042915
		c0.827501,0.908939,1.642765,1.688274,2.46674,2.359901c0.118221,0.09544,0.260067,0.211029,0.377434,0.306469
		c0.023624,0.019268,0.047247,0.038536,0.070923,0.057804c0.796824,0.608574,1.584936,1.132221,2.34499,1.59457
		c0.207531,0.129593,0.434355,0.235546,0.641884,0.365139c0,0,0,0,0.023624,0.019268
		c0.207529,0.130474,0.364286,0.178631,0.364286,0.178631C27.264364,37.472057,26.353701,37.436157,25.515671,37.262779z"/>
	<path class="st19" d="M8.420217,53.901134c0,0,3.723305,0.718033,5.444849,3.176006
		C13.845824,57.100777,10.965789,57.655945,8.420217,53.901134z"/>
	<path class="st23" d="M25.277515,15.410769c0,0,4.358988-0.447462,6.882648,4.77759
		c2.505272,5.249556-2.021002,11.006126-2.021002,11.006126S21.550684,26.634941,25.277515,15.410769z"/>
	<path class="st23" d="M47.502537,18.2225c-1.164639-0.83012-1.549927,2.772329-0.472836,3.17952
		C48.133038,21.786428,48.483269,18.899391,47.502537,18.2225z"/>
	<path class="st24" d="M50.243347,15.394134c-1.09457-0.298602-0.411533,2.525395,0.516663,2.537648
		C51.670673,17.92478,51.145298,15.624432,50.243347,15.394134z"/>
	<path class="st19" d="M21.377306,8.988703c0,0,1.372168-0.098074,2.447498,0.698778
		C23.824804,9.687481,22.189949,11.216379,21.377306,8.988703z"/>
	<path class="st19" d="M49.490295,30.565762c0,0-0.893185,1.150608,1.304722,2.392288L49.490295,30.565762z"/>
</g>
</svg>
