<?xml version="1.0" encoding="iso-8859-1"?>
<!-- Generator: Adobe Illustrator 19.0.0, SVG Export Plug-In . SVG Version: 6.00 Build 0)  -->
<svg version="1.1" id="Capa_1" xmlns="http://www.w3.org/2000/svg" xmlns:xlink="http://www.w3.org/1999/xlink" x="0px" y="0px"
	 viewBox="0 0 407.552 407.552" style="enable-background:new 0 0 407.552 407.552;" xml:space="preserve">
<g>
	<circle style="fill:#382B73;" cx="203.776" cy="203.776" r="203.776"/>
	<circle style="fill:#473080;" cx="203.776" cy="203.776" r="176.282"/>
	<g>
		<g>
			<polygon style="fill:#382B73;" points="142.746,236.186 152.73,236.186 134.912,290.816 130.97,290.816 113.05,236.186 
				123.136,236.186 123.136,222.822 85.76,222.822 85.76,236.186 94.566,236.186 123.699,318.618 129.843,318.618 135.885,318.618 
				140.954,318.618 142.029,318.618 171.213,236.186 180.07,236.186 180.07,222.822 142.746,222.822 			"/>
			<polygon style="fill:#382B73;" points="188.211,236.186 199.68,236.186 199.68,305.408 188.211,305.408 188.211,318.618 
				228.915,318.618 228.915,305.408 217.344,305.408 217.344,236.186 228.915,236.186 228.915,222.822 188.211,222.822 			"/>
			<path style="fill:#382B73;" d="M317.645,270.438c2.662-4.864,4.147-10.65,4.147-16.845c0-13.517-6.758-24.013-17.152-28.314
				c-4.71-2.048-10.394-2.406-16.179-2.406h-45.875v13.363h11.469v69.222h-11.469v13.21h40.755v-13.21h-11.622v-20.787h17.152
				c5.376,0,10.24-0.41,14.694-1.894c0.358-0.154,0.717-0.256,1.075-0.41c0.102-0.051,0.205-0.102,0.358-0.154
				c0.256-0.102,0.461-0.205,0.717-0.307c0.102-0.051,0.256-0.102,0.358-0.205c0.205-0.102,0.461-0.205,0.666-0.307
				c0.102-0.051,0.256-0.154,0.358-0.205c0.205-0.102,0.41-0.256,0.614-0.358c0.102-0.051,0.256-0.154,0.358-0.205
				c0.205-0.102,0.41-0.256,0.614-0.41c0.102-0.051,0.205-0.154,0.358-0.205c0.205-0.154,0.41-0.307,0.614-0.41
				c0.102-0.051,0.205-0.154,0.307-0.205c0.205-0.154,0.41-0.307,0.666-0.512c0.102-0.051,0.154-0.154,0.256-0.205
				c0.205-0.205,0.461-0.358,0.666-0.563c0.051-0.051,0.102-0.102,0.205-0.154c0.256-0.205,0.512-0.461,0.768-0.666
				c0.051-0.051,0.051-0.051,0.102-0.102C314.573,275.2,316.262,272.947,317.645,270.438L317.645,270.438L317.645,270.438z
				 M296.243,268.544c-2.56,1.229-5.786,1.894-9.728,1.894h-14.848v-33.485h15.002c4.454,0,7.834,0.819,10.394,2.304
				c0.256,0.154,0.512,0.307,0.717,0.461c0.051,0.051,0.154,0.102,0.205,0.154c0.154,0.102,0.307,0.256,0.512,0.358
				c0.102,0.051,0.154,0.102,0.256,0.205c0.154,0.154,0.307,0.256,0.512,0.41c0.051,0.051,0.102,0.102,0.154,0.154
				c0.205,0.205,0.41,0.358,0.563,0.563c0.102,0.102,0.154,0.154,0.256,0.256c0.102,0.102,0.205,0.256,0.307,0.358
				c0.102,0.102,0.154,0.205,0.256,0.307c0.102,0.102,0.154,0.256,0.256,0.358c0.102,0.102,0.154,0.256,0.256,0.358
				c0.051,0.102,0.102,0.205,0.154,0.256c0.154,0.256,0.358,0.563,0.512,0.87c0.051,0.102,0.102,0.154,0.154,0.256
				c0.102,0.154,0.154,0.358,0.256,0.512c0.051,0.102,0.051,0.154,0.102,0.256c0.307,0.666,0.563,1.382,0.768,2.099c0,0,0,0,0,0.051
				c0.051,0.256,0.154,0.461,0.205,0.717c0,0.051,0.051,0.102,0.051,0.154c0.051,0.256,0.102,0.512,0.154,0.768l0,0
				c0.256,1.382,0.41,2.816,0.41,4.352C304.077,260.608,301.517,265.984,296.243,268.544z"/>
		</g>
		<g>
			<g>
				<path style="fill:#FEDE3A;" d="M94.566,225.946h-8.755v-13.363h37.376v13.363H113.05l17.92,54.63h3.891l17.818-54.63h-9.984
					v-13.363h37.376v13.363h-8.909l-29.133,82.432h-18.33L94.566,225.946z"/>
				<path style="fill:#FEDE3A;" d="M188.211,295.168h11.469v-69.222h-11.469v-13.363h40.755v13.363h-11.622v69.222h11.622v13.21
					h-40.755V295.168z"/>
				<path style="fill:#FEDE3A;" d="M242.586,295.168h11.469v-69.222h-11.469v-13.363h45.875c5.786,0,11.469,0.41,16.179,2.406
					c10.394,4.301,17.152,14.848,17.152,28.314c0,13.619-7.014,25.242-18.227,29.133c-4.454,1.485-9.318,1.894-14.694,1.894h-17.152
					v20.787h11.622v13.21h-40.755V295.168z M286.566,260.198c3.891,0,7.168-0.666,9.728-1.894c5.274-2.56,7.834-7.936,7.834-15.002
					c0-6.605-2.56-11.725-7.014-14.285c-2.56-1.485-5.939-2.304-10.394-2.304h-15.002v33.485H286.566z"/>
			</g>
			<polygon style="fill:#E7AD27;" points="261.99,217.446 242.586,212.582 242.586,225.946 254.054,225.946 254.054,295.168 
				242.586,295.168 242.586,308.378 261.99,303.565 			"/>
			<polygon style="fill:#E7AD27;" points="208.589,217.446 188.211,212.582 188.211,225.946 199.68,225.946 199.68,295.168 
				188.211,295.168 188.211,308.378 208.589,303.565 			"/>
			<polygon style="fill:#E7AD27;" points="171.213,225.946 180.07,225.946 180.07,212.582 168.755,217.446 135.885,308.378 
				142.029,308.378 			"/>
			<polygon style="fill:#E7AD27;" points="129.843,308.378 97.485,218.266 85.76,212.582 85.76,225.946 94.566,225.946 
				123.699,308.378 			"/>
			<rect x="123.699" y="301.312" style="fill:#E7AD27;" width="17.254" height="7.066"/>
			<polygon style="fill:#FFC733;" points="208.589,217.446 228.915,212.582 188.211,212.582 			"/>
			<polygon style="fill:#FFC733;" points="208.589,303.565 228.915,308.378 188.211,308.378 			"/>
			<polygon style="fill:#FFC733;" points="261.99,303.565 283.341,308.378 242.586,308.378 			"/>
			<path style="fill:#FFC733;" d="M295.731,270.131c-12.237,0-24.013,0-24.013,0v4.25h17.152c5.376,0,10.24-0.41,14.694-1.894
				c6.093-2.15,10.906-6.502,14.08-12.288C317.542,260.301,307.917,270.131,295.731,270.131z"/>
			<path style="fill:#FFC733;" d="M261.99,217.446l9.728,9.318h15.002c4.454,0,7.834,0.819,10.394,2.304
				c3.43,1.946,5.734,5.427,6.605,9.933l0,0c-0.41-4.403-5.683-21.555-20.173-21.555C269.005,217.446,261.99,217.446,261.99,217.446
				z"/>
			<polygon style="fill:#FFC733;" points="168.755,217.446 142.746,212.582 180.07,212.582 			"/>
			<polygon style="fill:#FFC733;" points="97.485,218.266 123.136,212.582 85.76,212.582 			"/>
			<polygon style="fill:#FFC733;" points="134.912,280.576 138.445,301.312 127.283,301.312 130.97,280.576 			"/>
		</g>
		<g>
			<path style="fill:#382B73;" d="M287.795,115.251c-4.352,0-7.834,3.533-7.834,7.834c0,1.229,0.256,2.355,0.768,3.379
				c0.102,0.205,0.256,0.461,0.358,0.666c0.307,0.563,0.717,1.024,1.178,1.485c0.154,0.154,0.358,0.358,0.563,0.512
				c0.102,0.102,0.205,0.154,0.307,0.205l-17.92,20.582l-12.698-48.333c0.614-0.154,1.229-0.358,1.792-0.614
				c0.205-0.102,0.461-0.256,0.666-0.358c0.563-0.307,1.024-0.717,1.485-1.178c0.512-0.512,0.973-1.126,1.331-1.792
				c0.102-0.154,0.154-0.307,0.205-0.461c0.461-1.024,0.717-2.099,0.717-3.277c0-4.352-3.533-7.834-7.834-7.834
				c-4.352,0-7.834,3.533-7.834,7.834c0,1.178,0.256,2.304,0.717,3.277c0.051,0.154,0.154,0.307,0.205,0.461
				c0.358,0.666,0.819,1.28,1.331,1.792c0.461,0.461,0.922,0.819,1.485,1.178c0.102,0.051,0.205,0.102,0.307,0.154l-19.405,39.424
				l-22.989-60.928c0.205-0.102,0.41-0.154,0.614-0.256c1.587-0.768,2.918-2.048,3.686-3.686c0.512-1.024,0.768-2.202,0.768-3.379
				c0-4.352-3.533-7.834-7.834-7.834c-4.352,0-7.834,3.533-7.834,7.834c0,1.229,0.256,2.355,0.768,3.379
				c0.768,1.587,2.048,2.918,3.686,3.686c0.205,0.102,0.41,0.205,0.614,0.256l-22.323,59.238l-18.586-37.786
				c0.102-0.051,0.205-0.102,0.307-0.154c0.563-0.307,1.024-0.717,1.485-1.178c0.512-0.512,0.973-1.126,1.331-1.792
				c0.102-0.154,0.154-0.307,0.205-0.461c0.461-1.024,0.717-2.099,0.717-3.277c0-4.352-3.533-7.834-7.834-7.834
				c-4.352,0-7.834,3.533-7.834,7.834c0,1.178,0.256,2.304,0.717,3.277c0.051,0.154,0.154,0.307,0.205,0.461
				c0.358,0.666,0.819,1.28,1.331,1.792c0.461,0.461,0.922,0.819,1.485,1.178c0.205,0.154,0.461,0.256,0.666,0.358
				c0.563,0.256,1.178,0.461,1.792,0.614l-12.544,48.384l-17.818-20.531c0.102-0.051,0.205-0.154,0.307-0.205
				c0.205-0.154,0.358-0.307,0.563-0.512c0.461-0.461,0.819-0.922,1.178-1.485c0.154-0.205,0.256-0.461,0.358-0.666
				c0.512-1.024,0.768-2.202,0.768-3.379c0-4.352-3.533-7.834-7.834-7.834s-7.834,3.533-7.834,7.834
				c0,1.229,0.256,2.355,0.768,3.379c0.102,0.205,0.256,0.461,0.358,0.666c0.307,0.563,0.717,1.024,1.178,1.485
				c0.154,0.154,0.358,0.358,0.563,0.512c1.331,1.126,3.072,1.792,4.966,1.792c0.102,0,0.256,0,0.358,0
				c3.328,10.291,5.069,20.531,5.274,30.822h-6.656c-1.843,0-3.328,1.485-3.328,3.328c0,0.102,0,0.205,0,0.358
				c0.051,0.256,0.102,0.512,0.154,0.768c0.051,0.102,0.102,0.256,0.154,0.358c0.102,0.205,0.256,0.41,0.358,0.614
				c0,0.051,0.051,0.051,0.051,0.102c0.614,0.717,1.536,1.178,2.56,1.178h4.966v24.474h-4.966c-1.843,0-3.328,1.485-3.328,3.328
				c0,0.102,0,0.205,0,0.358c0.051,0.256,0.102,0.512,0.154,0.768c0.051,0.102,0.102,0.256,0.154,0.358
				c0.102,0.205,0.256,0.41,0.358,0.614c0,0.051,0.051,0.051,0.051,0.102c0.614,0.717,1.536,1.178,2.56,1.178h170.547
				c1.741,0,3.174-1.331,3.328-3.021c0-0.102,0-0.205,0-0.358c0-1.843-1.485-3.328-3.328-3.328h-4.966v-24.474h4.966
				c1.741,0,3.174-1.331,3.328-3.021c0-0.102,0-0.205,0-0.358c0-1.843-1.485-3.328-3.328-3.328h-5.12
				c0.205-10.291,1.946-20.531,5.274-30.822c0.102,0,0.256,0,0.358,0c1.894,0,3.635-0.666,4.966-1.792
				c0.205-0.154,0.358-0.307,0.563-0.512c0.461-0.461,0.819-0.922,1.178-1.485c0.154-0.205,0.256-0.461,0.358-0.666
				c0.512-1.024,0.768-2.202,0.768-3.379C295.629,118.784,292.096,115.251,287.795,115.251z"/>
			<g>
				<rect x="121.702" y="157.901" style="fill:#FFC733;" width="160.614" height="31.181"/>
				<rect x="144.538" y="157.901" style="fill:#FEDE3A;" width="115.046" height="31.181"/>
				<g>
					<g>
						<polygon style="fill:#FFC733;" points="202.035,64.819 165.683,161.229 238.387,161.229 						"/>
						<polygon style="fill:#FEDE3A;" points="202.035,64.819 181.606,161.229 222.464,161.229 						"/>
					</g>
					<g>
						<circle style="fill:#FEDE3A;" cx="202.035" cy="64.819" r="7.834"/>
						<path style="fill:#FFC733;" d="M202.035,69.427c-3.789,0-6.912-2.662-7.68-6.246c-0.102,0.512-0.154,1.075-0.154,1.587
							c0,4.352,3.533,7.834,7.834,7.834c4.352,0,7.834-3.533,7.834-7.834c0-0.563-0.051-1.075-0.154-1.587
							C208.947,66.765,205.824,69.427,202.035,69.427z"/>
					</g>
				</g>
				<g>
					<g>
						<path style="fill:#FFC733;" d="M113.664,112.026c7.219,16.384,10.445,32.768,9.626,49.152h33.024L113.664,112.026z"/>
						<polygon style="fill:#FFC733;" points="154.982,86.733 135.424,161.229 191.59,161.229 						"/>
						<polygon style="fill:#FEDE3A;" points="154.982,86.733 149.197,161.229 191.59,161.229 						"/>
						<path style="fill:#FEDE3A;" d="M113.664,112.026c8.346,17.562,19.149,49.152,19.149,49.152h23.552L113.664,112.026z"/>
					</g>
					<g>
						<circle style="fill:#FEDE3A;" cx="154.573" cy="86.733" r="7.834"/>
						<path style="fill:#FFC733;" d="M154.573,91.392c-3.789,0-6.912-2.662-7.68-6.246c-0.102,0.512-0.154,1.075-0.154,1.587
							c0,4.352,3.533,7.834,7.834,7.834c4.352,0,7.834-3.533,7.834-7.834c0-0.563-0.051-1.075-0.154-1.587
							C161.536,88.678,158.362,91.392,154.573,91.392z"/>
					</g>
					<g>
						<circle style="fill:#FEDE3A;" cx="117.76" cy="115.917" r="7.834"/>
						<path style="fill:#FFC733;" d="M117.76,120.576c-3.789,0-6.912-2.662-7.68-6.246c-0.102,0.512-0.154,1.075-0.154,1.587
							c0,4.352,3.533,7.834,7.834,7.834c4.352,0,7.834-3.533,7.834-7.834c0-0.563-0.051-1.075-0.154-1.587
							C124.672,117.862,121.549,120.576,117.76,120.576z"/>
					</g>
				</g>
				<g>
					<g>
						<path style="fill:#FFC733;" d="M291.891,112.026c-7.219,16.384-10.445,32.768-9.626,49.152h-33.024L291.891,112.026z"/>
						<polygon style="fill:#FFC733;" points="250.522,86.733 270.08,161.229 213.914,161.229 						"/>
						<polygon style="fill:#FEDE3A;" points="250.522,86.733 256.307,161.229 213.914,161.229 						"/>
						<path style="fill:#FEDE3A;" d="M291.891,112.026c-8.346,17.562-19.149,49.152-19.149,49.152H249.19L291.891,112.026z"/>
					</g>
					<g>
						<circle style="fill:#FEDE3A;" cx="250.931" cy="86.733" r="7.834"/>
						<path style="fill:#FFC733;" d="M250.931,91.392c3.789,0,6.912-2.662,7.68-6.246c0.102,0.512,0.154,1.075,0.154,1.587
							c0,4.352-3.533,7.834-7.834,7.834c-4.352,0-7.834-3.533-7.834-7.834c0-0.563,0.051-1.075,0.154-1.587
							C243.968,88.678,247.142,91.392,250.931,91.392z"/>
					</g>
					<g>
						<circle style="fill:#FEDE3A;" cx="287.795" cy="115.917" r="7.834"/>
						<path style="fill:#FFC733;" d="M287.795,120.576c3.789,0,6.912-2.662,7.68-6.246c0.102,0.512,0.154,1.075,0.154,1.587
							c0,4.352-3.533,7.834-7.834,7.834c-4.352,0-7.834-3.533-7.834-7.834c0-0.563,0.051-1.075,0.154-1.587
							C280.832,117.862,284.006,120.576,287.795,120.576z"/>
					</g>
				</g>
				<path style="fill:#FEDE3A;" d="M287.283,161.229H116.736c-1.843,0-3.328-1.485-3.328-3.328l0,0c0-1.843,1.485-3.328,3.328-3.328
					h170.547c1.843,0,3.328,1.485,3.328,3.328l0,0C290.662,159.744,289.126,161.229,287.283,161.229z"/>
				<path style="fill:#E7AD27;" d="M116.736,161.229h170.547c1.843,0,3.328-1.485,3.328-3.328H113.408
					C113.408,159.744,114.893,161.229,116.736,161.229z"/>
				<path style="fill:#FEDE3A;" d="M287.283,192.41H116.736c-1.843,0-3.328-1.485-3.328-3.328l0,0c0-1.843,1.485-3.328,3.328-3.328
					h170.547c1.843,0,3.328,1.485,3.328,3.328l0,0C290.662,190.874,289.126,192.41,287.283,192.41z"/>
				<path style="fill:#E7AD27;" d="M116.736,192.41h170.547c1.843,0,3.328-1.485,3.328-3.328H113.408
					C113.408,190.874,114.893,192.41,116.736,192.41z"/>
			</g>
			<rect x="121.702" y="161.229" style="fill:#D1D3D4;" width="160.614" height="3.072"/>
		</g>
	</g>
</g>
<g>
</g>
<g>
</g>
<g>
</g>
<g>
</g>
<g>
</g>
<g>
</g>
<g>
</g>
<g>
</g>
<g>
</g>
<g>
</g>
<g>
</g>
<g>
</g>
<g>
</g>
<g>
</g>
<g>
</g>
</svg>
