<svg width="22" height="14" viewBox="0 0 22 14" fill="none" xmlns="http://www.w3.org/2000/svg">
<path d="M15.3928 0.784538C15.0591 0.905813 14.7556 1.0273 14.513 1.17905H7.53444C7.26142 1.02729 6.9884 0.906019 6.65464 0.784538C2.52816 -0.641523 2.25493 2.39265 1.04142 5.82132C-0.202647 9.24977 0.343613 12.5875 2.19446 13.255C4.07559 13.9226 6.56351 11.6772 7.80768 8.21826V8.188H14.2098V8.21826C15.4233 11.6469 17.9418 13.8922 19.7927 13.255C21.6738 12.5875 22.1896 9.28033 20.976 5.82132C19.7624 2.39265 19.4894 -0.641469 15.3931 0.784538H15.3928ZM7.71638 5.3358C7.71638 5.42681 7.65564 5.51782 7.53437 5.51782H6.32081V6.73138C6.32081 6.82239 6.26006 6.9134 6.13879 6.9134H5.19825C5.10724 6.9134 5.01623 6.85265 5.01623 6.73138V5.51782H3.80267C3.71166 5.51782 3.62065 5.45707 3.62065 5.3358L3.62044 4.39526C3.62044 4.30425 3.68118 4.21324 3.80246 4.21324H5.01602V2.99968C5.01602 2.90867 5.07676 2.81766 5.19804 2.81766H6.13858C6.22958 2.81766 6.32059 2.87841 6.32059 2.99968V4.21324H7.53415C7.62516 4.21324 7.71617 4.27398 7.71617 4.39526L7.71638 5.3358ZM16.4245 2.48362C16.8795 2.48362 17.2133 2.84766 17.2133 3.27245C17.2135 3.69723 16.8797 4.09173 16.4245 4.09173C15.9694 4.09173 15.6356 3.7277 15.6356 3.3029C15.6356 2.87811 15.9997 2.48362 16.4245 2.48362ZM14.8469 5.66956C14.3918 5.66956 14.058 5.30552 14.058 4.88073C14.058 4.42569 14.4221 4.0919 14.8469 4.0919C15.3019 4.0919 15.6357 4.45593 15.6357 4.88073C15.666 5.30529 15.3019 5.66956 14.8469 5.66956ZM16.4245 7.24717C15.9694 7.24717 15.6356 6.88313 15.6356 6.45833C15.6356 6.0033 15.9997 5.6695 16.4245 5.6695C16.8795 5.6695 17.2133 6.03354 17.2133 6.45833C17.2438 6.88311 16.8797 7.24717 16.4245 7.24717ZM18.0328 5.66956C17.5778 5.66956 17.244 5.30552 17.244 4.88073C17.244 4.42569 17.608 4.0919 18.0328 4.0919C18.4878 4.0919 18.8216 4.45593 18.8216 4.88073C18.8216 5.30529 18.4576 5.66956 18.0328 5.66956Z" fill="white"/>
</svg>
