<svg width="22" height="28" viewBox="0 0 22 28" fill="none" xmlns="http://www.w3.org/2000/svg">
<path d="M3.85155 27.0644H20.5866C20.7667 27.0644 20.9083 26.9228 20.9083 26.7427V0.996045C20.9083 0.815879 20.7667 0.674288 20.5866 0.674288L3.85155 0.674072C2.25524 0.674072 0.955078 1.97423 0.955078 3.57055V24.1675C0.955078 25.7641 2.25524 27.0642 3.85155 27.0642V27.0644ZM4.17331 1.3178H20.265V21.2715H4.17331V1.3178ZM1.59859 3.57054C1.59859 2.43761 2.44188 1.5109 3.52958 1.34991V21.3036C2.75073 21.3937 2.06843 21.7863 1.59859 22.3721V3.57054ZM3.85155 21.9149H20.2649V23.8459H16.7247C16.5445 23.8459 16.4029 23.9875 16.4029 24.1676C16.4029 24.3478 16.5445 24.4894 16.7247 24.4894H20.2649V26.4204L3.85155 26.4206C2.60932 26.4206 1.59881 25.4101 1.59881 24.1678C1.5986 22.9254 2.6091 21.9149 3.85155 21.9149V21.9149Z" fill="#FFDE01" stroke="#FFDE01" stroke-width="0.4"/>
<path d="M16.5958 10.0072L13.7702 9.59537L12.5086 7.03356C12.3992 6.81482 12.0388 6.81482 11.9294 7.03356L10.6678 9.59537L7.84196 10.0072C7.71976 10.0266 7.62321 10.1102 7.58442 10.226C7.54584 10.3419 7.57795 10.4706 7.66803 10.5542L9.70848 12.5431L9.22573 15.356C9.20633 15.4782 9.25138 15.6006 9.35439 15.6713C9.45094 15.7422 9.58606 15.7549 9.69554 15.6969L12.2187 14.3713L14.7419 15.6974C14.787 15.723 14.8385 15.7359 14.89 15.7359C14.9544 15.7359 15.0251 15.7165 15.0766 15.6715C15.1732 15.6006 15.2247 15.4784 15.2053 15.3562L14.7225 12.5434L16.763 10.5544C16.853 10.4708 16.8852 10.3419 16.8466 10.2262C16.8145 10.1038 16.7179 10.0201 16.5957 10.0072L16.5958 10.0072ZM14.1562 12.2022C14.0791 12.2731 14.0467 12.3824 14.0661 12.4854L14.4653 14.822L12.3668 13.7214C12.3218 13.6957 12.2703 13.6828 12.2188 13.6828C12.1673 13.6828 12.1158 13.6957 12.0707 13.7214L9.97229 14.822L10.3714 12.4854C10.3908 12.3824 10.352 12.2729 10.2813 12.2022L8.58202 10.5479L10.9249 10.2068C11.0279 10.1939 11.118 10.1232 11.1695 10.0331L12.2186 7.909L13.2677 10.0331C13.3128 10.1296 13.4028 10.1941 13.5123 10.2068L15.8552 10.5479L14.1562 12.2022Z" fill="#FFDE01" stroke="#FFDE01" stroke-width="0.4"/>
</svg>
