<svg width="31" height="25" viewBox="0 0 31 25" fill="none" xmlns="http://www.w3.org/2000/svg">
<path d="M22.8672 2.36787C22.9723 2.75138 23.0931 3.12964 23.1771 3.5184C23.2244 3.72854 23.319 3.78633 23.5239 3.79684C25.3521 3.8914 27.1856 3.99647 29.0138 4.1068C29.9647 4.16459 30.3588 4.62165 30.2905 5.57779C29.8964 11.1255 29.5024 16.6733 29.1084 22.221C29.0454 23.0879 28.562 23.4977 27.6952 23.4399C23.7235 23.1562 19.7518 22.8672 15.7749 22.6098C15.4649 22.5888 15.1024 22.7044 14.8293 22.8672C14.1148 23.2928 13.4318 23.7866 12.7383 24.2437C12.0449 24.7007 11.3462 24.5589 10.8838 23.8707C7.58986 18.9113 4.29063 13.9625 0.996655 9.00836C0.544849 8.33591 0.69195 7.61617 1.3539 7.17487C4.70041 4.94211 8.04692 2.70935 11.3934 0.481845C12.1184 -0.00148134 12.8119 0.140365 13.2952 0.854848C13.5526 1.2331 13.8206 1.60611 14.0517 2.00012C14.1936 2.24179 14.3354 2.26805 14.5928 2.1945C16.6943 1.60085 18.8009 1.02822 20.9076 0.450325C21.8165 0.198154 22.3523 0.50286 22.6045 1.42223C22.6938 1.73744 22.7779 2.05266 22.8672 2.36787ZM11.9556 23.3295C12.1027 23.2402 12.213 23.1772 12.3233 23.1089C15.528 20.9707 18.7274 18.8325 21.9321 16.6996C22.3734 16.4054 22.2893 16.4579 22.0581 16.1112C18.9953 11.5143 15.9325 6.9227 12.8697 2.3311C12.6543 2.01063 12.4389 1.69542 12.2077 1.35394C8.75615 3.65499 5.33083 5.94029 1.8845 8.23609C5.25728 13.2848 8.59329 18.2914 11.9556 23.3295ZM19.7098 19.5995C19.7151 19.61 19.7203 19.6258 19.7256 19.6363C21.7902 19.0689 23.8549 18.4963 25.9143 17.9289C24.4117 12.4547 22.9092 7.01201 21.412 1.56408C19.258 2.15773 17.1198 2.74613 14.9658 3.33978C15.0447 3.46586 15.0972 3.56043 15.1602 3.64974C17.8028 7.61617 20.4506 11.5826 23.0931 15.5438C23.6605 16.3949 23.5344 17.0358 22.6728 17.6084C21.6851 18.2756 20.6975 18.9376 19.7098 19.5995ZM17.6136 21.4698C17.6136 21.4908 17.6136 21.5171 17.6189 21.5381C21.0547 21.7797 24.4905 22.0267 27.9369 22.2683C28.3414 16.584 28.7407 10.9417 29.1399 5.28885C27.2697 5.18378 25.4467 5.08396 23.5869 4.97889C23.6342 5.14175 23.6657 5.26258 23.6973 5.37816C24.8058 9.40238 25.9142 13.4266 27.0227 17.4508C27.2749 18.3597 26.9702 18.9008 26.0561 19.153C23.3505 19.899 20.6449 20.645 17.9394 21.391C17.829 21.412 17.7187 21.4435 17.6136 21.4698Z" fill="#FFDE01"/>
<path d="M13.7354 13.9152C13.3204 13.8521 13.0997 14.1831 12.8371 14.5246C11.7706 15.8905 9.8688 15.6121 9.03874 13.973C8.45559 12.8172 8.56066 11.6456 9.02823 10.4793C9.14381 10.1957 9.30141 9.93298 9.43801 9.65979C9.66391 9.19223 10.0054 8.94006 10.5413 8.87176C11.8704 8.69839 13.1313 8.80872 14.2345 9.64929C14.8649 10.1326 15.2852 10.763 15.4008 11.5563C15.5636 12.6753 14.9227 13.5947 13.7354 13.9152ZM9.92659 13.1219C10.0159 13.2742 10.142 13.5684 10.3469 13.7996C10.8827 14.4143 11.6182 14.3617 12.0122 13.6525C12.317 13.1061 12.7162 12.8434 13.3414 12.7909C14.1189 12.7226 14.4604 12.0449 14.1242 11.3304C13.9088 10.8681 13.5568 10.5371 13.105 10.3165C12.3432 9.94348 11.5394 9.91196 10.7146 10.0486C10.6411 10.0591 10.5518 10.1063 10.515 10.1641C9.98437 11.0257 9.66391 11.9398 9.92659 13.1219Z" fill="#FFDE01"/>
<path d="M13.9524 14.304C14.4988 14.2094 14.9086 14.1306 15.3236 14.0728C15.6966 14.0203 15.975 14.2199 16.0276 14.5456C16.0854 14.8871 15.8752 15.1603 15.4917 15.2338C15.3814 15.2549 15.2711 15.2969 15.1607 15.2916C14.5198 15.2654 14.1521 15.6121 13.9156 16.1637C13.8736 16.2635 13.8053 16.3581 13.737 16.4474C13.5374 16.7101 13.2169 16.7731 12.949 16.605C12.6916 16.4422 12.5917 16.1059 12.7494 15.8275C12.9647 15.4492 13.1801 15.0605 13.4428 14.7137C13.5952 14.5141 13.8421 14.388 13.9524 14.304Z" fill="#FFDE01"/>
</svg>
