<svg width="16" height="25" viewBox="0 0 16 25" fill="none" xmlns="http://www.w3.org/2000/svg">
<path d="M6.35348 3.96876V0.857128C6.35348 0.637247 6.53193 0.460046 6.75056 0.460046H9.86488C10.0848 0.460046 10.262 0.638494 10.262 0.857128V3.92626C12.0627 4.17305 13.8071 4.7965 15.21 5.70029C15.378 5.80808 15.4391 6.02363 15.3538 6.20381L15.3537 6.20405L13.7372 9.60083L6.35348 3.96876ZM6.35348 3.96876C4.85866 4.26809 3.65255 4.88686 2.81288 5.76543C1.94882 6.6695 1.48106 7.84036 1.48106 9.19569C1.48106 11.0607 2.29541 12.2227 3.43348 12.9982C4.55553 13.7627 5.99242 14.1512 7.24643 14.4903L7.25954 14.4938L7.25956 14.4938C8.06289 14.7109 8.79075 14.9084 9.31925 15.1669C9.8508 15.427 10.1241 15.7203 10.1241 16.1061C10.1241 16.3162 10.0574 16.4722 9.95366 16.5928C9.8474 16.7163 9.69571 16.8098 9.51735 16.879C9.15832 17.0181 8.72726 17.0447 8.45999 17.0447C7.63924 17.0447 6.61377 16.7913 5.58974 16.3626C4.56722 15.9344 3.55783 15.3363 2.76903 14.6575L2.76869 14.6572C2.67617 14.5781 2.55105 14.545 2.4313 14.5692M6.35348 3.96876L2.4313 14.5692M2.4313 14.5692C2.43139 14.5692 2.43148 14.5692 2.43157 14.5691L2.46097 14.7162L2.4313 14.5692ZM0.59453 18.6141C2.14322 19.8858 4.22437 20.8001 6.35274 21.1548M0.59453 18.6141L15.4153 15.872C15.4152 17.2839 14.9207 18.4911 14.007 19.4088C13.1187 20.301 11.8431 20.9112 10.2626 21.1796M0.59453 18.6141C0.594493 18.614 0.594456 18.614 0.594419 18.614L0.689613 18.498L0.59453 18.6141ZM6.35274 21.1548V24.4225C6.35274 24.6412 6.52994 24.8196 6.74982 24.8196H9.86556C10.0842 24.8196 10.2626 24.6424 10.2626 24.4225V21.1796M6.35274 21.1548V21.027H6.50274L6.47961 21.1753C6.43731 21.1687 6.39501 21.1618 6.35274 21.1548ZM10.2626 21.1796C10.2206 21.1867 10.1783 21.1936 10.1359 21.2003L10.1126 21.0521H10.2626V21.1796ZM9.70731 20.4741L9.71104 20.4582L9.81333 20.4444C11.3366 20.2387 12.539 19.7027 13.3587 18.9189C14.1762 18.1372 14.6225 17.1005 14.6226 15.8699L9.70731 20.4741ZM9.70731 20.4741C9.56621 20.5358 9.46972 20.6765 9.46972 20.8374V24.0245H7.14745V20.8124C7.14745 20.6142 7.00092 20.4464 6.80485 20.4195M9.70731 20.4741L6.81514 4.68964C5.37747 4.92565 4.24245 5.4696 3.46845 6.24151C2.69636 7.01152 2.27524 8.01624 2.27524 9.1945C2.27524 10.761 2.95017 11.7176 3.92782 12.3725C4.91831 13.0359 6.218 13.389 7.46668 13.7266L7.48067 13.7304C8.36601 13.9698 9.21496 14.1993 9.84153 14.5393C10.4787 14.8849 10.918 15.3634 10.918 16.1049C10.918 16.6503 10.6775 17.0918 10.2411 17.391C9.81117 17.6859 9.20081 17.8369 8.46079 17.8369C7.5776 17.8369 6.51247 17.5821 5.46011 17.1611C4.46557 16.7632 3.47329 16.2131 2.6455 15.5772L1.34575 18.195C2.8371 19.3377 4.80854 20.1445 6.80485 20.4195M6.80485 20.4195C6.80488 20.4195 6.80491 20.4195 6.80494 20.4195L6.78447 20.5681L6.80485 20.4195ZM15.4153 15.8719C15.4156 13.966 14.5941 12.77 13.4451 11.9651C12.3115 11.1709 10.8593 10.758 9.5915 10.3975L9.57948 10.3941L9.5446 10.3842L9.54444 10.3842C8.77112 10.1642 8.071 9.96279 7.5605 9.70841C7.03783 9.44797 6.77237 9.16171 6.77237 8.79663C6.77237 8.6381 6.81901 8.52103 6.8913 8.43057C6.96547 8.33776 7.07341 8.26476 7.20673 8.20911C7.47634 8.09656 7.818 8.06791 8.08505 8.06791C8.68922 8.06791 9.51702 8.23988 10.4228 8.54227C11.326 8.84382 12.2964 9.27158 13.1831 9.77517L13.1835 9.77539C13.2795 9.82952 13.3936 9.84128 13.4978 9.80882L13.4987 9.80852C13.6029 9.77527 13.6898 9.7007 13.7371 9.60097L15.4153 15.8719ZM9.46996 1.25189V4.27501C9.46996 4.47721 9.62223 4.6471 9.82335 4.66943L9.82364 4.66947C11.5056 4.853 13.1472 5.38845 14.4854 6.18226L13.2022 8.8787C11.4167 7.92896 9.36521 7.27379 8.08564 7.27379C7.45521 7.27379 6.93211 7.40542 6.5622 7.66482C6.18611 7.92856 5.97949 8.3174 5.97949 8.7956C5.97949 9.51493 6.41162 9.98507 7.03522 10.3297C7.64928 10.669 8.48135 10.9057 9.34926 11.1525L9.36286 11.1563C10.6269 11.5159 11.9433 11.8919 12.9468 12.5839C13.9378 13.2672 14.6226 14.2585 14.6226 15.8699L9.46996 1.25189ZM9.46972 24.1745H7.14745H9.46972Z" fill="#FFDE01" stroke="#FFDE01" stroke-width="0.3"/>
</svg>
