<svg width="18" height="19" viewBox="0 0 18 19" fill="none" xmlns="http://www.w3.org/2000/svg">
<path d="M8.78454 0.639972L7.89316 1.14412H10.034L9.90968 0.932242C9.58834 0.471804 9.21563 0.457295 8.78454 0.639957V0.639972ZM7.557 1.56055C7.10404 1.56055 6.73135 1.92591 6.73135 2.3862V15.5892C6.73135 16.0422 7.10404 16.4075 7.557 16.4075H17.0408C17.5011 16.4075 17.8665 16.0422 17.8665 15.5892V2.3862C17.8665 1.92591 17.5011 1.56055 17.0408 1.56055H7.557ZM6.38068 2.01366L0.550085 5.3528C0.148196 5.57935 0.0167368 6.08352 0.243274 6.47808L6.85563 17.8546C7.08218 18.2492 7.59353 18.3807 7.98824 18.1543L10.3045 16.8245H7.55715C6.87765 16.8245 6.32228 16.2619 6.32228 15.5896V7.20897C6.11774 7.61819 5.68664 7.9981 5.27742 8.08581C5.49663 8.47304 5.60624 8.67038 6.01532 8.94799L5.2554 9.40095C5.2262 8.89681 5.11659 8.69958 4.89738 8.30487C4.43709 8.83822 3.2534 9.01357 2.92461 8.42915C2.37657 7.45735 3.18769 6.19328 3.42876 5.2727C4.31281 5.51378 5.73769 5.43351 6.32225 6.33221V2.3866C6.32225 2.25513 6.34412 2.13085 6.38065 2.01391L6.38068 2.01366ZM10.6404 6.20047C11.3491 6.20047 11.751 6.63889 12.3356 6.85077C12.8616 6.63156 13.2561 6.20047 13.9722 6.20047C14.9221 6.20047 15.3969 6.89466 15.3897 7.8299C15.3312 8.83808 13.3439 10.6135 12.3135 11.7681C11.276 10.6137 9.22281 8.9624 9.20831 7.8299C9.20831 6.89466 9.68325 6.20047 10.6404 6.20047Z" fill="white"/>
</svg>
