<svg width="17" height="17" viewBox="0 0 17 17" fill="none" xmlns="http://www.w3.org/2000/svg">
<path d="M8.6619 0.965271C10.8422 0.965271 12.8168 1.84932 14.2455 3.27788C15.6741 4.70673 16.5581 6.68091 16.5581 8.86148C16.5581 11.0421 15.6741 13.0164 14.2455 14.4451C12.8166 15.8737 10.8425 16.7577 8.6619 16.7577C7.99645 16.7577 7.34839 16.6746 6.72925 16.5188C6.12951 16.3678 5.55616 16.1476 5.01931 15.8678L1.99226 16.6791C1.84029 16.7196 1.68395 16.6292 1.64346 16.4773C1.63019 16.4274 1.63112 16.3771 1.64346 16.3303L2.36756 13.629C1.87093 12.9744 1.47409 12.2384 1.19895 11.444C0.91852 10.6327 0.765625 9.76382 0.765625 8.86173C0.765625 6.68142 1.64968 4.70681 3.07823 3.27812C4.50709 1.84954 6.48126 0.965516 8.66183 0.965516L8.6619 0.965271ZM8.6619 7.7207C8.94579 7.7207 9.20365 7.83643 9.39065 8.02317C9.57872 8.21176 9.69431 8.46965 9.69431 8.75287C9.69431 9.03676 9.57858 9.29462 9.39185 9.48162C9.20325 9.66968 8.94551 9.78528 8.66191 9.78528C8.37802 9.78528 8.12016 9.66955 7.93316 9.48282C7.7451 9.29422 7.6295 9.03647 7.6295 8.75288C7.6295 8.46952 7.74523 8.21127 7.93196 8.0244C8.12056 7.83634 8.37831 7.72074 8.6619 7.72074V7.7207ZM8.98866 8.42611C8.90557 8.34303 8.78997 8.29154 8.6619 8.29154C8.53383 8.29154 8.41836 8.34303 8.33555 8.42572C8.25167 8.5096 8.20031 8.62506 8.20031 8.75287C8.20031 8.88094 8.2518 8.99641 8.33448 9.07922C8.41836 9.1631 8.53383 9.21446 8.6619 9.21446C8.78997 9.21446 8.90544 9.16297 8.98825 9.08029C9.07213 8.99641 9.1235 8.88094 9.1235 8.75287C9.1235 8.62506 9.072 8.50946 8.98865 8.42612L8.98866 8.42611ZM12.1933 7.7207C12.4772 7.7207 12.735 7.83643 12.922 8.02317C13.1101 8.21176 13.2257 8.46965 13.2257 8.75287C13.2257 9.03676 13.1099 9.29462 12.9232 9.48162C12.7346 9.66968 12.4769 9.78528 12.1933 9.78528C11.9099 9.78528 11.6517 9.66955 11.4648 9.48282C11.2767 9.29422 11.1611 9.03647 11.1611 8.75288C11.1611 8.46859 11.2769 8.21086 11.4633 8.02413C11.6514 7.83646 11.9094 7.72073 12.1933 7.72073L12.1933 7.7207ZM12.52 8.42611C12.4369 8.34303 12.3213 8.29154 12.1933 8.29154C12.0656 8.29154 11.9497 8.34316 11.8665 8.42611C11.7836 8.50919 11.7319 8.62506 11.7319 8.75287C11.7319 8.88094 11.7834 8.99641 11.8661 9.07922C11.95 9.1631 12.0655 9.21446 12.1933 9.21446C12.3213 9.21446 12.4368 9.16297 12.5196 9.08029C12.6035 8.99641 12.6549 8.88094 12.6549 8.75287C12.6549 8.62506 12.6034 8.50946 12.52 8.42612V8.42611ZM5.12991 7.7207C5.41354 7.7207 5.67166 7.83643 5.85866 8.02317C6.04673 8.21176 6.16232 8.46965 6.16232 8.75287C6.16232 9.03715 6.04633 9.2953 5.85919 9.48216C5.67312 9.66956 5.41472 9.78529 5.1299 9.78529C4.84655 9.78529 4.58829 9.66956 4.40142 9.48283C4.21336 9.29424 4.09776 9.03649 4.09776 8.75289C4.09776 8.46861 4.21349 8.21087 4.39996 8.02414C4.58789 7.83648 4.84562 7.72075 5.1299 7.72075L5.12991 7.7207ZM5.45667 8.42611C5.37359 8.34303 5.25799 8.29154 5.12991 8.29154C5.00211 8.29154 4.88637 8.34316 4.80316 8.42611C4.72021 8.50919 4.66859 8.62506 4.66859 8.75287C4.66859 8.88094 4.72008 8.99641 4.80276 9.07922C4.88664 9.1631 5.00211 9.21446 5.12991 9.21446C5.25706 9.21446 5.37279 9.16257 5.45627 9.07922C5.54015 8.99654 5.59151 8.88107 5.59151 8.75287C5.59151 8.62506 5.54002 8.50946 5.45667 8.42611ZM13.8419 3.68171C12.5165 2.35652 10.6848 1.5363 8.66196 1.5363C6.6391 1.5363 4.80739 2.35652 3.48199 3.68171C2.15679 5.00718 1.33658 6.83883 1.33658 8.86169C1.33658 9.70327 1.47766 10.5098 1.73658 11.2589C2.00533 12.0353 2.40267 12.7546 2.90331 13.3902C2.95653 13.4583 2.97856 13.55 2.95454 13.6398L2.32174 16.001L4.97994 15.2886C5.04763 15.2708 5.12195 15.2773 5.18831 15.3131C5.71256 15.5961 6.27622 15.8172 6.86774 15.9662C7.44054 16.1102 8.04192 16.1871 8.66198 16.1871C10.6847 16.1871 12.5165 15.3669 13.8419 14.0417C15.1671 12.7162 15.9874 10.8846 15.9874 8.8617C15.9874 6.83894 15.1671 5.00713 13.8419 3.68173L13.8419 3.68171Z" fill="#BAACD2"/>
</svg>
