<svg width="22" height="21" viewBox="0 0 22 21" fill="none" xmlns="http://www.w3.org/2000/svg">
<path d="M16.4709 4.73444H11.4727L15.6339 8.73303L16.4709 4.73444Z" fill="#FFFCFC"/>
<path d="M6.95312 9.07497H14.9707L10.9619 5.22241L6.95312 9.07497Z" fill="#FFFCFC"/>
<path d="M6.60156 9.77875L10.9632 20.5711L15.3248 9.77875H6.60156Z" fill="#FFFCFC"/>
<path d="M6.29403 8.73303L10.4553 4.73444H5.45703L6.29403 8.73303Z" fill="#FFFCFC"/>
<path d="M21.1704 9.07494L17.1272 5.03143L16.2812 9.07494H21.1704Z" fill="#FFFCFC"/>
<path d="M0.71875 9.77875L10.1439 20.4179L5.84492 9.77875H0.71875Z" fill="#FFFCFC"/>
<path d="M16.0841 9.77875L11.7852 20.4179L21.2103 9.77875H16.0841Z" fill="#FFFCFC"/>
<path d="M4.80484 5.03143L0.761719 9.07494H5.6509L4.80484 5.03143Z" fill="#FFFCFC"/>
<path d="M10.967 3.59082C11.1129 3.59082 11.2309 3.47231 11.2309 3.32696V0.945992C11.2309 0.800057 11.1123 0.682129 10.967 0.682129C10.8216 0.682129 10.7031 0.800645 10.7031 0.945992V3.32636C10.7031 3.47229 10.8211 3.59081 10.967 3.59081V3.59082Z" fill="#FFFCFC"/>
<path d="M5.83889 3.42752C5.88178 3.52938 5.9804 3.59085 6.08344 3.59085C6.11676 3.59085 6.15066 3.58451 6.18398 3.57095C6.31915 3.51523 6.38312 3.36089 6.32741 3.22645L5.45399 1.10802C5.39768 0.973581 5.24334 0.910195 5.10876 0.964589C4.97432 1.02031 4.90961 1.17465 4.96533 1.30908L5.83889 3.42752Z" fill="#FFFCFC"/>
<path d="M15.7456 3.57034C15.7789 3.58375 15.8128 3.59024 15.8461 3.59024C15.9491 3.59024 16.0478 3.52877 16.0908 3.42691L16.9643 1.30848C17.0201 1.17404 16.9553 1.01896 16.8209 0.963244C16.6871 0.909439 16.5321 0.972236 16.4757 1.10667L15.6021 3.22511C15.5464 3.36028 15.6104 3.51521 15.7456 3.57034L15.7456 3.57034Z" fill="#FFFCFC"/>
</svg>
