<svg width="17" height="12" viewBox="0 0 17 12" fill="none" xmlns="http://www.w3.org/2000/svg">
<path d="M15.6744 0.274902H1.32173C1.13607 0.274902 0.985352 0.425611 0.985352 0.611277V11.5509C0.985352 11.7365 1.13606 11.8872 1.32173 11.8872H15.6744C15.86 11.8872 16.0107 11.7365 16.0107 11.5509V0.611277C16.0107 0.425624 15.86 0.274902 15.6744 0.274902ZM12.8947 7.45081C12.7804 7.30443 12.569 7.27879 12.4226 7.39314C12.2762 7.5075 12.2506 7.71891 12.3649 7.86529L14.9842 11.2146H2.01195L4.63122 7.86529C4.74557 7.7189 4.71993 7.50761 4.57355 7.39314C4.42717 7.27879 4.21588 7.30443 4.10099 7.45081L1.65763 10.5747V1.41295L8.26188 7.89755C8.32733 7.96149 8.41259 7.99406 8.49741 7.99406C8.58223 7.99406 8.66748 7.96204 8.73294 7.89755L15.338 1.41295V10.5747L12.8947 7.45081ZM2.14487 0.947652H14.8521L8.49819 7.18603L2.14487 0.947652Z" fill="#BAACD2"/>
</svg>
