<svg width="31" height="25" viewBox="0 0 31 25" fill="none" xmlns="http://www.w3.org/2000/svg">
<path d="M22.7461 2.85756C22.8512 3.24107 22.972 3.61932 23.0561 4.00808C23.1033 4.21823 23.1979 4.27601 23.4028 4.28652C25.231 4.38109 27.0645 4.48616 28.8928 4.59648C29.8436 4.65427 30.2377 5.11133 30.1694 6.06748C29.7753 11.6152 29.3813 17.163 28.9873 22.7107C28.9243 23.5776 28.4409 23.9873 27.5741 23.9296C23.6024 23.6459 19.6307 23.3569 15.6538 23.0995C15.3438 23.0785 14.9813 23.1941 14.7082 23.3569C13.9937 23.7825 13.3107 24.2763 12.6173 24.7333C11.9238 25.1904 11.2251 25.0486 10.7627 24.3603C7.46877 19.401 4.16954 14.4521 0.875561 9.49805C0.423755 8.82559 0.570856 8.10585 1.2328 7.66456C4.57932 5.4318 7.92583 3.19904 11.2723 0.971531C11.9973 0.488204 12.6908 0.63005 13.1741 1.34453C13.4315 1.72279 13.6995 2.09579 13.9306 2.48981C14.0725 2.73147 14.2143 2.75774 14.4718 2.68419C16.5732 2.09054 18.6798 1.5179 20.7865 0.94001C21.6954 0.687839 22.2312 0.992545 22.4834 1.91192C22.5727 2.22713 22.6568 2.54234 22.7461 2.85756ZM11.8345 23.8192C11.9816 23.7299 12.0919 23.6669 12.2022 23.5986C15.4069 21.4604 18.6063 19.3222 21.811 17.1892C22.2523 16.895 22.1682 16.9476 21.937 16.6008C18.8742 12.004 15.8114 7.41239 12.7486 2.82078C12.5332 2.50031 12.3178 2.1851 12.0866 1.84362C8.63506 4.14468 5.20974 6.42997 1.76341 8.72577C5.13619 13.7744 8.4722 18.7811 11.8345 23.8192ZM19.5887 20.0892C19.594 20.0997 19.5992 20.1155 19.6045 20.126C21.6691 19.5586 23.7338 18.986 25.7932 18.4186C24.2906 12.9444 22.7881 7.5017 21.2909 2.05376C19.1369 2.64741 16.9987 3.23581 14.8448 3.82946C14.9236 3.95555 14.9761 4.05011 15.0391 4.13942C17.6817 8.10585 20.3295 12.0723 22.972 16.0335C23.5394 16.8845 23.4133 17.5255 22.5517 18.0981C21.564 18.7653 20.5764 19.4273 19.5887 20.0892ZM17.4925 21.9595C17.4925 21.9805 17.4925 22.0068 17.4978 22.0278C20.9336 22.2694 24.3694 22.5163 27.8158 22.758C28.2203 17.0737 28.6196 11.4314 29.0188 5.77853C27.1486 5.67346 25.3256 5.57364 23.4658 5.46857C23.5131 5.63143 23.5446 5.75226 23.5762 5.86784C24.6847 9.89206 25.7932 13.9163 26.9017 17.9405C27.1538 18.8494 26.8491 19.3905 25.935 19.6427C23.2294 20.3887 20.5238 21.1347 17.8183 21.8807C17.7079 21.9017 17.5976 21.9332 17.4925 21.9595Z" fill="#FFDE01"/>
<path d="M13.6153 14.4049C13.2003 14.3418 12.9796 14.6728 12.7169 15.0143C11.6505 16.3802 9.74868 16.1018 8.91862 14.4627C8.33547 13.3069 8.44055 12.1354 8.90811 10.9691C9.02369 10.6854 9.1813 10.4227 9.31789 10.1495C9.54379 9.68194 9.88527 9.42977 10.4211 9.36148C11.7503 9.18811 13.0111 9.29843 14.1144 10.139C14.7448 10.6223 15.1651 11.2528 15.2807 12.046C15.4435 13.165 14.8026 14.0844 13.6153 14.4049ZM9.80647 13.6116C9.89578 13.764 10.0219 14.0582 10.2268 14.2893C10.7626 14.904 11.4981 14.8514 11.8921 14.1422C12.1968 13.5958 12.5961 13.3332 13.2213 13.2806C13.9988 13.2123 14.3403 12.5346 14.0041 11.8201C13.7887 11.3578 13.4367 11.0269 12.9849 10.8062C12.2231 10.4332 11.4193 10.4017 10.5945 10.5383C10.521 10.5488 10.4316 10.5961 10.3949 10.6538C9.86426 11.5154 9.54379 12.4295 9.80647 13.6116Z" fill="#FFDE01"/>
<path d="M13.8313 14.7936C14.3777 14.6991 14.7875 14.6203 15.2025 14.5625C15.5755 14.5099 15.8539 14.7096 15.9065 15.0353C15.9643 15.3768 15.7541 15.65 15.3706 15.7235C15.2603 15.7445 15.15 15.7865 15.0396 15.7813C14.3987 15.755 14.031 16.1018 13.7945 16.6534C13.7525 16.7532 13.6842 16.8478 13.6159 16.9371C13.4163 17.1997 13.0958 17.2628 12.8279 17.0947C12.5705 16.9318 12.4707 16.5956 12.6283 16.3172C12.8437 15.9389 13.059 15.5501 13.3217 15.2034C13.4741 15.0038 13.721 14.8777 13.8313 14.7936Z" fill="#FFDE01"/>
</svg>
