<svg width="22" height="21" viewBox="0 0 22 21" fill="none" xmlns="http://www.w3.org/2000/svg">
<path d="M19.8035 2.59752C18.6751 1.46915 17.1667 0.801696 15.5727 0.725139C13.9787 0.648735 12.4135 1.16891 11.1823 2.18418C9.91796 1.15272 8.30823 0.641541 6.68043 0.754635C5.0527 0.867562 3.52915 1.59633 2.41952 2.79269C1.30982 3.98904 0.697481 5.56298 0.707144 7.19481C0.716618 8.82637 1.34726 10.3931 2.47073 11.5766C2.49457 11.6128 2.52223 11.6464 2.55295 11.6771L10.7188 19.843C10.839 19.9632 11.0022 20.0308 11.1725 20.0308C11.3427 20.0308 11.5059 19.9632 11.6262 19.843L19.6519 11.8172C19.7097 11.7632 19.758 11.7166 19.8034 11.6708C22.3069 9.16957 22.3069 5.0991 19.8034 2.59741L19.8035 2.59752Z" fill="#FFDE01"/>
</svg>
