<svg width="18" height="21" viewBox="0 0 18 21" fill="none" xmlns="http://www.w3.org/2000/svg">
<path fill-rule="evenodd" clip-rule="evenodd" d="M13.888 4.83195H11.8103C11.6073 4.45718 11.2496 4.13474 10.79 3.90031L12.407 1.16273C12.541 0.935814 12.4658 0.643184 12.2388 0.50977C12.0119 0.375736 11.7193 0.450983 11.5859 0.677903L9.87047 3.58227C9.5955 3.52539 9.30288 3.49438 9.00072 3.49438C8.69857 3.49438 8.40593 3.52539 8.13098 3.58227L6.41556 0.677903C6.28152 0.450987 5.9889 0.375739 5.7626 0.50977C5.53568 0.643805 5.46043 0.936424 5.59446 1.16273L7.21142 3.90031C6.75185 4.13487 6.39412 4.45774 6.19118 4.83195H4.11348C2.22921 4.83195 0.6875 6.37366 0.6875 8.25849V14.8965C0.6875 16.7807 2.22921 18.323 4.11348 18.323H13.8889C15.7732 18.323 17.3149 16.7813 17.3149 14.8965V8.25849C17.3149 6.37422 15.7732 4.83195 13.8889 4.83195H13.888ZM12.2452 19.2787V19.7104C12.2452 20.0637 12.534 20.3526 12.888 20.3526H14.5118C14.8652 20.3526 15.1547 20.0638 15.1547 19.7104V19.0909C14.7533 19.2129 14.3286 19.2786 13.8886 19.2786H12.2458L12.2452 19.2787ZM5.75544 19.2787V19.7104C5.75544 20.0637 5.46665 20.3526 5.1126 20.3526H3.48876C3.13545 20.3526 2.84592 20.0638 2.84592 19.7104V19.0909C3.24729 19.2129 3.67203 19.2786 4.11204 19.2786H5.75484L5.75544 19.2787ZM5.26678 6.22779H12.7336C13.6097 6.22779 14.4061 6.58624 14.9832 7.16323C15.5604 7.74038 15.9181 8.5368 15.9181 9.41287V13.7426C15.9181 14.6187 15.5597 15.4151 14.9832 15.9922C14.4061 16.5694 13.6097 16.9277 12.7336 16.9277H5.26678C4.39072 16.9277 3.5943 16.5692 3.01715 15.9922C2.44 15.4151 2.08227 14.6187 2.08227 13.7426V9.41287C2.08227 8.5368 2.44073 7.74038 3.01715 7.16323C3.5943 6.58608 4.39072 6.22779 5.26678 6.22779ZM7.68325 9.90905C7.86975 9.72255 8.1725 9.72255 8.359 9.90905C8.54551 10.0955 8.54551 10.3983 8.359 10.5848L6.347 12.5968C6.1605 12.7833 5.85774 12.7833 5.67124 12.5968C5.48474 12.4103 5.48474 12.1076 5.67124 11.9211L7.68325 9.90905ZM6.50826 8.34841C6.69476 8.16191 6.99752 8.16191 7.18402 8.34841C7.37052 8.53491 7.37052 8.83767 7.18402 9.02417L4.61781 11.5904C4.43131 11.7769 4.12855 11.7769 3.94205 11.5904C3.75555 11.4039 3.75555 11.1011 3.94205 10.9146L6.50826 8.34841ZM12.7331 7.18355H5.2663C4.65374 7.18355 4.09687 7.43442 3.69242 7.83842C3.28857 8.24303 3.03694 8.7999 3.03694 9.4123V13.742C3.03694 14.3546 3.28781 14.9115 3.69242 15.3159C4.09627 15.7198 4.65389 15.9708 5.2663 15.9708H12.7331C13.3457 15.9708 13.9025 15.7199 14.307 15.3159C14.7108 14.9113 14.9625 14.3544 14.9625 13.742V9.4123C14.9625 8.79975 14.7116 8.24288 14.307 7.83842C13.9031 7.43457 13.3455 7.18355 12.7331 7.18355Z" fill="white"/>
</svg>
