<svg width="67" height="16" viewBox="0 0 67 16" fill="none" xmlns="http://www.w3.org/2000/svg">
<path d="M23.6593 15.8896H23.1719V10.2963H23.6593V15.8896ZM27.3748 10.2963C27.8026 10.2899 28.2283 10.3558 28.6341 10.4913C28.9892 10.6087 29.3159 10.7993 29.5929 11.0506C29.8529 11.2967 30.0558 11.5967 30.1874 11.9296C30.47 12.6778 30.47 13.5034 30.1874 14.2516C30.0537 14.5857 29.848 14.8864 29.5849 15.1321C29.3079 15.3835 28.9813 15.574 28.6261 15.6914C28.2208 15.8267 27.7956 15.8927 27.3684 15.8864H25.3325V10.2931L27.3748 10.2963ZM25.8215 10.7597V15.4261H27.3748C27.7408 15.4345 28.1056 15.3805 28.4535 15.2663C28.7458 15.167 29.0138 15.0069 29.2398 14.7965C29.4532 14.5909 29.6171 14.3396 29.7192 14.0614C29.9356 13.4405 29.9356 12.7646 29.7192 12.1437C29.6167 11.8652 29.4529 11.6134 29.2398 11.407C29.0145 11.1956 28.7463 11.0354 28.4535 10.9372C28.1055 10.8236 27.7408 10.7696 27.3748 10.7773L25.8215 10.7597ZM36.3847 10.2324C36.6189 10.2318 36.8521 10.2586 37.0799 10.3123C37.2983 10.3637 37.5098 10.4409 37.7095 10.5424C37.9018 10.6395 38.0805 10.7609 38.2417 10.9036C38.399 11.0433 38.5358 11.2047 38.6475 11.383L38.2401 11.6547C38.1444 11.508 38.0293 11.3747 37.8982 11.2584C37.766 11.1413 37.6202 11.0409 37.4636 10.9595C37.3013 10.8756 37.1297 10.8117 36.9521 10.7693C36.7667 10.7253 36.5767 10.7032 36.3864 10.7038C36.0686 10.7013 35.7534 10.7599 35.4577 10.8764C35.1794 10.9842 34.9254 11.1473 34.7117 11.3559C34.4966 11.5714 34.327 11.8279 34.2129 12.1101C33.9707 12.7374 33.9707 13.4325 34.2129 14.0598C34.3273 14.3427 34.4976 14.5998 34.713 14.8157C34.9271 15.0242 35.181 15.1873 35.4594 15.2951C35.7551 15.4116 36.0702 15.4702 36.388 15.4677C36.5774 15.4682 36.7661 15.4467 36.9504 15.4038C37.1274 15.363 37.2987 15.3002 37.4602 15.2168C37.6175 15.1356 37.764 15.0352 37.8965 14.918C38.0283 14.8011 38.1434 14.6667 38.2384 14.5184L38.6382 14.8109C38.5221 14.9884 38.3829 15.1497 38.224 15.2903C38.0637 15.4298 37.8864 15.549 37.6968 15.6451C37.4994 15.7451 37.2906 15.8207 37.0752 15.8704C36.4677 16.0087 35.8324 15.9619 35.2516 15.7362C34.9124 15.6022 34.6033 15.4017 34.3423 15.1465C34.0831 14.8892 33.8787 14.5821 33.7415 14.2436C33.4515 13.5006 33.4515 12.6757 33.7415 11.9327C33.8783 11.5936 34.0827 11.2859 34.3423 11.0282C34.6033 10.773 34.9124 10.5725 35.2516 10.4386C35.6123 10.2978 35.9963 10.2279 36.383 10.2324H36.3847ZM40.3048 12.7893C40.3764 12.6707 40.4647 12.5631 40.5668 12.4697C40.6624 12.3811 40.7702 12.3063 40.8866 12.2476C41.0033 12.1904 41.1268 12.1474 41.2542 12.1197C41.38 12.0921 41.5085 12.0782 41.6376 12.0782C41.8551 12.076 42.0715 12.1116 42.2769 12.1836C42.4629 12.2491 42.6335 12.3519 42.7787 12.4857C42.9192 12.62 43.0283 12.7837 43.0982 12.9651C43.1765 13.1657 43.215 13.3795 43.2116 13.5948V15.8992H42.7563V13.7242C42.7587 13.5504 42.7316 13.3775 42.6764 13.2128C42.6272 13.0684 42.5466 12.9368 42.4398 12.8277C42.3328 12.7204 42.2037 12.6381 42.0611 12.5864C41.8972 12.5276 41.7239 12.4989 41.5496 12.5017C41.381 12.5002 41.2134 12.5306 41.0559 12.5911C40.9067 12.6484 40.7708 12.7354 40.6564 12.8468C40.542 12.9599 40.4513 13.0946 40.3895 13.2432C40.3232 13.4032 40.2901 13.5749 40.2921 13.7482V15.8896H39.8365V10.1365H40.2921L40.3048 12.7893ZM46.197 12.0782C46.4366 12.0762 46.6741 12.1246 46.8935 12.2204C47.104 12.3121 47.2926 12.4465 47.4482 12.6151C47.6088 12.7922 47.7342 12.9983 47.8172 13.2224C47.9102 13.4697 47.958 13.7317 47.958 13.9959C47.958 14.031 47.958 14.0635 47.958 14.0933C47.958 14.1232 47.958 14.153 47.958 14.1828H44.797C44.8087 14.3847 44.8579 14.5825 44.9425 14.7661C45.0195 14.9301 45.1282 15.0772 45.262 15.1992C45.3925 15.3179 45.545 15.4096 45.711 15.4693C45.8849 15.5317 46.0682 15.563 46.2529 15.562C46.4961 15.566 46.737 15.5169 46.9591 15.4182C47.1685 15.3215 47.3596 15.189 47.5235 15.0266L47.7677 15.3462C47.657 15.459 47.5342 15.5598 47.4017 15.6467C47.2829 15.7242 47.1558 15.7885 47.023 15.8384C46.8962 15.8861 46.7644 15.9198 46.6299 15.9391C46.4961 15.9575 46.361 15.9666 46.2258 15.9663C45.9659 15.9689 45.7079 15.9206 45.4667 15.824C45.2416 15.7342 45.0375 15.5987 44.8672 15.4261C44.695 15.2487 44.5611 15.0376 44.4742 14.8061C44.3755 14.5514 44.3266 14.2802 44.3303 14.007C44.3276 13.7399 44.3758 13.4747 44.4725 13.2256C44.5611 12.9966 44.6943 12.7875 44.8642 12.6103C45.0318 12.4377 45.2329 12.3012 45.4554 12.2092C45.6902 12.1134 45.9418 12.0661 46.1954 12.0702L46.197 12.0782ZM46.197 12.4825C46.0171 12.4801 45.8384 12.5132 45.6711 12.58C45.5159 12.6431 45.3744 12.7353 45.254 12.8516C45.1319 12.9707 45.0322 13.1109 44.9599 13.2655C44.8823 13.432 44.8331 13.6102 44.8147 13.7929H47.4947C47.481 13.6087 47.4362 13.4283 47.3619 13.2591C47.295 13.1048 47.1993 12.9644 47.0806 12.8453C46.9631 12.7287 46.8236 12.6366 46.6704 12.5744C46.5169 12.5121 46.3529 12.4809 46.1873 12.4825H46.197ZM50.7468 12.0782C51.013 12.0758 51.277 12.1269 51.5232 12.2284C51.7564 12.3247 51.9648 12.4728 52.1321 12.6615L51.8367 12.9683C51.6945 12.8249 51.5269 12.7089 51.3426 12.6263C51.1505 12.5433 50.9431 12.5019 50.7337 12.5049C50.537 12.503 50.3416 12.5416 50.1603 12.6183C49.9864 12.6928 49.8291 12.8015 49.6983 12.9379C49.5658 13.0759 49.4618 13.2388 49.3932 13.4173C49.2464 13.8078 49.2464 14.2382 49.3932 14.6287C49.4598 14.8071 49.5622 14.97 49.694 15.1074C49.8261 15.2448 49.9847 15.3538 50.1603 15.4277C50.3416 15.5045 50.537 15.5431 50.7337 15.5412C50.9461 15.5434 51.1566 15.4998 51.3506 15.4133C51.5349 15.3305 51.7032 15.2158 51.8477 15.0746L52.1321 15.3862C51.9628 15.5742 51.7537 15.7221 51.5202 15.8193C51.2743 15.9209 51.011 15.972 50.7451 15.9695C50.4788 15.9728 50.2148 15.9227 49.9683 15.8224C49.7401 15.7296 49.5331 15.5912 49.3598 15.4156C49.1868 15.24 49.0513 15.031 48.9617 14.8013C48.7723 14.3052 48.7723 13.7568 48.9617 13.2608C49.051 13.0307 49.1861 12.8212 49.3594 12.6454C49.5324 12.4695 49.7398 12.3308 49.9683 12.238C50.2115 12.1314 50.4734 12.0743 50.7387 12.0702L50.7468 12.0782ZM53.6633 13.7242H54.2735L55.8558 12.1389H56.4309L54.6411 13.9128L56.463 15.8976H55.8846L54.2735 14.1397H53.6633V15.8976H53.1996V10.1445H53.6552L53.6633 13.7242ZM29.1311 8.30832V5.91122C29.1311 5.0067 28.5542 4.39784 27.6257 4.38984C27.3613 4.37275 27.0971 4.42687 26.8607 4.54664C26.6243 4.66637 26.4244 4.84732 26.2817 5.07063C26.1517 4.85395 25.9657 4.67634 25.7432 4.55654C25.5207 4.43671 25.2701 4.37913 25.0176 4.38984C24.7978 4.37924 24.579 4.4261 24.3828 4.52586C24.1867 4.62566 24.0199 4.77486 23.899 4.95876V4.47933H23.0664V8.30511H23.907V6.18768C23.907 5.52289 24.2745 5.17129 24.8434 5.17129C25.4124 5.17129 25.676 5.53085 25.676 6.17969V8.30832H26.5166V6.18768C26.5166 5.52289 26.9002 5.17129 27.4531 5.17129C28.006 5.17129 28.2937 5.53085 28.2937 6.17969V8.30832H29.1311ZM41.569 4.48251H40.2088V3.32233H39.3765V4.48251H38.5997V5.24321H39.3765V6.9883C39.3765 7.87683 39.72 8.4058 40.7043 8.4058C41.0719 8.40697 41.4325 8.3045 41.7447 8.11017L41.5051 7.3974C41.2817 7.53048 41.0281 7.60468 40.7682 7.61315C40.3527 7.61315 40.2155 7.35746 40.2155 6.97391V5.24321H41.5754L41.569 4.48251ZM48.6693 4.38663C48.4662 4.38071 48.2652 4.42972 48.0878 4.52844C47.9102 4.62716 47.7627 4.77195 47.6606 4.94755V4.48251H46.836V8.30832H47.6687V6.1637C47.6687 5.52446 47.9403 5.17928 48.4853 5.17928C48.6636 5.17671 48.8406 5.20929 49.0065 5.27516L49.2621 4.4905C49.0717 4.42246 48.8713 4.38733 48.6693 4.38663ZM37.938 4.78777C37.4666 4.5077 36.9246 4.36903 36.3767 4.38823C35.4082 4.38823 34.7786 4.85167 34.7786 5.61238C34.7786 6.23723 35.2423 6.62074 36.0987 6.74061L36.4901 6.79654C36.9457 6.86047 37.1632 6.9803 37.1632 7.19605C37.1632 7.49171 36.8594 7.65948 36.2904 7.65948C35.8314 7.67407 35.3811 7.53329 35.0121 7.25998L34.6203 7.90878C35.1054 8.2478 35.6862 8.42203 36.2776 8.4058C37.382 8.4058 38.0229 7.88483 38.0229 7.15771C38.0229 6.48492 37.5178 6.13335 36.6868 6.01349L36.2954 5.95755C35.9358 5.90961 35.6464 5.83769 35.6464 5.582C35.6464 5.30233 35.918 5.13295 36.375 5.13295C36.7938 5.13914 37.2043 5.25188 37.5673 5.46053L37.938 4.78777ZM60.2376 4.38823C60.0345 4.38231 59.8338 4.43132 59.6562 4.53005C59.4789 4.62877 59.3313 4.77356 59.2293 4.94915V4.48251H58.4047V8.30832H59.2373V6.1637C59.2373 5.52446 59.509 5.17928 60.0539 5.17928C60.2322 5.17671 60.4092 5.20929 60.5748 5.27516L60.8304 4.4905C60.64 4.42246 60.4397 4.38733 60.2376 4.38663V4.38823ZM49.5113 6.39703C49.5113 7.55721 50.3199 8.4058 51.552 8.4058C52.0518 8.43052 52.5426 8.26747 52.9279 7.94876L52.5285 7.27597C52.2385 7.49472 51.8852 7.61358 51.5215 7.61475C50.8568 7.61475 50.3694 7.12573 50.3694 6.39061C50.3694 5.6555 50.8585 5.1745 51.5215 5.1665C51.8835 5.17042 52.2344 5.29092 52.5222 5.51007L52.9216 4.83729C52.5362 4.51857 52.0454 4.35552 51.5456 4.38024C50.3135 4.38024 49.505 5.22883 49.505 6.38904L49.5113 6.39703ZM57.3067 6.39703V4.47933H56.4757V4.94437C56.3339 4.76118 56.1499 4.61468 55.9398 4.5171C55.7297 4.41951 55.4992 4.37368 55.2677 4.38345C54.1952 4.38345 53.3498 5.22404 53.3498 6.39222C53.3498 7.56042 54.1905 8.40102 55.2677 8.40102C55.4992 8.41079 55.7297 8.36496 55.9398 8.26737C56.1499 8.16975 56.3339 8.02326 56.4757 7.84006V8.30353H57.3084L57.3067 6.39703ZM54.2096 6.39703C54.2096 5.72425 54.6491 5.17289 55.3697 5.17289C56.0586 5.17289 56.5222 5.70186 56.5222 6.39703C56.5222 7.09217 56.0586 7.62114 55.3697 7.62114C54.6491 7.62114 54.2096 7.06822 54.2096 6.39703ZM44.1704 4.38663C43.052 4.38663 42.2655 5.20327 42.2655 6.39543C42.2655 7.61154 43.0822 8.4042 44.2266 8.4042C44.7977 8.4242 45.3563 8.23305 45.7959 7.86723L45.3885 7.25037C45.0703 7.50469 44.6766 7.64533 44.2698 7.64991C43.7328 7.64991 43.2454 7.40219 43.1253 6.71344H45.9669C45.9749 6.60957 45.9829 6.50569 45.9829 6.39382C45.9829 5.20166 45.2379 4.38506 44.1657 4.38506L44.1704 4.38663ZM44.1547 5.13134C44.6916 5.13134 45.0352 5.46695 45.1232 6.05982H43.1303C43.218 5.5069 43.5539 5.13134 44.1467 5.13134H44.1547ZM65.0382 6.39543V2.94678H64.2056V4.94755C64.0637 4.76439 63.8801 4.61786 63.6696 4.52028C63.4595 4.42269 63.229 4.37686 62.9975 4.38663C61.925 4.38663 61.0796 5.22722 61.0796 6.39543C61.0796 7.5636 61.9203 8.4042 62.9975 8.4042C63.229 8.41397 63.4595 8.36813 63.6696 8.27055C63.8801 8.17296 64.0637 8.02644 64.2056 7.84328V8.30671H65.0382V6.39543ZM66.0114 7.95515C66.0445 7.95501 66.077 7.96154 66.1074 7.97432C66.1365 7.98679 66.1633 8.00469 66.1857 8.02704C66.2081 8.04902 66.2258 8.07504 66.2385 8.10375C66.2513 8.13352 66.2579 8.1656 66.2579 8.19805C66.2579 8.23047 66.2513 8.26255 66.2385 8.29233C66.2258 8.32103 66.2081 8.34706 66.1857 8.36904C66.1629 8.39132 66.1365 8.40921 66.1074 8.42179C66.077 8.43467 66.0445 8.44123 66.0114 8.44096C65.9629 8.44156 65.915 8.42778 65.8739 8.40135C65.8331 8.37492 65.801 8.33699 65.7812 8.29233C65.7685 8.26252 65.7622 8.23047 65.7622 8.19805C65.7622 8.16564 65.7685 8.13355 65.7812 8.10375C65.8063 8.04507 65.8535 7.9986 65.9124 7.97432C65.9411 7.96231 65.9723 7.95578 66.0034 7.95515H66.0114ZM66.0114 8.38663C66.0368 8.387 66.0616 8.38212 66.085 8.37225C66.1071 8.36271 66.1271 8.34916 66.1442 8.33227C66.1797 8.29664 66.1994 8.24837 66.1994 8.19805C66.1994 8.14774 66.1797 8.09947 66.1442 8.0638C66.1271 8.04684 66.1071 8.03329 66.085 8.02386C66.0616 8.01406 66.0368 8.00917 66.0114 8.00947C65.9856 8.00914 65.9602 8.01402 65.9365 8.02386C65.9077 8.03604 65.8826 8.05497 65.8632 8.07906C65.8438 8.10315 65.8304 8.13162 65.8244 8.16202C65.8184 8.19243 65.82 8.22381 65.8287 8.25349C65.8378 8.28319 65.8538 8.31023 65.8756 8.33227C65.893 8.34937 65.9137 8.36295 65.9365 8.37225C65.9575 8.38165 65.9803 8.38707 66.0034 8.38821L66.0114 8.38663ZM66.0258 8.08297C66.0499 8.0813 66.0736 8.08809 66.093 8.10218C66.1007 8.10843 66.1071 8.11649 66.1114 8.12566C66.1154 8.13483 66.1174 8.14483 66.1168 8.1549C66.1171 8.16353 66.1158 8.17216 66.1124 8.18016C66.1091 8.18815 66.1041 8.19534 66.0977 8.20123C66.083 8.21428 66.0646 8.22214 66.0448 8.22361L66.1185 8.30832H66.0609L65.9923 8.22361H65.9699V8.30832H65.9221V8.08297H66.0258ZM65.9699 8.12452V8.18528H66.0258C66.0358 8.18815 66.0462 8.18815 66.0562 8.18528C66.0599 8.1828 66.0629 8.17945 66.0646 8.17554C66.0666 8.17163 66.0676 8.16728 66.0673 8.16289C66.0676 8.15851 66.0666 8.15416 66.0646 8.15025C66.0629 8.14633 66.0599 8.14299 66.0562 8.14051C66.0462 8.13764 66.0358 8.13764 66.0258 8.14051L65.9699 8.12452ZM61.9411 6.39382C61.9411 5.72103 62.3807 5.16972 63.1012 5.16972C63.7901 5.16972 64.2534 5.69865 64.2534 6.39382C64.2534 7.08899 63.7901 7.61793 63.1012 7.61793C62.3807 7.61793 61.9411 7.06501 61.9411 6.39382ZM33.8312 6.39382V4.47612H32.9841V4.94116C32.8421 4.758 32.6583 4.61147 32.4481 4.51389C32.2379 4.4163 32.0074 4.37047 31.7759 4.38024C30.7036 4.38024 29.8582 5.22083 29.8582 6.38904C29.8582 7.55721 30.6988 8.39781 31.7759 8.39781C32.0074 8.40758 32.2379 8.36174 32.4481 8.26416C32.6583 8.16657 32.8421 8.02005 32.9841 7.83689V8.30032H33.8168L33.8312 6.39382ZM30.734 6.39382C30.734 5.72103 31.1734 5.16972 31.8942 5.16972C32.5829 5.16972 33.0464 5.69865 33.0464 6.39382C33.0464 7.08899 32.5829 7.61793 31.8942 7.61793C31.1638 7.61475 30.7243 7.06822 30.7243 6.39543L30.734 6.39382ZM57.0414 15.701H56.9695V15.8896H56.9344V15.701H56.8624V15.6675H57.0414V15.701ZM57.3164 15.8896H57.2749V15.7074L57.2094 15.8672H57.1709L57.1053 15.7074V15.888H57.0702V15.6658H57.1247L57.1886 15.8257L57.2525 15.6658H57.3067L57.3164 15.8896Z" fill="white"/>
<path d="M12.4431 1.84717H7.40918V10.8938H12.4431V1.84717Z" fill="#FF5F00"/>
<path d="M7.7346 6.37142C7.73393 5.50031 7.93141 4.64045 8.31208 3.85689C8.69278 3.07337 9.24671 2.3867 9.93198 1.84886C9.08325 1.18186 8.06398 0.767101 6.99068 0.651953C5.91742 0.536838 4.83338 0.725986 3.86249 1.19778C2.89162 1.66962 2.07306 2.40507 1.50039 3.32006C0.927714 4.23509 0.624023 5.29276 0.624023 6.37222C0.624023 7.45167 0.927714 8.50935 1.50039 9.42434C2.07306 10.3394 2.89162 11.0748 3.86249 11.5466C4.83338 12.0185 5.91742 12.2076 6.99068 12.0925C8.06398 11.9773 9.08325 11.5626 9.93198 10.8956C9.24651 10.3575 8.69245 9.67063 8.31174 8.88681C7.93104 8.10298 7.73369 7.24279 7.7346 6.37142Z" fill="#EB001B"/>
<path d="M18.6844 9.93516V9.7498H18.7611V9.71143H18.5693V9.7498H18.6444V9.93516H18.6844ZM19.0535 9.93516V9.71143H18.996L18.9289 9.87123L18.8618 9.71143H18.8026V9.93516H18.8442V9.76736L18.9065 9.91278H18.9497L19.012 9.76736V9.93677L19.0535 9.93516Z" fill="#F79E1B"/>
<path d="M19.2414 6.37172C19.2414 7.45127 18.9376 8.50901 18.3648 9.42404C17.7921 10.3391 16.9734 11.0745 16.0024 11.5463C15.0314 12.018 13.9472 12.2071 12.8739 12.0917C11.8005 11.9765 10.7813 11.5615 9.93262 10.8943C10.6176 10.356 11.1714 9.66909 11.5522 8.88553C11.933 8.10195 12.1308 7.24212 12.1308 6.37095C12.1308 5.49974 11.933 4.63991 11.5522 3.85632C11.1714 3.07277 10.6176 2.3859 9.93262 1.84759C10.7814 1.18029 11.8008 0.765294 12.8743 0.650046C13.9478 0.534831 15.032 0.723978 16.0031 1.19594C16.9742 1.66788 17.7928 2.40356 18.3655 3.31882C18.9381 4.23412 19.2417 5.29206 19.2414 6.37172Z" fill="#F79E1B"/>
</svg>
