<svg width="109" height="22" viewBox="0 0 109 22" fill="none" xmlns="http://www.w3.org/2000/svg">
<g opacity="0.68">
<path d="M7.39604 20.1191L10.8781 10.5569L0.99121 13.9307C-0.127381 14.3096 0.594291 13.4075 0.594291 13.4075L2.12784 11.4771C2.84951 10.5569 4.04027 10.5569 4.04027 10.5569C4.04027 10.5569 2.84951 10.5569 2.12784 9.63679L0.594291 7.70633C0.594291 7.70633 -0.127381 6.78619 0.99121 7.18311L10.8781 10.5569V17.1783C10.8781 17.1783 10.8781 18.3329 9.93993 19.0366L7.95534 20.516C7.95534 20.4979 6.99912 21.2016 7.39604 20.1191ZM10.8781 3.93559V10.5569L7.39604 0.99478C6.99912 -0.0877267 7.9373 0.615902 7.9373 0.615902L9.92189 2.09533C10.8781 2.78092 10.8781 3.93559 10.8781 3.93559Z" fill="#BAACD2"/>
<path d="M57.6963 16.0236H58.6164L59.0675 14.7968H60.7995L61.2686 16.0236H62.2248L60.2763 11.1343H59.5726L57.6963 16.0236ZM59.32 14.0931L59.6809 13.1369C59.8072 12.758 59.8793 12.5415 59.9335 12.3792H59.9515C59.9876 12.5415 60.0598 12.758 60.2041 13.1369L60.5469 14.1112H59.32V14.0931ZM64.6604 16.1138C65.5625 16.1138 66.194 15.8071 66.4826 15.1756C66.6089 14.9231 66.6631 14.5983 66.6631 14.2194V11.1704H65.779V14.1473C65.779 14.4179 65.7429 14.6344 65.6527 14.8148C65.4903 15.1576 65.1475 15.3561 64.6604 15.3561C64.1733 15.3561 63.8305 15.1576 63.6681 14.8148C63.5779 14.6344 63.5418 14.4179 63.5418 14.1653V11.1704H62.6578V14.2194C62.6578 14.5803 62.7119 14.905 62.8382 15.1576C63.1269 15.7891 63.7583 16.1138 64.6604 16.1138ZM68.7559 16.0236H69.6399V11.9101H70.939L71.1735 11.1523H67.3306V11.9101H68.7559V16.0236ZM71.805 16.0236H72.689V13.9127H75.0164V16.0236H75.9185V11.1523H75.0164V13.173H72.689V11.1704H71.805V16.0236ZM79.3284 16.1138C80.7537 16.1138 81.7821 15.1215 81.7821 13.624C81.7821 12.1627 80.7717 11.1343 79.3284 11.1343C77.885 11.1343 76.8747 12.1446 76.8747 13.624C76.8747 15.1035 77.885 16.1138 79.3284 16.1138ZM79.3284 15.3561C78.4263 15.3561 77.8309 14.7065 77.8309 13.606C77.8309 12.5054 78.4443 11.8559 79.3284 11.8559C80.2485 11.8559 80.8259 12.5235 80.8259 13.606C80.8259 14.7246 80.2124 15.3561 79.3284 15.3561ZM82.7202 16.0236H83.6043V14.1292H84.0193C84.1455 14.1653 84.3079 14.3638 84.5425 14.7968L85.2461 16.0236H86.2564L85.4445 14.5983C85.192 14.1473 84.9935 13.8947 84.8311 13.8045V13.7864C85.3904 13.606 85.7873 13.173 85.7873 12.5235C85.7873 12.0364 85.5889 11.5853 85.0657 11.3327C84.8131 11.2064 84.4883 11.1343 84.0193 11.1343H82.6842V16.0236H82.7202ZM83.6223 13.4075V11.892H84.0373C84.3079 11.892 84.4703 11.9462 84.5785 12.0364C84.795 12.1627 84.9033 12.3972 84.9033 12.6498C84.9033 12.9565 84.777 13.173 84.5605 13.2993C84.4162 13.3715 84.2538 13.4256 84.0193 13.4256H83.6223V13.4075ZM86.9961 16.0236H87.8802V11.1523H86.9961V16.0236ZM89.973 16.0236H90.8571V11.9101H92.1561L92.4087 11.1523H88.5658V11.9101H89.9911V16.0236H89.973ZM94.4113 16.0236H95.3134V14.1112L96.9732 11.1704H96.017L94.8804 13.3173H94.8624L93.7257 11.1704H92.7515L94.4113 14.1112V16.0236Z" fill="#BAACD2"/>
<path d="M57.6962 9.70915H58.5803V6.94875C58.5803 6.78638 58.5803 6.53379 58.5803 6.33534H58.5983C58.6885 6.51575 58.8329 6.69617 58.9231 6.8405L59.9875 8.37405H60.3845L61.3407 6.87659C61.4309 6.7503 61.6113 6.46163 61.6654 6.33534H61.6835C61.6654 6.53379 61.6654 6.78638 61.6654 6.98484V9.72719H62.5675V4.85591H61.7556L60.5829 6.66009C60.4205 6.91267 60.2943 7.12917 60.186 7.30959H60.168C60.0597 7.11113 59.9334 6.93071 59.753 6.67813L58.472 4.83787H57.6602V9.70915H57.6962ZM63.217 9.70915H64.1372L64.5882 8.48231H66.3202L66.7893 9.70915H67.7455L65.797 4.81982H65.0934L63.217 9.70915ZM64.8588 7.76063L65.2197 6.80442C65.346 6.42554 65.4181 6.20904 65.4722 6.04667H65.4903C65.5264 6.20904 65.5985 6.42554 65.7248 6.80442L66.0676 7.77868H64.8588V7.76063ZM68.4131 9.70915H71.0291V8.95139H69.2971V4.83787H68.4131V9.70915ZM72.1657 9.70915H73.0498V5.59562H74.3488L74.6014 4.83787H70.7585V5.59562H72.1838V9.70915H72.1657ZM74.1503 9.70915H75.0705L75.5215 8.48231H77.2535L77.7226 9.70915H78.6788L76.7303 4.81982H76.0267L74.1503 9.70915ZM75.7921 7.76063L76.153 6.80442C76.2793 6.42554 76.3514 6.20904 76.4056 6.04667H76.4236C76.4597 6.20904 76.5319 6.42554 76.6762 6.80442L77.019 7.77868H75.7921V7.76063ZM85.0476 7.34567H84.1455V8.89726C83.947 8.98747 83.6584 9.0416 83.3336 9.0416C82.2872 9.0416 81.6738 8.35601 81.6738 7.30959C81.6738 6.28121 82.2872 5.55954 83.4599 5.55954C83.9831 5.55954 84.4161 5.68583 84.795 5.88429V5.05437C84.4342 4.92808 83.947 4.81982 83.3877 4.81982C81.764 4.81982 80.7176 5.90233 80.7176 7.38176C80.7176 8.77097 81.6557 9.79935 83.2614 9.79935C83.947 9.79935 84.5965 9.63698 85.0295 9.40244V7.34567H85.0476ZM85.6249 9.70915H86.545L86.9961 8.48231H88.7281L89.1972 9.70915H90.1534L88.2229 4.81982H87.5013L85.6249 9.70915ZM87.2667 7.76063L87.6276 6.80442C87.7538 6.42554 87.826 6.20904 87.8801 6.04667H87.8982C87.9343 6.20904 88.0064 6.42554 88.1508 6.80442L88.4936 7.77868H87.2667V7.76063ZM90.8209 9.70915H91.705V6.94875C91.705 6.78638 91.705 6.53379 91.705 6.33534H91.723C91.8132 6.51575 91.9576 6.69617 92.0478 6.8405L93.1123 8.37405H93.5272L94.4834 6.87659C94.5736 6.7503 94.7541 6.46163 94.8082 6.33534H94.8262C94.8082 6.53379 94.8082 6.78638 94.8082 6.98484V9.72719H95.7103V4.85591H94.8984L93.7257 6.66009C93.5633 6.91267 93.437 7.12917 93.3288 7.30959H93.3107C93.2025 7.11113 93.0762 6.93071 92.9138 6.67813L91.6328 4.83787H90.8209V9.70915ZM96.9191 9.70915H97.8031V4.83787H96.9191V9.70915ZM103.342 9.70915V4.83787H102.44V7.43589C102.44 7.70651 102.44 7.99518 102.458 8.24777H102.44C102.296 8.01322 102.115 7.77868 101.899 7.49001L99.8599 4.81982H98.9758V9.69111H99.8599V6.93071C99.8599 6.64204 99.8599 6.37142 99.8418 6.17296H99.8599C100.022 6.38946 100.185 6.64205 100.401 6.91267L102.512 9.69111H103.342V9.70915ZM108.61 7.34567H107.708V8.89726C107.51 8.98747 107.221 9.0416 106.896 9.0416C105.85 9.0416 105.236 8.35601 105.236 7.30959C105.236 6.28121 105.85 5.55954 107.022 5.55954C107.546 5.55954 107.979 5.68583 108.358 5.88429V5.05437C107.997 4.92808 107.51 4.81982 106.95 4.81982C105.327 4.81982 104.28 5.90233 104.28 7.38176C104.28 8.77097 105.218 9.79935 106.824 9.79935C107.51 9.79935 108.159 9.63698 108.592 9.40244V7.34567H108.61Z" fill="#BAACD2"/>
<path d="M13.2236 16.0776H16.7237V8.55422C17.3552 8.08514 18.1671 7.83255 18.8346 7.83255C20.1336 7.83255 20.278 8.75268 20.278 9.83519V16.0776H23.7781V8.78877V8.55422C24.4095 8.08514 25.2034 7.83255 25.8709 7.83255C27.1699 7.83255 27.3323 8.7166 27.3323 9.78107V16.0776H30.8505V8.87898C30.8505 5.81187 28.9741 4.81957 26.9534 4.81957C25.8168 4.81957 24.4276 5.3067 23.0925 6.37117C22.5152 5.39691 21.4868 4.81957 20.0976 4.81957C18.7805 4.81957 17.5176 5.45104 16.5072 6.20879L16.1825 5.0902H13.2417V16.0776H13.2236ZM37.111 21.5804C41.2966 21.5804 43.2632 19.7942 43.2632 17.8277C43.2632 13.7142 36.0465 15.5003 36.0465 13.642C36.0465 13.5338 36.0465 13.4075 36.1367 13.1549C36.4614 13.2451 36.9305 13.2992 37.3816 13.2992C40.1961 13.2992 42.1627 11.6935 42.1627 9.16764C42.1627 8.26555 41.892 7.39955 41.3688 6.732C41.5492 6.65984 41.874 6.64179 42.0183 6.64179C42.2889 6.64179 42.6498 6.69592 42.9384 6.75004L43.588 4.33245C43.4075 4.3144 43.0287 4.27832 42.7941 4.27832C41.2064 4.27832 40.5028 4.67524 39.8713 5.25258C39.7811 5.34279 39.709 5.39691 39.6007 5.32474C39.1316 5.05412 38.3198 4.81957 37.3094 4.81957C33.9176 4.81957 32.5464 7.02067 32.5464 8.95114C32.5464 10.3945 33.1959 11.7296 34.4769 12.4152C33.5928 12.9023 33.0155 13.66 33.0155 14.4358C33.0155 14.9951 33.2681 15.5184 33.7371 15.789C32.7448 16.1318 31.7886 17.0339 31.7886 18.3148C31.7886 20.137 33.6469 21.5804 37.111 21.5804ZM37.6161 19.2169C35.8661 19.2169 34.8738 18.5855 34.8738 17.6834C34.8738 17.1962 35.1264 16.8534 35.3429 16.655C36.4614 17.2323 39.9616 16.9076 39.9616 18.2066C39.9616 18.8922 38.843 19.2169 37.6161 19.2169ZM37.3635 10.7373C36.3171 10.7373 35.8119 9.90736 35.8119 9.05939C35.8119 7.90472 36.4795 7.36347 37.3275 7.36347C38.3919 7.36347 38.9332 8.24751 38.9332 9.07743C38.9151 10.178 38.2476 10.7373 37.3635 10.7373ZM51.1655 16.0776H54.0522C53.8718 15.4823 53.8718 14.5982 53.8718 13.9126V8.98722C53.8718 6.31704 52.4826 4.80153 49.0907 4.80153C47.3406 4.80153 45.8612 5.21649 44.5622 5.866L45.6447 8.0671C46.4386 7.65214 47.503 7.39955 48.4231 7.39955C49.6139 7.39955 50.3536 7.81451 50.3536 8.84289V8.95114L48.6036 9.02331C47.485 9.07743 46.4927 9.2759 45.6988 9.69086C44.5622 10.2862 43.8586 11.2064 43.8586 12.6858C43.8586 14.7967 45.4463 16.2761 47.5932 16.2761C48.9644 16.2761 49.9206 15.7709 50.6603 15.1214L51.1655 16.0776ZM50.3536 11.1883V13.227C50.101 13.3894 49.5237 13.624 48.7479 13.624C47.918 13.624 47.3767 13.2451 47.3767 12.4873C47.3767 12.0182 47.5391 11.7476 47.8639 11.5311C48.1706 11.3507 48.6036 11.2605 49.1629 11.2244L50.3536 11.1883Z" fill="#BAACD2"/>
</g>
</svg>
