<svg width="43" height="28" viewBox="0 0 43 28" fill="none" xmlns="http://www.w3.org/2000/svg">
<path d="M40.271 3.85806C40.2573 3.82999 40.2432 3.80193 40.2432 3.78789C40.1178 3.3809 39.9501 2.98793 39.755 2.62304C37.6065 -1.33469 31.4814 0.124892 25.5515 4.22295C25.3841 4.33522 25.3144 4.55978 25.3978 4.75624L26.9327 7.18423C27.0722 7.42283 27.3791 7.50702 27.6165 7.36665C27.6444 7.35262 27.6585 7.33859 27.6863 7.32455C32.2208 3.68962 37.4665 1.76691 39.6711 3.46509C39.755 3.52123 39.8106 3.61946 39.8384 3.71773C40.0896 4.41941 40.2432 5.16324 40.2852 5.90707C40.2852 5.9211 40.2852 5.9211 40.2852 5.93517C40.2852 6.01937 40.2852 6.1176 40.2852 6.2018C40.2852 6.25793 40.2852 6.32814 40.2852 6.38427C40.2852 6.41233 40.2852 6.45443 40.2852 6.49653C40.0481 12.0261 32.5276 13.9348 27.9375 9.38764C28.1886 9.65431 28.4535 9.89286 28.7325 10.1174C28.3281 9.79463 27.9512 9.44377 27.6024 9.06484L27.5746 9.02274C25.2305 6.06147 24.9793 4.58785 23.5146 3.07213C18.0452 -2.27501 10.4552 -0.0575771 5.4882 5.69657C4.84638 6.41233 4.26041 7.18423 3.75813 7.99822C3.66044 8.13859 3.57674 8.29295 3.47909 8.44731L3.53489 8.37715C3.47909 8.47538 3.42325 8.57365 3.3814 8.65785C3.2977 8.79817 3.22795 8.93854 3.15816 9.09291C2.30709 10.8332 2.05595 12.5735 2.60008 14.0471C4.03717 17.9487 10.4133 18.6083 16.8453 15.5207C18.4219 14.7628 19.1753 14.3558 20.4171 13.3594C20.8357 13.0226 20.8496 11.7875 20.5427 11.3525L19.5521 10.1174C19.3846 9.85077 18.9242 9.8227 18.687 10.0332C18.101 10.5385 17.9615 10.6788 17.5011 11.0577C11.8783 15.7312 5.82304 17.275 3.96742 14.5102C3.93948 14.4681 3.91158 14.426 3.88368 14.3699C3.85578 14.3137 3.81393 14.2716 3.78603 14.2155C3.81393 14.2716 3.85578 14.3137 3.88368 14.3699C3.4093 13.5138 3.14421 12.5454 3.13026 11.563C3.14421 10.2718 3.71624 8.75608 4.4697 7.43686C4.4976 7.39476 4.52549 7.35262 4.55339 7.32455C6.19977 5.76674 9.52037 3.35283 13.8456 3.90016C18.3103 4.46155 19.0358 10.2157 25.649 13.612C30.2952 15.9979 37.2295 14.9032 40.0618 11.3244L40.0062 11.3946C41.5269 9.48587 41.9176 6.94562 40.271 3.85806ZM2.94887 10.0192C2.96282 9.92093 2.97677 9.83673 3.00471 9.7385C2.97677 9.83673 2.96282 9.93496 2.94887 10.0192Z" fill="white"/>
<path d="M7.89676 20.4718C7.85956 20.456 7.82107 20.4438 7.78172 20.4353C7.47046 20.3523 6.69907 20.3255 6.45005 20.5365L6.43651 20.5492C6.39495 20.5888 6.36136 20.6366 6.3377 20.6898C5.61447 21.6875 4.94574 22.7267 4.33477 23.8024L2.47122 20.6969L2.46446 20.6814C2.43971 20.6277 2.40471 20.5799 2.36162 20.5407L2.34941 20.5295C2.1329 20.3424 1.48464 20.348 1.13141 20.4114C1.04763 20.4205 0.965302 20.4408 0.886461 20.4718C0.817874 20.5019 0.759168 20.5521 0.717568 20.6163C0.676009 20.6805 0.65334 20.7559 0.652344 20.8333V27.389C0.652344 27.5198 0.710551 27.7491 1.10032 27.811C1.22993 27.8292 1.36063 27.8376 1.49141 27.8363C1.76206 27.8363 2.33185 27.8363 2.33185 27.389V23.6126C2.45362 23.8123 2.68504 24.2033 2.94083 24.6941C3.2963 25.3777 3.53494 25.8245 3.65675 26.0346L3.7285 26.1752C3.79239 26.276 3.8736 26.3637 3.96801 26.434C4.17173 26.5593 4.41395 26.5985 4.6447 26.5437C4.70175 26.5277 4.75514 26.5 4.80168 26.4621C4.90518 26.3888 4.9966 26.2986 5.07233 26.1949L5.23475 25.8981C5.31326 25.7565 5.4973 25.4021 5.78689 24.8348C6.07651 24.2675 6.29668 23.8545 6.44735 23.5957C6.44735 23.5957 6.44735 24.3059 6.44735 24.3453V27.3975C6.44735 27.8447 7.01439 27.8447 7.28641 27.8447C7.55843 27.8447 8.12548 27.8447 8.12548 27.3975V20.8389C8.12598 20.7612 8.1046 20.685 8.06395 20.6198C8.02335 20.5546 7.96518 20.5031 7.89676 20.4718Z" fill="white"/>
<path d="M9.99315 23.2778C9.44591 23.2778 9.37109 23.377 9.37109 23.4845V27.6395C9.37109 27.7456 9.44591 27.8447 9.99315 27.8447C10.5404 27.8447 10.6166 27.7456 10.6166 27.6395V23.4817C10.6166 23.377 10.5363 23.2778 9.99315 23.2778Z" fill="white"/>
<path d="M10.2008 27.8449C9.93311 27.8449 9.37109 27.8449 9.37109 27.407V23.3007C9.37109 22.8628 9.93179 22.8628 10.2008 22.8628C10.4697 22.8628 11.0318 22.8628 11.0318 23.3007V27.3987C11.0318 27.8449 10.4711 27.8449 10.2008 27.8449ZM9.82741 27.345C10.0752 27.3854 10.3277 27.3854 10.5755 27.345V23.3654C10.3277 23.325 10.0752 23.325 9.82741 23.3654V27.345Z" fill="white"/>
<path d="M16.1279 20.7871H12.8042C12.4555 20.7999 12.2773 20.8355 12.2773 20.9951V27.6357C12.2773 27.7439 12.3466 27.8451 12.8503 27.8451C13.3541 27.8451 13.4246 27.7439 13.4246 27.6357V24.8923H15.7997C15.983 24.8923 16.1009 24.6615 16.1009 24.304C16.1009 23.9465 15.983 23.7143 15.7997 23.7143H13.4246V21.9694H16.1279C16.3112 21.9694 16.4291 21.7386 16.4291 21.3811C16.4291 21.0236 16.3112 20.7871 16.1279 20.7871Z" fill="white"/>
<path d="M12.7219 27.8451C12.4437 27.8451 11.8623 27.8451 11.8623 27.4216V21.2079C11.8623 20.8084 12.3449 20.7965 12.6634 20.7871H16.2797C16.5398 20.7871 16.8444 20.9909 16.8444 21.5661C16.8444 22.1415 16.5398 22.3438 16.2797 22.3438H13.58V23.5237H15.9208C16.1809 23.5237 16.4856 23.7275 16.4856 24.3028C16.4856 24.8781 16.1809 25.0805 15.9208 25.0805H13.58V27.4176C13.58 27.8451 13 27.8451 12.7219 27.8451ZM12.3366 27.3617C12.5914 27.4007 12.851 27.4007 13.1058 27.3617V24.6251H15.9208C15.9459 24.6171 16.0113 24.5212 16.0113 24.3014C16.0113 24.0817 15.9459 23.9858 15.9223 23.9765H13.1058V21.8884H16.2769C16.2922 21.8884 16.3673 21.8018 16.3673 21.5648C16.3673 21.3278 16.2922 21.2452 16.2783 21.2399H12.6704C12.5585 21.2406 12.4468 21.2504 12.3366 21.2692V27.3617Z" fill="white"/>
<path d="M25.4057 20.7871C24.9012 20.7871 24.8323 20.8967 24.8323 21.0034V25.3839L22.115 20.9109L22.1025 20.8939C21.9742 20.7515 21.265 20.7757 21.1037 20.8511C21.0735 20.8605 21.0468 20.8803 21.0274 20.9077C21.0081 20.9351 20.9971 20.9686 20.9961 21.0034V27.621C20.9961 27.6908 20.9961 27.8374 21.5685 27.8374C22.1407 27.8374 22.142 27.6951 22.142 27.621V23.2491L24.8605 27.7121C24.9245 27.8103 25.1599 27.8445 25.3891 27.8445C25.5402 27.8486 25.6913 27.8313 25.8387 27.7933C25.9537 27.7534 25.9782 27.6794 25.9782 27.6253V21.0077C25.9782 20.8967 25.9105 20.7871 25.4057 20.7871Z" fill="white"/>
<path d="M25.5303 27.845C24.9956 27.845 24.8432 27.7198 24.7718 27.6266L22.2783 24.0584V27.4136C22.2783 27.8423 21.7053 27.8423 21.4291 27.8423C21.1528 27.8423 20.5811 27.8423 20.5811 27.4136V21.2225C20.5818 21.145 20.6071 21.0696 20.6536 21.0064C20.7 20.9433 20.7654 20.8956 20.8408 20.8696C21.0167 20.7991 21.9117 20.7125 22.167 20.9589L22.2098 21.0095L24.6963 24.5697V21.2171C24.6963 20.7871 25.2912 20.7871 25.5453 20.7871C25.7998 20.7871 26.3935 20.7871 26.3935 21.2171V27.4083C26.3906 27.495 26.3586 27.5784 26.3022 27.6459C26.2457 27.7134 26.1685 27.7613 26.0817 27.7824C25.9011 27.8256 25.7159 27.8467 25.5303 27.845ZM25.1413 27.3457C25.2671 27.3827 25.3992 27.398 25.5303 27.391C25.6636 27.3932 25.7965 27.3824 25.9277 27.359V21.2731C25.6761 21.2304 25.4191 21.2304 25.1675 21.2731V26.0516L21.8386 21.2824C21.5783 21.2343 21.3111 21.2316 21.0497 21.2744V27.3523C21.3012 27.3951 21.5584 27.3951 21.8098 27.3523V22.5752L25.1413 27.3457Z" fill="white"/>
<path d="M28.2614 20.7871C27.7146 20.7871 27.6387 20.8882 27.6387 20.9979V27.6358C27.6387 27.744 27.7146 27.8451 28.2614 27.8451C28.8082 27.8451 28.8842 27.744 28.8842 27.6358V20.9979C28.8829 20.8882 28.8149 20.7871 28.2614 20.7871Z" fill="white"/>
<path d="M28.469 27.8451C28.2012 27.8451 27.6387 27.8451 27.6387 27.4218V21.2104C27.6387 20.7871 28.2 20.7871 28.469 20.7871C28.7381 20.7871 29.2994 20.7871 29.2994 21.2104V27.4164C29.2981 27.8451 28.7368 27.8451 28.469 27.8451ZM28.0941 27.3619C28.3424 27.4009 28.5956 27.4009 28.8439 27.3619V21.2703C28.5956 21.2313 28.3424 21.2313 28.0941 21.2703V27.3619Z" fill="white"/>
<path d="M18.7126 20.7871C18.1591 20.7871 18.0898 20.8882 18.0898 20.9979V27.6358C18.0898 27.744 18.1646 27.8451 18.7126 27.8451C19.2606 27.8451 19.3354 27.744 19.3354 27.6358V20.9979C19.3354 20.8882 19.2593 20.7871 18.7126 20.7871Z" fill="white"/>
<path d="M18.5052 27.8451C18.2373 27.8451 17.6748 27.8451 17.6748 27.4218V21.2104C17.6748 20.7871 18.236 20.7871 18.5052 20.7871C18.7744 20.7871 19.3355 20.7871 19.3355 21.2104V27.4164C19.3355 27.8451 18.7744 27.8451 18.5052 27.8451ZM18.1302 27.3619C18.3786 27.4009 18.6317 27.4009 18.8801 27.3619V21.2703C18.6317 21.2313 18.3786 21.2313 18.1302 21.2703V27.3619Z" fill="white"/>
<path d="M35.3394 20.7871H30.7326C30.6363 20.7871 30.5449 20.864 30.5449 21.4238C30.5449 21.9836 30.6363 22.0605 30.7326 22.0605H32.4697V27.6357C32.4697 27.7439 32.5382 27.8451 33.0368 27.8451C33.535 27.8451 33.6035 27.7439 33.6035 27.6357V22.0605H35.3394C35.4369 22.0605 35.527 21.9836 35.527 21.4238C35.527 20.864 35.4369 20.7871 35.3394 20.7871Z" fill="white"/>
<path d="M33.039 27.8451C32.7667 27.8451 32.197 27.8451 32.197 27.4217V22.4314H30.5629C30.1299 22.4314 30.1299 21.8762 30.1299 21.6099C30.1299 21.3437 30.1299 20.7871 30.5629 20.7871H35.508C35.9423 20.7871 35.9423 21.3437 35.9423 21.6099C35.9423 21.8762 35.9423 22.4314 35.508 22.4314H33.8735V27.4164C33.8789 27.8451 33.3114 27.8451 33.039 27.8451ZM32.6616 27.3618C32.9116 27.4008 33.1661 27.4008 33.416 27.3618V21.9787H35.4549C35.4948 21.7344 35.4948 21.4854 35.4549 21.2411H30.6268C30.587 21.4854 30.587 21.7344 30.6268 21.9787H32.6616V27.3618Z" fill="white"/>
<path d="M42.4375 20.8461C42.2133 20.7635 41.3643 20.7421 41.2049 20.9529L39.6758 23.4611L38.1429 20.9558C37.9943 20.7478 37.1511 20.7635 36.9265 20.8447C36.7994 20.8889 36.7725 20.9643 36.7725 21.0213V21.0555L39.0705 24.8313V27.6044C39.0705 27.6642 39.0705 27.8451 39.6787 27.8451C40.2869 27.8451 40.2869 27.6642 40.2869 27.6044V24.8313L42.5849 21.0569V21.0213C42.5849 20.9658 42.5592 20.8917 42.4375 20.8461Z" fill="white"/>
<path d="M39.8854 27.8451C39.6791 27.8451 39.0526 27.8451 39.0526 27.3935V24.8622L36.7725 21.3304V21.2318C36.7741 21.1434 36.8053 21.0579 36.8613 20.989C36.9169 20.9201 36.9942 20.8714 37.0809 20.8508C37.301 20.7775 38.2949 20.7003 38.5469 21.0346L38.5565 21.048L39.8854 23.0943L41.2269 21.0267C41.4951 20.6976 42.4956 20.7815 42.7024 20.8548C42.7863 20.8773 42.8606 20.9261 42.9146 20.9941C42.9681 21.062 42.998 21.1455 43.0001 21.2318V21.3317L40.7199 24.8635V27.3948C40.717 27.8451 40.0909 27.8451 39.8854 27.8451ZM39.5101 27.3495C39.7567 27.4045 40.0129 27.4045 40.2599 27.3495V24.733L42.4998 21.2691C42.2665 21.2199 41.7097 21.2345 41.5835 21.3144L39.8896 23.935L38.1874 21.3171C38.0616 21.2385 37.5169 21.2238 37.2769 21.2718L39.5101 24.7356V27.3495Z" fill="white"/>
<path d="M10.2585 20.7871H9.72952C9.30235 20.7871 8.95605 21.0622 8.95605 21.4017V21.8333C8.95605 22.1727 9.30235 22.4478 9.72952 22.4478H10.2585C10.6856 22.4478 11.0319 22.1727 11.0319 21.8333V21.4017C11.0319 21.0622 10.6856 20.7871 10.2585 20.7871Z" fill="white"/>
</svg>
