<svg width="60" height="14" viewBox="0 0 60 14" fill="none" xmlns="http://www.w3.org/2000/svg">
<path d="M3.1525 6.746C3.1525 8.50987 3.1525 10.2738 3.1525 12.0377C3.1525 12.3349 3.1525 12.6322 3.1525 12.9295C3.1525 13.2862 2.97921 13.4845 2.59186 13.4845C1.87828 13.4745 1.16475 13.4646 0.451176 13.4745C0.226928 13.4745 0.145394 13.3853 0.145394 13.1872C0.145394 13.0187 0.135176 12.8602 0.135176 12.6917C0.135176 9.32245 0.125 5.95324 0.125 2.58399C0.125 1.14712 1.19532 0.433628 2.60203 0.899387C3.23407 1.10749 3.67239 1.52368 3.968 2.08853C4.68157 3.45606 5.39511 4.82355 6.11886 6.19104C6.28197 6.50815 6.47565 6.80545 6.67954 7.15227C6.83243 6.93428 6.78147 6.75589 6.78147 6.58742C6.79164 4.9722 6.78147 3.34705 6.79164 1.73178C6.79164 1.06785 6.85283 1.01829 7.5154 1.01829C8.17801 1.01829 8.84057 1.04803 9.50319 1.0084C9.93129 0.988583 10.0333 1.14712 10.023 1.51379C10.0129 2.10834 10.0333 2.70293 10.0333 3.29748C10.0333 5.95324 10.0333 8.61888 10.0333 11.2746C10.0333 11.6413 10.0333 11.998 9.94151 12.3548C9.758 13.0881 9.28911 13.5439 8.52457 13.6826C7.80082 13.8115 7.20961 13.5241 6.82221 12.9394C6.45525 12.4043 6.14947 11.8296 5.83343 11.2647C5.14029 10.0161 4.4675 8.7576 3.77432 7.50901C3.62143 7.24146 3.44815 6.9838 3.27482 6.71625C3.23407 6.71625 3.19329 6.73607 3.1525 6.746Z" fill="#E80088"/>
<path d="M26.1397 13.6924C23.5097 13.6627 21.3079 11.4429 21.3283 8.82685C21.3385 6.1612 23.6015 3.9712 26.2824 4.00091C28.9124 4.03066 31.1448 6.29992 31.1143 8.91604C31.0735 11.5321 28.8002 13.7221 26.1397 13.6924ZM24.3762 8.86648C24.3864 9.9466 25.1815 10.7592 26.2315 10.7493C27.2712 10.7394 28.0357 9.89704 28.0153 8.80703C27.9949 7.75661 27.2304 6.98366 26.2212 6.98366C25.1713 6.96385 24.3762 7.78635 24.3762 8.86648Z" fill="#E90088"/>
<path d="M16.9655 6.73608C16.1704 6.21087 15.3651 6.30007 14.7433 6.91443C13.8768 7.77657 13.8361 9.42154 14.672 10.3233C15.3651 11.0764 16.3743 11.2053 17.2407 10.6305C17.7606 10.2837 18.199 9.84767 18.6271 9.39179C18.9023 9.09454 19.1368 8.98553 19.5241 9.23326C19.9319 9.49092 20.3906 9.68909 20.8289 9.89719C21.0532 9.99627 21.0736 10.1053 20.992 10.3233C20.1969 12.4539 17.6485 13.9403 15.2836 13.6331C12.9594 13.3358 11.2265 11.5323 11.0022 9.19362C10.8085 7.14235 12.0522 5.19019 14.0807 4.34787C16.0175 3.54522 18.199 4.06051 19.6261 5.65595C20.6862 6.84509 20.6862 6.8748 19.3509 7.75675C18.2805 8.49995 17.2 9.21344 16.1296 9.94675C15.8952 10.1053 15.7831 10.1152 15.6301 9.85755C15.3651 9.41165 15.0797 8.98553 14.7739 8.56933C14.5904 8.3216 14.672 8.21258 14.8962 8.07387C15.5792 7.64774 16.252 7.2018 16.9655 6.73608Z" fill="#E80088"/>
<path d="M46.9963 7.46935C46.9963 8.34138 47.0268 9.22333 46.9864 10.0954C46.9147 11.6313 46.2217 12.8205 44.713 13.3853C43.1227 13.9799 41.5633 13.8511 40.1868 12.7908C39.4329 12.2061 39.086 11.3836 38.9636 10.462C38.9228 10.135 38.9026 9.80799 38.8923 9.47107C38.8722 7.93511 38.8619 6.40904 38.8516 4.87305C38.8516 4.28843 38.9331 4.20912 39.5141 4.20912C40.0748 4.20912 40.6355 4.20912 41.1962 4.20912C41.869 4.19923 41.9609 4.28843 41.9609 4.94243C41.9609 6.3793 41.9506 7.81617 41.9506 9.25304C41.9506 9.5107 41.9609 9.78818 42.0322 10.0359C42.1442 10.4521 42.4499 10.7098 42.9188 10.7197C43.4082 10.7296 43.7139 10.5017 43.8771 10.0557C43.9586 9.81788 43.9586 9.57015 43.9586 9.32242C43.9586 7.8558 43.9586 6.3793 43.9586 4.91272C43.9586 4.28842 44.0505 4.19923 44.7027 4.19923C45.2939 4.19923 45.8954 4.21904 46.4866 4.19923C46.9353 4.17941 47.0985 4.37758 47.0882 4.78389C47.0779 5.67573 47.0882 6.56758 47.0882 7.45942C47.0474 7.46935 47.0268 7.46935 46.9963 7.46935Z" fill="#E90088"/>
<path d="M54.0608 8.05395C54.0608 6.59722 54.0506 5.15046 54.0608 3.69377C54.0707 1.6425 55.0496 0.542554 57.1492 0.265076C57.8018 0.175879 58.4745 0.185809 59.1267 0.136246C59.3616 0.116429 59.4633 0.185808 59.453 0.433541C59.4427 1.19655 59.4328 1.94968 59.453 2.71273C59.4633 2.99017 59.341 3.03973 59.0859 3.03973C58.7296 3.02985 58.3728 3.03973 58.016 3.05955C57.5162 3.0893 57.3123 3.37666 57.2616 3.83249C57.2307 4.08023 57.3226 4.15949 57.5673 4.1496C57.873 4.13968 58.1787 4.1496 58.4848 4.13968C58.8416 4.12979 59.0147 4.27844 59.0147 4.63518C59.0048 5.24955 59.0048 5.85402 59.0147 6.46843C59.025 6.81525 58.8824 7.00353 58.505 6.98371C58.4848 6.98371 58.4745 6.98371 58.4539 6.98371C58.0568 7.01346 57.5467 6.80532 57.2818 7.0828C57.0474 7.33053 57.2003 7.81611 57.2003 8.19267C57.19 9.72863 57.2003 11.2646 57.2003 12.8006C57.2003 13.4051 57.1084 13.4943 56.497 13.4843C55.865 13.4843 55.2433 13.4645 54.6113 13.4843C54.1729 13.5041 54.0098 13.3357 54.0098 12.9096C54.03 11.2943 54.0201 9.66917 54.0201 8.05395C54.0506 8.05395 54.0608 8.05395 54.0608 8.05395Z" fill="#E90088"/>
<path d="M33.6921 13.4746C33.1318 13.4746 32.5711 13.4647 32.0103 13.4746C31.6334 13.4845 31.4393 13.3457 31.4496 12.9593C31.4599 12.4143 31.4599 11.8692 31.4496 11.3242C31.4496 10.9675 31.6128 10.8188 31.9798 10.8188C32.6728 10.8288 33.3662 10.8188 34.0695 10.8188C34.3855 10.8188 34.7831 10.7594 34.8543 10.4918C34.9157 10.2639 34.5688 10.0459 34.3039 9.91705C33.9368 9.74858 33.5495 9.60987 33.1928 9.43151C31.9695 8.82704 31.3581 7.65771 31.6128 6.3992C31.8678 5.15061 32.836 4.35785 34.2429 4.24883C35.1909 4.17949 36.1389 4.19931 37.0869 4.22902C37.515 4.23894 37.6983 4.43711 37.688 4.84342C37.6781 5.26951 37.6781 5.69563 37.688 6.13165C37.6983 6.55777 37.4742 6.73612 37.0663 6.73612C36.5567 6.74601 36.0471 6.74601 35.5374 6.74601C35.4048 6.74601 35.2622 6.74601 35.1295 6.77576C34.9256 6.81539 34.7015 6.87484 34.6607 7.09287C34.6302 7.30097 34.8238 7.40005 34.9969 7.48925C35.5271 7.74687 36.0672 7.98471 36.5975 8.25226C38.1062 9.04502 38.6158 10.2738 38.0448 11.7206C37.6472 12.7313 36.8525 13.2467 35.7821 13.4052C35.0785 13.5142 34.3855 13.4647 33.6921 13.4746Z" fill="#E80088"/>
<path d="M50.8083 5.27943C51.3892 4.53624 52.1028 4.28846 52.9185 4.22901C53.3157 4.19931 53.5299 4.34795 53.5196 4.76415C53.5098 5.3587 53.5098 5.95329 53.5196 6.54784C53.5196 6.91451 53.3668 7.10279 52.9692 7.09287C52.8061 7.09287 52.633 7.12261 52.4596 7.15232C51.5524 7.30097 51.2059 7.64778 51.1853 8.52974C51.1548 9.89727 51.1651 11.2648 51.1548 12.6422C51.1548 13.4548 51.1037 13.4944 50.2987 13.4746C49.7173 13.4647 49.1467 13.4647 48.5658 13.4746C48.1682 13.4845 47.9746 13.3359 47.9746 12.9295C47.9845 10.2045 47.9845 7.47932 47.9746 4.75422C47.9746 4.34795 48.1579 4.18938 48.5658 4.2092C49.0244 4.22901 49.4829 4.22901 49.9419 4.2092C50.6653 4.18938 50.7675 4.27857 50.7675 4.98214C50.7778 5.05152 50.7877 5.11097 50.8083 5.27943Z" fill="#E80088"/>
</svg>
