<svg width="59" height="10" viewBox="0 0 59 10" fill="none" xmlns="http://www.w3.org/2000/svg">
<path d="M57.0424 0.844247C56.3068 0.364749 55.1837 0.125 53.7125 0.125H49.8595L48.4269 7.52051H43.3927L43.7221 5.84222H46.7616L47.1296 3.96107H44.0897L44.4191 2.28278H47.5361L47.9622 0.125H41.6116L40.2562 7.13322H37.9328L39.3077 0.125H35.9969L34.6415 7.13322H32.3762L33.7122 0.125H30.4014L28.9686 7.52051H23.896L24.2251 5.84222H27.2648L27.6327 3.96107H24.593L24.9221 2.28278H28.078L28.4652 0.125H8.67795L7.55498 5.98976L5.32846 0.125H1.88213L0.0234375 9.67829H3.31485L4.43782 3.66598L6.6063 9.67829H18.3974L19.8301 2.28278H21.6694L20.2367 9.67829H51.234L52.1248 5.01231L53.5769 9.67829H56.8682L55.358 5.86068L55.7065 5.78689C56.4616 5.63935 57.0619 5.30739 57.4685 4.79098C57.8751 4.29302 58.088 3.64753 58.088 2.85453C58.1074 1.9877 57.7589 1.32378 57.0424 0.844247ZM15.5319 7.52051H10.4979L10.8271 5.84222H13.983L14.3315 3.96107H11.2143L11.5241 2.30124H16.558L15.5319 7.52051ZM54.332 4.29302C54.003 4.51435 53.5188 4.62502 52.8604 4.62502H52.2024L52.7056 2.06149H53.1898C53.7316 2.06149 54.1382 2.1537 54.4095 2.31966C54.6224 2.44878 54.8742 2.70699 54.8742 3.2049C54.8742 3.81352 54.5838 4.12706 54.332 4.29302Z" fill="#83BA3B"/>
</svg>
