<svg width="16" height="16" viewBox="0 0 16 16" fill="none" xmlns="http://www.w3.org/2000/svg">
<path d="M14.1747 11.2249C13.3273 10.5408 12.6671 10.2222 12.0972 10.2222C11.4034 10.2222 10.9456 10.6874 10.4611 11.18C10.4065 11.2355 10.351 11.292 10.2942 11.3488C10.2262 11.4168 10.1404 11.4485 10.0248 11.4485C9.61376 11.4485 8.73075 11.055 6.85668 9.18059C6.02813 8.35259 5.41935 7.64302 5.04722 7.07144C4.80936 6.70589 4.45095 6.05213 4.72364 5.77933L4.8712 5.63277C5.75287 4.7609 6.51447 4.00816 4.81394 1.89949C4.21576 1.14561 3.63524 0.779053 3.03874 0.779053C2.24848 0.779053 1.64239 1.41952 1.10773 1.98456C1.01151 2.08636 0.917413 2.18559 0.825552 2.27768C0.523175 2.57948 0.3639 3.07108 0.365243 3.69915C0.368257 5.31785 1.48457 8.31053 4.62001 11.4169C7.78293 14.5795 10.7716 15.7016 12.37 15.7016C12.9817 15.7015 13.462 15.5444 13.7589 15.2473C13.8464 15.1599 13.9405 15.0703 14.0367 14.9785C14.5996 14.4424 15.3 13.7753 15.2657 12.9349C15.2419 12.3576 14.8852 11.7982 14.1747 11.225L14.1747 11.2249ZM13.7237 14.6499C13.6245 14.7444 13.5279 14.8365 13.4381 14.9263C13.2278 15.1366 12.8585 15.2478 12.37 15.2478C10.8582 15.2478 8.00579 14.1605 4.94031 11.0953C1.90311 8.08642 0.822129 5.2301 0.819271 3.6985C0.818378 3.19387 0.931338 2.81369 1.14654 2.59895C1.24141 2.50407 1.3383 2.40172 1.43765 2.2968C1.90948 1.79832 2.44403 1.23328 3.03895 1.23328C3.48777 1.23328 3.95199 1.54357 4.45977 2.18327C5.90379 3.97399 5.39501 4.47705 4.5523 5.3102L4.40273 5.45854C4.02223 5.83915 4.11095 6.46514 4.66715 7.31912C5.05637 7.91719 5.68524 8.65141 6.53599 9.50162C8.15112 11.117 9.29245 11.9023 10.0247 11.9025H10.0248C10.2622 11.9025 10.4607 11.8242 10.6151 11.6698C10.6728 11.6121 10.7293 11.5549 10.7847 11.4984C11.2366 11.0391 11.5935 10.6762 12.0972 10.6762C12.5515 10.6762 13.1379 10.9712 13.8895 11.5782C14.484 12.0577 14.7942 12.5205 14.8119 12.9537C14.8379 13.5886 14.2459 14.1524 13.7236 14.6499L13.7237 14.6499Z" fill="#BAACD2"/>
</svg>
