<svg width="26" height="22" viewBox="0 0 26 22" fill="none" xmlns="http://www.w3.org/2000/svg">
<path fill-rule="evenodd" clip-rule="evenodd" d="M3.63689 19.1313C2.71098 19.2508 1.75519 18.8028 1.24757 17.9365C0.7398 17.0704 0.829433 16.025 1.3969 15.2784C1.42673 15.3082 1.45657 15.368 1.45657 15.3979L3.54726 19.0118C3.5771 19.0416 3.60694 19.1014 3.63692 19.1313L3.63689 19.1313ZM6.41455 11.3657C6.83269 11.1267 7.22099 11.7838 6.80285 12.0228L3.18895 14.1135C2.77081 14.3525 2.38251 13.6954 2.80065 13.4564L6.41455 11.3657ZM8.77407 10.8879C8.35593 11.1268 7.96763 10.4996 8.38577 10.2307C9.4312 9.60346 9.84933 8.88669 10.2675 8.14005C10.6259 7.51276 10.9843 6.85579 11.701 6.19867C12.0595 5.8402 12.597 6.40781 12.2387 6.73628C11.5815 7.33357 11.2531 7.93102 10.9244 8.49847C10.4466 9.36459 9.9985 10.1412 8.77388 10.8878L8.77407 10.8879ZM15.9721 6.67652C15.6436 7.1843 14.8968 6.67652 15.2255 6.16875L18.9589 0.523803C19.2873 0.0160306 20.0341 0.523803 19.7055 1.03157L15.9721 6.67652ZM17.0175 8.76722C16.5097 9.06587 16.0319 8.25945 16.5695 7.96078L23.3197 4.04822C23.8573 3.74957 24.3053 4.55599 23.7975 4.85465L17.0175 8.76722ZM17.8836 10.8281C17.3162 10.8579 17.2563 9.93211 17.8538 9.90216L24.604 9.51386C25.2013 9.48403 25.2611 10.38 24.6636 10.4098L17.8839 10.828L17.8836 10.8281ZM7.45971 10.1113C9.96854 8.64771 10.2374 6.46753 11.5217 5.54162C12.0593 5.15332 12.2683 5.45197 12.4476 5.7806L14.5981 9.514L15.1357 10.41L17.3757 14.2926C17.5549 14.6211 17.7342 14.9795 17.1367 15.2185C15.6732 15.8756 13.6423 15.0393 11.1335 16.4729L9.49077 13.6654L8.983 12.7695L7.45976 10.1113L7.45971 10.1113ZM2.59128 12.9187L6.83258 10.4696L12.6269 20.5052L11.2829 21.2818C11.2829 21.2818 9.19217 17.5782 7.48974 18.5638L6.26516 19.2806C5.51856 19.6988 4.53278 19.4598 4.08484 18.6833L2.02398 15.0992C1.576 14.3226 1.84482 13.3371 2.59143 12.9189L2.59128 12.9187Z" fill="white"/>
</svg>
