<svg width="23" height="17" viewBox="0 0 23 17" fill="none" xmlns="http://www.w3.org/2000/svg">
<path d="M18.9932 8.41128C18.9932 4.08832 15.4763 0.571381 11.1533 0.571381C9.78604 0.571381 8.5175 0.953928 7.39648 1.57323L9.28908 4.09616C9.86131 3.84836 10.4901 3.70731 11.1533 3.70731C13.7468 3.70731 15.8573 5.81777 15.8573 8.41125H12.7213L17.4252 14.6832L22.1292 8.41125L18.9932 8.41128Z" fill="white"/>
<path d="M11.1536 13.1152C8.56011 13.1152 6.44966 11.0048 6.44966 8.4113H9.58562L4.88168 2.13937L0.177734 8.4113H3.3137C3.3137 12.7343 6.83063 16.2512 11.1536 16.2512C12.5209 16.2512 13.7894 15.8687 14.9104 15.2493L13.0178 12.7264C12.4456 12.9742 11.8168 13.1153 11.1536 13.1153V13.1152Z" fill="white"/>
</svg>
