<svg width="51" height="26" viewBox="0 0 51 26" fill="none" xmlns="http://www.w3.org/2000/svg">
<path d="M44.9999 0.560547H6.26758C2.95387 0.560547 0.267578 3.24684 0.267578 6.56055V19.2411C0.267578 22.5548 2.95387 25.2411 6.26757 25.2411H44.9999C48.3136 25.2411 50.9999 22.5548 50.9999 19.2411V6.56055C50.9999 3.24684 48.3136 0.560547 44.9999 0.560547Z" fill="white"/>
<path d="M14.2028 14.1371C14.2028 13.88 14.1118 13.6818 13.9297 13.5426C13.7503 13.4033 13.4249 13.2627 12.9536 13.1208C12.4822 12.9789 12.1073 12.8208 11.8288 12.6468C11.2958 12.3121 11.0294 11.8755 11.0294 11.3372C11.0294 10.8659 11.2209 10.4776 11.6038 10.1723C11.9895 9.86701 12.4889 9.71436 13.1022 9.71436C13.5092 9.71436 13.8721 9.78934 14.1908 9.9393C14.5095 10.0893 14.7599 10.3035 14.942 10.582C15.1241 10.8579 15.2151 11.1645 15.2151 11.5019H14.2028C14.2028 11.1967 14.1065 10.9583 13.9136 10.7869C13.7235 10.6128 13.4503 10.5258 13.0941 10.5258C12.7621 10.5258 12.5036 10.5967 12.3189 10.7387C12.1368 10.8806 12.0457 11.0788 12.0457 11.3332C12.0457 11.5475 12.1448 11.7269 12.3429 11.8715C12.5411 12.0134 12.8679 12.1527 13.3231 12.2893C13.7784 12.4232 14.1439 12.5771 14.4198 12.7512C14.6956 12.9226 14.8978 13.1208 15.0263 13.3457C15.1549 13.568 15.2192 13.8291 15.2192 14.1291C15.2192 14.6165 15.0317 15.0048 14.6568 15.294C14.2845 15.5805 13.7784 15.7238 13.1383 15.7238C12.7152 15.7238 12.3256 15.6462 11.9694 15.4908C11.6159 15.3328 11.34 15.1159 11.1419 14.8401C10.9464 14.5643 10.8486 14.2429 10.8486 13.876H11.865C11.865 14.2081 11.9747 14.4651 12.1944 14.6473C12.4139 14.8293 12.7286 14.9204 13.1383 14.9204C13.4918 14.9204 13.757 14.8494 13.9337 14.7075C14.1132 14.5629 14.2028 14.3727 14.2028 14.1371Z" fill="#232A64"/>
<path d="M19.5288 13.0321H17.1267V14.8317H19.9346V15.6432H16.1104V9.79443H19.9064V10.6139H17.1267V12.2287H19.5288V13.0321Z" fill="#232A64"/>
<path d="M25.2258 13.7394C25.1669 14.3634 24.9366 14.8508 24.5349 15.2016C24.1332 15.5497 23.5989 15.7238 22.9321 15.7238C22.4661 15.7238 22.055 15.614 21.6989 15.3944C21.3453 15.1721 21.0722 14.8575 20.8794 14.4504C20.6866 14.0433 20.5861 13.5707 20.5781 13.0324V12.4861C20.5781 11.9344 20.6758 11.4484 20.8714 11.0279C21.0668 10.6074 21.3467 10.2834 21.7109 10.0558C22.0778 9.82815 22.5009 9.71436 22.9803 9.71436C23.6257 9.71436 24.1452 9.88979 24.5389 10.2406C24.9326 10.5914 25.1615 11.0868 25.2258 11.7269H24.2135C24.1653 11.3064 24.0421 11.0038 23.844 10.819C23.6484 10.6316 23.3606 10.5378 22.9803 10.5378C22.5384 10.5378 22.1983 10.6999 21.96 11.0239C21.7243 11.3452 21.6038 11.8179 21.5985 12.4419V12.9601C21.5985 13.5921 21.7109 14.0741 21.9359 14.4062C22.1635 14.7383 22.4956 14.9043 22.9321 14.9043C23.3311 14.9043 23.631 14.8146 23.8319 14.6352C24.0327 14.4558 24.16 14.1572 24.2135 13.7394H25.2258Z" fill="#232A64"/>
<path d="M30.4155 9.79443V13.7029C30.4155 14.3243 30.2161 14.817 29.8169 15.1812C29.4206 15.5428 28.892 15.7235 28.2305 15.7235C27.5608 15.7235 27.0291 15.5454 26.6354 15.1893C26.2418 14.8304 26.0449 14.3337 26.0449 13.6989V9.79443H27.0575V13.707C27.0575 14.098 27.1565 14.3966 27.3548 14.6028C27.5527 14.809 27.8449 14.9121 28.2305 14.9121C29.0123 14.9121 29.4034 14.4997 29.4034 13.6748V9.79443H30.4155Z" fill="#232A64"/>
<path d="M33.6529 13.3896H32.5201V15.6432H31.5039V9.79443H33.5606C34.2353 9.79443 34.7564 9.94572 35.1231 10.2483C35.4899 10.551 35.6736 10.9888 35.6736 11.5619C35.6736 11.9529 35.5787 12.2809 35.3885 12.5461C35.2008 12.8085 34.9385 13.0107 34.6011 13.1527L35.9146 15.591V15.6432H34.8259L33.6529 13.3896ZM32.5201 12.5742H33.5647C33.9076 12.5742 34.175 12.4885 34.3683 12.3171C34.561 12.143 34.6574 11.906 34.6574 11.6061C34.6574 11.2928 34.5676 11.0504 34.388 10.879C34.2115 10.7076 33.9462 10.6192 33.5926 10.6139H32.5201V12.5742Z" fill="#232A64"/>
<path d="M40.0565 13.0321H37.6544V14.8317H40.4619V15.6432H36.6377V9.79443H40.434V10.6139H37.6544V12.2287H40.0565V13.0321Z" fill="#232A64"/>
</svg>
