<svg width="23" height="17" viewBox="0 0 23 17" fill="none" xmlns="http://www.w3.org/2000/svg">
<path d="M20.5865 6.02658V9.21177C20.5865 9.39779 20.4471 9.53726 20.261 9.53726H19.7263V9.02576C19.7263 8.46772 19.2845 8.0261 18.7267 8.0261H18.5175L18.5173 5.56166C18.5173 4.49208 17.6571 3.60871 16.5644 3.60871H14.472C13.5884 2.0278 11.7749 0.935059 9.68248 0.935059C7.59008 0.935059 5.77659 2.0278 4.89301 3.60871H2.8006C1.73103 3.60871 0.847656 4.46891 0.847656 5.56166V14.9081C0.847656 15.9777 1.70786 16.861 2.8006 16.861H16.5878C17.6573 16.861 18.5407 16.0008 18.5407 14.9081L18.5406 12.4203H18.7498C19.3078 12.4203 19.7494 11.9785 19.7494 11.4206V10.9091H20.2379C21.1912 10.9091 21.9351 10.1419 21.9351 9.21193V6.0034C21.7026 6.07314 21.4702 6.11969 21.2144 6.11969C21.005 6.11969 20.7726 6.09633 20.5866 6.0266L20.5865 6.02658ZM16.3318 12.676H12.5188V7.79357H16.3318C16.541 7.79357 16.727 7.97959 16.727 8.1888V12.2807C16.727 12.5135 16.541 12.6761 16.3318 12.6761V12.676ZM11.7516 7.79357V12.676L7.56661 12.6759V7.79341L11.7516 7.79357ZM6.79936 7.79357V12.676L2.98622 12.6759C2.77701 12.6759 2.59099 12.4899 2.59099 12.2807V8.18872C2.59099 7.97951 2.77701 7.79349 2.98622 7.79349L6.79936 7.79357Z" fill="white"/>
<path d="M22.9105 3.91081C22.9105 4.83524 22.161 5.5848 21.2365 5.5848C20.3119 5.5848 19.5625 4.8352 19.5625 3.91081C19.5625 2.98621 20.3119 2.23682 21.2365 2.23682C22.1611 2.23682 22.9105 2.98625 22.9105 3.91081Z" fill="white"/>
<path d="M14.7025 8.95605C14.6559 8.90951 14.5862 8.90951 14.5396 8.95605L13.5863 9.90934C13.3306 10.1651 13.3306 10.5835 13.5863 10.8161C13.7026 10.9324 13.8886 11.0021 14.0513 11.0021C14.1676 11.0021 14.2839 10.9789 14.4 10.9092L14.1674 11.4439C14.1442 11.4904 14.1906 11.5368 14.2372 11.5368H15.0044C15.0509 11.5368 15.0973 11.4903 15.0741 11.4439L14.8416 10.9092C14.9579 10.9789 15.0741 11.0021 15.1903 11.0021C15.3531 11.0021 15.5389 10.9324 15.6552 10.7929C15.8878 10.5371 15.8878 10.1187 15.632 9.88615L14.7025 8.95605Z" fill="white"/>
<path d="M4.14747 10.9788C4.26376 10.9788 4.38004 10.9322 4.47296 10.8858L4.21721 11.4439C4.19402 11.4904 4.2404 11.5368 4.28694 11.5368H5.05419C5.10073 11.5368 5.14712 11.4903 5.12393 11.4439L4.89152 10.8858C4.98445 10.9556 5.10073 10.9788 5.21701 10.9788C5.56569 10.9788 5.8448 10.6998 5.8448 10.351C5.8448 10.0255 5.61224 9.76973 5.28676 9.72319C5.28676 9.67665 5.30995 9.63026 5.30995 9.58372C5.30995 9.23504 5.03101 8.95593 4.68217 8.95593C4.33348 8.95593 4.05438 9.23488 4.05438 9.58372C4.05438 9.63026 4.05438 9.67665 4.07757 9.72319C3.77527 9.76974 3.51953 10.0255 3.51953 10.351C3.51986 10.6998 3.7988 10.9788 4.14749 10.9788H4.14747Z" fill="white"/>
<path d="M9.54245 11.3973C9.589 11.467 9.70528 11.467 9.75166 11.3973L10.5189 10.3045C10.5421 10.258 10.5421 10.1883 10.5189 10.1651L9.75166 9.07232C9.70512 9.00259 9.58884 9.00259 9.54245 9.07232L8.77521 10.1651C8.75201 10.2116 8.75201 10.258 8.77521 10.3045L9.54245 11.3973Z" fill="white"/>
</svg>
