<svg width="27" height="10" viewBox="0 0 27 10" fill="none" xmlns="http://www.w3.org/2000/svg">
<path d="M25.4751 4.28304L18.483 4.28303L20.5887 2.1773C20.9126 1.8534 20.9126 1.34046 20.5887 1.01655C20.2648 0.692639 19.7519 0.692649 19.428 1.01655L15.9184 4.52615C15.7564 4.6881 15.6755 4.87716 15.6755 5.09317C15.6755 5.30917 15.7564 5.52516 15.9184 5.66019L19.428 9.16979C19.5899 9.33174 19.8059 9.41272 19.995 9.41272C20.211 9.41272 20.427 9.33174 20.562 9.16979C20.8859 8.84589 20.8859 8.33295 20.562 8.00904L18.4561 5.90292L25.4752 5.90292C25.9341 5.90292 26.2852 5.52498 26.2852 5.09298C26.2852 4.63406 25.9072 4.28304 25.4752 4.28304L25.4751 4.28304Z" fill="#BAACD2"/>
<path d="M13.4635 0.260437C13.0046 0.260437 12.6535 0.638379 12.6535 1.07038L12.6535 9.08835C12.6535 9.54727 13.0315 9.89829 13.4635 9.89829C13.9224 9.89829 14.2734 9.52035 14.2734 9.08835L14.2734 1.09738C14.2734 0.638461 13.9224 0.260533 13.4635 0.260533L13.4635 0.260437Z" fill="#BAACD2"/>
<path d="M7.52418 1.01636C7.20028 0.692462 6.68734 0.692462 6.36343 1.01636C6.03952 1.34026 6.03953 1.85321 6.36343 2.17712L8.46916 4.28285L1.47706 4.28285C1.01814 4.28285 0.667112 4.66079 0.667112 5.09279C0.667112 5.55171 1.04506 5.90273 1.47706 5.90273L8.46916 5.90273L6.36343 8.00847C6.03953 8.33237 6.03953 8.84531 6.36343 9.16922C6.52538 9.33117 6.74137 9.41214 6.93045 9.41214C7.14645 9.41214 7.36244 9.33117 7.49748 9.16922L11.0071 5.65962C11.169 5.49767 11.25 5.30861 11.25 5.0926C11.25 4.8766 11.169 4.66061 11.0071 4.52557L7.52418 1.01636Z" fill="#BAACD2"/>
</svg>
