<svg width="17" height="20" viewBox="0 0 17 20" fill="none" xmlns="http://www.w3.org/2000/svg">
<path d="M14.2837 13.3955C13.36 12.3163 12.1488 11.4962 10.7727 11.058C11.7906 10.5725 12.6342 9.77609 13.1809 8.79584C13.5862 8.04651 13.6804 7.60351 13.671 7.5988C14.2978 5.34139 13.4212 2.97088 11.555 1.65131C11.5644 1.64188 10.5841 1.09049 10.57 1.09992C9.22687 0.524962 7.68109 0.524962 6.33796 1.09992C5.83841 1.30257 5.353 1.63717 5.353 1.65131C3.48675 2.96617 2.61018 5.34139 3.23697 7.5988C3.23697 7.60351 3.49146 8.38111 3.7271 8.79584C4.27378 9.77609 5.11265 10.5725 6.12589 11.0532C4.74505 11.4915 3.52916 12.3115 2.59604 13.3955L1.83257 14.4464C1.12566 15.6246 0.710938 17.0102 0.710938 18.4947H0.715651C0.715651 18.8246 0.894735 19.0602 1.20578 19.0791L15.6551 19.0838C15.9473 19.0838 16.1829 18.8481 16.1829 18.5559C16.1829 17.1138 15.7352 15.6058 15.0377 14.4464L14.2837 13.3955ZM4.5047 7.98524C3.12858 4.98322 5.34357 1.72671 8.44456 1.72671C11.7293 1.76913 13.737 5.0869 12.4033 7.98524C10.8433 11.369 6.06462 11.3737 4.5047 7.98524ZM15.0942 18.0328H1.79016C1.89855 16.3928 2.6196 14.8423 3.7271 13.7254C7.7942 9.61585 14.7172 12.3257 15.0942 18.0328Z" fill="#C51DF1"/>
<path d="M9.92256 7.17465C10.243 6.56199 11.1762 7.04269 10.8557 7.65534C9.84716 9.61114 7.05721 9.61114 6.04868 7.65534C5.73293 7.04269 6.66605 6.56199 6.98181 7.17465C7.60389 8.37168 9.30048 8.3764 9.92256 7.17465Z" fill="#C51DF1"/>
</svg>
