<svg width="13" height="16" viewBox="0 0 13 16" fill="none" xmlns="http://www.w3.org/2000/svg">
<path d="M11.4752 10.6528C10.7468 9.80174 9.79163 9.15506 8.70639 8.80941C9.50917 8.4266 10.1744 7.7985 10.6056 7.02545C10.9252 6.43452 10.9995 6.08516 10.9921 6.08144C11.4864 4.3012 10.7951 2.43176 9.32334 1.39112C9.33077 1.38368 8.55772 0.948845 8.54657 0.956278C7.48735 0.502855 6.26831 0.502855 5.20908 0.956278C4.81512 1.11609 4.43232 1.37997 4.43232 1.39112C2.96055 2.42804 2.26927 4.3012 2.76357 6.08144C2.76357 6.08516 2.96427 6.69839 3.1501 7.02545C3.58122 7.7985 4.24277 8.4266 5.04184 8.8057C3.95288 9.15134 2.994 9.79802 2.25812 10.6528L1.65603 11.4816C1.09854 12.4108 0.771484 13.5035 0.771484 14.6742H0.775201C0.775201 14.9343 0.916431 15.1202 1.16173 15.135L12.5568 15.1387C12.7872 15.1387 12.973 14.9529 12.973 14.7225C12.973 13.5852 12.6199 12.3959 12.0699 11.4816L11.4752 10.6528ZM3.76333 6.3862C2.67809 4.01874 4.42488 1.45058 6.87039 1.45058C9.46085 1.48403 11.0441 4.1005 9.99232 6.3862C8.76213 9.05471 4.99352 9.05842 3.76333 6.3862ZM12.1145 14.31H1.62258C1.70806 13.0166 2.2767 11.7938 3.1501 10.913C6.35751 7.67214 11.8172 9.80917 12.1145 14.31Z" fill="#BAACD2" fill-opacity="0.62"/>
<path d="M8.03739 5.74696C8.29011 5.2638 9.026 5.6429 8.77327 6.12605C7.97792 7.66843 5.7777 7.66843 4.98236 6.12605C4.73335 5.6429 5.46923 5.2638 5.71824 5.74696C6.20883 6.69097 7.5468 6.69469 8.03739 5.74696Z" fill="#BAACD2" fill-opacity="0.62"/>
</svg>
