<svg width="58" height="40" viewBox="0 0 58 40" fill="none" xmlns="http://www.w3.org/2000/svg">
<rect x="1.87216" y="32.946" width="1.27567" height="4.78931" rx="0.637835" fill="#00FEE8"/>
<rect x="4.90463" y="34.7029" width="1.27567" height="4.78931" rx="0.637835" transform="rotate(90 4.90463 34.7029)" fill="#00FEE8"/>
<rect x="57.1107" y="5.79688" width="1.27567" height="6.57027" rx="0.637835" transform="rotate(90 57.1107 5.79688)" fill="#00FEE8"/>
<rect x="49.6447" y="5.79688" width="1.27567" height="4.78931" rx="0.637835" transform="rotate(90 49.6447 5.79688)" fill="#00FEE8"/>
<rect x="57.1107" y="8.23047" width="1.27567" height="12.2554" rx="0.637835" transform="rotate(90 57.1107 8.23047)" fill="#00FEE8"/>
<circle cx="7.71981" cy="3.61937" r="2.31518" stroke="#00FEE8"/>
<path d="M21.0934 10.6882H21.0934L21.0904 10.6761L21.0904 10.6761C21.0433 10.4873 20.8527 10.3858 20.7002 10.4352C20.5129 10.483 20.4123 10.6723 20.461 10.8242C20.5435 11.1942 20.6669 11.5647 20.8316 11.8953C20.8832 12.0442 21.0313 12.0897 21.1236 12.0897L21.1256 12.0897C21.1655 12.0897 21.222 12.0898 21.2758 12.04C21.3644 11.9936 21.4234 11.9238 21.4478 11.8446C21.4727 11.7639 21.4602 11.6773 21.4119 11.604C21.2547 11.3282 21.1743 11.0124 21.0934 10.6882Z" fill="#00FEE8" stroke="#00FEE8" stroke-width="0.1"/>
<path d="M26.2564 14.6281C26.4482 14.5802 26.5399 14.391 26.5399 14.2519H26.5415L26.5384 14.2398C26.5155 14.1479 26.4686 14.0758 26.4016 14.0272C26.3351 13.9787 26.2525 13.9561 26.1622 13.9561V13.955L26.1516 13.9573C24.6546 14.281 23.0343 13.7144 22.0218 12.5396L22.0219 12.5395L22.0192 12.5369C21.8779 12.3955 21.6871 12.3959 21.5464 12.4898L21.5458 12.489L21.5388 12.4961C21.3974 12.6374 21.3978 12.8282 21.4917 12.9689L21.4914 12.9691L21.4952 12.9736C22.4464 14.0903 23.852 14.7106 25.2984 14.7116C25.5937 14.7529 25.9272 14.7105 26.2564 14.6281L26.2564 14.6281Z" fill="#00FEE8" stroke="#00FEE8" stroke-width="0.1"/>
<path d="M25.9897 5.23987C25.9895 5.43454 26.0607 5.61246 26.2209 5.68074L26.2195 5.68458L26.2728 5.69818C28.1749 6.18374 29.5114 7.96489 29.4303 9.98975L29.4303 9.98974V9.99175C29.4303 10.1831 29.5755 10.3286 29.7672 10.3286C29.9582 10.3286 30.1036 10.1839 30.104 9.99265C30.1864 7.63531 28.615 5.52505 26.4203 4.98653C26.2343 4.94015 26.0398 5.03284 25.9912 5.22785L25.9898 5.22749L25.9897 5.23987Z" fill="#00FEE8" stroke="#00FEE8" stroke-width="0.1"/>
<path d="M26.3353 30.5614C26.6437 30.7598 26.8087 31.0496 26.8087 31.3336C26.8087 31.6378 26.6088 31.9212 26.2789 32.1311C25.9498 32.3405 25.4985 32.4714 25.0155 32.4714C24.5323 32.4714 24.081 32.3404 23.752 32.131C23.4221 31.9211 23.2222 31.6377 23.2222 31.3336C23.2222 31.0523 23.3844 30.7972 23.6956 30.5692L23.6954 31.4153L23.6954 31.4403L23.7154 31.4553L23.8765 31.5761C24.2536 31.952 24.634 32.0797 25.0154 32.0797C25.5199 32.0797 25.9432 31.8697 26.1991 31.5722L26.3206 31.4507L26.3353 31.436V31.4153V30.5614ZM24.8657 16.6567C24.9134 16.6647 24.964 16.6731 25.0156 16.6762L25.0159 16.6776H25.0563H25.4161V30.9802C25.341 31.033 25.244 31.0814 25.1327 31.0942C25.018 31.1074 24.884 31.0835 24.7377 30.9802V16.6389C24.7783 16.6423 24.8198 16.6491 24.8638 16.6564L24.8657 16.6567ZM30.7098 27.1642L33.1044 37.9604H25.0563H25.056H17.0079L19.4025 27.1642H23.7364V29.4566C22.8416 29.8326 22.3025 30.4967 22.3025 31.2925C22.3025 32.479 23.5265 33.3906 25.0562 33.3906C26.5856 33.3906 27.8098 32.479 27.8098 31.2925C27.8098 30.4977 27.2322 29.7938 26.376 29.4558V27.1642H30.7098ZM31.5775 26.572C31.5775 26.5718 31.5775 26.5717 31.5774 26.5715C31.5314 26.3418 31.3454 26.2041 31.1187 26.2041H26.3761V16.5462C29.656 15.9116 32.1519 13.0334 32.1519 9.58202C32.1519 5.66299 28.9753 2.48638 25.0563 2.48638C21.1373 2.48638 17.9606 5.66299 17.9606 9.58202C17.9606 13.0327 20.4559 15.9519 23.7365 16.5467V26.2041H19.0347C18.808 26.2041 18.6224 26.3418 18.576 26.5715C18.576 26.5716 18.576 26.5718 18.5759 26.572L15.9551 38.3659C15.9084 38.5094 15.9588 38.6482 16.0437 38.7755C16.1376 38.9161 16.2787 38.9615 16.4131 38.9615H33.7405C33.8748 38.9615 34.0159 38.9161 34.1098 38.7755C34.1948 38.6482 34.2451 38.5094 34.1985 38.3659L31.5775 26.572ZM18.921 9.58199C18.921 6.20967 21.6839 3.44664 25.0563 3.44664C28.4287 3.44664 31.1917 6.20959 31.1917 9.58199C31.1917 12.9539 28.4292 15.6764 25.0563 15.6764C21.6835 15.6764 18.921 12.9539 18.921 9.58199Z" fill="#00FEE8" stroke="#00FEE8" stroke-width="0.1"/>
<path d="M20.2757 28.2128C20.0842 28.165 19.8893 28.3061 19.8859 28.5018L19.4364 30.7079C19.3891 30.9007 19.533 31.0967 19.731 31.0967H19.7718C19.9187 31.0967 20.0607 30.998 20.1072 30.8131L20.1072 30.8131L20.1077 30.8109L20.5583 28.599L20.5593 28.5993V28.5891C20.5593 28.4498 20.4675 28.261 20.2758 28.2128L20.2756 28.2135L20.2757 28.2128Z" fill="#00FEE8" stroke="#00FEE8" stroke-width="0.1"/>
<path d="M25.3431 36.4448C25.1518 36.4448 25.0062 36.59 25.0062 36.7816C25.0062 36.9729 25.1514 37.1185 25.3431 37.1185H30.6272C30.8185 37.1185 30.964 36.9733 30.964 36.7816C30.964 36.5903 30.8188 36.4448 30.6272 36.4448H25.3431Z" fill="#00FEE8" stroke="#00FEE8" stroke-width="0.1"/>
<path d="M24.187 36.4448V36.4448H23.6636C23.4723 36.4448 23.3267 36.59 23.3267 36.7816C23.3267 36.9729 23.4719 37.1185 23.6636 37.1185H23.6636L24.237 37.1182C24.237 37.1182 24.237 37.1182 24.2371 37.1182C24.4283 37.1182 24.5739 36.973 24.5739 36.7813L24.5739 36.7813C24.5736 36.59 24.4284 36.4448 24.237 36.4448H24.187Z" fill="#00FEE8" stroke="#00FEE8" stroke-width="0.1"/>
<path d="M19.0682 32.1408L19.0682 32.1408L19.1502 31.8131L19.0682 32.1408ZM19.0682 32.1408C19.0217 32.3269 19.1144 32.5214 19.3095 32.57L19.3091 32.5715M19.0682 32.1408L19.3091 32.5715M19.3091 32.5715H19.3215M19.3091 32.5715H19.3215M19.3215 32.5715H19.4036C19.5468 32.5715 19.6895 32.4767 19.7378 32.3325L19.738 32.3325M19.3215 32.5715L19.738 32.3325M19.738 32.3325L19.7389 32.3288M19.738 32.3325L19.7389 32.3288M19.7389 32.3288L19.8209 32.001L19.821 32.001M19.7389 32.3288L19.821 32.001M19.821 32.001L19.8215 31.9986M19.821 32.001L19.8215 31.9986M19.8215 31.9986C19.8433 31.8882 19.8334 31.7835 19.7905 31.704C19.7473 31.624 19.6718 31.5724 19.5735 31.5703L19.8215 31.9986Z" fill="#00FEE8" stroke="#00FEE8" stroke-width="0.1"/>
</svg>
