<?xml version="1.0" encoding="utf-8"?>
<!-- Generator: Adobe Illustrator 26.5.0, SVG Export Plug-In . SVG Version: 6.00 Build 0)  -->
<svg version="1.1" id="Layer_1" xmlns="http://www.w3.org/2000/svg" xmlns:xlink="http://www.w3.org/1999/xlink" x="0px" y="0px"
	 viewBox="0 0 394.209991 72.302002" style="enable-background:new 0 0 394.209991 72.302002;" xml:space="preserve">
<style type="text/css">
	.st0{fill:#FFFFFF;stroke:#FFFFFF;stroke-miterlimit:10;}
</style>
<g>
	<path class="st0" d="M64.719505,35.899067l-4.212002,3.969002c-0.150421,0.139118-0.235352,0.335114-0.233997,0.539997v9.747002
		c-0.014648,0.432194-0.376881,0.770679-0.809071,0.756031c-0.000309-0.000008-0.000622-0.000019-0.000931-0.000031H26.343506
		c-0.432173,0.015163-0.794809-0.322895-0.809969-0.75507c-0.000011-0.000309-0.000021-0.000622-0.000032-0.000931V20.572069
		c0.009682-0.432331,0.368002-0.774956,0.800331-0.765276c0.003225,0.000072,0.006447,0.000164,0.00967,0.000277h33.435001
		c0.209362,0.001448,0.411667-0.075619,0.567001-0.216l4.23-3.978001c0.299095-0.291327,0.305389-0.769958,0.014061-1.069053
		c-0.154099-0.158205-0.369667-0.241117-0.590061-0.226948H20.520506c-0.432173-0.01516-0.794809,0.322897-0.809969,0.75507
		c-0.00001,0.00031-0.000021,0.000621-0.000031,0.00093v40.68c0.04707,0.401321,0.408131,0.690174,0.809999,0.647999h44.765999
		c0.432182,0.015022,0.794708-0.323151,0.809731-0.755329c0.000107-0.00322,0.000198-0.006443,0.000275-0.009666V36.439072
		c-0.031815-0.451202-0.423378-0.79118-0.87458-0.759365C65.034233,35.692936,64.856812,35.770405,64.719505,35.899067z"/>
	<path class="st0" d="M38.025505,30.211069l-4.284,4.050001c-0.295746,0.273186-0.314034,0.734406-0.040844,1.030151
		c0.013069,0.014149,0.026695,0.027775,0.040844,0.040848l12.357002,11.618999c0.320412,0.295071,0.813583,0.295071,1.133999,0
		l24.992996-23.580002c0.295753-0.27319,0.314041-0.734404,0.040848-1.030151
		c-0.013069-0.014151-0.026695-0.027779-0.040848-0.04085l-4.292999-4.041c-0.320412-0.295073-0.813583-0.295073-1.133995,0
		L47.232506,36.745071c-0.323395,0.296291-0.819603,0.296291-1.143002,0l-6.921001-6.534
		C38.845108,29.91478,38.3489,29.91478,38.025505,30.211069z"/>
	<path class="st0" d="M111.024506,24.586069h5.400002c0.4272-0.01502,0.785698,0.31912,0.800713,0.746323
		c0.000122,0.003225,0.000206,0.006453,0.000282,0.009678V52.35107c-0.014679,0.42894-0.371925,0.766117-0.800995,0.756001
		h-5.400002c-0.42907,0.010117-0.786324-0.327061-0.801003-0.756001v-0.584999
		c-0.031464-0.451229-0.422768-0.791508-0.873985-0.760044c-0.159752,0.011143-0.312729,0.068867-0.44001,0.166042
		c-2.289978,1.763054-5.093056,2.730072-7.983002,2.754002c-3.90934,0.114368-7.682663-1.440125-10.376999-4.275002
		c-2.724808-2.953053-4.185028-6.85561-4.068001-10.872002c-0.1269-3.975067,1.337334-7.8365,4.068001-10.727999
		c2.646523-2.82069,6.375801-4.370731,10.241997-4.257c2.957268,0.016251,5.818329,1.052588,8.099998,2.934
		c0.349579,0.279137,0.859253,0.222031,1.13839-0.127548c0.104362-0.130697,0.16571-0.290493,0.175606-0.457451v-0.792
		c0.00425-0.427446,0.354202-0.770519,0.781654-0.766273C110.999611,24.584921,111.012062,24.585346,111.024506,24.586069z
		 M93.591499,38.779068c-0.105537,2.442177,0.728638,4.831974,2.331001,6.678001
		c1.52787,1.715115,3.733818,2.669926,6.029999,2.610001c2.364357,0.10321,4.65905-0.814663,6.299995-2.52
		c1.643005-1.807095,2.517799-4.182926,2.439003-6.624001c0.092964-2.435184-0.765663-4.810921-2.394005-6.624001
		c-1.602676-1.710373-3.867683-2.642633-6.209999-2.556c-2.288864-0.051012-4.487808,0.890928-6.029999,2.583
		C94.424164,34.072388,93.539055,36.388538,93.591499,38.779068z"/>
	<path class="st0" d="M132.291504,68.686073h-5.400002c-0.43232,0.010048-0.790939-0.332268-0.800995-0.764587
		c0-0.000137-0.000008-0.000275-0.000008-0.000412v-42.57c0.009674-0.427359,0.363968-0.765957,0.791328-0.756279
		c0.003227,0.000072,0.006447,0.000166,0.009674,0.000278h5.400002c0.432175-0.015162,0.7948,0.322895,0.809967,0.755068
		c0.000015,0.000311,0.000015,0.000622,0.000031,0.000933v0.639c0.020706,0.446871,0.39975,0.792351,0.846619,0.77165
		c0.166504-0.007715,0.326584-0.066608,0.458374-0.168652c2.304977-1.822586,5.161575-2.806524,8.100006-2.789999
		c3.89563-0.113157,7.648712,1.469507,10.287003,4.337999c2.762146,2.935917,4.239273,6.852247,4.103989,10.880999
		c0.119232,3.96743-1.348068,7.818699-4.076996,10.701c-2.635513,2.803093-6.341827,4.348484-10.188004,4.248001
		c-2.985458,0.010593-5.883682-1.006325-8.208008-2.880001c-0.353531-0.274105-0.862335-0.209713-1.136444,0.143826
		c-0.100433,0.129547-0.15921,0.286522-0.168549,0.450176v16.199997c0.010666,0.432304-0.331146,0.791412-0.763458,0.802071
		C132.334518,68.687675,132.312988,68.687317,132.291504,68.686073z M149.724503,39.040073
		c0.105103-2.449581-0.739639-4.845158-2.358002-6.687c-1.53154-1.710045-3.735001-2.663788-6.029999-2.609999
		c-2.345825-0.08758-4.617737,0.829041-6.246002,2.519999c-1.641495,1.808777-2.501953,4.192806-2.393997,6.632999
		c-0.08728,2.434296,0.770599,4.807968,2.393997,6.624001c1.602203,1.704643,3.863174,2.633316,6.201004,2.547005
		c2.278931,0.063278,4.470596-0.877884,5.994003-2.574001c1.624725-1.747421,2.489059-4.068504,2.403-6.452999L149.724503,39.040073
		z"/>
	<path class="st0" d="M170.424515,68.686073h-5.400009c-0.432327,0.010048-0.790924-0.332268-0.80098-0.764587
		c-0.000015-0.000137-0.000015-0.000275-0.000015-0.000412v-42.57c0.009689-0.427359,0.363968-0.765957,0.791321-0.756279
		c0.00322,0.000072,0.006454,0.000166,0.009674,0.000278h5.400009c0.432175-0.015156,0.7948,0.322903,0.809967,0.755075
		c0,0.000309,0.000015,0.000616,0.000031,0.000925v0.639c0.014572,0.442139,0.384811,0.788746,0.826965,0.774164
		c0.170593-0.005623,0.334915-0.065594,0.469025-0.171165c2.305679-1.821312,5.161789-2.80509,8.100006-2.789999
		c3.895645-0.113161,7.648727,1.469503,10.287003,4.337999c2.762161,2.935917,4.239288,6.852247,4.104004,10.880999
		c0.118652,3.965649-1.34494,7.815639-4.068008,10.701c-2.637604,2.805466-6.347717,4.35107-10.197006,4.248001
		c-2.982376,0.008526-5.877075-1.008274-8.19899-2.880001c-0.353546-0.274105-0.86235-0.209713-1.136459,0.143826
		c-0.100433,0.129547-0.15921,0.286522-0.168549,0.450176v16.199997c0.005432,0.437378-0.344727,0.796341-0.782104,0.801765
		C170.455093,68.687019,170.439789,68.686768,170.424515,68.686073z M187.857513,39.040073
		c0.100433-2.448883-0.743713-4.842773-2.358002-6.687c-1.532257-1.709038-3.73526-2.662571-6.029999-2.609999
		c-2.346222-0.089897-4.619049,0.827093-6.246002,2.519999c-1.644928,1.806709-2.505905,4.192207-2.393997,6.632999
		c-0.091064,2.434887,0.767303,4.809933,2.393997,6.624001c1.600128,1.713093,3.867813,2.643166,6.209991,2.547005
		c2.28183,0.064716,4.476807-0.876469,6.003006-2.574001C187.060989,43.744316,187.930832,41.425808,187.857513,39.040073z"/>
	<path class="st0" d="M203.211502,24.586069h5.400009c0.4272-0.01502,0.78569,0.31912,0.80072,0.746323
		c0.000107,0.003225,0.000198,0.006453,0.000275,0.009678c0.024094,0.446699,0.405762,0.789284,0.852463,0.765181
		c0.180389-0.009733,0.352356-0.079491,0.488541-0.198181c0.631683-0.547949,1.330231-1.013659,2.078995-1.386
		c1.130295-0.509457,2.36055-0.758585,3.600006-0.729c1.779266,0.036165,3.524765,0.492584,5.093994,1.332001
		c0.374619,0.184391,0.528809,0.637547,0.344406,1.012152c-0.000793,0.001617-0.001587,0.003235-0.002396,0.004847l-2.466003,4.608
		c-0.218323,0.396145-0.716446,0.540302-1.112595,0.321983c-0.00415-0.002293-0.008286-0.00462-0.012405-0.006983
		c-0.961838-0.565575-2.052475-0.875418-3.167999-0.900002c-3.810013,0-5.715012,2.718004-5.715012,8.154001v14.030998
		c-0.014679,0.42894-0.371933,0.766117-0.800995,0.756001h-5.400009c-0.432175,0.01516-0.7948-0.322903-0.809967-0.755077
		c0-0.000305-0.000015-0.000614-0.000031-0.000923v-27c0.009216-0.432341,0.367188-0.775347,0.79953-0.766125
		C203.19252,24.585144,203.202011,24.58552,203.211502,24.586069z"/>
	<path class="st0" d="M224.217499,38.662067c-0.046066-4.027481,1.670059-7.874002,4.697998-10.530001
		c6.542709-5.802866,16.389297-5.802866,22.932007,0c3.034576,2.745575,4.728851,6.672583,4.644012,10.764002
		c0.091217,4.112415-1.622147,8.05872-4.689011,10.799999c-3.161758,2.880932-7.316101,4.425911-11.591995,4.311005
		c-4.237137,0.114414-8.344803-1.466457-11.412003-4.392002c-3.031036-2.822342-4.70015-6.813107-4.580994-10.952999
		L224.217499,38.662067z M231.417496,38.779068c-0.137115,2.489944,0.735703,4.929966,2.421005,6.768002
		c3.732101,3.34222,9.380905,3.34222,13.112991,0c1.689117-1.790787,2.576248-4.192169,2.457001-6.651001
		c0.117523-2.46125-0.76918-4.864773-2.457001-6.66c-3.414627-3.612034-9.110855-3.77206-12.722885-0.357431
		c-1.882645,1.779757-2.907043,4.284479-2.811111,6.873434V38.779068z"/>
	<path class="st0" d="M266.607483,25.027071l6.88501,14.094c0.212128,0.405102,0.712555,0.561516,1.117645,0.349369
		c0.149292-0.07819,0.271149-0.200073,0.349365-0.349369l6.848969-14.094c0.142883-0.274681,0.428406-0.445316,0.738007-0.441
		h6.057007c0.422028-0.020105,0.780457,0.30571,0.800568,0.727728c0.00592,0.124454-0.018646,0.24847-0.071564,0.361273
		L274.932495,53.69207c-0.216858,0.402615-0.718994,0.553215-1.121613,0.336384
		c-0.142609-0.076813-0.259552-0.193764-0.336395-0.336384l-14.355011-28.017
		c-0.179382-0.382509-0.014771-0.838043,0.367737-1.017462c0.112793-0.05291,0.236816-0.077469,0.361267-0.071539h6.030029
		C266.186005,24.580925,266.469299,24.752306,266.607483,25.027071z"/>
	<path class="st0" d="M320.301483,40.417068h-19.997986c-0.426971-0.020706-0.789856,0.308636-0.810577,0.735603
		c-0.002655,0.054985,0.000519,0.110092,0.009552,0.164398c0.224365,1.792805,1.041687,3.459137,2.321991,4.734001
		c1.486725,1.388798,3.465912,2.12735,5.498993,2.051998c1.526001,0.063023,3.034363-0.345493,4.319977-1.169998
		c1.341095-1.051788,2.496979-2.320251,3.420013-3.753002c0.247772-0.32848,0.696014-0.431038,1.061981-0.243l4.5,2.385002
		c0.365601,0.180191,0.5159,0.622635,0.335693,0.988228c-0.014099,0.028591-0.030029,0.056236-0.047699,0.082771
		c-0.722015,1.097347-1.541321,2.127502-2.447998,3.077995c-0.966156,1.005886-2.065338,1.874935-3.266998,2.583
		c-1.170044,0.677132-2.435181,1.174683-3.753021,1.475998c-1.438232,0.323303-2.908905,0.480331-4.382996,0.468002
		c-4.517975,0-8.144989-1.368-10.880981-4.104c-2.736023-2.736004-4.104004-6.390003-4.104004-10.962002
		c0-4.518002,1.325989-8.174999,3.978027-10.970999c2.652008-2.796,6.194977-4.172998,10.628998-4.131001
		c4.458008,0.000002,7.97998,1.337999,10.565979,4.014s3.878998,6.344999,3.878998,11.006998v0.810001
		c-0.019409,0.436977-0.389374,0.775486-0.826355,0.756077c-0.000549-0.000023-0.001099-0.00005-0.001648-0.000076
		L320.301483,40.417068z M312.813477,35.017071c0.427216,0.01519,0.785828-0.31881,0.801025-0.746006
		c0.003479-0.09832-0.01178-0.196404-0.045013-0.288998c-1.122009-2.837999-3.360016-4.254-6.713989-4.247999
		c-0.80954-0.003965-1.614532,0.120586-2.38501,0.368999c-1.471161,0.466284-2.740417,1.41824-3.599976,2.700003
		c-0.245148,0.366879-0.456024,0.755512-0.630035,1.160999c-0.154785,0.393124,0.038422,0.837292,0.431549,0.992088
		c0.103119,0.0406,0.213837,0.058315,0.324463,0.051914L312.813477,35.017071z"/>
	<path class="st0" d="M335.736511,4.38107v47.969997c-0.014618,0.432194-0.376892,0.770679-0.809052,0.756031
		c-0.000336-0.000008-0.000641-0.000019-0.000946-0.000031h-5.399994c-0.429077,0.010124-0.786346-0.327057-0.800995-0.756001
		V4.38107c0.009827-0.432328,0.368256-0.774834,0.800568-0.76501c0.000153,0.000003,0.000305,0.000006,0.000427,0.00001h5.399994
		c0.43219-0.015017,0.794708,0.323159,0.809723,0.755337C335.736359,4.374627,335.73645,4.377848,335.736511,4.38107z"/>
	<path class="st0" d="M354.483521,47.473068l-12.744019-21.761999c-0.204468-0.364037-0.075104-0.8249,0.28894-1.029364
		c0.125732-0.070627,0.269043-0.103811,0.413055-0.095636h6.300018c0.290894-0.005289,0.562317,0.145874,0.710999,0.396
		l8.298004,14.715002c0.230133,0.395157,0.73703,0.528927,1.132202,0.29879c0.123749-0.072083,0.226715-0.17503,0.298798-0.29879
		l7.721985-14.67c0.141693-0.264841,0.419678-0.428148,0.719971-0.423h6.075012c0.422028-0.019949,0.780334,0.306,0.800262,0.728027
		c0.006195,0.131119-0.021454,0.261629-0.080261,0.378973l-23.327972,42.560993
		c-0.144043,0.257057-0.416351,0.415604-0.710999,0.414001h-6.156006c-0.42215,0.017464-0.778503-0.310593-0.795959-0.732727
		c-0.005524-0.132965,0.023773-0.265076,0.084961-0.38327l10.971008-19.368
		C354.613708,47.976513,354.613708,47.69862,354.483521,47.473068z"/>
</g>
</svg>
