<svg width="183" height="22" viewBox="0 0 183 22" fill="none" xmlns="http://www.w3.org/2000/svg">
<g opacity="0.68">
<path d="M4.60651 13.035V16.7555H7.50026C8.60265 16.8245 9.56723 16.0665 9.63619 14.964V14.8951C9.63619 13.7238 8.67161 12.9659 7.22478 12.9659L4.60651 13.035ZM4.60651 7.59191V10.8991H7.29356C8.25814 10.968 9.15384 10.279 9.22262 9.31439V9.17656C9.22262 8.28091 8.32696 7.5919 7.08669 7.5919L4.60651 7.59191ZM0.748047 5.38721H5.98443C8.32705 5.38721 9.15384 5.45613 9.84288 5.73168C11.152 6.35179 11.9099 7.59195 11.9099 9.039C11.9099 10.417 11.4965 11.106 10.1184 11.795C11.5653 12.2773 12.5299 13.6553 12.3922 15.1711C12.3922 17.4448 10.6007 18.9604 7.98261 18.9604H0.748225V16.7557H1.78171V7.59213H0.748225V5.38724" fill="#BAACD2"/>
<path d="M21.2114 12.5531C21.2114 11.3818 20.2469 10.4861 19.1444 10.4861H19.0756C17.9043 10.4861 16.9397 11.3818 16.733 12.4843L21.2114 12.5531ZM23.8307 15.5846C23.3479 17.8584 21.4876 19.2363 19.0072 19.2363C16.1135 19.2363 13.9775 16.9627 13.9775 13.7933C13.9775 10.6238 16.1135 8.35018 19.0072 8.35018C20.5918 8.35018 22.1077 9.10802 23.0034 10.4861C23.6925 11.6574 24.1059 12.9665 24.0369 14.3446H16.5956C16.8713 17.0316 18.5938 17.1695 19.0762 17.1695C20.0407 17.2385 20.9365 16.5495 21.2121 15.6537L23.8302 15.5848" fill="#BAACD2"/>
<path d="M32.442 12.209H37.196V18.9611H35.6802V16.8253C35.4047 17.3075 35.0601 17.7208 34.6467 18.1343C33.7511 18.8923 32.6487 19.3057 31.5463 19.3057C28.3768 19.3057 25.8965 16.2052 25.8965 12.209C25.8965 8.21282 28.3768 5.04341 31.4775 5.04341C33.1998 4.97457 34.7157 5.93915 35.5425 7.38603V5.2501H36.9893V9.59074H35.4737C35.3358 8.97065 35.0601 8.41944 34.7157 7.93709C34.0266 7.04142 32.9244 6.49023 31.8219 6.42131C30.1683 6.42131 27.688 7.86826 27.688 12.0711C27.688 15.3782 29.4793 17.7898 31.8219 17.7898C33.6822 17.7208 35.198 16.343 35.5425 14.5516C35.6114 14.2071 35.6114 13.7937 35.6114 13.4492H32.373L32.442 12.209Z" fill="#BAACD2"/>
<path d="M45.8079 13.6556L44.8439 13.7935C41.6745 14.2069 40.641 14.7581 40.641 16.0672C40.71 17.2386 41.6745 18.0654 42.777 18.0654C44.2926 17.9964 45.6018 16.8939 45.8085 15.3781L45.8079 13.6556ZM48.7706 19.0299H45.8079V17.1696C45.1189 18.4788 43.741 19.2366 42.2941 19.2366C40.5715 19.3743 39.0557 17.9965 38.918 16.2739V16.0672C38.918 14.0692 40.6405 13.1045 44.7744 12.6911L45.739 12.6222V11.5887C45.739 10.4174 44.8434 9.65949 43.3965 9.65949C41.9496 9.65949 41.1916 10.1418 40.916 11.5198H39.3314C39.4691 10.693 39.8825 9.93509 40.5026 9.38384C41.2606 8.76373 42.2941 8.48809 43.2586 8.48809C45.3945 8.48809 47.186 9.45274 47.186 12.0709V17.7896H48.6329L48.7706 19.0298" fill="#BAACD2"/>
<path d="M53.1122 10.5551C53.5945 9.86606 54.4903 8.41915 56.4195 8.41915C57.7974 8.41915 58.5552 9.10816 58.8309 10.5551C59.1066 10.0728 59.382 9.65935 59.7956 9.24597C60.4157 8.69477 61.1735 8.35023 62.0003 8.35023C63.5849 8.35023 64.4807 9.38378 64.4807 11.1752V17.7205H65.9275V18.9608H63.0338V11.7264C63.0338 10.2794 62.5514 9.59044 61.518 9.59044C59.7266 9.59044 58.7619 11.7264 58.7619 12.4842V17.7206H60.2778V18.9608H57.2463V11.5197C57.2463 10.2106 56.7639 9.65944 55.7304 9.65944C54.1458 9.65944 52.9744 11.6576 52.9744 12.6221V17.7896H54.4903V19.0298H50.0117V17.7896H51.5276V9.79717H50.0117V8.55698H53.0434L53.1122 10.5552" fill="#BAACD2"/>
<path d="M70.4041 14.6202C70.4041 16.3426 71.7133 17.7206 73.3668 17.8585C75.1581 17.8585 76.2606 16.2737 76.2606 13.7244C76.2606 11.1751 75.0894 9.65925 73.3668 9.65925C71.851 9.65925 70.3352 11.3128 70.3352 12.8287L70.4041 14.6202ZM67.5104 4.76749H70.4041V10.7619C70.8175 10.004 71.9887 8.48803 73.7802 8.48803C76.1229 8.48803 77.9142 10.8996 77.9142 13.9311C77.9142 16.7561 75.9849 19.1675 73.7802 19.1675C71.92 19.1675 71.0242 17.9273 70.4041 17.1005V19.0297H67.4414V17.7895H68.8883V6.00763H67.5104V4.76743" fill="#BAACD2"/>
<path d="M78.7994 4.76798H81.7621V17.7901H83.1401V19.0303H78.7305V17.7901H80.2463V5.93938H78.7994V4.76809" fill="#BAACD2"/>
<path d="M91.7536 12.9665C91.7536 12.0019 91.4091 11.1062 90.7201 10.3484C90.2379 9.93499 89.6177 9.65935 88.9976 9.72826C87.6886 9.79716 86.5862 10.6929 86.2417 11.933C86.1728 12.2775 86.035 12.622 86.035 12.9664L91.7536 12.9665ZM93.2694 16.1359C93.1317 16.756 92.856 17.2384 92.4426 17.7205C91.6158 18.6852 90.4446 19.2363 89.1355 19.2363C86.3105 19.2363 84.3125 17.0316 84.3125 13.8622C84.3125 10.8305 86.3105 8.48792 88.8598 8.48792C91.4091 8.48792 93.4761 10.4861 93.4761 14.1377H85.9661C86.1038 15.6535 86.4484 16.5493 87.1373 17.2383C87.6886 17.7205 88.3775 17.9962 89.0665 17.9962C90.2379 17.9962 90.9958 17.445 91.5469 16.2047L93.2694 16.1358" fill="#BAACD2"/>
<path d="M101.469 7.93743L99.678 14.0006H103.261L101.469 7.93743ZM99.8157 5.38811H103.123L106.912 16.8256H107.946V19.0303H104.845L103.95 16.0676H99.1267L98.2309 19.0303H95.0615V16.8256H96.0952L99.8157 5.38811Z" fill="#BAACD2"/>
<path d="M107.807 8.62543H111.941V10.6236H110.907L112.354 16.7557L114.077 8.62561H116.764L118.486 16.618L119.864 10.6236H118.831V8.62543H122.964V10.6236H122.069L119.864 18.9604H117.108L115.386 11.795L113.732 18.9604H110.976L108.702 10.6236H107.807V8.62543Z" fill="#BAACD2"/>
<path d="M130.268 14.1379C127.856 14.3444 126.272 14.5513 126.272 15.998C126.272 16.825 126.961 17.3761 127.994 17.3761C129.234 17.3761 130.268 16.4116 130.337 15.1714V15.1025V14.1379H130.268ZM132.749 17.0317H133.644V19.0297H130.406V17.7895C129.648 18.754 128.477 19.2363 127.237 19.2363C125.17 19.2363 123.585 17.8584 123.585 15.998C123.585 12.9665 127.03 12.622 130.337 12.3464C130.337 10.7616 129.786 10.2794 128.477 10.2794C127.168 10.2794 126.686 10.8995 126.617 11.8641V11.933L124.136 11.8641C124.274 9.79711 125.928 8.48797 128.408 8.48797C131.302 8.48797 132.818 9.79709 132.818 12.1397L132.749 17.0317Z" fill="#BAACD2"/>
<path d="M138.528 10.2791C139.218 8.97003 139.975 8.41881 141.147 8.41881C141.56 8.41881 141.905 8.48764 142.318 8.55656V10.9681C141.905 10.8992 141.491 10.8303 141.078 10.8303C139.769 10.7615 138.666 11.7261 138.597 12.9662V16.9624H139.838V18.9604H135.015V16.9624H136.048V10.6236H135.015V8.62543H138.528V10.279" fill="#BAACD2"/>
<path d="M150.034 12.5531C150.034 11.3818 149.07 10.4861 147.968 10.4861H147.899C146.727 10.4861 145.763 11.3818 145.556 12.4843L150.034 12.5531ZM152.722 15.5846C152.24 17.8584 150.38 19.2363 147.9 19.2363C145.006 19.2363 142.87 16.9627 142.87 13.7933C142.87 10.6238 145.006 8.35018 147.9 8.35018C149.485 8.35018 151 9.10802 151.896 10.4861C152.585 11.6574 152.998 12.9665 152.929 14.3446H145.488C145.764 17.0316 147.486 17.1695 147.969 17.1695C148.933 17.2385 149.829 16.5495 150.105 15.6537L152.723 15.5848" fill="#BAACD2"/>
<path d="M179.273 3.77211C179.371 3.75519 179.457 3.72364 179.53 3.67642C179.603 3.62938 179.662 3.56612 179.706 3.48611C179.749 3.40664 179.772 3.30382 179.772 3.17659C179.772 3.0009 179.722 2.85763 179.624 2.74733C179.528 2.63685 179.369 2.58179 179.152 2.58179H178.001V3.79635H178.967C179.074 3.79635 179.177 3.78815 179.273 3.77211ZM179.177 2.19137C179.508 2.19137 179.767 2.27227 179.954 2.43514C180.141 2.59783 180.234 2.82057 180.234 3.10318C180.234 3.31523 180.187 3.50019 180.091 3.65967C179.995 3.81916 179.842 3.92821 179.63 3.98666V3.9961C179.731 4.0157 179.813 4.04796 179.877 4.09357C179.94 4.13955 179.99 4.19389 180.027 4.25715C180.064 4.32041 180.093 4.39115 180.111 4.4692C180.129 4.54725 180.143 4.62851 180.152 4.71332C180.159 4.79814 180.162 4.88439 180.166 4.9717C180.17 5.05991 180.178 5.14598 180.191 5.23026C180.203 5.3149 180.223 5.3958 180.248 5.47171C180.271 5.54851 180.309 5.61569 180.357 5.67432H179.84C179.808 5.6385 179.785 5.5895 179.774 5.5282C179.761 5.46637 179.754 5.39705 179.753 5.32025C179.749 5.24434 179.745 5.16219 179.742 5.07399C179.738 4.98649 179.729 4.90043 179.713 4.81561C179.699 4.73097 179.683 4.65078 179.663 4.57416C179.644 4.49807 179.614 4.43142 179.571 4.37422C179.53 4.31703 179.473 4.27194 179.405 4.23773C179.337 4.20334 179.247 4.18659 179.132 4.18659H178.001V5.67432H177.537V2.19137H179.177Z" fill="#BAACD2"/>
<path d="M178.834 1.23123C177.276 1.23123 176.009 2.49849 176.009 4.05602C176.009 5.61373 177.276 6.881 178.834 6.881C180.391 6.881 181.659 5.6137 181.659 4.05602C181.659 2.49849 180.391 1.23123 178.834 1.23123ZM178.834 7.43213C176.973 7.43213 175.458 5.91751 175.458 4.05602C175.458 2.19468 176.973 0.680092 178.834 0.680092C180.695 0.680092 182.21 2.19468 182.21 4.05602C182.21 5.91754 180.695 7.43213 178.834 7.43213Z" fill="#BAACD2"/>
<path d="M154.165 17.6645H155.452V18.9243H154.165V17.6645Z" fill="#BAACD2"/>
<path d="M159.98 18.1638C161.392 18.1638 162.236 17.0288 162.236 15.1602C162.236 13.4023 161.35 12.281 159.98 12.281C158.637 12.281 157.807 13.4023 157.807 15.2156C157.807 17.0703 158.623 18.1638 159.98 18.1638ZM156.603 15.1878C156.603 12.9178 158.001 11.3535 160.021 11.3535C162.001 11.3535 163.44 12.9731 163.44 15.1878C163.44 17.4996 162.029 19.0913 159.994 19.0913C157.973 19.0913 156.603 17.5133 156.603 15.1878Z" fill="#BAACD2"/>
<path d="M166.348 13.1798C166.708 12.4046 166.902 12.1693 167.234 11.851C167.621 11.5187 168.106 11.3387 168.59 11.3387C168.77 11.3387 169.02 11.3664 169.393 11.4219V12.5154C169.02 12.4462 168.798 12.4185 168.604 12.4185C166.583 12.4185 166.348 14.5086 166.348 14.6195V18.0523H167.621V18.9243H164.216V18.0523H165.282V12.3492H164.175V11.4633H166.348V13.1797" fill="#BAACD2"/>
<path d="M175.235 14.2183C175.235 13.4017 174.238 12.239 173.103 12.239C171.885 12.239 171.137 13.2355 171.137 14.8551C171.137 16.5023 171.899 17.499 173.172 17.499C174.266 17.499 175.235 16.4331 175.235 15.5611V14.2183ZM175.235 17.0976C174.556 18.0526 173.809 18.3708 172.992 18.3708C171.207 18.3708 169.975 16.9037 169.975 14.7857C169.975 12.7786 171.179 11.353 172.868 11.353C174.238 11.353 174.847 12.225 175.235 12.7926V11.4636H177.339V12.3496H176.3V18.4678C176.3 20.2671 175.151 21.2915 173.13 21.2915C171.898 21.2915 170.846 20.7516 170.348 19.8796C170.251 19.6996 170.168 19.5196 170.044 19.146H171.248C171.691 20.0456 172.217 20.3777 173.214 20.3777C174.473 20.3777 175.234 19.7274 175.234 18.6476V17.0974" fill="#BAACD2"/>
</g>
</svg>
