<?xml version="1.0" encoding="utf-8"?>
<!-- Generator: Adobe Illustrator 26.5.0, SVG Export Plug-In . SVG Version: 6.00 Build 0)  -->
<svg version="1.1" id="Layer_1" xmlns="http://www.w3.org/2000/svg" xmlns:xlink="http://www.w3.org/1999/xlink" x="0px" y="0px"
	 viewBox="0 0 20 20" style="enable-background:new 0 0 20 20;" xml:space="preserve">
<style type="text/css">
	.st0{display:none;fill:none;stroke:#FFDE01;}
	.st1{display:none;fill:none;stroke:#FFDE01;stroke-width:1;stroke-miterlimit:4.000002;}
	.st2{display:none;fill:#FFDE01;}
	.st3{fill:#FFDE01;}
	.st4{display:none;fill-rule:evenodd;clip-rule:evenodd;fill:#FFDE01;}
</style>
<line class="st0" x1="0.983648" y1="18.725901" x2="18.1464" y2="0.909035"/>
<line class="st1" x1="18.867901" y1="18.725918" x2="1.705131" y2="0.908982"/>
<line class="st0" x1="15.4155" y1="18.8272" x2="9.56786" y2="12.8968"/>
<path class="st2" d="M19.710022,6.109985c0,3.77002-4.51001,7.630005-9.710022,12.790039
	C4.799988,13.73999,0.289978,9.880005,0.289978,6.109985c0-5.47998,7.160034-6.76001,9.710022-2.380005
	C12.530029-0.619995,19.710022,0.609985,19.710022,6.109985z"/>
<path class="st3" d="M9.999593,4.047174C7.697798-0.59144,0.226332,0.73702,0.226332,6.710609
	c0,5.92146,8.066055,8.909069,9.77326,12.470905c1.707205-3.561837,9.774076-6.549446,9.774076-12.470905
	C19.773668,0.742721,12.304646-0.597141,9.999593,4.047174z"/>
<path class="st4" d="M10,18.261684C5.337797,13.674838,0.8909,9.734738,0.8909,6.335387
	c0-3.139327,2.540611-4.298667,4.373196-4.298667c1.086467,0,3.437443,0.414878,4.735904,3.690841
	c1.316679-3.285901,3.696639-3.68256,4.7417-3.68256c2.103374,0,4.3674,1.34235,4.3674,4.290386
	C19.1091,9.704926,14.855979,13.47775,10,18.261684 M14.7417,1.216901c-1.824304,0-3.681732,0.86288-4.7417,2.681388
	C8.935891,2.0715,7.083432,1.20862,5.264096,1.20862c-2.635842,0-5.201296,1.811055-5.201296,5.126767
	c0,3.859774,4.613345,7.808154,9.9372,13.091434c5.324683-5.283279,9.937201-9.231659,9.937201-13.091434
	C19.937201,3.013878,17.374231,1.216901,14.7417,1.216901"/>
</svg>
