<svg width="26" height="26" viewBox="0 0 26 26" fill="none" xmlns="http://www.w3.org/2000/svg">
<path d="M25.1982 1.08081H1.72615C1.56406 1.08081 1.43262 1.21225 1.43262 1.37435C1.43262 5.1628 3.15789 8.63839 6.16692 10.937C6.49779 14.1362 8.89383 16.7319 11.9955 17.3646V24.5537H8.18126C8.01936 24.5537 7.88792 24.6852 7.88792 24.847C7.88792 25.0089 8.01936 25.1404 8.18126 25.1404H18.7439C18.9058 25.1404 19.0372 25.0089 19.0372 24.847C19.0372 24.6852 18.9057 24.5537 18.7439 24.5537H14.9296L14.9295 17.3641C18.032 16.7315 20.428 14.1354 20.7585 10.935C21.1915 10.6006 21.6 10.2473 21.968 9.87935C24.2405 7.60612 25.4922 4.58648 25.4922 1.37495C25.4922 1.21285 25.3608 1.08141 25.1987 1.08141L25.1982 1.08081ZM6.12723 10.1576C3.58326 8.03744 2.10515 4.98897 2.02301 1.66779H6.12723V10.1576ZM14.3424 24.5534H12.582V17.5117H14.3424V24.5534ZM20.2107 10.1767C20.2107 13.8976 17.1833 16.9252 13.4622 16.9252C9.7413 16.925 6.71371 13.8977 6.71371 10.1767V1.66779H20.2102L20.2107 10.1767ZM21.5526 9.46429C21.3179 9.69908 21.062 9.92621 20.7974 10.1478V1.66809H24.9016C24.8277 4.61269 23.6453 7.37189 21.5526 9.46429Z" fill="#00FEE8" stroke="#00FEE8" stroke-width="0.3"/>
<path d="M11.1343 9.17208L10.6854 11.7893C10.6665 11.8996 10.7117 12.0112 10.8021 12.0762C10.8931 12.1424 11.0121 12.1518 11.1114 12.0984L13.4616 10.8628L15.8125 12.0986C15.8553 12.1214 15.9023 12.1326 15.9492 12.1326C16.0103 12.1326 16.0706 12.1137 16.1217 12.0762C16.2121 12.011 16.2573 11.8996 16.2384 11.7893L15.7895 9.17209L17.6913 7.31835C17.7711 7.24035 17.8 7.12345 17.7652 7.01735C17.7306 6.91046 17.6391 6.83364 17.5281 6.81733L14.8998 6.43597L13.7245 4.05411C13.6259 3.85469 13.2968 3.85469 13.1987 4.05411L12.0234 6.43597L9.39513 6.81733C9.28491 6.83325 9.19277 6.91066 9.15799 7.01735C9.12341 7.12364 9.1521 7.24035 9.23187 7.31835L11.1343 9.17208ZM12.2604 6.99453C12.3561 6.98038 12.4388 6.92065 12.481 6.8344L13.4616 4.84742L14.4422 6.8344C14.4851 6.92065 14.5672 6.98057 14.6629 6.99453L16.8552 7.31321L15.2684 8.85947C15.1993 8.92686 15.168 9.02373 15.1839 9.11941L15.5582 11.3029L13.5972 10.2717C13.5555 10.2495 13.5086 10.2378 13.4616 10.2378C13.4147 10.2378 13.3677 10.2495 13.3249 10.2717L11.3639 11.3029L11.7381 9.11941C11.7546 9.02373 11.7228 8.92687 11.6537 8.85947L10.0669 7.31321L12.2604 6.99453Z" fill="#00FEE8" stroke="#00FEE8" stroke-width="0.3"/>
<path d="M24.5811 0.469971H1.10896C0.946869 0.469971 0.81543 0.601415 0.81543 0.763505C0.81543 4.55196 2.5407 8.02755 5.54974 10.3262C5.8806 13.5254 8.27664 16.121 11.3783 16.7538V23.9429H7.56407C7.40217 23.9429 7.27073 24.0743 7.27073 24.2362C7.27073 24.3981 7.40218 24.5295 7.56407 24.5295H18.1267C18.2886 24.5295 18.42 24.3981 18.42 24.2362C18.42 24.0743 18.2886 23.9429 18.1267 23.9429H14.3125L14.3123 16.7533C17.4149 16.1206 19.8108 13.5246 20.1413 10.3242C20.5743 9.98976 20.9828 9.63649 21.3508 9.26851C23.6233 6.99528 24.875 3.97564 24.875 0.764109C24.875 0.602013 24.7436 0.470574 24.5815 0.470574L24.5811 0.469971ZM5.51004 9.54676C2.96607 7.4266 1.48796 4.37813 1.40582 1.05695H5.51004V9.54676ZM13.7252 23.9426H11.9648V16.9008H13.7252V23.9426ZM19.5935 9.56587C19.5935 13.2868 16.5662 16.3144 12.845 16.3144C9.12411 16.3142 6.09652 13.2869 6.09652 9.56587V1.05695H19.593L19.5935 9.56587ZM20.9355 8.85345C20.7007 9.08824 20.4449 9.31537 20.1802 9.537V1.05725H24.2844C24.2105 4.00185 23.0281 6.76105 20.9355 8.85345Z" fill="#FB167F" stroke="#FB167F" stroke-width="0.3"/>
<path d="M10.5172 8.56124L10.0682 11.1785C10.0493 11.2887 10.0945 11.4003 10.1849 11.4654C10.2759 11.5316 10.3949 11.541 10.4942 11.4876L12.8444 10.2519L15.1953 11.4878C15.2381 11.5106 15.2851 11.5217 15.332 11.5217C15.3931 11.5217 15.4535 11.5029 15.5045 11.4654C15.5949 11.4001 15.6401 11.2887 15.6212 11.1785L15.1723 8.56125L17.0742 6.70751C17.1539 6.62951 17.1828 6.51261 17.148 6.40651C17.1135 6.29962 17.0219 6.2228 16.9109 6.20649L14.2826 5.82513L13.1073 3.44327C13.0087 3.24385 12.6796 3.24385 12.5815 3.44327L11.4062 5.82513L8.77795 6.20649C8.66772 6.22241 8.57558 6.29982 8.5408 6.40651C8.50622 6.5128 8.53491 6.62951 8.61468 6.70751L10.5172 8.56124ZM11.6432 6.38369C11.7389 6.36954 11.8216 6.30981 11.8638 6.22356L12.8444 4.23658L13.825 6.22356C13.8679 6.30981 13.95 6.36973 14.0457 6.38369L16.238 6.70237L14.6512 8.24863C14.5821 8.31602 14.5508 8.41289 14.5667 8.50857L14.941 10.692L12.98 9.6609C12.9384 9.6387 12.8914 9.62691 12.8444 9.62691C12.7975 9.62691 12.7505 9.6387 12.7077 9.6609L10.7467 10.692L11.121 8.50857C11.1375 8.41289 11.1056 8.31603 11.0365 8.24863L9.44972 6.70237L11.6432 6.38369Z" fill="#FB167F" stroke="#FB167F" stroke-width="0.3"/>
</svg>
