<svg width="29" height="26" viewBox="0 0 29 26" fill="none" xmlns="http://www.w3.org/2000/svg">
<path d="M15.8734 1.59961C10.4571 1.59961 5.84864 5.07749 4.24119 9.9116L3.10781 7.8965H3.10755C2.96418 7.63225 2.67361 7.4825 2.37488 7.51879C2.12852 7.54665 1.91283 7.69743 1.80192 7.91925C1.69101 8.14107 1.69995 8.40405 1.82543 8.61797L3.84052 12.2129C4.03168 12.5579 4.46204 12.6895 4.81369 12.5106L8.3971 10.6788C8.57854 10.5957 8.71808 10.4421 8.78376 10.2535C8.84944 10.0652 8.83539 9.85818 8.74492 9.68031C8.65445 9.50244 8.49524 9.3693 8.30433 9.31129C8.11343 9.25353 7.9072 9.27602 7.73316 9.37364L5.59206 10.4728C6.97052 6.17996 11.0449 3.06497 15.8733 3.06497C21.8391 3.06497 26.6471 7.8186 26.6471 13.6897C26.6471 19.5131 21.9085 24.2378 16.0113 24.3143L16.0111 24.3146C15.8166 24.3172 15.631 24.3971 15.4953 24.5367C15.3599 24.6762 15.2855 24.8641 15.2883 25.0585C15.2914 25.2533 15.3717 25.4386 15.5115 25.5737C15.6512 25.7092 15.8393 25.7833 16.0338 25.78C22.707 25.6933 28.1129 20.3095 28.1129 13.6898C28.1129 7.01602 22.6212 1.59965 15.8742 1.59965L15.8734 1.59961ZM15.5757 7.08362V7.08388C15.198 7.12528 14.9148 7.4483 14.923 7.82806V13.6901V13.6898C14.923 13.9124 15.0239 14.1233 15.1977 14.2623L18.8614 17.1933C19.1775 17.4463 19.6391 17.3949 19.8918 17.0788C20.1448 16.7627 20.0934 16.3014 19.7773 16.0484L16.3883 13.3349V7.82781V7.82806C16.3929 7.61697 16.3063 7.41432 16.1507 7.27171C15.995 7.12911 15.7855 7.06062 15.5756 7.08388L15.5757 7.08362Z" fill="#00FEE8"/>
<path d="M14.8734 0.599609C9.45709 0.599609 4.84864 4.07749 3.24119 8.9116L2.10781 6.8965H2.10755C1.96418 6.63225 1.67361 6.4825 1.37488 6.51879C1.12852 6.54665 0.912829 6.69743 0.801918 6.91925C0.691006 7.14107 0.69995 7.40405 0.82543 7.61797L2.84052 11.2129C3.03168 11.5579 3.46204 11.6895 3.81369 11.5106L7.3971 9.67878C7.57854 9.59572 7.71808 9.44213 7.78376 9.25353C7.84944 9.06518 7.83539 8.85818 7.74492 8.68031C7.65445 8.50244 7.49524 8.3693 7.30433 8.31129C7.11343 8.25353 6.9072 8.27602 6.73316 8.37364L4.59206 9.47281C5.97052 5.17996 10.0449 2.06497 14.8733 2.06497C20.8391 2.06497 25.6471 6.8186 25.6471 12.6897C25.6471 18.5131 20.9085 23.2378 15.0113 23.3143L15.0111 23.3146C14.8166 23.3172 14.631 23.3971 14.4953 23.5367C14.3599 23.6762 14.2855 23.8641 14.2883 24.0585C14.2914 24.2533 14.3717 24.4386 14.5115 24.5737C14.6512 24.7092 14.8393 24.7833 15.0338 24.78C21.707 24.6933 27.1129 19.3095 27.1129 12.6898C27.1129 6.01602 21.6212 0.59965 14.8742 0.59965L14.8734 0.599609ZM14.5757 6.08362V6.08388C14.198 6.12528 13.9148 6.4483 13.923 6.82806V12.6901V12.6898C13.923 12.9124 14.0239 13.1233 14.1977 13.2623L17.8614 16.1933C18.1775 16.4463 18.6391 16.3949 18.8918 16.0788C19.1448 15.7627 19.0934 15.3014 18.7773 15.0484L15.3883 12.3349V6.82781V6.82806C15.3929 6.61697 15.3063 6.41432 15.1507 6.27171C14.995 6.12911 14.7855 6.06062 14.5756 6.08388L14.5757 6.08362Z" fill="#FB167F"/>
</svg>
