<svg width="28" height="25" viewBox="0 0 28 25" fill="none" xmlns="http://www.w3.org/2000/svg">
<path d="M14.4279 0.185059L1.81055 12.9737H5.87879V24.2446H23.0446V12.9737H27.1128L14.4279 0.185059ZM12.3262 23.2119V16.8344H16.532V23.2119H12.3262ZM21.978 11.941V23.2119H17.5647V15.8017H11.291V23.2119H6.87775V11.941H4.2597L14.4279 1.66903L24.5961 11.941H21.978Z" fill="#00FEE8"/>
<path d="M13.4279 0.185059L0.810547 12.9737H4.87879V24.2446H22.0446V12.9737H26.1128L13.4279 0.185059ZM11.3262 23.2119V16.8344H15.532V23.2119H11.3262ZM20.978 11.941V23.2119H16.5647V15.8017H10.291V23.2119H5.87775V11.941H3.2597L13.4279 1.66903L23.5961 11.941H20.978Z" fill="#FB167F"/>
</svg>
