<svg width="22" height="29" viewBox="0 0 22 29" fill="none" xmlns="http://www.w3.org/2000/svg">
<path d="M3.75585 27.98H20.4909C20.671 27.98 20.8126 27.8384 20.8126 27.6582V1.91157C20.8126 1.73141 20.671 1.58982 20.4909 1.58982L3.75585 1.5896C2.15953 1.5896 0.859375 2.88976 0.859375 4.48607V25.083C0.859375 26.6796 2.15953 27.9797 3.75585 27.9797V27.98ZM4.07761 2.23333H20.1693V22.187H4.07761V2.23333ZM1.50289 4.48607C1.50289 3.35313 2.34618 2.42643 3.43387 2.26544V22.2191C2.65502 22.3092 1.97272 22.7019 1.50289 23.2876V4.48607ZM3.75585 22.8304H20.1692V24.7614H16.629C16.4488 24.7614 16.3072 24.903 16.3072 25.0832C16.3072 25.2633 16.4488 25.4049 16.629 25.4049H20.1692V27.3359L3.75585 27.3361C2.51362 27.3361 1.50311 26.3256 1.50311 25.0834C1.50289 23.8409 2.5134 22.8304 3.75585 22.8304V22.8304Z" fill="#00FEE8" stroke="#00FEE8" stroke-width="0.4"/>
<path d="M16.5001 10.9229L13.6745 10.511L12.4129 7.94921C12.3035 7.73047 11.9431 7.73047 11.8336 7.94921L10.5721 10.511L7.74625 10.9229C7.62406 10.9423 7.52751 11.0259 7.48871 11.1416C7.45014 11.2575 7.48225 11.3862 7.57233 11.4698L9.61277 13.4588L9.13003 16.2716C9.11063 16.3938 9.15567 16.5162 9.25868 16.5869C9.35523 16.6578 9.49036 16.6705 9.59984 16.6126L12.123 15.287L14.6462 16.613C14.6913 16.6387 14.7428 16.6516 14.7943 16.6516C14.8587 16.6516 14.9294 16.6322 14.9809 16.5871C15.0775 16.5162 15.129 16.394 15.1096 16.2719L14.6268 13.459L16.6673 11.47C16.7573 11.3864 16.7895 11.2576 16.7509 11.1418C16.7188 11.0194 16.6222 10.9358 16.5 10.9229L16.5001 10.9229ZM14.0605 13.1178C13.9834 13.1887 13.951 13.298 13.9704 13.401L14.3696 15.7376L12.2711 14.637C12.2261 14.6114 12.1746 14.5984 12.1231 14.5984C12.0716 14.5984 12.0201 14.6114 11.975 14.637L9.87659 15.7376L10.2757 13.401C10.2951 13.298 10.2563 13.1885 10.1856 13.1178L8.48631 11.4636L10.8291 11.1224C10.9322 11.1095 11.0222 11.0388 11.0738 10.9487L12.1229 8.82465L13.172 10.9487C13.2171 11.0453 13.3071 11.1097 13.4166 11.1224L15.7595 11.4636L14.0605 13.1178Z" fill="#00FEE8" stroke="#00FEE8" stroke-width="0.4"/>
<path d="M3.25097 27.3989H19.986C20.1661 27.3989 20.3077 27.2573 20.3077 27.0771V1.33052C20.3077 1.15035 20.1661 1.00876 19.986 1.00876L3.25097 1.00854C1.65465 1.00854 0.354492 2.3087 0.354492 3.90502V24.502C0.354492 26.0985 1.65465 27.3987 3.25097 27.3987V27.3989ZM3.57272 1.65227H19.6644V21.606H3.57272V1.65227ZM0.998006 3.90501C0.998006 2.77208 1.84129 1.84537 2.92899 1.68438V21.6381C2.15014 21.7281 1.46784 22.1208 0.998006 22.7066V3.90501ZM3.25097 22.2494H19.6643V24.1803H16.1241C15.944 24.1803 15.8024 24.3219 15.8024 24.5021C15.8024 24.6823 15.944 24.8239 16.1241 24.8239H19.6643V26.7548L3.25097 26.7551C2.00874 26.7551 0.998227 25.7445 0.998227 24.5023C0.998011 23.2599 2.00852 22.2494 3.25097 22.2494V22.2494Z" fill="#FB167F" stroke="#FB167F" stroke-width="0.4"/>
<path d="M15.9952 10.3418L13.1697 9.92997L11.9081 7.36816C11.7986 7.14942 11.4382 7.14942 11.3288 7.36816L10.0672 9.92997L7.24137 10.3418C7.11918 10.3612 7.02263 10.4448 6.98383 10.5605C6.94525 10.6765 6.97737 10.8052 7.06745 10.8888L9.10789 12.8777L8.62514 15.6906C8.60575 15.8128 8.65079 15.9352 8.7538 16.0059C8.85035 16.0768 8.98548 16.0895 9.09496 16.0315L11.6181 14.7059L14.1413 16.032C14.1864 16.0576 14.2379 16.0705 14.2894 16.0705C14.3538 16.0705 14.4245 16.0511 14.476 16.0061C14.5726 15.9352 14.6241 15.813 14.6047 15.6908L14.1219 12.878L16.1624 10.889C16.2525 10.8054 16.2846 10.6765 16.246 10.5608C16.2139 10.4384 16.1173 10.3547 15.9951 10.3418L15.9952 10.3418ZM13.5556 12.5368C13.4785 12.6077 13.4461 12.7169 13.4655 12.82L13.8647 15.1566L11.7662 14.056C11.7212 14.0303 11.6697 14.0174 11.6182 14.0174C11.5667 14.0174 11.5152 14.0303 11.4701 14.056L9.37171 15.1566L9.77083 12.82C9.79023 12.7169 9.75144 12.6075 9.68075 12.5368L7.98143 10.8825L10.3243 10.5414C10.4273 10.5285 10.5174 10.4578 10.5689 10.3677L11.618 8.2436L12.6671 10.3677C12.7122 10.4642 12.8023 10.5287 12.9117 10.5414L15.2546 10.8825L13.5556 12.5368Z" fill="#FB167F" stroke="#FB167F" stroke-width="0.4"/>
</svg>
