<svg width="22" height="26" viewBox="0 0 22 26" fill="none" xmlns="http://www.w3.org/2000/svg">
<path d="M0.309603 5.13815L0.309568 5.1377C0.292122 4.90065 0.443013 4.68917 0.661178 4.62186C1.36795 4.37981 1.97577 3.92021 2.40364 3.32326C2.82204 2.73933 3.06868 2.02298 3.06868 1.24914C3.06868 0.97239 3.29317 0.7479 3.56992 0.7479H18.1043C18.381 0.7479 18.6055 0.97239 18.6055 1.24914C18.6055 2.02292 18.8523 2.73926 19.2709 3.32285L19.2709 3.32286C19.7015 3.92339 20.3141 4.38535 21.0263 4.62617C21.2476 4.70096 21.3812 4.9154 21.3652 5.13739L21.3651 5.13797C21.0478 9.19689 19.966 13.1081 18.2222 16.625C16.4895 20.1204 14.1025 23.2286 11.1608 25.7099L0.309603 5.13815ZM0.309603 5.13815C0.626908 9.19684 1.70876 13.1078 3.45255 16.6252C5.18426 20.1183 7.56956 23.2249 10.509 25.7053M0.309603 5.13815L10.509 25.7053M18.4966 7.78638L18.4966 7.78622C18.5515 7.47461 18.6006 7.17013 18.6437 6.87396C18.6878 6.5671 18.7278 6.25925 18.7624 5.9539C18.7927 5.67933 19.0405 5.48148 19.3148 5.51154C19.5895 5.54165 19.7876 5.78959 19.7575 6.06395L19.7575 6.06422C19.7217 6.38267 19.6801 6.70058 19.6348 7.01554L19.6348 7.01568C19.5878 7.33932 19.5371 7.65492 19.4835 7.95884C19.4361 8.23117 19.1764 8.41354 18.904 8.36604L18.4966 7.78638ZM18.4966 7.78638C18.449 8.05888 18.6315 8.31863 18.9039 8.36602L18.4966 7.78638ZM10.509 25.7053C10.6924 25.8659 10.9694 25.872 11.1607 25.71L10.509 25.7053ZM19.2032 9.34584L19.2032 9.3457C19.2636 9.0765 19.0949 8.80858 18.8252 8.7481C18.5561 8.68775 18.2882 8.85638 18.2277 9.12599C17.6267 11.7876 16.6532 14.3616 15.3252 16.7329L15.3252 16.7329C14.2332 18.6835 12.9012 20.4967 11.3394 22.1091V3.27761H16.4627C16.7394 3.27761 16.9639 3.05312 16.9639 2.77637C16.9639 2.49962 16.7394 2.27513 16.4627 2.27513H10.838C10.5613 2.27513 10.3368 2.49962 10.3368 2.77637L10.3377 23.3042C10.3377 23.4273 10.3827 23.5506 10.4736 23.6471C10.6627 23.848 10.9797 23.8579 11.1808 23.6688C13.1887 21.7863 14.8673 19.6015 16.1989 17.2227C17.5736 14.7684 18.5809 12.1027 19.2032 9.34584ZM4.3501 16.182L4.35009 16.182C2.71588 12.8862 1.68272 9.2301 1.33994 5.4313C2.09564 5.09972 2.74439 4.56902 3.21913 3.90695L3.21917 3.9069C3.66382 3.28595 3.95731 2.54892 4.04488 1.75061H17.6309C17.7185 2.54875 18.012 3.28595 18.457 3.90657C18.9318 4.56864 19.5805 5.09938 20.3362 5.43128C19.9934 9.23013 18.9601 12.8863 17.326 16.182L17.4155 16.2265L17.326 16.182C15.7173 19.4272 13.5255 22.3247 10.8383 24.6692C8.15084 22.3249 5.95869 19.4269 4.3501 16.182Z" fill="#FFDE01" stroke="#FFDE01" stroke-width="0.2"/>
</svg>
