<svg width="24" height="27" viewBox="0 0 24 27" fill="none" xmlns="http://www.w3.org/2000/svg">
<path d="M1.9346 6.11618L1.93457 6.11573C1.91712 5.87868 2.06801 5.66719 2.28618 5.59988C2.99295 5.35784 3.60077 4.89824 4.02864 4.30128C4.44704 3.71735 4.69368 3.00101 4.69368 2.22717C4.69368 1.95042 4.91817 1.72593 5.19492 1.72593H19.7293C20.006 1.72593 20.2305 1.95042 20.2305 2.22717C20.2305 3.00094 20.4773 3.71729 20.8959 4.30088L20.8959 4.30089C21.3265 4.90142 21.9391 5.36338 22.6513 5.6042C22.8726 5.67899 23.0062 5.89342 22.9902 6.11541L22.9901 6.11599C22.6728 10.1749 21.591 14.0861 19.8472 17.603C18.1145 21.0984 15.7275 24.2067 12.7858 26.6879L1.9346 6.11618ZM1.9346 6.11618C2.25191 10.1749 3.33376 14.0859 5.07755 17.6032C6.80926 21.0963 9.19456 24.2029 12.134 26.6833M1.9346 6.11618L12.134 26.6833M20.1216 8.7644L20.1216 8.76425C20.1765 8.45264 20.2256 8.14816 20.2687 7.85199C20.3128 7.54513 20.3528 7.23728 20.3874 6.93193C20.4177 6.65736 20.6655 6.45951 20.9398 6.48957C21.2145 6.51968 21.4126 6.76762 21.3825 7.04198L21.3825 7.04225C21.3467 7.3607 21.3051 7.6786 21.2598 7.99357L21.2598 7.9937C21.2128 8.31735 21.1621 8.63295 21.1085 8.93686C21.0611 9.2092 20.8014 9.39157 20.529 9.34406L20.1216 8.7644ZM20.1216 8.7644C20.074 9.03691 20.2565 9.29666 20.5289 9.34405L20.1216 8.7644ZM12.134 26.6833C12.3174 26.8439 12.5944 26.85 12.7857 26.6881L12.134 26.6833ZM20.8282 10.3239L20.8282 10.3237C20.8886 10.0545 20.7199 9.78661 20.4502 9.72613C20.1811 9.66578 19.9132 9.83441 19.8527 10.104C19.2517 12.7656 18.2782 15.3396 16.9502 17.7109L16.9502 17.7109C15.8582 19.6616 14.5262 21.4747 12.9644 23.0871V4.25564H18.0877C18.3644 4.25564 18.5889 4.03115 18.5889 3.7544C18.5889 3.47765 18.3644 3.25316 18.0877 3.25316H12.463C12.1863 3.25316 11.9618 3.47765 11.9618 3.7544L11.9627 24.2822C11.9627 24.4053 12.0077 24.5287 12.0986 24.6251C12.2877 24.8261 12.6047 24.8359 12.8058 24.6468C14.8137 22.7644 16.4923 20.5795 17.8239 18.2007C19.1986 15.7464 20.2059 13.0808 20.8282 10.3239ZM5.9751 17.1601L5.97509 17.1601C4.34088 13.8642 3.30772 10.2081 2.96494 6.40933C3.72064 6.07774 4.36939 5.54704 4.84413 4.88498L4.84417 4.88493C5.28882 4.26397 5.58231 3.52695 5.66988 2.72864H19.2559C19.3435 3.52678 19.637 4.26398 20.082 4.8846C20.5568 5.54667 21.2055 6.07741 21.9612 6.4093C21.6184 10.2082 20.5851 13.8644 18.951 17.1601L19.0405 17.2045L18.951 17.1601C17.3423 20.4052 15.1505 23.3028 12.4633 25.6472C9.77584 23.3029 7.58369 20.4049 5.9751 17.1601Z" fill="#00FEE8" stroke="#00FEE8" stroke-width="0.2"/>
<path d="M0.934603 5.11618L0.934568 5.11573C0.917122 4.87868 1.06801 4.66719 1.28618 4.59988C1.99295 4.35784 2.60077 3.89824 3.02864 3.30128C3.44704 2.71735 3.69368 2.00101 3.69368 1.22717C3.69368 0.950417 3.91817 0.725928 4.19492 0.725928H18.7293C19.006 0.725928 19.2305 0.950417 19.2305 1.22717C19.2305 2.00094 19.4773 2.71729 19.8959 3.30088L19.8959 3.30089C20.3265 3.90142 20.9391 4.36338 21.6513 4.6042C21.8726 4.67899 22.0062 4.89342 21.9902 5.11541L21.9901 5.11599C21.6728 9.17491 20.591 13.0861 18.8472 16.603C17.1145 20.0984 14.7275 23.2067 11.7858 25.6879L0.934603 5.11618ZM0.934603 5.11618C1.25191 9.17486 2.33376 13.0859 4.07755 16.6032C5.80926 20.0963 8.19456 23.2029 11.134 25.6833M0.934603 5.11618L11.134 25.6833M19.1216 7.7644L19.1216 7.76425C19.1765 7.45264 19.2256 7.14816 19.2687 6.85199C19.3128 6.54513 19.3528 6.23728 19.3874 5.93193C19.4177 5.65736 19.6655 5.45951 19.9398 5.48957C20.2145 5.51968 20.4126 5.76762 20.3825 6.04198L20.3825 6.04225C20.3467 6.3607 20.3051 6.6786 20.2598 6.99357L20.2598 6.9937C20.2128 7.31735 20.1621 7.63295 20.1085 7.93686C20.0611 8.2092 19.8014 8.39157 19.529 8.34406L19.1216 7.7644ZM19.1216 7.7644C19.074 8.03691 19.2565 8.29666 19.5289 8.34405L19.1216 7.7644ZM11.134 25.6833C11.3174 25.8439 11.5944 25.85 11.7857 25.6881L11.134 25.6833ZM19.8282 9.32387L19.8282 9.32373C19.8886 9.05453 19.7199 8.78661 19.4502 8.72613C19.1811 8.66578 18.9132 8.83441 18.8527 9.10402C18.2517 11.7656 17.2782 14.3396 15.9502 16.7109L15.9502 16.7109C14.8582 18.6616 13.5262 20.4747 11.9644 22.0871V3.25564H17.0877C17.3644 3.25564 17.5889 3.03115 17.5889 2.7544C17.5889 2.47765 17.3644 2.25316 17.0877 2.25316H11.463C11.1863 2.25316 10.9618 2.47765 10.9618 2.7544L10.9627 23.2822C10.9627 23.4053 11.0077 23.5287 11.0986 23.6251C11.2877 23.8261 11.6047 23.8359 11.8058 23.6468C13.8137 21.7644 15.4923 19.5795 16.8239 17.2007C18.1986 14.7464 19.2059 12.0808 19.8282 9.32387ZM4.9751 16.1601L4.97509 16.1601C3.34088 12.8642 2.30772 9.20813 1.96494 5.40933C2.72064 5.07774 3.36939 4.54704 3.84413 3.88498L3.84417 3.88493C4.28882 3.26397 4.58231 2.52695 4.66988 1.72864H18.2559C18.3435 2.52678 18.637 3.26398 19.082 3.8846C19.5568 4.54667 20.2055 5.07741 20.9612 5.4093C20.6184 9.20816 19.5851 12.8644 17.951 16.1601L18.0405 16.2045L17.951 16.1601C16.3423 19.4052 14.1505 22.3028 11.4633 24.6472C8.77584 22.3029 6.58369 19.4049 4.9751 16.1601Z" fill="#FB167F" stroke="#FB167F" stroke-width="0.2"/>
</svg>
