<svg width="24" height="26" viewBox="0 0 24 26" fill="none" xmlns="http://www.w3.org/2000/svg">
<path d="M3.14374 22.7785C3.17373 23.7064 3.69648 24.5477 4.51514 24.9858C5.33377 25.4238 6.32378 25.3918 7.11247 24.9018C7.9011 24.4118 8.3684 23.5385 8.3384 22.6106V13.6938C8.3384 12.9711 8.03829 12.2809 7.50954 11.7884C6.98103 11.2959 6.27139 11.0453 5.55044 11.0968C4.82975 11.148 4.16285 11.4968 3.7093 12.0593V11.8634C3.7093 8.88778 5.2968 6.13807 7.87366 4.65012C10.4507 3.16229 13.6258 3.16229 16.2026 4.65012C18.7794 6.13794 20.367 8.88765 20.367 11.8634V12.2328C19.9199 11.6623 19.2552 11.3039 18.5328 11.2442C17.8104 11.1845 17.0957 11.4289 16.5612 11.9182C16.0265 12.4074 15.7199 13.0976 15.7156 13.8226V22.7279C15.7056 23.6577 16.1924 24.5223 16.9928 24.9961C17.7932 25.4696 18.7852 25.4804 19.5956 25.0241C20.406 24.5678 20.9112 23.7137 20.9213 22.7838C21.5215 22.7321 22.081 22.4575 22.4891 22.0142C22.8971 21.5709 23.1248 20.9909 23.1265 20.3882V11.8635C23.1265 8.92257 21.9583 6.10218 19.8787 4.02262C17.7994 1.94333 14.979 0.774841 12.0379 0.774841C9.09676 0.774841 6.27656 1.94333 4.197 4.02262C2.11745 6.10218 0.949219 8.92264 0.949219 11.8635V20.3882C0.952217 20.9882 1.17861 21.5654 1.58443 22.0072C1.98999 22.449 2.54597 22.7242 3.1432 22.7784L3.14374 22.7785ZM5.73531 11.6509H5.73556C6.27631 11.6536 6.79434 11.87 7.17688 12.2523C7.55946 12.6349 7.77561 13.1529 7.7786 13.6939V22.6108C7.74162 23.3162 7.3438 23.9529 6.72584 24.2955C6.10813 24.6378 5.35719 24.6378 4.73949 24.2955C4.12152 23.9529 3.7237 23.3162 3.68673 22.6108V14.2479C3.69323 14.1754 3.69323 14.1022 3.68673 14.0297V13.4028C3.75845 12.9122 4.00558 12.4645 4.38241 12.1424C4.75898 11.8203 5.23974 11.6456 5.73551 11.6508L5.73531 11.6509ZM20.3673 22.728C20.3968 23.2892 20.1944 23.8378 19.8075 24.2453C19.4207 24.6529 18.8835 24.8838 18.3215 24.8838C17.7595 24.8838 17.2222 24.6529 16.8355 24.2453C16.4487 23.8377 16.2463 23.2893 16.2757 22.728V13.8227C16.3127 13.1173 16.7103 12.4806 17.3282 12.1379C17.9462 11.7953 18.6969 11.7953 19.3148 12.1379C19.9328 12.4805 20.3304 13.1173 20.3674 13.8227L20.3673 22.728ZM22.567 20.3883C22.5673 20.8431 22.4004 21.2819 22.098 21.6215C21.7956 21.9611 21.3789 22.1777 20.927 22.23V15.1433L21.0277 15.2048L21.1117 15.2495V15.2498C21.4938 15.4507 21.95 15.4507 22.3321 15.2498L22.4216 15.205L22.5168 15.1436H22.5448L22.567 20.3883ZM1.50987 11.8636C1.50987 9.07119 2.61912 6.39312 4.59344 4.41874C6.56802 2.44441 9.24602 1.33491 12.0383 1.33491C14.8306 1.33491 17.5088 2.44441 19.4832 4.41874C21.4575 6.39331 22.5668 9.07131 22.5668 11.8636V14.0299C22.5858 14.259 22.5081 14.4857 22.3521 14.6548C22.1965 14.824 21.9768 14.9204 21.7469 14.9204C21.5168 14.9204 21.2974 14.824 21.1414 14.6548C20.9858 14.4857 20.9078 14.259 20.9268 14.0299V11.8636C20.9238 9.50746 19.9862 7.24898 18.3197 5.58351C16.6532 3.91804 14.3941 2.98196 12.0382 2.98049C9.68225 2.98199 7.423 3.91804 5.75657 5.58351C4.09008 7.24898 3.15252 9.50746 3.14952 11.8636V13.3357C3.12903 13.4539 3.11953 13.5739 3.12153 13.6941V14.2146C3.03682 14.6296 2.649 14.911 2.22793 14.863C1.80712 14.8151 1.49278 14.4532 1.50378 14.0299L1.50987 11.8636ZM1.50987 15.1436C1.73702 15.305 2.00889 15.392 2.28775 15.392C2.56661 15.392 2.8385 15.305 3.06589 15.1436H3.11062V22.2302C2.66332 22.1718 2.25277 21.9526 1.95518 21.6138C1.65757 21.2752 1.49339 20.8396 1.49289 20.3886L1.50987 15.1436Z" fill="#FFDE01" stroke="#FFDE01" stroke-width="0.4"/>
</svg>
