<svg width="31" height="26" viewBox="0 0 31 26" fill="none" xmlns="http://www.w3.org/2000/svg">
<path d="M23.1865 3.60933C23.2916 3.99284 23.4124 4.37109 23.4965 4.75985C23.5438 4.97 23.6383 5.02778 23.8432 5.03829C25.6715 5.13286 27.5049 5.23793 29.3332 5.34825C30.2841 5.40604 30.6781 5.8631 30.6098 6.81925C30.2158 12.367 29.8218 17.9147 29.4277 23.4625C29.3647 24.3293 28.8814 24.7391 28.0145 24.6813C24.0429 24.3976 20.0712 24.1087 16.0942 23.8513C15.7843 23.8302 15.4218 23.9458 15.1486 24.1087C14.4341 24.5342 13.7511 25.0281 13.0577 25.4851C12.3642 25.9422 11.6655 25.8003 11.2032 25.1121C7.9092 20.1528 4.60997 15.2039 1.31599 10.2498C0.864185 9.57736 1.01129 8.85762 1.67323 8.41633C5.01975 6.18357 8.36626 3.95081 11.7128 1.7233C12.4378 1.23997 13.1312 1.38182 13.6146 2.0963C13.872 2.47456 14.1399 2.84756 14.3711 3.24158C14.5129 3.48324 14.6548 3.50951 14.9122 3.43596C17.0136 2.84231 19.1203 2.26967 21.227 1.69178C22.1358 1.43961 22.6717 1.74432 22.9238 2.66369C23.0132 2.9789 23.0972 3.29411 23.1865 3.60933ZM12.2749 24.571C12.422 24.4817 12.5323 24.4186 12.6426 24.3504C15.8473 22.2122 19.0467 20.074 22.2514 17.941C22.6927 17.6468 22.6086 17.6994 22.3775 17.3526C19.3147 12.7558 16.2518 8.16416 13.189 3.57255C12.9736 3.25208 12.7582 2.93687 12.5271 2.59539C9.07549 4.89645 5.65017 7.18174 2.20384 9.47754C5.57662 14.5262 8.91263 19.5328 12.2749 24.571ZM20.0291 20.841C20.0344 20.8515 20.0396 20.8672 20.0449 20.8778C22.1096 20.3104 24.1742 19.7377 26.2336 19.1703C24.7311 13.6961 23.2286 8.25347 21.7313 2.80553C19.5773 3.39918 17.4391 3.98758 15.2852 4.58123C15.364 4.70732 15.4165 4.80188 15.4796 4.89119C18.1221 8.85763 20.7699 12.8241 23.4124 16.7852C23.9798 17.6363 23.8537 18.2772 22.9921 18.8499C22.0045 19.5171 21.0168 20.179 20.0291 20.841ZM17.933 22.7112C17.933 22.7323 17.933 22.7585 17.9382 22.7795C21.3741 23.0212 24.8099 23.2681 28.2562 23.5098C28.6607 17.8254 29.06 12.1831 29.4593 6.5303C27.589 6.42523 25.766 6.32541 23.9063 6.22034C23.9535 6.3832 23.9851 6.50403 24.0166 6.61961C25.1251 10.6438 26.2336 14.6681 27.3421 18.6923C27.5943 19.6011 27.2896 20.1423 26.3754 20.3944C23.6699 21.1404 20.9643 21.8864 18.2587 22.6324C18.1484 22.6535 18.038 22.685 17.933 22.7112Z" fill="#00FEE8"/>
<path d="M14.0547 15.1567C13.6397 15.0937 13.4191 15.4247 13.1564 15.7662C12.0899 17.1321 10.1881 16.8536 9.35807 15.2145C8.77493 14.0588 8.88 12.8872 9.34756 11.7209C9.46314 11.4372 9.62075 11.1746 9.75734 10.9014C9.98324 10.4338 10.3247 10.1816 10.8606 10.1133C12.1897 9.93997 13.4506 10.0503 14.5538 10.8909C15.1843 11.3742 15.6045 12.0046 15.7201 12.7979C15.883 13.9169 15.2421 14.8363 14.0547 15.1567ZM10.2459 14.3635C10.3352 14.5158 10.4613 14.81 10.6662 15.0412C11.2021 15.6558 11.9376 15.6033 12.3316 14.8941C12.6363 14.3477 13.0356 14.085 13.6607 14.0325C14.4383 13.9642 14.7797 13.2865 14.4435 12.572C14.2281 12.1097 13.8761 11.7787 13.4243 11.5581C12.6626 11.1851 11.8588 11.1535 11.034 11.2901C10.9604 11.3006 10.8711 11.3479 10.8343 11.4057C10.3037 12.2673 9.98325 13.1814 10.2459 14.3635Z" fill="#00FEE8"/>
<path d="M14.2718 15.5454C14.8181 15.4509 15.2279 15.3721 15.6429 15.3143C16.0159 15.2617 16.2944 15.4614 16.3469 15.7871C16.4047 16.1286 16.1946 16.4018 15.811 16.4753C15.7007 16.4963 15.5904 16.5383 15.4801 16.5331C14.8391 16.5068 14.4714 16.8536 14.235 17.4052C14.1929 17.505 14.1247 17.5996 14.0564 17.6889C13.8567 17.9515 13.5363 18.0146 13.2683 17.8465C13.0109 17.6836 12.9111 17.3474 13.0687 17.069C13.2841 16.6907 13.4995 16.3019 13.7622 15.9552C13.9145 15.7556 14.1614 15.6295 14.2718 15.5454Z" fill="#00FEE8"/>
<path d="M22.1865 2.60933C22.2916 2.99284 22.4124 3.37109 22.4965 3.75985C22.5438 3.97 22.6383 4.02778 22.8432 4.03829C24.6715 4.13286 26.5049 4.23793 28.3332 4.34825C29.2841 4.40604 29.6781 4.8631 29.6098 5.81925C29.2158 11.367 28.8218 16.9147 28.4277 22.4625C28.3647 23.3293 27.8814 23.7391 27.0145 23.6813C23.0429 23.3976 19.0712 23.1087 15.0942 22.8513C14.7843 22.8302 14.4218 22.9458 14.1486 23.1087C13.4341 23.5342 12.7511 24.0281 12.0577 24.4851C11.3642 24.9422 10.6655 24.8003 10.2032 24.1121C6.9092 19.1528 3.60997 14.2039 0.315991 9.24982C-0.135815 8.57736 0.0112856 7.85762 0.673233 7.41633C4.01975 5.18357 7.36626 2.95081 10.7128 0.723301C11.4378 0.239974 12.1312 0.38182 12.6146 1.0963C12.872 1.47456 13.1399 1.84756 13.3711 2.24158C13.5129 2.48324 13.6548 2.50951 13.9122 2.43596C16.0136 1.84231 18.1203 1.26967 20.227 0.69178C21.1358 0.439609 21.6717 0.744315 21.9238 1.66369C22.0132 1.9789 22.0972 2.29411 22.1865 2.60933ZM11.2749 23.571C11.422 23.4817 11.5323 23.4186 11.6426 23.3504C14.8473 21.2122 18.0467 19.074 21.2514 16.941C21.6927 16.6468 21.6086 16.6994 21.3775 16.3526C18.3147 11.7558 15.2518 7.16416 12.189 2.57255C11.9736 2.25208 11.7582 1.93687 11.5271 1.59539C8.07549 3.89645 4.65017 6.18174 1.20384 8.47754C4.57662 13.5262 7.91263 18.5328 11.2749 23.571ZM19.0291 19.841C19.0344 19.8515 19.0396 19.8672 19.0449 19.8778C21.1096 19.3104 23.1742 18.7377 25.2336 18.1703C23.7311 12.6961 22.2286 7.25347 20.7313 1.80553C18.5773 2.39918 16.4391 2.98758 14.2852 3.58123C14.364 3.70732 14.4165 3.80188 14.4796 3.89119C17.1221 7.85763 19.7699 11.8241 22.4124 15.7852C22.9798 16.6363 22.8537 17.2772 21.9921 17.8499C21.0045 18.5171 20.0168 19.179 19.0291 19.841ZM16.933 21.7112C16.933 21.7323 16.933 21.7585 16.9382 21.7795C20.3741 22.0212 23.8099 22.2681 27.2562 22.5098C27.6607 16.8254 28.06 11.1831 28.4593 5.5303C26.589 5.42523 24.766 5.32541 22.9063 5.22034C22.9535 5.3832 22.9851 5.50403 23.0166 5.61961C24.1251 9.64383 25.2336 13.6681 26.3421 17.6923C26.5943 18.6011 26.2896 19.1423 25.3754 19.3944C22.6699 20.1404 19.9643 20.8864 17.2587 21.6324C17.1484 21.6535 17.038 21.685 16.933 21.7112Z" fill="#FB167F"/>
<path d="M13.0547 14.1567C12.6397 14.0937 12.4191 14.4247 12.1564 14.7662C11.0899 16.1321 9.18813 15.8536 8.35807 14.2145C7.77493 13.0588 7.88 11.8872 8.34756 10.7209C8.46314 10.4372 8.62075 10.1746 8.75734 9.90137C8.98324 9.4338 9.32472 9.18163 9.86059 9.11334C11.1897 8.93997 12.4506 9.0503 13.5538 9.89086C14.1843 10.3742 14.6045 11.0046 14.7201 11.7979C14.883 12.9169 14.2421 13.8363 13.0547 14.1567ZM9.24592 13.3635C9.33523 13.5158 9.46132 13.81 9.66621 14.0412C10.2021 14.6558 10.9376 14.6033 11.3316 13.8941C11.6363 13.3477 12.0356 13.085 12.6607 13.0325C13.4383 12.9642 13.7797 12.2865 13.4435 11.572C13.2281 11.1097 12.8761 10.7787 12.4243 10.5581C11.6626 10.1851 10.8588 10.1535 10.034 10.2901C9.96041 10.3006 9.87109 10.3479 9.83432 10.4057C9.30371 11.2673 8.98325 12.1814 9.24592 13.3635Z" fill="#FB167F"/>
<path d="M13.2718 14.5454C13.8181 14.4509 14.2279 14.3721 14.6429 14.3143C15.0159 14.2617 15.2944 14.4614 15.3469 14.7871C15.4047 15.1286 15.1946 15.4018 14.811 15.4753C14.7007 15.4963 14.5904 15.5383 14.4801 15.5331C13.8391 15.5068 13.4714 15.8536 13.235 16.4052C13.1929 16.505 13.1247 16.5996 13.0564 16.6889C12.8567 16.9515 12.5363 17.0146 12.2683 16.8465C12.0109 16.6836 11.9111 16.3474 12.0687 16.069C12.2841 15.6907 12.4995 15.3019 12.7622 14.9552C12.9145 14.7556 13.1614 14.6295 13.2718 14.5454Z" fill="#FB167F"/>
</svg>
