<svg width="17" height="26" viewBox="0 0 17 26" fill="none" xmlns="http://www.w3.org/2000/svg">
<path d="M15.7393 6.6923C15.9073 6.80009 15.9684 7.01564 15.8831 7.19582L15.883 7.19606L14.2665 10.5928L15.7393 6.6923ZM15.7393 6.6923C14.3364 5.78851 12.592 5.16505 10.7913 4.91826V1.84913C10.7913 1.6305 10.6141 1.45205 10.3942 1.45205H7.27986C7.06123 1.45205 6.88278 1.62925 6.88278 1.84913V4.96076C5.38796 5.26009 4.18185 5.87886 3.34217 6.75743C2.47812 7.66151 2.01035 8.83237 2.01035 10.1877C2.01035 12.0527 2.82471 13.2147 3.96277 13.9902C5.08483 14.7547 6.52171 15.1432 7.77573 15.4823L7.78884 15.4858L7.78886 15.4858C8.59219 15.7029 9.32005 15.9004 9.84854 16.1589C10.3801 16.419 10.6534 16.7123 10.6534 17.0981C10.6534 17.3082 10.5867 17.4642 10.483 17.5848C10.3767 17.7083 10.225 17.8018 10.0466 17.871C9.68762 18.0101 9.25656 18.0367 8.98928 18.0367C8.16854 18.0367 7.14306 17.7833 6.11904 17.3546C5.09651 16.9264 4.08712 16.3283 3.29832 15.6495L3.29799 15.6492C3.20553 15.5701 3.08053 15.5371 2.96086 15.5611C2.96078 15.5612 2.96069 15.5612 2.9606 15.5612L2.99028 15.7082M15.7393 6.6923L2.81802 15.8405C2.85212 15.7723 2.91546 15.7232 2.99028 15.7082M2.99028 15.7082C3.06441 15.6933 3.14271 15.7138 3.20048 15.7632L2.99028 15.7082ZM10.236 21.4664L10.2397 21.4503L10.3426 21.4364C11.8659 21.2307 13.0683 20.6947 13.888 19.9109C14.7055 19.1292 15.1518 18.0925 15.1519 16.8619L10.236 21.4664ZM10.236 21.4664C10.0952 21.5282 9.99902 21.6687 9.99902 21.8294V25.0165H7.67674V21.8044C7.67674 21.6063 7.53026 21.4384 7.33423 21.4115C5.3379 21.1365 3.36642 20.3297 1.87505 19.187L3.17479 16.5692C4.00259 17.2051 4.99487 17.7552 5.9894 18.1531C7.04176 18.5741 8.10689 18.8289 8.99008 18.8289C9.73011 18.8289 10.3405 18.6779 10.7704 18.383C11.2068 18.0838 11.4473 17.6423 11.4473 17.0969C11.4473 16.3554 11.008 15.8769 10.3708 15.5313C9.74426 15.1913 8.89531 14.9618 8.00997 14.7224L7.99598 14.7186C6.74729 14.381 5.44761 14.028 4.45712 13.3645C3.47947 12.7096 2.80454 11.753 2.80454 10.1865C2.80454 9.00824 3.22565 8.00353 3.99775 7.23351C4.77174 6.46161 5.90677 5.91766 7.34444 5.68164C7.34448 5.68164 7.34452 5.68163 7.34457 5.68162L7.32027 5.5336C7.43963 5.51411 7.52699 5.41145 7.52699 5.29V2.24389H7.67699L10.236 21.4664ZM13.7315 9.8707C11.946 8.92096 9.8945 8.2658 8.61493 8.2658C7.9845 8.2658 7.46141 8.39742 7.0915 8.65682C6.7154 8.92057 6.50878 9.3094 6.50878 9.78761C6.50878 10.5069 6.94092 10.9771 7.56452 11.3217C8.17858 11.661 9.01065 11.8977 9.87856 12.1445L9.89216 12.1484C9.89216 12.1484 9.89216 12.1484 9.89217 12.1484C11.1562 12.5079 12.4726 12.8839 13.4761 13.5759C14.4671 14.2593 15.1519 15.2505 15.1519 16.8619L13.7315 9.8707ZM13.7315 9.8707L15.0147 7.17427C13.6765 6.38045 12.0349 5.84501 10.3529 5.66147L10.3526 5.66144C10.1515 5.6391 9.99926 5.46921 9.99926 5.26701V2.24389L13.7315 9.8707ZM14.028 10.8005C14.1322 10.7673 14.2191 10.6927 14.2664 10.593L15.9446 16.8639C15.9449 14.958 15.1234 13.762 13.9744 12.9571C12.8408 12.1629 11.3885 11.75 10.1208 11.3895L10.1088 11.3861L10.0739 11.3762L10.0737 11.3762C9.30042 11.1562 8.6003 10.9548 8.0898 10.7004C7.56713 10.44 7.30167 10.1537 7.30167 9.78863C7.30167 9.6301 7.34831 9.51303 7.4206 9.42257C7.49477 9.32977 7.60271 9.25676 7.73603 9.20111C8.00564 9.08857 8.3473 9.05991 8.61435 9.05991C9.21851 9.05991 10.0463 9.23188 10.9521 9.53427C11.8553 9.83583 12.8257 10.2636 13.7124 10.7672L13.7128 10.7674C13.8088 10.8215 13.9229 10.8333 14.0271 10.8008L14.028 10.8005ZM1.12372 19.606H1.12372C2.67242 20.8778 4.75362 21.7921 6.88203 22.1468V25.4145C6.88203 25.6332 7.05923 25.8116 7.27911 25.8116H10.3949C10.6135 25.8116 10.7919 25.6344 10.7919 25.4145V22.1716C12.3724 21.9032 13.648 21.293 14.5363 20.4008C15.45 19.4831 15.9445 18.2759 15.9446 16.864L1.12372 19.606Z" fill="#00FEE8" stroke="#00FEE8" stroke-width="0.3"/>
<path d="M15.211 6.1442C15.379 6.25199 15.4401 6.46754 15.3548 6.64772L15.3547 6.64796L13.7382 10.0447L15.211 6.1442ZM15.211 6.1442C13.8081 5.24041 12.0637 4.61696 10.2629 4.37017V1.30104C10.2629 1.0824 10.0857 0.903955 9.86586 0.903955H6.75154C6.53291 0.903955 6.35446 1.08116 6.35446 1.30104V4.41267C4.85964 4.71199 3.65353 5.33077 2.81385 6.20933C1.9498 7.11341 1.48203 8.28427 1.48203 9.63959C1.48203 11.5046 2.29639 12.6666 3.43445 13.4421C4.55651 14.2066 5.99339 14.5951 7.24741 14.9342L7.26052 14.9377L7.26054 14.9377C8.06387 15.1548 8.79173 15.3523 9.32022 15.6108C9.85178 15.8709 10.1251 16.1642 10.1251 16.55C10.1251 16.7601 10.0584 16.9161 9.95464 17.0367C9.84837 17.1602 9.69669 17.2537 9.51832 17.3229C9.1593 17.462 8.72824 17.4886 8.46096 17.4886C7.64022 17.4886 6.61474 17.2352 5.59072 16.8065C4.56819 16.3783 3.5588 15.7802 2.77 15.1014L2.76967 15.1011C2.67721 15.022 2.55221 14.989 2.43254 15.013C2.43246 15.0131 2.43237 15.0131 2.43228 15.0131L2.46196 15.1601M15.211 6.1442L2.2897 15.2924C2.3238 15.2242 2.38714 15.1751 2.46196 15.1601M2.46196 15.1601C2.53609 15.1452 2.61439 15.1657 2.67216 15.2151L2.46196 15.1601ZM9.7077 20.9183L9.71137 20.9022L9.8143 20.8883C11.3375 20.6826 12.5399 20.1467 13.3597 19.3628C14.1772 18.5811 14.6234 17.5444 14.6236 16.3138L9.7077 20.9183ZM9.7077 20.9183C9.56692 20.9801 9.4707 21.1206 9.4707 21.2813V24.4684H7.14842V21.2563C7.14842 21.0582 7.00194 20.8903 6.80591 20.8634C4.80958 20.5884 2.83809 19.7816 1.34673 18.6389L2.64647 16.0211C3.47426 16.657 4.46655 17.2071 5.46108 17.605C6.51344 18.026 7.57857 18.2808 8.46176 18.2808C9.20179 18.2808 9.81215 18.1298 10.2421 17.8349C10.6784 17.5357 10.919 17.0942 10.919 16.5488C10.919 15.8073 10.4797 15.3288 9.8425 14.9832C9.21594 14.6432 8.36698 14.4137 7.48165 14.1743L7.46765 14.1705C6.21897 13.8329 4.91929 13.4799 3.9288 12.8164C2.95115 12.1615 2.27621 11.2049 2.27621 9.63841C2.27621 8.46014 2.69733 7.45543 3.46943 6.68541C4.24342 5.91351 5.37845 5.36956 6.81612 5.13355C6.81616 5.13354 6.8162 5.13353 6.81625 5.13353L6.79195 4.98551C6.91131 4.96602 6.99867 4.86336 6.99867 4.7419V1.6958H7.14867L9.7077 20.9183ZM13.2031 9.32261C11.4177 8.37287 9.36618 7.7177 8.08661 7.7177C7.45618 7.7177 6.93308 7.84933 6.56318 8.10873C6.18708 8.37247 5.98046 8.76131 5.98046 9.23951C5.98046 9.95884 6.4126 10.429 7.0362 10.7736C7.65026 11.1129 8.48233 11.3496 9.35024 11.5964L9.36384 11.6003C9.36384 11.6003 9.36384 11.6003 9.36385 11.6003C10.6279 11.9599 11.9443 12.3358 12.9478 13.0278C13.9387 13.7112 14.6236 14.7024 14.6236 16.3138L13.2031 9.32261ZM13.2031 9.32261L14.4864 6.62617C13.1481 5.83236 11.5065 5.29691 9.82462 5.11337L9.82433 5.11334C9.6232 5.091 9.47094 4.92111 9.47094 4.71891V1.6958L13.2031 9.32261ZM13.4997 10.2524C13.6039 10.2192 13.6907 10.1446 13.7381 10.0449L15.4162 16.3159C15.4166 14.4099 14.5951 13.2139 13.4461 12.409C12.3124 11.6148 10.8602 11.2019 9.59247 10.8414L9.58046 10.838L9.54558 10.8281L9.54542 10.8281C8.7721 10.6081 8.07198 10.4067 7.56148 10.1523C7.03881 9.89188 6.77335 9.60561 6.77335 9.24054C6.77335 9.08201 6.81999 8.96494 6.89228 8.87448C6.96645 8.78167 7.07439 8.70867 7.20771 8.65301C7.47732 8.54047 7.81898 8.51181 8.08603 8.51181C8.69019 8.51181 9.518 8.68379 10.4237 8.98618C11.327 9.28773 12.2974 9.71549 13.1841 10.2191L13.1845 10.2193C13.2804 10.2734 13.3946 10.2852 13.4987 10.2527L13.4997 10.2524ZM0.595396 19.0579H0.595395C2.14409 20.3297 4.2253 21.244 6.35371 21.5987V24.8664C6.35371 25.0851 6.53091 25.2635 6.75079 25.2635H9.86654C10.0852 25.2635 10.2636 25.0863 10.2636 24.8664V21.6235C11.844 21.3551 13.1197 20.7449 14.008 19.8527C14.9217 18.935 15.4162 17.7278 15.4162 16.3159L0.595396 19.0579Z" fill="#FB167F" stroke="#FB167F" stroke-width="0.3"/>
</svg>
