<svg width="26" height="26" viewBox="0 0 26 26" fill="none" xmlns="http://www.w3.org/2000/svg">
<path d="M24.5723 1.08569H1.10018C0.938079 1.08569 0.806641 1.21714 0.806641 1.37923C0.806641 5.16768 2.53191 8.64327 5.54095 10.9419C5.87181 14.1411 8.26786 16.7367 11.3695 17.3695V24.5586H7.55528C7.39338 24.5586 7.26194 24.69 7.26194 24.8519C7.26194 25.0138 7.39339 25.1453 7.55528 25.1453H18.1179C18.2798 25.1453 18.4112 25.0138 18.4112 24.8519C18.4112 24.69 18.2798 24.5586 18.1179 24.5586H14.3037L14.3035 17.369C17.4061 16.7363 19.8021 14.1403 20.1325 10.9399C20.5656 10.6055 20.974 10.2522 21.342 9.88423C23.6145 7.61101 24.8662 4.59136 24.8662 1.37983C24.8662 1.21774 24.7348 1.0863 24.5727 1.0863L24.5723 1.08569ZM5.50126 10.1625C2.95728 8.04232 1.47917 4.99385 1.39703 1.67267H5.50126V10.1625ZM13.7164 24.5583H11.956V17.5166H13.7164V24.5583ZM19.5847 10.1816C19.5847 13.9025 16.5574 16.9301 12.8362 16.9301C9.11532 16.9299 6.08773 13.9026 6.08773 10.1816V1.67267H19.5842L19.5847 10.1816ZM20.9267 9.46917C20.6919 9.70397 20.4361 9.93109 20.1714 10.1527V1.67297H24.2756C24.2017 4.61757 23.0193 7.37677 20.9267 9.46917Z" fill="#FFDE01" stroke="#FFDE01" stroke-width="0.3"/>
<path d="M10.5084 9.17706L10.0594 11.7943C10.0406 11.9045 10.0857 12.0161 10.1761 12.0812C10.2671 12.1474 10.3862 12.1568 10.4854 12.1034L12.8357 10.8677L15.1865 12.1036C15.2293 12.1264 15.2763 12.1376 15.3232 12.1376C15.3843 12.1376 15.4447 12.1187 15.4957 12.0812C15.5861 12.0159 15.6313 11.9045 15.6125 11.7943L15.1635 9.17706L17.0654 7.32333C17.1451 7.24532 17.174 7.12842 17.1392 7.02232C17.1047 6.91544 17.0131 6.83862 16.9021 6.82231L14.2738 6.44095L13.0985 4.05908C12.9999 3.85966 12.6708 3.85966 12.5727 4.05908L11.3974 6.44095L8.76916 6.82231C8.65893 6.83822 8.56679 6.91563 8.53201 7.02232C8.49743 7.12862 8.52612 7.24532 8.60589 7.32333L10.5084 9.17706ZM11.6344 6.9995C11.7301 6.98536 11.8128 6.92562 11.855 6.83937L12.8356 4.8524L13.8163 6.83937C13.8591 6.92562 13.9412 6.98555 14.0369 6.9995L16.2292 7.31819L14.6424 8.86445C14.5733 8.93184 14.542 9.0287 14.558 9.12439L14.9322 11.3078L12.9712 10.2767C12.9296 10.2545 12.8826 10.2427 12.8357 10.2427C12.7887 10.2427 12.7417 10.2545 12.6989 10.2767L10.7379 11.3078L11.1122 9.12439C11.1287 9.02871 11.0968 8.93184 11.0277 8.86445L9.44093 7.31819L11.6344 6.9995Z" fill="#FFDE01" stroke="#FFDE01" stroke-width="0.3"/>
</svg>
