<svg width="27" height="25" viewBox="0 0 27 25" fill="none" xmlns="http://www.w3.org/2000/svg">
<path d="M14.3089 0.500916C8.89264 0.500916 4.28418 3.9788 2.67674 8.8129L1.54335 6.79781H1.5431C1.39973 6.53356 1.10916 6.38381 0.810425 6.4201C0.564069 6.44795 0.348376 6.59873 0.237464 6.82056C0.126553 7.04238 0.135497 7.30535 0.260977 7.51927L2.27607 11.1142C2.46723 11.4592 2.89759 11.5908 3.24924 11.4119L6.83265 9.58008C7.01409 9.49703 7.15363 9.34344 7.21931 9.15483C7.28499 8.96649 7.27093 8.75948 7.18046 8.58162C7.09 8.40375 6.93079 8.2706 6.73988 8.21259C6.54898 8.15484 6.34274 8.17733 6.1687 8.27495L4.02761 9.37412C5.40607 5.08126 9.48048 1.96628 14.3088 1.96628C20.2746 1.96628 25.0827 6.71991 25.0827 12.591C25.0827 18.4144 20.3441 23.1391 14.4469 23.2157L14.4466 23.2159C14.2521 23.2185 14.0666 23.2985 13.9309 23.438C13.7955 23.5775 13.7211 23.7654 13.7239 23.9598C13.727 24.1546 13.8072 24.3399 13.947 24.475C14.0868 24.6105 14.2749 24.6846 14.4694 24.6813C21.1425 24.5946 26.5484 19.2108 26.5484 12.5911C26.5484 5.91732 21.0567 0.500956 14.3097 0.500956L14.3089 0.500916ZM14.0112 5.98493V5.98518C13.6335 6.02658 13.3503 6.34961 13.3585 6.72937V12.5914V12.5911C13.3585 12.8137 13.4595 13.0246 13.6332 13.1636L17.2969 16.0946C17.613 16.3476 18.0746 16.2962 18.3273 15.9801C18.5803 15.664 18.529 15.2027 18.2128 14.9497L14.8239 12.2362V6.72912V6.72937C14.8285 6.51828 14.7418 6.31562 14.5862 6.17302C14.4306 6.03042 14.221 5.96193 14.0112 5.98518L14.0112 5.98493Z" fill="#FFDE01"/>
</svg>
