<svg width="24" height="27" viewBox="0 0 24 27" fill="none" xmlns="http://www.w3.org/2000/svg">
<path d="M3.54901 23.5913C3.579 24.5192 4.10176 25.3605 4.92041 25.7986C5.73904 26.2366 6.72905 26.2046 7.51775 25.7146C8.30637 25.2246 8.77368 24.3513 8.74368 23.4234V14.5066C8.74368 13.7839 8.44356 13.0937 7.91481 12.6012C7.3863 12.1087 6.67666 11.8581 5.95571 11.9096C5.23502 11.9608 4.56813 12.3097 4.11458 12.8721V12.6762C4.11458 9.70059 5.70207 6.95088 8.27893 5.46292C10.856 3.9751 14.031 3.9751 16.6079 5.46292C19.1847 6.95075 20.7722 9.70046 20.7722 12.6762V13.0456C20.3252 12.4751 19.6605 12.1167 18.9381 12.057C18.2157 11.9973 17.501 12.2417 16.9665 12.731C16.4318 13.2202 16.1252 13.9104 16.1209 14.6354V23.5407C16.1109 24.4705 16.5977 25.3351 17.3981 25.8089C18.1985 26.2824 19.1905 26.2932 20.0009 25.8369C20.8113 25.3806 21.3165 24.5265 21.3265 23.5966C21.9268 23.5449 22.4863 23.2703 22.8943 22.827C23.3024 22.3837 23.53 21.8037 23.5318 21.201V12.6763C23.5318 9.73538 22.3636 6.91498 20.284 4.83543C18.2047 2.75613 15.3843 1.58765 12.4431 1.58765C9.50203 1.58765 6.68183 2.75613 4.60228 4.83543C2.52272 6.91498 1.35449 9.73544 1.35449 12.6763V21.201C1.35749 21.801 1.58388 22.3782 1.9897 22.82C2.39526 23.2618 2.95124 23.537 3.54847 23.5912L3.54901 23.5913ZM6.14059 12.4637H6.14084C6.68159 12.4664 7.19961 12.6828 7.58216 13.0651C7.96473 13.4477 8.18088 13.9657 8.18388 14.5067V23.4236C8.14689 24.129 7.74908 24.7657 7.13111 25.1083C6.5134 25.4506 5.76246 25.4506 5.14477 25.1083C4.5268 24.7657 4.12898 24.129 4.092 23.4236V15.0607C4.0985 14.9882 4.0985 14.915 4.092 14.8425V14.2156C4.16372 13.7251 4.41086 13.2773 4.78768 12.9552C5.16426 12.6331 5.64502 12.4584 6.14079 12.4636L6.14059 12.4637ZM20.7726 23.5408C20.802 24.102 20.5996 24.6506 20.2128 25.0581C19.826 25.4657 19.2888 25.6966 18.7268 25.6966C18.1648 25.6966 17.6275 25.4657 17.2408 25.0581C16.8539 24.6506 16.6515 24.1021 16.681 23.5408V14.6355C16.718 13.9301 17.1156 13.2934 17.7335 12.9507C18.3515 12.6081 19.1022 12.6081 19.7201 12.9507C20.3381 13.2933 20.7357 13.9301 20.7726 14.6355L20.7726 23.5408ZM22.9723 21.2011C22.9726 21.6559 22.8056 22.0947 22.5033 22.4343C22.2009 22.7739 21.7841 22.9905 21.3323 23.0428V15.9561L21.433 16.0176L21.517 16.0623V16.0626C21.899 16.2635 22.3553 16.2635 22.7374 16.0626L22.8269 16.0178L22.9221 15.9564H22.9501L22.9723 21.2011ZM1.91514 12.6764C1.91514 9.88399 3.02439 7.20593 4.99871 5.23154C6.97329 3.25722 9.65129 2.14771 12.4436 2.14771C15.2359 2.14771 17.9141 3.25722 19.8885 5.23154C21.8628 7.20612 22.9721 9.88412 22.9721 12.6764V14.8427C22.9911 15.0718 22.9133 15.2985 22.7574 15.4676C22.6017 15.6368 22.3821 15.7332 22.1522 15.7332C21.922 15.7332 21.7027 15.6368 21.5467 15.4676C21.391 15.2985 21.3131 15.0718 21.3321 14.8427V12.6764C21.3291 10.3203 20.3915 8.06179 18.725 6.39632C17.0585 4.73084 14.7993 3.79476 12.4434 3.79329C10.0875 3.79479 7.82828 4.73084 6.16185 6.39632C4.49535 8.06179 3.5578 10.3203 3.55479 12.6764V14.1485C3.5343 14.2667 3.5248 14.3867 3.5268 14.5069V15.0274C3.44209 15.4424 3.05427 15.7238 2.6332 15.6758C2.21239 15.6279 1.89805 15.266 1.90905 14.8427L1.91514 12.6764ZM1.91514 15.9564C2.14229 16.1178 2.41416 16.2048 2.69302 16.2048C2.97188 16.2048 3.24377 16.1178 3.47116 15.9564H3.51589V23.043C3.0686 22.9846 2.65805 22.7654 2.36046 22.4266C2.06285 22.088 1.89867 21.6524 1.89817 21.2014L1.91514 15.9564Z" fill="#00FEE8" stroke="#00FEE8" stroke-width="0.4"/>
<path d="M2.94257 22.9021C2.97255 23.83 3.49531 24.6713 4.31397 25.1094C5.1326 25.5474 6.12261 25.5154 6.9113 25.0254C7.69993 24.5354 8.16723 23.6621 8.13723 22.7342V13.8174C8.13723 13.0947 7.83712 12.4045 7.30836 11.912C6.77986 11.4195 6.07022 11.1689 5.34927 11.2204C4.62858 11.2716 3.96168 11.6204 3.50813 12.1829V11.987C3.50813 9.01138 5.09562 6.26167 7.67248 4.77371C10.2495 3.28589 13.4246 3.28589 16.0014 4.77371C18.5782 6.26154 20.1658 9.01125 20.1658 11.987V12.3564C19.7188 11.7859 19.0541 11.4275 18.3316 11.3678C17.6092 11.3081 16.8945 11.5525 16.3601 12.0418C15.8253 12.531 15.5187 13.2212 15.5144 13.9462V22.8515C15.5044 23.7813 15.9912 24.6459 16.7916 25.1197C17.592 25.5932 18.5841 25.604 19.3944 25.1477C20.2048 24.6914 20.7101 23.8373 20.7201 22.9074C21.3203 22.8557 21.8798 22.5811 22.2879 22.1378C22.696 21.6945 22.9236 21.1145 22.9253 20.5118V11.9871C22.9253 9.04617 21.7571 6.22577 19.6776 4.14622C17.5983 2.06692 14.7778 0.898438 11.8367 0.898438C8.89559 0.898438 6.07538 2.06692 3.99583 4.14622C1.91628 6.22577 0.748047 9.04623 0.748047 11.9871V20.5118C0.751046 21.1118 0.977439 21.689 1.38326 22.1308C1.78882 22.5726 2.3448 22.8477 2.94203 22.902L2.94257 22.9021ZM5.53414 11.7745H5.53439C6.07514 11.7772 6.59317 11.9936 6.97571 12.3759C7.35829 12.7585 7.57444 13.2765 7.57743 13.8175V22.7344C7.54045 23.4398 7.14263 24.0765 6.52467 24.4191C5.90696 24.7614 5.15602 24.7614 4.53832 24.4191C3.92035 24.0765 3.52253 23.4398 3.48556 22.7344V14.3715C3.49205 14.299 3.49205 14.2258 3.48556 14.1533V13.5264C3.55727 13.0358 3.80441 12.5881 4.18124 12.266C4.55781 11.9439 5.03857 11.7692 5.53434 11.7744L5.53414 11.7745ZM20.1661 22.8516C20.1956 23.4128 19.9932 23.9614 19.6064 24.3689C19.2196 24.7765 18.6823 25.0074 18.1203 25.0074C17.5584 25.0074 17.0211 24.7765 16.6343 24.3689C16.2475 23.9613 16.0451 23.4129 16.0746 22.8516V13.9463C16.1115 13.2409 16.5091 12.6042 17.1271 12.2615C17.745 11.9189 18.4957 11.9189 19.1137 12.2615C19.7316 12.6041 20.1292 13.2409 20.1662 13.9463L20.1661 22.8516ZM22.3659 20.5119C22.3661 20.9667 22.1992 21.4055 21.8968 21.7451C21.5945 22.0847 21.1777 22.3013 20.7259 22.3536V15.2669L20.8266 15.3284L20.9105 15.3731V15.3734C21.2926 15.5743 21.7489 15.5743 22.131 15.3734L22.2204 15.3286L22.3156 15.2672H22.3436L22.3659 20.5119ZM1.3087 11.9872C1.3087 9.19478 2.41795 6.51672 4.39227 4.54233C6.36685 2.56801 9.04485 1.45851 11.8372 1.45851C14.6295 1.45851 17.3077 2.56801 19.282 4.54233C21.2564 6.51691 22.3656 9.19491 22.3656 11.9872V14.1535C22.3846 14.3826 22.3069 14.6092 22.151 14.7784C21.9953 14.9476 21.7756 15.044 21.5457 15.044C21.3156 15.044 21.0962 14.9476 20.9403 14.7784C20.7846 14.6092 20.7066 14.3826 20.7256 14.1535V11.9872C20.7226 9.63106 19.7851 7.37258 18.1186 5.70711C16.4521 4.04164 14.1929 3.10555 11.837 3.10408C9.48108 3.10558 7.22183 4.04164 5.5554 5.70711C3.8889 7.37258 2.95135 9.63106 2.94834 11.9872V13.4593C2.92785 13.5775 2.91836 13.6975 2.92036 13.8176V14.3382C2.83565 14.7532 2.44783 15.0346 2.02675 14.9866C1.60595 14.9386 1.2916 14.5768 1.30261 14.1535L1.3087 11.9872ZM1.3087 15.2672C1.53584 15.4286 1.80772 15.5156 2.08658 15.5156C2.36544 15.5156 2.63733 15.4286 2.86472 15.2672H2.90945V22.3538C2.46215 22.2954 2.0516 22.0762 1.75401 21.7374C1.4564 21.3988 1.29222 20.9632 1.29172 20.5122L1.3087 15.2672Z" fill="#FB167F" stroke="#FB167F" stroke-width="0.4"/>
</svg>
