<svg width="34" height="34" viewBox="0 0 34 34" fill="none" xmlns="http://www.w3.org/2000/svg">
<path d="M0.644615 33.0045C0.644615 33.2914 0.877128 33.5247 1.16478 33.5247H32.8412C33.1288 33.5247 33.3613 33.2918 33.3613 33.0045C33.3613 32.7176 33.1288 32.4843 32.8412 32.4843H30.9705V30.3667C32.0833 30.1001 32.9158 29.1029 32.9158 27.9095C32.9158 26.5126 31.779 25.3766 30.3829 25.3766C28.9867 25.3766 27.8503 26.5126 27.8503 27.9095C27.8503 29.1511 28.7499 30.1824 29.9302 30.3968V32.484H27.0972V0.847526C27.0972 0.560608 26.8647 0.327362 26.5771 0.327362H16.9224C16.6348 0.327362 16.4022 0.560236 16.4022 0.847526V12.7782L7.05867 12.7778C6.77102 12.7778 6.53851 13.0107 6.53851 13.298V21.1199C6.53851 21.1366 6.54649 21.1511 6.54794 21.1671C6.54649 21.1838 6.53851 21.1979 6.53851 21.2142V32.4837L4.00594 32.4841V30.3664C5.11877 30.0998 5.95126 29.1027 5.95126 27.9093C5.95126 26.5124 4.81447 25.3763 3.41832 25.3763C2.02217 25.3763 0.885754 26.5124 0.885754 27.9093C0.885754 29.1509 1.78534 30.1822 2.96563 30.3965V32.4837H1.16433C0.877043 32.4844 0.644531 32.7173 0.644531 33.0046L0.644615 33.0045ZM30.383 29.4029C29.56 29.4029 28.8908 28.7333 28.8908 27.9099C28.8908 27.0869 29.56 26.4169 30.383 26.4169C31.206 26.4169 31.876 27.0865 31.876 27.9099C31.8757 28.733 31.2061 29.4029 30.383 29.4029ZM17.443 1.3676H26.0576V32.484H17.443V1.3676ZM10.1499 28.3304C10.1499 27.2509 11.0052 26.3724 12.0567 26.3724C13.1083 26.3724 13.964 27.2505 13.964 28.3304V32.4851H10.1499V28.3304ZM7.57875 21.7355H16.4029V32.485H15.0039V28.3302C15.0039 26.6772 13.6814 25.3322 12.0564 25.3322C10.4313 25.3322 9.10954 26.6769 9.10954 28.3302V32.485H7.57847L7.57875 21.7355ZM7.57875 13.8184H16.4029V20.6956H7.57875V13.8184ZM3.41816 29.4031C2.59511 29.4031 1.9259 28.7335 1.9259 27.9101C1.9259 27.0871 2.59514 26.4171 3.41816 26.4171C4.2412 26.4171 4.91116 27.0867 4.91116 27.9101C4.9108 28.7332 4.24119 29.4031 3.41816 29.4031Z" fill="#BAACD2"/>
<path d="M24.2663 6.48464C23.9786 6.48464 23.7461 6.25177 23.7461 5.96448V3.64409C23.7461 3.35717 23.9786 3.12393 24.2663 3.12393C24.5539 3.12393 24.7864 3.3568 24.7864 3.64409V5.96448C24.7864 6.25177 24.5539 6.48464 24.2663 6.48464Z" fill="#BAACD2"/>
<path d="M21.7213 6.48464C21.4337 6.48464 21.2012 6.25177 21.2012 5.96448V3.64409C21.2012 3.35717 21.4337 3.12393 21.7213 3.12393C22.009 3.12393 22.2415 3.3568 22.2415 3.64409V5.96448C22.2411 6.25177 22.0086 6.48464 21.7213 6.48464Z" fill="#BAACD2"/>
<path d="M19.2409 6.48464C18.9532 6.48464 18.7207 6.25177 18.7207 5.96448V3.64409C18.7207 3.35717 18.9532 3.12393 19.2409 3.12393C19.5285 3.12393 19.761 3.3568 19.761 3.64409V5.96448C19.761 6.25177 19.5285 6.48464 19.2409 6.48464Z" fill="#BAACD2"/>
<path d="M24.2663 11.5121C23.9786 11.5121 23.7461 11.2792 23.7461 10.9919V8.67152C23.7461 8.3846 23.9786 8.15136 24.2663 8.15136C24.5539 8.15136 24.7864 8.38423 24.7864 8.67152V10.9919C24.7864 11.2788 24.5539 11.5121 24.2663 11.5121Z" fill="#BAACD2"/>
<path d="M21.7213 11.5121C21.4337 11.5121 21.2012 11.2792 21.2012 10.9919V8.67152C21.2012 8.3846 21.4337 8.15136 21.7213 8.15136C22.009 8.15136 22.2415 8.38423 22.2415 8.67152V10.9919C22.2411 11.2788 22.0086 11.5121 21.7213 11.5121Z" fill="#BAACD2"/>
<path d="M19.2409 11.5121C18.9532 11.5121 18.7207 11.2792 18.7207 10.9919V8.67152C18.7207 8.3846 18.9532 8.15136 19.2409 8.15136C19.5285 8.15136 19.761 8.38423 19.761 8.67152V10.9919C19.761 11.2788 19.5285 11.5121 19.2409 11.5121Z" fill="#BAACD2"/>
<path d="M24.2663 16.5386C23.9786 16.5386 23.7461 16.3057 23.7461 16.0184V13.698C23.7461 13.4111 23.9786 13.1779 24.2663 13.1779C24.5539 13.1779 24.7864 13.4107 24.7864 13.698V16.0184C24.7864 16.3057 24.5539 16.5386 24.2663 16.5386Z" fill="#BAACD2"/>
<path d="M21.7213 16.5386C21.4337 16.5386 21.2012 16.3057 21.2012 16.0184V13.698C21.2012 13.4111 21.4337 13.1779 21.7213 13.1779C22.009 13.1779 22.2415 13.4107 22.2415 13.698V16.0184C22.2411 16.3057 22.0086 16.5386 21.7213 16.5386Z" fill="#BAACD2"/>
<path d="M19.2409 16.5386C18.9532 16.5386 18.7207 16.3057 18.7207 16.0184V13.698C18.7207 13.4111 18.9532 13.1779 19.2409 13.1779C19.5285 13.1779 19.761 13.4107 19.761 13.698V16.0184C19.761 16.3057 19.5285 16.5386 19.2409 16.5386Z" fill="#BAACD2"/>
<path d="M24.2663 21.5651C23.9786 21.5651 23.7461 21.3322 23.7461 21.045V18.7246C23.7461 18.4377 23.9786 18.2044 24.2663 18.2044C24.5539 18.2044 24.7864 18.4373 24.7864 18.7246V21.045C24.7864 21.3322 24.5539 21.5651 24.2663 21.5651Z" fill="#BAACD2"/>
<path d="M21.7213 21.5651C21.4337 21.5651 21.2012 21.3322 21.2012 21.045V18.7246C21.2012 18.4377 21.4337 18.2044 21.7213 18.2044C22.009 18.2044 22.2415 18.4373 22.2415 18.7246V21.045C22.2411 21.3322 22.0086 21.5651 21.7213 21.5651Z" fill="#BAACD2"/>
<path d="M19.2409 21.5651C18.9532 21.5651 18.7207 21.3322 18.7207 21.045V18.7246C18.7207 18.4377 18.9532 18.2044 19.2409 18.2044C19.5285 18.2044 19.761 18.4373 19.761 18.7246V21.045C19.761 21.3322 19.5285 21.5651 19.2409 21.5651Z" fill="#BAACD2"/>
<path d="M24.2663 26.5926C23.9786 26.5926 23.7461 26.3597 23.7461 26.0724V23.752C23.7461 23.4651 23.9786 23.2318 24.2663 23.2318C24.5539 23.2318 24.7864 23.4647 24.7864 23.752V26.0724C24.7864 26.3597 24.5539 26.5926 24.2663 26.5926Z" fill="#BAACD2"/>
<path d="M21.7213 26.5926C21.4337 26.5926 21.2012 26.3597 21.2012 26.0724V23.752C21.2012 23.4651 21.4337 23.2318 21.7213 23.2318C22.009 23.2318 22.2415 23.4647 22.2415 23.752V26.0724C22.2411 26.3597 22.0086 26.5926 21.7213 26.5926Z" fill="#BAACD2"/>
<path d="M19.2409 26.5926C18.9532 26.5926 18.7207 26.3597 18.7207 26.0724V23.752C18.7207 23.4651 18.9532 23.2318 19.2409 23.2318C19.5285 23.2318 19.761 23.4647 19.761 23.752V26.0724C19.761 26.3597 19.5285 26.5926 19.2409 26.5926Z" fill="#BAACD2"/>
</svg>
