<svg width="61" height="52" viewBox="0 0 61 52" fill="none" xmlns="http://www.w3.org/2000/svg">
<rect x="54.4816" y="44.0796" width="1.27567" height="4.78931" rx="0.637835" fill="#00FEE8"/>
<rect x="57.514" y="45.8364" width="1.27567" height="4.78931" rx="0.637835" transform="rotate(90 57.514 45.8364)" fill="#00FEE8"/>
<rect x="12.529" y="47.5933" width="1.27567" height="6.57027" rx="0.637835" transform="rotate(90 12.529 47.5933)" fill="#00FEE8"/>
<rect x="5.06296" y="47.5933" width="1.27567" height="4.78931" rx="0.637835" transform="rotate(90 5.06296 47.5933)" fill="#00FEE8"/>
<rect x="12.529" y="50.0269" width="1.27567" height="12.2554" rx="0.637835" transform="rotate(90 12.529 50.0269)" fill="#00FEE8"/>
<circle cx="57.9346" cy="3.54638" r="2.31518" stroke="#00FEE8"/>
<path d="M31.7255 11.313C30.5732 11.313 29.6196 12.2564 29.6196 13.4065V30.7339L26.7132 28.2462L28.1786 24.1823C28.2762 23.931 28.2385 23.6473 28.0788 23.4304C27.9191 23.2133 27.6593 23.0929 27.3905 23.111C27.0752 23.1333 26.8039 23.3416 26.7008 23.6404L25.0507 28.234C24.9427 28.5419 25.0358 28.8847 25.2846 29.0961L29.6196 32.815V37.2484C29.6196 38.3985 30.5836 39.3295 31.7255 39.3295H34.6811L24.509 42.0267C24.2083 42.1064 23.9218 41.9451 23.844 41.6573L17.625 18.6284C17.5461 18.3368 17.6946 18.0797 17.9945 18.0003L26.6022 15.7097C27.0308 15.6313 27.3147 15.2206 27.2364 14.7921C27.1583 14.3638 26.7474 14.0799 26.3191 14.1579C26.2773 14.1629 26.2361 14.1711 26.1959 14.1827L17.5875 16.4733C16.4745 16.7685 15.7977 17.9266 16.0976 19.0347L22.3287 42.0762C22.6294 43.1878 23.7903 43.8492 24.9027 43.554L39.6806 39.6256C39.9253 39.561 40.1501 39.464 40.3456 39.3298H47.0201C48.162 39.3298 49.126 38.3988 49.126 37.2487V13.407C49.126 12.2569 48.1724 11.3135 47.0201 11.3135L31.7255 11.313ZM31.7255 12.8894H47.0206C47.3312 12.8894 47.5503 13.108 47.5503 13.4065V37.2481C47.5503 37.5469 47.3417 37.7531 47.0206 37.7531H31.7255C31.4044 37.7531 31.1958 37.5469 31.1958 37.2481V13.4065C31.1958 13.108 31.4149 12.8894 31.7255 12.8894ZM33.6588 14.2441C33.0488 14.2441 32.5628 14.7394 32.5628 15.3524C32.5628 15.9654 33.0488 16.4608 33.6588 16.4608C34.2691 16.4608 34.7671 15.9654 34.7671 15.3524C34.7671 14.7394 34.2691 14.2441 33.6588 14.2441ZM20.2236 18.8867C20.1502 18.8911 20.0754 18.904 20.0018 18.9238C19.4124 19.0824 19.0679 19.6863 19.2261 20.2784C19.3839 20.8705 19.9914 21.2251 20.5807 21.0665C21.1701 20.9079 21.5145 20.2916 21.3564 19.6995C21.2184 19.1813 20.7363 18.8559 20.2236 18.8866L20.2236 18.8867ZM39.3729 19.3672C37.6488 19.3672 36.2326 20.7936 36.2326 22.5196C36.2326 22.6446 36.2917 22.7441 36.3063 22.8645C35.0308 23.2645 34.0775 24.4166 34.0775 25.8201C34.0775 27.5464 35.4937 28.9728 37.2178 28.9728C37.7129 28.9728 38.1739 28.8417 38.5845 28.6278V30.4874C38.5818 30.6983 38.6634 30.9017 38.8116 31.052C38.9598 31.2021 39.1618 31.2868 39.3729 31.2868C39.5838 31.2868 39.7861 31.2021 39.9342 31.052C40.0821 30.9017 40.164 30.6983 40.161 30.4874V28.6278C40.5717 28.8417 41.0327 28.9728 41.528 28.9728C43.2519 28.9728 44.6684 27.5464 44.6684 25.8201C44.6684 24.4124 43.7081 23.2609 42.4269 22.8645C42.4417 22.7439 42.5008 22.6449 42.5008 22.5196C42.5008 20.7936 41.0967 19.3672 39.3729 19.3672H39.3729ZM39.3729 20.9433C40.2402 20.9433 40.9244 21.6418 40.9244 22.5195C40.9244 22.738 40.8771 22.9464 40.7891 23.1476C40.6803 23.3925 40.7031 23.6759 40.8502 23.8999C40.9969 24.124 41.2476 24.2581 41.5157 24.2559H41.528C42.3953 24.2559 43.0919 24.942 43.0919 25.82C43.0919 26.6978 42.3953 27.3962 41.528 27.3962C40.8779 27.3962 40.3369 26.9998 40.0994 26.4358C39.9763 26.1433 39.6901 25.9531 39.3729 25.9531C39.0554 25.9531 38.7693 26.1433 38.6461 26.4358C38.4089 26.9999 37.8679 27.3962 37.2178 27.3962C36.3503 27.3962 35.6537 26.6977 35.6537 25.82C35.6537 24.942 36.3502 24.2559 37.2178 24.2559C37.4856 24.2581 37.7362 24.124 37.8833 23.8999C38.0301 23.6759 38.0532 23.3925 37.9443 23.1476C37.8564 22.9464 37.8088 22.738 37.8088 22.5195C37.8088 21.6417 38.5054 20.9433 39.3729 20.9433H39.3729ZM45.0746 34.1942C44.4646 34.1942 43.9786 34.6895 43.9786 35.3025C43.9786 35.9155 44.4646 36.4108 45.0746 36.4108C45.6845 36.4108 46.1829 35.9155 46.1829 35.3025C46.1829 34.6895 45.6845 34.1942 45.0746 34.1942Z" fill="#00FEE8"/>
</svg>
