<svg width="23" height="14" viewBox="0 0 23 14" fill="none" xmlns="http://www.w3.org/2000/svg">
<path d="M11.4052 9.94759H13.6716V10.3794C13.6712 10.8135 13.4985 11.2296 13.1916 11.5365C12.8845 11.8436 12.4684 12.0162 12.0343 12.0169H6.467L4.98499 13.4987L4.98483 13.4986C4.80138 13.6842 4.55119 13.7889 4.29025 13.7894C4.12008 13.7887 3.95319 13.7444 3.80521 13.6606C3.6166 13.5568 3.46737 13.3937 3.38097 13.1965C3.29457 12.9993 3.27549 12.7791 3.3269 12.57L3.45941 12.0159H2.09617C1.66221 12.0153 1.24625 11.8427 0.939347 11.536C0.632444 11.2293 0.459624 10.8133 0.458984 10.3793V4.76684C0.459453 4.33272 0.632124 3.9166 0.939027 3.6097C1.24609 3.30279 1.66221 3.13013 2.09617 3.12965H7.82628V6.36758C7.82753 7.31643 8.20491 8.22619 8.87574 8.89717C9.54672 9.56831 10.4564 9.94586 11.4052 9.94742L11.4052 9.94759ZM20.2228 0.18512H11.4052C10.831 0.185901 10.2804 0.41436 9.87427 0.820497C9.46815 1.22661 9.23969 1.77714 9.23889 2.35155V6.36791C9.23967 6.94216 9.46813 7.49269 9.87427 7.89885C10.2804 8.30497 10.8309 8.53343 11.4052 8.53423H16.7109L18.3379 10.1613V10.1614C18.5215 10.347 18.7715 10.4516 19.0326 10.4522C19.2025 10.4519 19.3696 10.4078 19.5175 10.3244C19.7061 10.2206 19.8554 10.0575 19.9418 9.86027C20.0283 9.66306 20.0474 9.44271 19.996 9.23365L19.8288 8.53423H20.224C20.7981 8.53314 21.3483 8.30452 21.7541 7.89837C22.1601 7.49242 22.3884 6.94205 22.3892 6.36792V2.35156C22.3884 1.77715 22.1598 1.22662 21.7538 0.820501C21.3477 0.414384 20.7972 0.185924 20.2227 0.185124L20.2228 0.18512Z" fill="white"/>
</svg>
