<svg width="16" height="17" viewBox="0 0 16 17" fill="none" xmlns="http://www.w3.org/2000/svg">
<path d="M0.271523 16.0254C0.271523 16.1579 0.378952 16.2657 0.511858 16.2657H15.1475C15.2804 16.2657 15.3878 16.1581 15.3878 16.0254C15.3878 15.8928 15.2804 15.785 15.1475 15.785H14.2832V14.8066C14.7973 14.6834 15.182 14.2227 15.182 13.6713C15.182 13.0259 14.6567 12.501 14.0117 12.501C13.3666 12.501 12.8415 13.0259 12.8415 13.6713C12.8415 14.245 13.2572 14.7215 13.8025 14.8205V15.7849H12.4936V1.16767C12.4936 1.03511 12.3861 0.927338 12.2532 0.927338H7.79245C7.65954 0.927338 7.55211 1.03493 7.55211 1.16767V6.68006L3.23505 6.67989C3.10214 6.67989 2.99471 6.78749 2.99471 6.92023V10.5343C2.99471 10.542 2.9984 10.5487 2.99907 10.556C2.9984 10.5638 2.99471 10.5703 2.99471 10.5778V15.7847L1.82458 15.7849V14.8065C2.33875 14.6833 2.72339 14.2226 2.72339 13.6712C2.72339 13.0258 2.19815 12.5009 1.55308 12.5009C0.908005 12.5009 0.382938 13.0258 0.382938 13.6712C0.382938 14.2448 0.798577 14.7213 1.34392 14.8204V15.7847H0.511652C0.378913 15.7851 0.271484 15.8927 0.271484 16.0254L0.271523 16.0254ZM14.0117 14.3613C13.6315 14.3613 13.3223 14.0519 13.3223 13.6715C13.3223 13.2912 13.6315 12.9817 14.0117 12.9817C14.392 12.9817 14.7016 13.291 14.7016 13.6715C14.7014 14.0518 14.392 14.3613 14.0117 14.3613ZM8.03297 1.40796H12.0132V15.7849H8.03297V1.40796ZM4.66328 13.8658C4.66328 13.367 5.05847 12.9611 5.54433 12.9611C6.03019 12.9611 6.42555 13.3668 6.42555 13.8658V15.7854H4.66328V13.8658ZM3.47534 10.8187H7.55244V15.7853H6.90604V13.8657C6.90604 13.1019 6.29499 12.4805 5.54416 12.4805C4.79333 12.4805 4.18262 13.1017 4.18262 13.8657V15.7853H3.47521L3.47534 10.8187ZM3.47534 7.1607H7.55244V10.3382H3.47534V7.1607ZM1.553 14.3614C1.17272 14.3614 0.863521 14.052 0.863521 13.6716C0.863521 13.2913 1.17274 12.9817 1.553 12.9817C1.93328 12.9817 2.24282 13.2911 2.24282 13.6716C2.24265 14.0518 1.93327 14.3614 1.553 14.3614Z" fill="#BAACD2"/>
<path d="M11.1856 3.77222C11.0527 3.77222 10.9453 3.66463 10.9453 3.53189V2.45979C10.9453 2.32722 11.0527 2.21945 11.1856 2.21945C11.3186 2.21945 11.426 2.32705 11.426 2.45979V3.53189C11.426 3.66463 11.3186 3.77222 11.1856 3.77222Z" fill="#BAACD2"/>
<path d="M10.0099 3.77222C9.87696 3.77222 9.76953 3.66463 9.76953 3.53189V2.45979C9.76953 2.32722 9.87696 2.21945 10.0099 2.21945C10.1428 2.21945 10.2502 2.32705 10.2502 2.45979V3.53189C10.25 3.66463 10.1426 3.77222 10.0099 3.77222Z" fill="#BAACD2"/>
<path d="M8.86338 3.77222C8.73048 3.77222 8.62305 3.66463 8.62305 3.53189V2.45979C8.62305 2.32722 8.73048 2.21945 8.86338 2.21945C8.99629 2.21945 9.10372 2.32705 9.10372 2.45979V3.53189C9.10372 3.66463 8.99629 3.77222 8.86338 3.77222Z" fill="#BAACD2"/>
<path d="M11.1856 6.09507C11.0527 6.09507 10.9453 5.98747 10.9453 5.85473V4.78263C10.9453 4.65006 11.0527 4.5423 11.1856 4.5423C11.3186 4.5423 11.426 4.64989 11.426 4.78263V5.85473C11.426 5.9873 11.3186 6.09507 11.1856 6.09507Z" fill="#BAACD2"/>
<path d="M10.0099 6.09507C9.87696 6.09507 9.76953 5.98747 9.76953 5.85473V4.78263C9.76953 4.65006 9.87696 4.5423 10.0099 4.5423C10.1428 4.5423 10.2502 4.64989 10.2502 4.78263V5.85473C10.25 5.9873 10.1426 6.09507 10.0099 6.09507Z" fill="#BAACD2"/>
<path d="M8.86338 6.09507C8.73048 6.09507 8.62305 5.98747 8.62305 5.85473V4.78263C8.62305 4.65006 8.73048 4.5423 8.86338 4.5423C8.99629 4.5423 9.10372 4.64989 9.10372 4.78263V5.85473C9.10372 5.9873 8.99629 6.09507 8.86338 6.09507Z" fill="#BAACD2"/>
<path d="M11.1856 8.41752C11.0527 8.41752 10.9453 8.30992 10.9453 8.17718V7.10508C10.9453 6.97251 11.0527 6.86475 11.1856 6.86475C11.3186 6.86475 11.426 6.97234 11.426 7.10508V8.17718C11.426 8.30992 11.3186 8.41752 11.1856 8.41752Z" fill="#BAACD2"/>
<path d="M10.0099 8.41752C9.87696 8.41752 9.76953 8.30992 9.76953 8.17718V7.10508C9.76953 6.97251 9.87696 6.86475 10.0099 6.86475C10.1428 6.86475 10.2502 6.97234 10.2502 7.10508V8.17718C10.25 8.30992 10.1426 8.41752 10.0099 8.41752Z" fill="#BAACD2"/>
<path d="M8.86338 8.41752C8.73048 8.41752 8.62305 8.30992 8.62305 8.17718V7.10508C8.62305 6.97251 8.73048 6.86475 8.86338 6.86475C8.99629 6.86475 9.10372 6.97234 9.10372 7.10508V8.17718C9.10372 8.30992 8.99629 8.41752 8.86338 8.41752Z" fill="#BAACD2"/>
<path d="M11.1856 10.7399C11.0527 10.7399 10.9453 10.6323 10.9453 10.4996V9.4275C10.9453 9.29493 11.0527 9.18716 11.1856 9.18716C11.3186 9.18716 11.426 9.29476 11.426 9.4275V10.4996C11.426 10.6323 11.3186 10.7399 11.1856 10.7399Z" fill="#BAACD2"/>
<path d="M10.0099 10.7399C9.87696 10.7399 9.76953 10.6323 9.76953 10.4996V9.4275C9.76953 9.29493 9.87696 9.18716 10.0099 9.18716C10.1428 9.18716 10.2502 9.29476 10.2502 9.4275V10.4996C10.25 10.6323 10.1426 10.7399 10.0099 10.7399Z" fill="#BAACD2"/>
<path d="M8.86338 10.7399C8.73048 10.7399 8.62305 10.6323 8.62305 10.4996V9.4275C8.62305 9.29493 8.73048 9.18716 8.86338 9.18716C8.99629 9.18716 9.10372 9.29476 9.10372 9.4275V10.4996C9.10372 10.6323 8.99629 10.7399 8.86338 10.7399Z" fill="#BAACD2"/>
<path d="M11.1856 13.0628C11.0527 13.0628 10.9453 12.9552 10.9453 12.8225V11.7504C10.9453 11.6178 11.0527 11.51 11.1856 11.51C11.3186 11.51 11.426 11.6176 11.426 11.7504V12.8225C11.426 12.9552 11.3186 13.0628 11.1856 13.0628Z" fill="#BAACD2"/>
<path d="M10.0099 13.0628C9.87696 13.0628 9.76953 12.9552 9.76953 12.8225V11.7504C9.76953 11.6178 9.87696 11.51 10.0099 11.51C10.1428 11.51 10.2502 11.6176 10.2502 11.7504V12.8225C10.25 12.9552 10.1426 13.0628 10.0099 13.0628Z" fill="#BAACD2"/>
<path d="M8.86338 13.0628C8.73048 13.0628 8.62305 12.9552 8.62305 12.8225V11.7504C8.62305 11.6178 8.73048 11.51 8.86338 11.51C8.99629 11.51 9.10372 11.6176 9.10372 11.7504V12.8225C9.10372 12.9552 8.99629 13.0628 8.86338 13.0628Z" fill="#BAACD2"/>
</svg>
