<svg width="18" height="19" viewBox="0 0 18 19" fill="none" xmlns="http://www.w3.org/2000/svg">
<path fill-rule="evenodd" clip-rule="evenodd" d="M15.1387 1.36236L16.8821 1.40628C17.1843 1.41376 17.4214 1.52198 17.5847 1.67937C17.7322 1.82181 17.8134 2.01023 17.8134 2.18672V5.46972C17.8134 6.05012 17.7507 6.66058 17.4321 7.31917C17.1157 7.9731 16.5523 8.65568 15.5555 9.36991C15.0707 9.71701 14.5745 10.0062 14.1023 10.2441C13.6384 10.478 13.1893 10.6657 12.7962 10.8119C12.6686 10.8594 12.5311 10.8727 12.4007 10.8568C11.5154 11.6124 10.6395 12.1212 10.0145 12.4313C9.78679 12.5441 9.64292 12.776 9.64292 13.0304V16.6952C9.64292 17.0644 9.94228 17.3643 10.312 17.3643H12.0809C12.3509 17.3643 12.5704 17.5837 12.5704 17.8538V18.2692C12.5704 18.5393 12.351 18.7587 12.0809 18.7587L5.81122 18.7592C5.54115 18.7592 5.32167 18.5397 5.32167 18.2697V17.8543C5.32167 17.5842 5.54113 17.3648 5.81122 17.3648H7.58012C7.94933 17.3648 8.24917 17.0654 8.24917 16.6957V12.9757C8.24917 12.7242 8.10817 12.4938 7.88361 12.3797C7.28602 12.0754 6.45001 11.5811 5.60145 10.8571C5.4708 10.8732 5.3325 10.86 5.20471 10.8124C4.81178 10.6662 4.36267 10.4785 3.89859 10.2446C3.4264 10.0063 2.93017 9.71746 2.44543 9.37038C1.44854 8.65631 0.885168 7.97357 0.568813 7.31964C0.250364 6.6611 0.1875 6.05063 0.1875 5.4702L0.187659 2.18736C0.187659 2.01182 0.269777 1.82371 0.419374 1.68001C0.582974 1.52261 0.819782 1.4144 1.12008 1.40676C1.73055 1.39116 2.26703 1.37716 2.7448 1.36458L2.86447 1.36156L2.86431 0.207117C3.43929 0.186905 3.9554 0.168285 4.42299 0.151415C6.62191 0.0723205 7.72542 0.0323738 8.87233 0.0317383H8.90686C10.1176 0.0317383 11.4123 0.0769364 13.9677 0.166058C14.3314 0.178789 14.7206 0.192157 15.1395 0.206958L15.1394 1.36234L15.1387 1.36236ZM14.0904 9.00254C14.276 8.88923 14.4622 8.76701 14.6458 8.63523C15.4731 8.04274 15.9333 7.4913 16.1846 6.97153C16.4337 6.45652 16.4825 5.95394 16.4825 5.46969L16.4827 2.40473L15.1387 2.37068V5.20267C15.1386 6.31621 15.0397 7.58412 14.0905 9.0026L14.0904 9.00254ZM3.91285 9.00381C2.96277 7.58488 2.86409 6.31649 2.86409 5.2023V2.36998L2.78611 2.37204C2.40369 2.38207 1.98372 2.39305 1.51821 2.40515V5.46982C1.51821 5.95411 1.56706 6.45669 1.81613 6.97166C2.06758 7.49127 2.52783 8.04286 3.35492 8.63536C3.53953 8.76761 3.72636 8.89031 3.91287 9.00378L3.91285 9.00381Z" fill="white"/>
</svg>
