<svg width="170" height="83" viewBox="0 0 170 83" fill="none" xmlns="http://www.w3.org/2000/svg">
<rect x="31.394" y="73.0962" width="3.24254" height="16.7005" rx="1.62127" transform="rotate(90 31.394 73.0962)" fill="#00FEE8"/>
<rect x="12.4165" y="73.0962" width="3.24254" height="12.1736" rx="1.62127" transform="rotate(90 12.4165 73.0962)" fill="#00FEE8"/>
<rect x="31.394" y="79.2822" width="3.24254" height="31.1512" rx="1.62127" transform="rotate(90 31.394 79.2822)" fill="#00FEE8"/>
<path d="M122.862 21.8336H90.9683C98.3979 18.7697 102.795 19.1507 104.129 14.9914C105.732 9.92718 99.2076 6.133 95.3499 9.99068L87.3011 18.0394V8.68891C87.3011 6.54575 84.0626 6.54575 84.0626 8.68891V18.0394L76.0138 9.99068C72.172 6.14887 65.6314 9.92718 67.2348 14.9914C68.5525 19.1507 72.7118 18.6586 80.3954 21.8336H48.502C47.613 21.8336 46.8828 22.5639 46.8828 23.4529V34.2639C46.8828 35.1529 47.613 35.8832 48.502 35.8832H53.344V50.5202H56.5825V44.5828L91.2858 79.2861H72.1244C66.6951 73.8568 62.0119 69.1736 56.5825 63.7443V55.6003H53.344V80.9054C53.344 81.7944 54.0742 82.5247 54.9633 82.5247H102.51V79.2861H95.8579L56.5825 40.0108V35.8832H71.6164L114.765 79.048V79.2861H111.876V82.5247H116.4C117.289 82.5247 118.02 81.7944 118.02 80.9054V35.8832H122.862C123.751 35.8832 124.481 35.1529 124.481 34.2639V23.4529C124.481 22.5639 123.751 21.8336 122.862 21.8336ZM99.1282 11.6735C101.446 11.6735 101.859 14.6739 99.6997 15.42L91.7779 18.1347C97.4137 12.7847 97.5883 11.6735 99.1282 11.6735ZM70.5369 12.5466C70.9179 12.0227 71.537 11.6735 72.2514 11.6735C73.7754 11.6735 73.8865 12.7212 79.6016 18.1347C78.5697 17.5949 68.3302 15.6105 70.5369 12.5466ZM67.5523 79.2861H56.5825V68.3163C56.7889 68.5068 68.1397 79.8735 67.5523 79.2861ZM121.242 32.6447H90.9207V35.8832H95.3499L114.765 55.2986V74.4601C100.366 60.0612 90.6349 50.3297 76.1885 35.8832H85.5231V32.6447H50.1213V25.0722H121.242V32.6447ZM114.781 35.8832V50.7266L99.922 35.8832H114.781Z" fill="#00FEE8"/>
<rect x="8.47186" y="0.994629" width="3.24254" height="12.1736" rx="1.62127" fill="#00FEE8"/>
<rect x="16.1799" y="5.46045" width="3.24254" height="12.1736" rx="1.62127" transform="rotate(90 16.1799 5.46045)" fill="#00FEE8"/>
<rect x="153.562" y="68.73" width="3.24254" height="12.1736" rx="1.62127" fill="#00FEE8"/>
<rect x="161.271" y="73.1953" width="3.24254" height="12.1736" rx="1.62127" transform="rotate(90 161.271 73.1953)" fill="#00FEE8"/>
<circle cx="162.339" cy="12.496" r="5.6557" stroke="#00FEE8" stroke-width="3"/>
</svg>
