<svg width="66" height="18" viewBox="0 0 66 18" fill="none" xmlns="http://www.w3.org/2000/svg">
<path d="M6.34291 8.36616C5.71175 8.93582 4.89193 9.18432 3.59402 9.18432H3.05495V2.37778H3.59402C4.89193 2.37778 5.67951 2.60988 6.34291 3.2102C7.03758 3.82851 7.45549 4.78658 7.45549 5.77266C7.45549 6.76072 7.03758 7.74811 6.34291 8.36616ZM3.99639 0.633789H1.04785V10.9269H3.98087C5.54049 10.9269 6.66664 10.5591 7.65521 9.73862C8.82989 8.76689 9.52456 7.30233 9.52456 5.78746C9.52456 2.74987 7.25398 0.633789 3.99639 0.633789Z" fill="white"/>
<path d="M10.4482 10.9269H12.4569V0.633789H10.4482V10.9269Z" fill="white"/>
<path d="M17.3689 4.58347C16.1636 4.13764 15.8096 3.84357 15.8096 3.28745C15.8096 2.63919 16.4402 2.14658 17.306 2.14658C17.9079 2.14658 18.4025 2.39365 18.9259 2.98018L19.9768 1.60459C19.1131 0.849467 18.0798 0.463379 16.9507 0.463379C15.1288 0.463379 13.739 1.72813 13.739 3.41277C13.739 4.83083 14.3861 5.55685 16.2727 6.23553C17.0589 6.51272 17.4591 6.69743 17.6611 6.82173C18.0625 7.08369 18.2635 7.45446 18.2635 7.88675C18.2635 8.72077 17.6001 9.33866 16.7038 9.33866C15.7458 9.33866 14.9741 8.85975 14.5116 7.96582L13.2139 9.2147C14.1394 10.5726 15.2508 11.1743 16.7792 11.1743C18.8667 11.1743 20.3309 9.78706 20.3309 7.79443C20.3309 6.15908 19.654 5.41876 17.3689 4.58347Z" fill="white"/>
<path d="M20.9648 5.78773C20.9648 8.81322 23.3416 11.1592 26.4004 11.1592C27.265 11.1592 28.0055 10.9893 28.9187 10.5593V8.19593C28.1158 8.99929 27.4045 9.32327 26.4937 9.32327C24.4708 9.32327 23.0349 7.85727 23.0349 5.77288C23.0349 3.79666 24.5162 2.23776 26.4004 2.23776C27.3584 2.23776 28.0836 2.57947 28.9187 3.3959V1.03364C28.0371 0.586543 27.312 0.401367 26.4477 0.401367C23.4046 0.401367 20.9648 2.79485 20.9648 5.78773Z" fill="white"/>
<path d="M44.8458 7.5477L42.0997 0.633789H39.9053L44.2751 11.191H45.356L49.805 0.633789H47.6274L44.8458 7.5477Z" fill="white"/>
<path d="M50.7129 10.9269H56.4094V9.18432H52.7199V6.40594H56.2732V4.66241H52.7199V2.37778H56.4094V0.633789H50.7129V10.9269Z" fill="white"/>
<path d="M60.3322 5.37261H59.7454V2.2551H60.3639C61.6149 2.2551 62.2952 2.77893 62.2952 3.7807C62.2952 4.81552 61.6149 5.37261 60.3322 5.37261ZM64.3623 3.67257C64.3623 1.7456 63.0343 0.633789 60.7176 0.633789H57.7393V10.9269H59.7454V6.79199H60.0073L62.7877 10.9269H65.2579L62.0164 6.59052C63.5289 6.28308 64.3623 5.24865 64.3623 3.67257Z" fill="white"/>
<path d="M4.64887 15.9379V16.0328C4.64887 16.4461 4.59298 16.7252 4.45324 16.9766C4.15156 17.5239 3.53701 17.8757 2.88338 17.8757C1.83862 17.8757 0.972656 17.0045 0.972656 15.9546C0.972656 14.888 1.84425 14.0225 2.91693 14.0225C3.33039 14.0225 3.7381 14.1565 4.05662 14.4022C4.20186 14.5083 4.308 14.6145 4.48679 14.8322L4.17952 15.1114C3.81086 14.6255 3.43082 14.4134 2.92256 14.4134C2.0733 14.4134 1.39174 15.1058 1.39174 15.9602C1.39174 16.7868 2.07892 17.4847 2.88901 17.4847C3.3526 17.4847 3.82195 17.2278 4.05099 16.848C4.14597 16.6974 4.18515 16.5522 4.20186 16.3232H3.09572V15.9379H4.64887Z" fill="white"/>
<path d="M7.36814 17.4233H8.39055V17.8086H6.94922V14.084H7.36814V17.4233Z" fill="white"/>
<path d="M10.5226 15.9267C10.5226 16.3846 10.6847 16.7643 10.9974 17.0604C11.2824 17.3284 11.6623 17.4847 12.0311 17.4847C12.8802 17.4847 13.5618 16.8035 13.5618 15.949C13.5618 15.1003 12.8858 14.4134 12.0422 14.4134C11.2098 14.4134 10.5226 15.1003 10.5226 15.9267ZM13.9809 15.949C13.9809 17.0157 13.1037 17.8757 12.0255 17.8757C11.4948 17.8757 10.9528 17.63 10.584 17.2222C10.2712 16.8704 10.1035 16.4294 10.1035 15.9267C10.1035 14.8993 10.9974 14.0225 12.0478 14.0225C13.1037 14.0225 13.9809 14.8936 13.9809 15.949Z" fill="white"/>
<path d="M17.049 17.4233C17.3899 17.4233 17.5463 17.3843 17.7028 17.2614C17.8535 17.1386 17.9429 16.9487 17.9429 16.7476C17.9429 16.5187 17.82 16.2953 17.63 16.1948C17.4848 16.111 17.2949 16.0775 16.9932 16.0775H16.5742V17.4233H17.049ZM16.8871 15.7257C17.1608 15.7257 17.2893 15.6921 17.4122 15.5805C17.5407 15.4688 17.6133 15.2957 17.6133 15.1003C17.6133 14.8993 17.5407 14.7204 17.4178 14.6088C17.3005 14.5084 17.1552 14.4692 16.8982 14.4692H16.5742V15.7257H16.8871ZM16.1553 14.084H16.8312C17.2222 14.084 17.4792 14.1565 17.6748 14.3186C17.8927 14.4915 18.0212 14.7875 18.0212 15.0947C18.0212 15.4129 17.9093 15.6308 17.6525 15.8151C18.0938 15.9436 18.3564 16.2953 18.3564 16.7587C18.3564 17.0771 18.2223 17.3619 17.9821 17.5573C17.7529 17.7417 17.5071 17.8086 17.0826 17.8086H16.1553V14.084Z" fill="white"/>
<path d="M21.9312 14.877L21.2944 16.3679H22.5513L21.9312 14.877ZM21.1212 16.7533L20.6742 17.8086H20.2217L21.9369 13.9053L23.6128 17.8086H23.1548L22.7134 16.7533H21.1212Z" fill="white"/>
<path d="M26.5156 17.4233H27.538V17.8086H26.0967V14.084H26.5156V17.4233Z" fill="white"/>
<path d="M33.4365 13.9277L36.3359 16.9712V14.0842H36.7551V17.9764L33.8554 14.9385V17.8088H33.4365V13.9277Z" fill="white"/>
<path d="M39.3411 14.4692V15.5805H40.8104V15.9659H39.3411V17.4233H40.8498V17.8086H38.9219V14.084H40.8498V14.4692H39.3411Z" fill="white"/>
<path d="M44.1585 17.8086H43.7393V14.4692H42.8398V14.084H45.0635V14.4692H44.1585V17.8086Z" fill="white"/>
<path d="M48.1914 16.8761L49.3591 13.894L50.4595 16.8761L51.5544 14.084H52.0071L50.4485 17.9986L49.3477 15.0221L48.1745 17.9986L46.7441 14.084H47.1968L48.1914 16.8761Z" fill="white"/>
<path d="M53.5136 15.9267C53.5136 16.3846 53.676 16.7643 53.9887 17.0604C54.2738 17.3284 54.6537 17.4847 55.0222 17.4847C55.8713 17.4847 56.5528 16.8035 56.5528 15.949C56.5528 15.1003 55.8768 14.4134 55.0336 14.4134C54.2006 14.4134 53.5136 15.1003 53.5136 15.9267ZM56.9721 15.949C56.9721 17.0157 56.0951 17.8757 55.0167 17.8757C54.4858 17.8757 53.9442 17.63 53.5753 17.2222C53.2627 16.8704 53.0947 16.4294 53.0947 15.9267C53.0947 14.8993 53.9887 14.0225 55.0391 14.0225C56.0951 14.0225 56.9721 14.8936 56.9721 15.949Z" fill="white"/>
<path d="M59.3534 15.8095C59.8785 15.8095 60.1746 15.5637 60.1746 15.1282C60.1746 14.8993 60.0739 14.6981 59.9009 14.592C59.7668 14.5084 59.5988 14.4692 59.3365 14.4692H59.0907V15.8095H59.3534ZM60.8282 17.8086H60.3197L59.1969 16.178H59.0907V17.8086H58.6719V14.084H59.2752C59.6995 14.084 59.9567 14.1397 60.1687 14.285C60.4259 14.4579 60.5824 14.7765 60.5824 15.1282C60.5824 15.6921 60.2139 16.0943 59.6441 16.1444L60.8282 17.8086Z" fill="white"/>
<path d="M64.8364 14.084H65.3952L63.6467 15.8206L65.4515 17.8086H64.8816L63.3561 16.0999L63.2499 16.2059V17.8086H62.8311V14.084H63.2499V15.681L64.8364 14.084Z" fill="white"/>
<g filter="url(#filter0_i_42_1448)">
<path d="M40.637 5.92689C40.637 9.00878 38.1388 11.5071 35.0568 11.5071C31.9749 11.5071 29.4766 9.00878 29.4766 5.92689C29.4766 2.84504 31.9749 0.34668 35.0568 0.34668C38.1388 0.34668 40.637 2.84504 40.637 5.92689Z" fill="url(#paint0_linear_42_1448)"/>
</g>
<defs>
<filter id="filter0_i_42_1448" x="29.4766" y="0.34668" width="12.5861" height="12.9431" filterUnits="userSpaceOnUse" color-interpolation-filters="sRGB">
<feFlood flood-opacity="0" result="BackgroundImageFix"/>
<feBlend mode="normal" in="SourceGraphic" in2="BackgroundImageFix" result="shape"/>
<feColorMatrix in="SourceAlpha" type="matrix" values="0 0 0 0 0 0 0 0 0 0 0 0 0 0 0 0 0 0 127 0" result="hardAlpha"/>
<feOffset dx="1.42595" dy="1.78243"/>
<feGaussianBlur stdDeviation="1.42595"/>
<feComposite in2="hardAlpha" operator="arithmetic" k2="-1" k3="1"/>
<feColorMatrix type="matrix" values="0 0 0 0 0.521569 0 0 0 0 0.14902 0 0 0 0 0.105882 0 0 0 0.87 0"/>
<feBlend mode="normal" in2="shape" result="effect1_innerShadow_42_1448"/>
</filter>
<linearGradient id="paint0_linear_42_1448" x1="32.9487" y1="2.9508" x2="37.8469" y2="10.6022" gradientUnits="userSpaceOnUse">
<stop stop-color="#E1481E"/>
<stop offset="0.799436" stop-color="#F59314"/>
<stop offset="1" stop-color="#FFAD43"/>
</linearGradient>
</defs>
</svg>
