<svg width="63" height="15" viewBox="0 0 63 15" fill="none" xmlns="http://www.w3.org/2000/svg">
<path d="M11.4097 0.649414C5.51016 0.649414 0.751953 3.28205 0.751953 6.54387C0.751953 7.93473 1.61231 9.1931 3.06962 10.2197C2.34974 9.37524 1.94592 8.44801 1.94592 7.45454C1.94592 4.07683 6.61631 1.32825 12.3578 1.32825C16.0625 1.32825 19.3283 2.47072 21.1719 4.19272C19.539 2.10648 15.7641 0.649414 11.4097 0.649414Z" fill="#8CC23C"/>
<path d="M10.4793 8.21598C10.9182 8.21598 11.2694 8.13318 11.5328 7.95104C11.8312 7.7689 11.9893 7.48745 11.9893 7.12316C11.9893 6.44432 11.761 5.83169 11.2869 5.26871C10.8129 4.70577 10.2159 4.27528 9.49602 3.97724C8.98687 3.77855 8.42498 3.6792 7.79291 3.6792C6.52873 3.6792 5.4928 4.06004 4.68515 4.83822C3.87746 5.61645 3.47363 6.54367 3.47363 7.6199C3.47363 8.71267 3.89505 9.6399 4.73781 10.385C5.58061 11.1301 6.6341 11.5109 7.91583 11.5109C8.60056 11.5109 9.25022 11.4281 9.86474 11.246C10.6022 11.0307 11.1465 10.7327 11.4801 10.3353C11.6732 10.1201 11.761 9.90484 11.761 9.68959C11.761 9.12661 11.4274 8.82857 10.7426 8.82857C10.6022 8.82857 10.2159 8.94447 9.60139 9.19286C9.00443 9.42465 8.47768 9.54055 8.05626 9.54055C7.52952 9.54055 7.09059 9.42465 6.73942 9.19286C6.38826 8.96106 6.17757 8.64647 6.12491 8.21598H10.4793ZM6.66921 5.83169C6.96767 5.59985 7.35398 5.4674 7.81046 5.4674C8.2494 5.4674 8.63571 5.5833 8.95172 5.83169C9.26778 6.08004 9.44336 6.39463 9.46091 6.77547H6.0898C6.16002 6.39463 6.35315 6.08004 6.66921 5.83169Z" fill="white"/>
<path d="M13.4118 10.3684C14.2019 11.1135 15.2378 11.4944 16.5195 11.4944C17.2921 11.4944 17.9417 11.3785 18.4509 11.1632C19.1708 10.8486 19.5219 10.4843 19.5219 10.0373C19.5219 9.7724 19.4342 9.55715 19.241 9.35846C19.0479 9.17631 18.8196 9.07697 18.5212 9.07697C18.328 9.07697 18.0646 9.12662 17.7661 9.24256C17.4677 9.35846 17.1341 9.40811 16.7653 9.40811C16.1508 9.40811 15.6767 9.22597 15.3431 8.86172C15.0446 8.53058 14.9042 8.10009 14.9042 7.55366C14.9042 7.04042 15.0446 6.60988 15.3256 6.26219C15.6416 5.88135 16.0981 5.69925 16.6775 5.69925C17.0287 5.69925 17.3799 5.7489 17.6959 5.8648C18.012 5.9807 18.2753 6.03039 18.486 6.03039C18.7845 6.03039 19.0479 5.9476 19.241 5.76545C19.4342 5.58335 19.5395 5.36811 19.5395 5.10317C19.5395 4.58988 19.1883 4.20905 18.486 3.9607C17.9593 3.77856 17.3623 3.6958 16.66 3.6958C15.3256 3.6958 14.2545 4.06005 13.4644 4.78858C12.6568 5.51711 12.2529 6.46088 12.2529 7.60335C12.2705 8.72927 12.6392 9.63991 13.4118 10.3684Z" fill="white"/>
<path d="M20.8029 10.385C21.6281 11.1632 22.6816 11.544 23.9634 11.544C25.2451 11.544 26.2986 11.1632 27.1238 10.4015C27.9139 9.65645 28.3002 8.72922 28.3002 7.6199C28.3002 6.49398 27.8963 5.5502 27.1062 4.80512C26.3161 4.06004 25.2626 3.6792 23.9634 3.6792C22.6816 3.6792 21.6457 4.06004 20.838 4.82167C20.0303 5.5833 19.6265 6.51053 19.6265 7.63645C19.609 8.71267 20.0128 9.6399 20.8029 10.385ZM22.6465 6.32839C22.945 5.93104 23.384 5.74889 23.9458 5.74889C24.4901 5.74889 24.929 5.94759 25.2275 6.34498C25.5084 6.69267 25.6314 7.10661 25.6314 7.60335C25.6314 8.11663 25.4909 8.53057 25.2275 8.86171C24.929 9.25906 24.4901 9.45776 23.9283 9.45776C23.384 9.45776 22.945 9.25906 22.6465 8.86171C22.3656 8.51398 22.2427 8.10004 22.2427 7.60335C22.2602 7.09006 22.3831 6.67612 22.6465 6.32839Z" fill="white"/>
<path d="M31.8827 3.48029H33.0241C34.2353 3.48029 34.8326 3.91078 34.8326 4.77176C34.8326 5.64933 34.2353 6.09637 33.0241 6.09637H31.8827V3.48029ZM31.8827 9.82183V8.13297H33.6561C34.9028 8.13297 35.8858 7.83493 36.606 7.2554C37.3257 6.65936 37.6768 5.83148 37.6768 4.77176C37.6768 3.69553 37.273 2.85111 36.4831 2.25502C35.7279 1.69208 34.7097 1.39404 33.4454 1.39404H31.0751C30.3903 1.39404 29.9162 1.50994 29.6529 1.74174C29.3895 1.97358 29.249 2.38751 29.249 2.98355V9.82183C29.249 10.8981 29.688 11.4279 30.5659 11.4279C31.4438 11.4279 31.8827 10.8981 31.8827 9.82183Z" fill="#8CC23C"/>
<path d="M40.8898 6.37818C41.1882 6.01389 41.6099 5.8152 42.1365 5.8152C42.6807 5.8152 43.0845 5.99734 43.3833 6.37818C43.629 6.70932 43.7695 7.10667 43.7695 7.58685C43.7695 8.06704 43.6466 8.48098 43.3833 8.81212C43.0845 9.19292 42.6807 9.37506 42.1365 9.37506C41.5924 9.37506 41.1707 9.19292 40.8722 8.81212C40.6089 8.48098 40.4861 8.06704 40.4861 7.58685C40.4861 7.10667 40.6265 6.70932 40.8898 6.37818ZM45.104 11.4282C45.9466 11.4282 46.3679 10.8984 46.3679 9.8221V5.40126C46.3679 4.34159 45.9466 3.81175 45.104 3.81175C44.577 3.81175 44.1732 4.04355 43.8748 4.50718C43.3482 3.97734 42.6632 3.7124 41.8206 3.7124C40.644 3.7124 39.6786 4.12634 38.9233 4.93767C38.2036 5.6993 37.8525 6.59342 37.8525 7.61995C37.8525 8.62998 38.2036 9.5241 38.8882 10.2692C39.6435 11.0805 40.5914 11.4944 41.7504 11.4944C42.6632 11.4944 43.3833 11.213 43.9099 10.6666C44.1206 11.1633 44.5419 11.4282 45.104 11.4282Z" fill="#8CC23C"/>
<path d="M52.3198 4.6725L50.7575 8.18271L49.3001 4.8712C49.1421 4.50695 49.0016 4.25856 48.8788 4.12612C48.6677 3.91087 48.3693 3.81152 48.0007 3.81152C47.6496 3.81152 47.3512 3.91087 47.1054 4.12612C46.8592 4.34136 46.7539 4.58975 46.7539 4.90434C46.7539 5.11959 46.8066 5.31824 46.8948 5.51693L49.4756 10.6994L48.4219 12.6698C48.2815 12.9513 48.2113 13.1996 48.2113 13.4149C48.2113 13.746 48.3342 13.9944 48.5624 14.1931C48.791 14.3752 49.107 14.4746 49.4756 14.4746C49.932 14.4746 50.3006 14.1765 50.5995 13.597L54.5148 5.64942C54.6553 5.36793 54.7255 5.11959 54.7255 4.88775C54.7255 4.19236 54.3042 3.84463 53.4612 3.84463C52.9521 3.79497 52.5835 4.09301 52.3198 4.6725Z" fill="#8CC23C"/>
<path d="M61.0105 9.27574H58.4823L61.8882 5.51719C62.2397 5.13635 62.4152 4.82176 62.4152 4.55686C62.4152 4.25882 62.2748 4.07667 62.0111 4.01047C61.7478 3.92768 61.344 3.89453 60.7823 3.89453H56.6738C55.5851 3.89453 55.0409 4.22572 55.0409 4.888C55.0409 5.56684 55.5851 5.89802 56.6563 5.89802H58.8685L55.3393 9.80558C55.0936 10.0871 54.9531 10.3685 54.9531 10.65C54.9531 11.097 55.4095 11.3289 56.3048 11.3289H60.9754C62.0462 11.3289 62.5908 10.9977 62.5908 10.3189C62.6083 9.62344 62.0642 9.27574 61.0105 9.27574Z" fill="#8CC23C"/>
</svg>
