<svg width="31" height="24" viewBox="0 0 31 24" fill="none" xmlns="http://www.w3.org/2000/svg">
<path d="M30.3117 0.157501H1.3239C0.948942 0.157501 0.644531 0.461884 0.644531 0.836872V22.9314C0.644531 23.3063 0.948914 23.6107 1.3239 23.6107H30.3117C30.6866 23.6107 30.991 23.3063 30.991 22.9314V0.836872C30.991 0.461912 30.6866 0.157501 30.3117 0.157501ZM24.6977 14.6505C24.4667 14.3549 24.0398 14.3031 23.7441 14.5341C23.4485 14.765 23.3967 15.192 23.6277 15.4877L28.9177 22.2523H2.71794L8.00802 15.4877C8.23898 15.192 8.1872 14.7653 7.89156 14.5341C7.59591 14.3031 7.16917 14.3549 6.93714 14.6505L2.00232 20.9598V2.456L15.3408 15.5528C15.473 15.682 15.6452 15.7477 15.8165 15.7477C15.9878 15.7477 16.16 15.6831 16.2922 15.5528L29.6323 2.456V20.9598L24.6977 14.6505ZM2.98639 1.51624H28.6509L15.8181 14.1158L2.98639 1.51624Z" fill="#BAACD2"/>
</svg>
