<svg width="16" height="13" viewBox="0 0 16 13" fill="none" xmlns="http://www.w3.org/2000/svg">
<path d="M3.39299 7.61695H1.47769C1.34602 7.61695 1.23828 7.72468 1.23828 7.85636C1.23828 7.98804 1.34602 8.09577 1.47769 8.09577H3.39299C3.52467 8.09577 3.6324 7.98804 3.6324 7.85636C3.6324 7.72468 3.52467 7.61695 3.39299 7.61695Z" fill="#BAACD2"/>
<path d="M3.39299 8.5746H1.47769C1.34602 8.5746 1.23828 8.68233 1.23828 8.81401C1.23828 8.94568 1.34602 9.05342 1.47769 9.05342H3.39299C3.52467 9.05342 3.6324 8.94568 3.6324 8.81401C3.6324 8.68233 3.52467 8.5746 3.39299 8.5746Z" fill="#BAACD2"/>
<path d="M3.39299 9.53224H1.47769C1.34602 9.53224 1.23828 9.63998 1.23828 9.77165C1.23828 9.90333 1.34602 10.0111 1.47769 10.0111H3.39299C3.52467 10.0111 3.6324 9.90333 3.6324 9.77165C3.6324 9.63998 3.52467 9.53224 3.39299 9.53224Z" fill="#BAACD2"/>
<path d="M6.50236 7.61695H4.58707C4.45539 7.61695 4.34766 7.72468 4.34766 7.85636C4.34766 7.98804 4.45539 8.09577 4.58707 8.09577H6.50236C6.63404 8.09577 6.74178 7.98804 6.74178 7.85636C6.74178 7.72468 6.63404 7.61695 6.50236 7.61695Z" fill="#BAACD2"/>
<path d="M6.50236 8.5746H4.58707C4.45539 8.5746 4.34766 8.68233 4.34766 8.81401C4.34766 8.94568 4.45539 9.05342 4.58707 9.05342H6.50236C6.63404 9.05342 6.74178 8.94568 6.74178 8.81401C6.74178 8.68233 6.63404 8.5746 6.50236 8.5746Z" fill="#BAACD2"/>
<path d="M6.50236 9.53224H4.58707C4.45539 9.53224 4.34766 9.63998 4.34766 9.77165C4.34766 9.90333 4.45539 10.0111 4.58707 10.0111H6.50236C6.63404 10.0111 6.74178 9.90333 6.74178 9.77165C6.74178 9.63998 6.63404 9.53224 6.50236 9.53224Z" fill="#BAACD2"/>
<path d="M12.7262 3.66679H10.5714C10.4398 3.66679 10.332 3.77452 10.332 3.9062C10.332 4.03788 10.4398 4.14561 10.5714 4.14561H12.7262C12.8578 4.14561 12.9656 4.03788 12.9656 3.9062C12.9656 3.77452 12.8578 3.66679 12.7262 3.66679Z" fill="#BAACD2"/>
<path d="M12.7262 4.62444H10.5714C10.4398 4.62444 10.332 4.73217 10.332 4.86385C10.332 4.99552 10.4398 5.10326 10.5714 5.10326H12.7262C12.8578 5.10326 12.9656 4.99552 12.9656 4.86385C12.9656 4.73217 12.8578 4.62444 12.7262 4.62444Z" fill="#BAACD2"/>
<path d="M15.243 9.04165C15.1712 9.00574 15.0874 9.00574 15.0156 9.02968C14.7881 7.34182 13.232 6.16878 11.556 6.39615C9.88008 6.62352 8.69511 8.17978 8.92249 9.85572C9.13796 11.388 10.4308 12.5252 11.9749 12.5252C12.7051 12.5252 13.4234 12.2618 13.974 11.783C14.0698 11.6992 14.0817 11.5436 13.9979 11.4478C13.9141 11.352 13.7585 11.3401 13.6628 11.4239C13.1959 11.8309 12.5974 12.0583 11.9749 12.0583C10.5145 12.0823 9.31742 10.9211 9.30546 9.46068C9.26955 8.00027 10.4307 6.80321 11.8911 6.77927C13.2198 6.75532 14.3451 7.72493 14.5366 9.02974C14.4169 8.96988 14.2733 9.02974 14.2134 9.13747C14.1775 9.2093 14.1775 9.29309 14.2254 9.35294L14.5726 9.96343C14.6324 10.0831 14.788 10.119 14.8958 10.0472C14.9317 10.0233 14.9676 9.99934 14.9796 9.96343L15.3267 9.35294C15.3985 9.25718 15.3507 9.11353 15.2429 9.04171L15.243 9.04165Z" fill="#BAACD2"/>
<path d="M0.517886 10.9687V2.70887H13.6855V6.27624C13.8531 6.372 14.0087 6.47974 14.1644 6.59943V2.70892C14.1644 2.44557 13.9489 2.2301 13.6855 2.2301H0.517886C0.254533 2.2301 0.0390625 2.44557 0.0390625 2.70892V10.9688C0.0390625 11.2321 0.254533 11.4476 0.517886 11.4476H9.04095C8.93322 11.292 8.84942 11.1364 8.76564 10.9688L0.517886 10.9687Z" fill="#BAACD2"/>
<path d="M2.19176 0.554433L14.8806 1.85924L14.6412 3.9062V7.0544C14.6771 7.09031 14.713 7.13819 14.7369 7.1741L15.3594 1.90704C15.3834 1.64369 15.1918 1.41623 14.9285 1.39232L2.23964 0.0755542C1.97629 0.051613 1.74884 0.255113 1.72492 0.51848L1.61719 1.75144H2.09601L2.19176 0.554433Z" fill="#BAACD2"/>
<path d="M12.7262 5.58208H10.5714C10.4398 5.58208 10.332 5.68982 10.332 5.8215C10.332 5.95317 10.4398 6.06091 10.5714 6.06091H10.6911C11.3974 5.7856 12.1875 5.74967 12.9177 5.95317C12.9895 5.84544 12.9656 5.68982 12.8578 5.618C12.8219 5.59406 12.774 5.58208 12.7262 5.58208Z" fill="#BAACD2"/>
<path d="M8.89741 7.61695H7.70035C7.56867 7.61695 7.46094 7.72468 7.46094 7.85636C7.46094 7.98804 7.56867 8.09577 7.70035 8.09577H8.66998C8.72983 7.92818 8.81363 7.77258 8.89742 7.61695H8.89741Z" fill="#BAACD2"/>
<path d="M8.51435 8.5746H7.70035C7.56867 8.5746 7.46094 8.68233 7.46094 8.81401C7.46094 8.94568 7.56867 9.05342 7.70035 9.05342H8.43057C8.45451 8.8978 8.47845 8.73023 8.51436 8.5746H8.51435Z" fill="#BAACD2"/>
<path d="M7.70035 9.53224C7.56867 9.53224 7.46094 9.63998 7.46094 9.77165C7.46094 9.90333 7.56867 10.0111 7.70035 10.0111H8.46647C8.44253 9.85545 8.41859 9.68787 8.41859 9.53224H7.70035Z" fill="#BAACD2"/>
</svg>
