<svg width="15" height="15" viewBox="0 0 15 15" fill="none" xmlns="http://www.w3.org/2000/svg">
<path d="M7.46895 0.478119C5.63936 0.478119 3.88462 1.20493 2.59084 2.49865C1.29713 3.79248 0.570312 5.547 0.570312 7.37675C0.570312 9.2065 1.29713 10.9611 2.59084 12.2549C3.88468 13.5486 5.63919 14.2754 7.46895 14.2754C9.2987 14.2754 11.0533 13.5486 12.347 12.2549C13.6408 10.961 14.3676 9.2065 14.3676 7.37675C14.3656 5.54774 13.6381 3.79443 12.3448 2.50094C11.0514 1.20768 9.2979 0.480206 7.469 0.478176L7.46895 0.478119ZM7.46895 13.7515C5.77826 13.7515 4.15675 13.0798 2.96131 11.8844C1.76587 10.6889 1.09423 9.06749 1.09423 7.37675C1.09423 5.68601 1.76587 4.06456 2.96131 2.86912C4.15675 1.67368 5.7782 1.00203 7.46895 1.00203C9.15969 1.00203 10.7811 1.67368 11.9766 2.86912C13.172 4.06456 13.8437 5.68601 13.8437 7.37675C13.8418 9.06686 13.1696 10.6872 11.9744 11.8821C10.7794 13.0772 9.15911 13.7494 7.46909 13.7513L7.46895 13.7515ZM7.46895 1.87537C6.38093 1.87537 5.31723 2.19796 4.41259 2.80251C3.50792 3.40704 2.80278 4.26617 2.38637 5.27146C1.97 6.27676 1.861 7.38287 2.07339 8.45016C2.28566 9.51731 2.80958 10.4976 3.57893 11.2669C4.34828 12.0363 5.32855 12.5603 6.39571 12.7726C7.46286 12.9849 8.56908 12.8759 9.5744 12.4595C10.5797 12.0431 11.4388 11.338 12.0434 10.4333C12.6479 9.52861 12.9705 8.46491 12.9705 7.37692C12.9688 5.91841 12.3887 4.52007 11.3574 3.48874C10.326 2.45743 8.92766 1.87735 7.46923 1.87566L7.46895 1.87537ZM7.7309 12.3408V11.5682C7.7309 11.4235 7.61366 11.3062 7.46895 11.3062C7.32423 11.3062 7.20699 11.4235 7.20699 11.5682V12.3408C5.97858 12.2749 4.81822 11.7564 3.94968 10.8852C3.08117 10.0141 2.5662 8.85202 2.504 7.62356C2.52801 7.63227 2.55324 7.6374 2.57881 7.63863H3.27738C3.4221 7.63863 3.53934 7.52139 3.53934 7.37667C3.53934 7.23196 3.4221 7.11471 3.27738 7.11471H2.57881C2.55324 7.11594 2.52801 7.12108 2.504 7.12979C2.56631 5.89861 3.08331 4.73442 3.95505 3.86276C4.82668 2.99102 5.99088 2.47402 7.22208 2.41171C7.21337 2.43571 7.20823 2.46095 7.207 2.48652V3.53435C7.207 3.67906 7.32425 3.79642 7.46896 3.79642C7.61368 3.79642 7.73092 3.67906 7.73092 3.53435V2.48652C7.7297 2.46095 7.72456 2.43572 7.71585 2.41171C8.94702 2.47401 10.1112 2.99102 10.9829 3.86276C11.8546 4.73439 12.3716 5.89859 12.4339 7.12979C12.4099 7.12108 12.3847 7.11594 12.3591 7.11471H11.6605C11.5158 7.11471 11.3986 7.23196 11.3986 7.37667C11.3986 7.52139 11.5158 7.63863 11.6605 7.63863H12.3591C12.3847 7.6374 12.4099 7.63227 12.4339 7.62356C12.3717 8.85207 11.8568 10.0141 10.9882 10.8852C10.1197 11.7564 8.95934 12.2749 7.73094 12.3408H7.7309ZM7.7309 6.45705V4.58236C7.7309 4.43764 7.61366 4.3204 7.46895 4.3204C7.32423 4.3204 7.20699 4.43764 7.20699 4.58236V6.45705C6.90672 6.54012 6.66609 6.76491 6.56247 7.05868C6.45896 7.35257 6.50563 7.67853 6.68753 7.93142L5.00748 9.57208C4.95768 9.62066 4.92921 9.68698 4.92831 9.75655C4.92753 9.82611 4.95433 9.89322 5.00302 9.94291C5.0517 9.9926 5.11814 10.021 5.1877 10.0216C5.25727 10.0224 5.32426 9.99539 5.37384 9.9466L7.09834 8.26263C7.3421 8.36547 7.61757 8.36301 7.85943 8.25582C8.10129 8.14862 8.2881 7.94618 8.37565 7.69652C8.46309 7.44684 8.44343 7.17203 8.32139 6.93731C8.19934 6.7026 7.98562 6.52874 7.73093 6.45705L7.7309 6.45705ZM7.46895 7.81328C7.35315 7.81328 7.24205 7.76727 7.16019 7.68543C7.07834 7.60358 7.03234 7.49247 7.03234 7.37667C7.03234 7.26088 7.07835 7.14978 7.16019 7.06792C7.24204 6.98607 7.35315 6.94007 7.46895 6.94007C7.58474 6.94007 7.69584 6.98608 7.7777 7.06792C7.85955 7.14977 7.90555 7.26088 7.90555 7.37667C7.90544 7.49247 7.85943 7.60346 7.77758 7.68531C7.69574 7.76716 7.58474 7.81317 7.46895 7.81328L7.46895 7.81328Z" fill="#BAACD2"/>
</svg>
