<svg width="15" height="13" viewBox="0 0 15 13" fill="none" xmlns="http://www.w3.org/2000/svg">
<path d="M7.91925 4.56292C7.82877 4.56292 7.75543 4.48958 7.75543 4.3991V2.36201C7.756 1.8316 7.96677 1.32323 8.34182 0.948197C8.71674 0.57316 9.22511 0.362275 9.75552 0.36169H14.3967C14.5317 0.359177 14.6622 0.411155 14.7585 0.505858C14.8549 0.600448 14.9092 0.72988 14.9092 0.865016C14.9092 1.00005 14.8549 1.12948 14.7585 1.22417C14.6622 1.31876 14.5317 1.37074 14.3967 1.36834H13.283C13.3404 1.52291 13.3187 1.69574 13.2246 1.83111C13.1306 1.9666 12.9763 2.04737 12.8114 2.04748H11.7238C11.7812 2.20193 11.7594 2.37488 11.6655 2.51025C11.5715 2.64562 11.4171 2.7265 11.2523 2.72662H9.75543C9.31196 2.72707 8.88688 2.90346 8.57329 3.21705C8.25981 3.53053 8.08343 3.95572 8.08297 4.39908C8.08297 4.44249 8.06572 4.48418 8.03499 4.51491C8.00426 4.54564 7.96256 4.56289 7.91915 4.56289L7.91925 4.56292ZM9.75551 0.689134C9.31204 0.689591 8.88685 0.865975 8.57325 1.17957C8.25978 1.49328 8.0834 1.91847 8.08305 2.36194V3.30384V3.30372C8.45227 2.7395 9.08103 2.39929 9.75551 2.39906H11.2524C11.2999 2.40054 11.3461 2.38261 11.3802 2.34948C11.4144 2.31635 11.4336 2.27088 11.4336 2.22325C11.4336 2.17572 11.4144 2.13014 11.3802 2.09701C11.3461 2.06389 11.2999 2.04595 11.2524 2.04744H10.2459C10.1555 2.04744 10.0822 1.97409 10.0822 1.88362C10.0822 1.79326 10.1555 1.71991 10.2459 1.71991H12.8117C12.9068 1.71694 12.9823 1.63915 12.9823 1.5441C12.9823 1.44905 12.9068 1.37114 12.8117 1.36829H11.4161C11.3257 1.36829 11.2524 1.29495 11.2524 1.20447C11.2524 1.11411 11.3257 1.04077 11.4161 1.04077H14.3967C14.4442 1.04214 14.4904 1.02432 14.5245 0.991187C14.5587 0.958058 14.578 0.912477 14.578 0.864954C14.578 0.817317 14.5587 0.77185 14.5245 0.738721C14.4904 0.705592 14.4442 0.687657 14.3967 0.689142L9.75551 0.689134ZM7.1502 4.56292C7.05972 4.56292 6.98638 4.48958 6.98638 4.3991C6.98592 3.95575 6.80954 3.53055 6.49606 3.21708C6.18246 2.90348 5.75739 2.72711 5.31392 2.72664H3.81705C3.6522 2.72664 3.49775 2.64587 3.40361 2.51039C3.30959 2.37502 3.28777 2.20206 3.34523 2.0475H2.25767C2.09271 2.04739 1.93838 1.96662 1.84435 1.83113C1.75022 1.69576 1.72852 1.52292 1.78598 1.36836H0.672624C0.537594 1.37076 0.407136 1.31878 0.310835 1.22419C0.214417 1.12949 0.160156 1.00006 0.160156 0.865036C0.160156 0.729892 0.21442 0.60046 0.310835 0.505879C0.407138 0.411175 0.537597 0.359198 0.672624 0.36171H5.3138C5.84421 0.362281 6.35258 0.573166 6.7275 0.948217C7.10253 1.32325 7.3133 1.83162 7.31389 2.36203V4.39912C7.31389 4.44253 7.29652 4.48423 7.26591 4.51496C7.23518 4.54569 7.19348 4.56294 7.15007 4.56294L7.1502 4.56292ZM3.81715 2.0475C3.76963 2.04602 3.72348 2.06395 3.68932 2.09708C3.65516 2.13021 3.63597 2.17579 3.63597 2.22331C3.63597 2.27095 3.65516 2.31642 3.68932 2.34955C3.72348 2.38268 3.76963 2.40061 3.81715 2.39913H5.31402C5.98838 2.39924 6.61715 2.73933 6.98648 3.30344V2.36201C6.98614 1.91854 6.80976 1.49335 6.49628 1.17964C6.18269 0.866048 5.75749 0.689672 5.31402 0.689204H0.672852C0.625329 0.687719 0.579178 0.705654 0.54502 0.738783C0.510862 0.771911 0.491557 0.817378 0.491557 0.865016C0.491557 0.912539 0.510863 0.95812 0.54502 0.991249C0.579176 1.02438 0.625329 1.0422 0.672852 1.04083H3.6535C3.74386 1.04083 3.8172 1.11417 3.8172 1.20453C3.8172 1.29501 3.74386 1.36835 3.6535 1.36835H2.25784C2.16279 1.37121 2.08728 1.44912 2.08728 1.54416C2.08728 1.63921 2.16279 1.71701 2.25784 1.71997H4.82362C4.91409 1.71997 4.98732 1.79331 4.98732 1.88368C4.98732 1.97416 4.91409 2.0475 4.82362 2.0475L3.81715 2.0475ZM13.5452 12.576H1.52435C1.30889 12.5757 1.10246 12.4901 0.950182 12.3377C0.797903 12.1854 0.712225 11.9788 0.711996 11.7635V5.76303C0.712339 5.54758 0.798018 5.34114 0.950296 5.18886C1.10257 5.03659 1.30913 4.95091 1.52446 4.95068H13.5453C13.7608 4.95091 13.9672 5.03659 14.1196 5.18886C14.2719 5.34114 14.3575 5.54758 14.3578 5.76303V11.7635C14.3575 11.9788 14.2719 12.1854 14.1196 12.3378C13.9673 12.4901 13.7607 12.5757 13.5453 12.576L13.5452 12.576ZM1.52435 5.27819C1.39583 5.2783 1.27257 5.32948 1.18163 5.4203C1.09069 5.51124 1.03963 5.63439 1.0394 5.76302V11.7635C1.03951 11.892 1.09069 12.0153 1.18163 12.1062C1.27245 12.1972 1.39571 12.2483 1.52435 12.2484H13.5452C13.6738 12.2483 13.7971 12.1972 13.8879 12.1062C13.9788 12.0153 14.03 11.892 14.0301 11.7635V5.76302C14.0299 5.63439 13.9788 5.51124 13.8879 5.4203C13.797 5.32948 13.6737 5.2783 13.5452 5.27819H1.52435ZM11.737 11.7571H3.33227C3.24179 11.7571 3.16845 11.6838 3.16845 11.5933C3.16799 11.2026 3.01263 10.8279 2.7363 10.5516C2.45997 10.2752 2.08537 10.1198 1.69457 10.1194C1.60409 10.1194 1.53075 10.0461 1.53075 9.95559V7.57099C1.53075 7.48051 1.60409 7.40717 1.69457 7.40717C2.08537 7.40671 2.45996 7.25135 2.7363 6.97502C3.01264 6.69868 3.16801 6.32397 3.16845 5.93328C3.16845 5.84281 3.24179 5.76946 3.33227 5.76946H11.737C11.7804 5.76946 11.8221 5.78671 11.8528 5.81744C11.8835 5.84817 11.9008 5.88976 11.9008 5.93328C11.9012 6.32396 12.0566 6.69868 12.3329 6.97501C12.6093 7.25136 12.9839 7.40673 13.3747 7.40717C13.4181 7.40717 13.4598 7.42442 13.4905 7.45515C13.5212 7.48588 13.5385 7.52746 13.5385 7.57098V9.95559C13.5385 9.99911 13.5212 10.0407 13.4905 10.0714C13.4598 10.1021 13.4181 10.1194 13.3747 10.1194C12.9839 10.1199 12.6093 10.2752 12.3329 10.5516C12.0566 10.8279 11.9012 11.2026 11.9008 11.5933C11.9008 11.6368 11.8835 11.6784 11.8528 11.7091C11.8221 11.7399 11.7804 11.7571 11.737 11.7571V11.7571ZM3.48873 11.4296H11.5808C11.6196 11.0103 11.8039 10.6178 12.1016 10.3201C12.3995 10.0223 12.7919 9.83803 13.2112 9.7992V7.72737C12.792 7.68841 12.3994 7.50415 12.1017 7.20646C11.8039 6.90874 11.6198 6.51622 11.5808 6.09696H3.48961C3.45077 6.51622 3.2665 6.90874 2.9687 7.20646C2.67098 7.50417 2.27857 7.68841 1.85932 7.72737V9.7992C2.27857 9.83804 2.67098 10.0223 2.96881 10.3201C3.26653 10.6178 3.45077 11.0103 3.48964 11.4296H3.48873ZM7.53477 10.34C7.11653 10.34 6.71544 10.1739 6.4198 9.87813C6.12405 9.58237 5.95794 9.1814 5.95794 8.76316C5.95794 8.34493 6.12415 7.94384 6.41992 7.6482C6.71556 7.35245 7.11665 7.18634 7.53488 7.18645C7.95312 7.18645 8.35409 7.35255 8.64985 7.64832C8.94548 7.94407 9.1116 8.34517 9.1116 8.7634C9.11114 9.1814 8.94481 9.58214 8.64917 9.87778C8.35365 10.1733 7.95279 10.3395 7.5348 10.34H7.53477ZM7.53477 7.51397C7.20348 7.51397 6.88568 7.64557 6.65148 7.87988C6.41718 8.11407 6.28557 8.43188 6.28545 8.76316C6.28545 9.09445 6.41705 9.41214 6.65136 9.64645C6.88568 9.88076 7.20336 10.0124 7.53465 10.0125C7.86594 10.0125 8.18374 9.88088 8.41805 9.64668C8.65235 9.41238 8.78396 9.09468 8.78408 8.7634C8.78362 8.43211 8.65191 8.11451 8.41773 7.88035C8.18354 7.64616 7.86597 7.51432 7.5348 7.51399L7.53477 7.51397ZM12.037 8.7634C12.037 8.71987 12.0198 8.67829 11.989 8.64756C11.9583 8.61683 11.9167 8.59958 11.8732 8.59958H10.2748H10.2749C10.1844 8.59958 10.1111 8.67292 10.1111 8.7634C10.1111 8.85376 10.1844 8.92711 10.2749 8.92711H11.8733H11.8732C11.9637 8.92711 12.037 8.85376 12.037 8.7634L12.037 8.7634ZM4.95858 8.7634C4.95858 8.71987 4.94133 8.67829 4.9106 8.64756C4.87987 8.61683 4.83829 8.59958 4.79476 8.59958H3.19635H3.19647C3.10599 8.59958 3.03265 8.67292 3.03265 8.7634C3.03265 8.85376 3.10599 8.92711 3.19647 8.92711H4.79488H4.79476C4.88524 8.92711 4.95858 8.85376 4.95858 8.7634L4.95858 8.7634Z" fill="#BAACD2"/>
</svg>
