<svg id="Layer_1" enable-background="new 0 0 66 66" viewBox="0 0 66 66" xmlns="http://www.w3.org/2000/svg"><g><path d="m18.9 50.4c1.9 0 3.5-1.5 3.5-3.4s-1.6-3.4-3.5-3.4-3.5 1.5-3.5 3.4 1.6 3.4 3.5 3.4zm0-4.8c.8 0 1.5.6 1.5 1.4s-.7 1.4-1.5 1.4-1.5-.6-1.5-1.4.7-1.4 1.5-1.4z"/><path d="m31.7 50.4c1.9 0 3.5-1.5 3.5-3.4s-1.6-3.4-3.5-3.4-3.5 1.5-3.5 3.4c.1 1.9 1.6 3.4 3.5 3.4zm0-4.8c.8 0 1.5.6 1.5 1.4s-.7 1.4-1.5 1.4-1.5-.6-1.5-1.4.7-1.4 1.5-1.4z"/><path d="m44.5 50.4c1.9 0 3.5-1.5 3.5-3.4s-1.6-3.4-3.5-3.4-3.5 1.5-3.5 3.4 1.5 3.4 3.5 3.4zm0-4.8c.8 0 1.5.6 1.5 1.4s-.7 1.4-1.5 1.4-1.5-.6-1.5-1.4.7-1.4 1.5-1.4z"/><path d="m64.8 14.9c-.1-.4-.4-.8-.8-.9s-2.8-.2-5.6 4.6c-1.3.5-4.5 1.9-4.5 4.2 0 1.4 1.1 2.6 3.5 3.7-.4.5-1.2 1.2-2.3 1.7-4.5-3.9-11.2-6.5-18.6-7.1 1.8-.7 4.7-2 4.9-4.1.1-1.6-1.2-3-4.1-4.3-.4-1.2-1.8-4.4-4.1-4.5-1.7-.1-3.4 1.3-4.9 4.5-1.2.5-4 2-4 4.1.1 1.7 1.7 3 5.2 4.1v.3c-7.3.7-13.9 3.3-18.4 7.4-1.2-.4-2.1-1-2.8-1.8 1.5-.6 3.7-1.8 3.8-3.7.1-2.2-2.6-3.6-4.8-4.5-.6-1.1-2.2-4-4-4.6-.6-.2-1.2-.2-1.7.1-.4.2-.6.5-.6.9-.3 10.7 4.8 23.4 6.9 26.9.2.3.5.5.9.5h.1v9.5c-1.2.4-2.1 1.6-2.1 2.9 0 1.7 1.4 3.1 3.1 3.1h46c1.7 0 3.1-1.4 3.1-3.1 0-1.2-.7-2.3-1.8-2.8v-9.8c.3 0 .6-.2.7-.5 3.7-6.8 8-18.4 6.9-26.8zm-11.8 14.1c-6.3 1.5-12.9 0-15.9-5.8 6.2.6 11.8 2.6 15.9 5.8zm-24-5.8c-2 5.9-9.5 7.3-15.6 6 4-3.2 9.5-5.3 15.6-6zm12.8 19.1h13.4v9.4h-44.3v-9.3c5.3 0 19.6-.1 30.9-.1zm14.1 13.5h-46c-.6 0-1.1-.5-1.1-1.1s.5-1.1 1.1-1.1h46c.6 0 1.1.5 1.1 1.1 0 .7-.5 1.1-1.1 1.1zm.5-15.6c-1.9 0-7.7 0-14.6.1h-31.9c-1.6 0-6.7-12.7-6.9-24.1.9.7 2.1 2.5 2.6 3.7.1.2.3.4.5.5 3.9 1.5 3.9 2.6 3.9 2.7 0 .7-1.9 1.8-3.6 2.3-.3.1-.5.3-.6.6s-.1.6 0 .8c4.1 8.1 26.7 6.6 25.6-6.6 0-.4-.3-.8-.7-.9-4.3-1.3-4.4-2.4-4.5-2.5 0-.7 1.6-1.8 3-2.4.2-.1.4-.3.5-.5 1.7-3.5 2.8-3.7 3.1-3.7 1 .1 2.1 2.2 2.5 3.6.1.3.3.5.6.6 3.2 1.4 3.3 2.3 3.3 2.5-.1.9-2.6 2.2-4.7 2.7-.3.1-.5.2-.6.5-.1.2-.2.5-.1.8 4.5 14.7 22.9 12 25.8 5.6.1-.3.1-.5 0-.8s-.3-.5-.6-.6c-3.3-1.2-3.4-2.2-3.4-2.3 0-.7 1.9-1.9 3.5-2.4.2-.1.4-.2.5-.4 1.3-2.3 2.4-3.2 3-3.6.9 7.4-2.8 17.3-6.2 23.8z"/><path d="m33.3 29.5c-2.3 0-4.2 2.1-4.2 4.8 0 2.6 1.9 4.8 4.2 4.8s4.2-2.1 4.2-4.8-1.9-4.8-4.2-4.8zm0 7.5c-1.2 0-2.2-1.2-2.2-2.8 0-1.5 1-2.8 2.2-2.8s2.2 1.2 2.2 2.8-1 2.8-2.2 2.8z"/></g></svg>