<svg width="16" height="13" viewBox="0 0 16 13" fill="none" xmlns="http://www.w3.org/2000/svg">
<path d="M1.73864 2.54813V12.3912H1.0625V2.54813H1.73864Z" fill="#BAACD2"/>
<path d="M0.378906 12.0506H2.41637V12.7313H0.378906V12.0506Z" fill="#BAACD2"/>
<path d="M1.39589 0.510376C1.77153 0.510376 2.11187 0.660694 2.35494 0.908148C2.60239 1.1556 2.75271 1.49154 2.75271 1.8672C2.75271 2.24285 2.60239 2.58318 2.35494 2.82625C2.10749 3.0737 1.77155 3.22403 1.39589 3.22403C1.02024 3.22403 0.679905 3.07371 0.436835 2.82625C0.189385 2.5788 0.0390625 2.24286 0.0390625 1.8672C0.0390625 1.49156 0.189381 1.15122 0.436835 0.908148C0.684133 0.665093 1.02446 0.510376 1.39589 0.510376ZM1.87761 1.39002C1.75381 1.26622 1.58591 1.19106 1.39589 1.19106C1.21026 1.19106 1.03782 1.26622 0.91417 1.39002C0.790369 1.51382 0.71521 1.68172 0.71521 1.87174C0.71521 2.05737 0.790369 2.22981 0.91417 2.35346C1.03797 2.47726 1.20587 2.55242 1.39589 2.55242C1.58152 2.55242 1.75396 2.47726 1.87761 2.35346C2.00141 2.22966 2.07657 2.06176 2.07657 1.87174C2.07641 1.68172 2.00141 1.51382 1.87761 1.39002Z" fill="#BAACD2"/>
<path d="M14.6376 2.54813V12.3912H13.957V2.54813H14.6376Z" fill="#BAACD2"/>
<path d="M13.2773 12.0506H15.3148V12.7313H13.2773V12.0506Z" fill="#BAACD2"/>
<path d="M14.2982 0.510376C14.6739 0.510376 15.0142 0.660694 15.2573 0.908148C15.5047 1.1556 15.6551 1.49154 15.6551 1.8672C15.6551 2.24285 15.5047 2.58318 15.2573 2.82625C15.0098 3.0737 14.6739 3.22403 14.2982 3.22403C13.9226 3.22403 13.5822 3.07371 13.3392 2.82625C13.0917 2.5788 12.9414 2.24286 12.9414 1.8672C12.9414 1.49156 13.0917 1.15122 13.3392 0.908148C13.5822 0.665093 13.9226 0.510376 14.2982 0.510376ZM14.7757 1.39002C14.6519 1.26622 14.484 1.19106 14.294 1.19106C14.1084 1.19106 13.9359 1.26622 13.8123 1.39002C13.6885 1.51382 13.6133 1.68172 13.6133 1.87174C13.6133 2.05737 13.6885 2.22981 13.8123 2.35346C13.9361 2.47726 14.104 2.55242 14.294 2.55242C14.4796 2.55242 14.6521 2.47726 14.7757 2.35346C14.8995 2.22966 14.9747 2.06176 14.9747 1.87174C14.9745 1.68172 14.8994 1.51382 14.7757 1.39002Z" fill="#BAACD2"/>
<path d="M2.541 1.55351C4.29572 2.2563 6.05924 2.57013 7.82718 2.54801C9.59951 2.53029 11.3807 2.17676 13.1665 1.54474L13.3874 2.18558C11.5312 2.83535 9.67916 3.2022 7.83165 3.22416C5.97538 3.24628 4.1278 2.91913 2.28906 2.181L2.541 1.55351Z" fill="#BAACD2"/>
</svg>
