<svg width="14" height="17" viewBox="0 0 14 17" fill="none" xmlns="http://www.w3.org/2000/svg">
<path d="M12.9682 1.82884H11.3444V0.795858C11.3444 0.35711 10.9879 0 10.5491 0H2.71826C2.27892 0 1.9224 0.356985 1.9224 0.795858V1.82934H0.300284C0.134082 1.82934 0 1.96342 0 2.12914V5.29936C0 6.15082 1.00841 7.64763 3.23657 8.38568C3.91843 9.08444 4.79165 9.72553 5.68289 10.1921V13.2419H4.70014C4.30229 13.2419 3.89017 13.521 3.74247 13.8906L3.16904 15.3247C3.08399 15.5394 3.09981 15.7597 3.2154 15.9291C3.32989 16.0986 3.52881 16.1957 3.75939 16.1957H9.50772C9.7389 16.1957 9.93672 16.0988 10.0517 15.9291C10.1667 15.7597 10.1836 15.5394 10.0975 15.3247L9.52463 13.8901C9.37692 13.5205 8.96481 13.2419 8.56634 13.2419H7.58359V10.1921C8.47532 9.7255 9.34855 9.08501 10.0299 8.38564C12.2588 7.6476 13.2665 6.15029 13.2665 5.29933L13.2664 2.12849C13.267 1.96277 13.1329 1.82869 12.9677 1.82869L12.9682 1.82884ZM0.600331 5.29871V2.42838H1.92327V5.91849C1.92327 6.38838 2.11673 6.89307 2.43733 7.39461C1.1542 6.70292 0.600331 5.75826 0.600331 5.29871ZM8.9685 14.1129L9.54134 15.5471C9.5512 15.5699 9.55278 15.5853 9.55497 15.5901C9.5473 15.5928 9.53258 15.5967 9.50812 15.5967L3.76011 15.5966C3.73723 15.5966 3.7236 15.5933 3.71704 15.5933H3.71594C3.71545 15.5851 3.71752 15.5704 3.72689 15.5469L4.30032 14.1123C4.35641 13.9727 4.55109 13.8408 4.70098 13.8408H8.56767C8.71708 13.8408 8.91213 13.9727 8.96832 14.1129L8.9685 14.1129ZM6.98551 13.2419H6.28284V10.4756C6.36351 10.5105 6.44479 10.5475 6.52546 10.5786C6.56038 10.5923 6.59688 10.5988 6.63399 10.5988C6.6711 10.5988 6.70869 10.5923 6.74349 10.5786C6.82306 10.547 6.90434 10.5105 6.98501 10.4762L6.98489 13.2419L6.98551 13.2419ZM6.63388 9.97633C4.46827 9.09055 2.52237 7.17839 2.52237 5.91871V0.796138C2.52237 0.687607 2.6107 0.599882 2.71862 0.599882H10.5495C10.6569 0.599882 10.7451 0.687607 10.7451 0.796138V5.91871C10.7457 7.17836 8.79974 9.09018 6.63425 9.97633H6.63388ZM12.6681 5.29887C12.6681 5.75892 12.1143 6.70625 10.8285 7.39795C11.1501 6.89532 11.3447 6.38954 11.3447 5.91855L11.3446 2.42844H12.668L12.6681 5.29887Z" fill="#BAACD2"/>
<path d="M9.3205 3.61287L7.88088 3.40359C7.81493 3.39434 7.70701 3.31587 7.67757 3.25588L7.03331 1.95094C6.94717 1.77476 6.80055 1.6739 6.63215 1.6739C6.46425 1.6739 6.31825 1.77525 6.231 1.95192L5.58724 3.25686C5.5578 3.31623 5.44938 3.39532 5.38393 3.40456L3.94384 3.61384C3.74868 3.64268 3.60695 3.75011 3.55521 3.90987C3.50289 4.06962 3.55411 4.24019 3.69525 4.37758L4.73687 5.39306C4.78481 5.43942 4.8263 5.56693 4.81486 5.63178L4.56908 7.06592C4.54232 7.21959 4.57565 7.36024 4.6607 7.46221C4.78821 7.61321 5.01124 7.64752 5.21831 7.5385L6.50633 6.86154C6.54563 6.84134 6.71293 6.83805 6.75819 6.86154L8.04572 7.5385C8.12797 7.58206 8.21192 7.60396 8.29259 7.60396C8.41633 7.60396 8.52644 7.55323 8.60334 7.46221C8.68839 7.36026 8.7216 7.22021 8.69496 7.06592L8.44918 5.63241C8.43774 5.56695 8.47911 5.43944 8.52717 5.39308L9.56879 4.3776C9.70992 4.24023 9.76115 4.06965 9.70883 3.90988C9.65736 3.74915 9.51562 3.64172 9.32045 3.61288L9.3205 3.61287ZM8.10879 4.96306C7.9191 5.14837 7.81386 5.47214 7.85863 5.73325L8.05209 6.86382L7.03711 6.33017C6.81202 6.2113 6.45334 6.2113 6.22764 6.33017L5.21216 6.86382L5.40561 5.73325C5.45087 5.47215 5.34624 5.14839 5.15594 4.96306L4.33467 4.16222L5.46951 3.99711C5.7322 3.95952 6.00753 3.75888 6.1247 3.52127L6.6322 2.49326L7.14019 3.52186C7.25735 3.76009 7.53318 3.96011 7.79479 3.9977L8.92963 4.16281L8.10879 4.96306Z" fill="#BAACD2"/>
</svg>
