<svg id="Layer_3" enable-background="new 0 0 64 64" height="512" viewBox="0 0 64 64" width="512" xmlns="http://www.w3.org/2000/svg"><g><path d="m26.848 44h22.152c.553 0 1-.448 1-1v-16c0-.552-.447-1-1-1h-34c-.553 0-1 .448-1 1v5.122c-.524-.075-1.053-.122-1.586-.122-1.733 0-3.469.41-5.02 1.185l-1.158.579c-1.617.809-3.427 1.236-5.235 1.236v2c2.116 0 4.236-.5 6.13-1.447l1.158-.579c3.144-1.57 7.146-1.145 9.887 1.047l5.763 4.61c.675.541 1.062 1.346 1.062 2.209 0 .561-.164 1.104-.476 1.57l-.802 1.203-8.168-5.445-1.109 1.664 9 6c.118.079.254.133.398.156l16.724 2.641c.83.13 1.432.835 1.432 1.676 0 .934-.761 1.695-1.696 1.695h-15.304c-2.462 0-4.927-.582-7.129-1.683l-5.74-2.87c-1.894-.947-4.014-1.447-6.13-1.447h-5v2h5c1.808 0 3.618.427 5.235 1.236l5.74 2.87c2.479 1.239 5.253 1.894 8.024 1.894h15.304c2.038 0 3.696-1.658 3.696-3.695 0-1.831-1.312-3.366-3.119-3.652l-15.182-2.397.49-.736c.312-.467.526-.983.659-1.52zm17.253-2c.399-1.956 1.943-3.5 3.899-3.899v3.899zm3.899-10.101c-1.956-.399-3.5-1.943-3.899-3.899h3.899zm-28.101-3.899c-.399 1.956-1.943 3.5-3.899 3.899v-3.899zm5.289 11.069-3.836-3.069h3.648v-2h-4v1.719l-1.574-1.259c-.501-.401-1.036-.756-1.595-1.063 2.159-.96 3.741-2.98 4.089-5.396h20.16c.441 3.059 2.861 5.479 5.92 5.92v2.16c-3.059.441-5.479 2.861-5.92 5.92h-15.159c-.202-1.148-.804-2.188-1.733-2.932z"/><path d="m32 40c2.757 0 5-2.243 5-5s-2.243-5-5-5-5 2.243-5 5 2.243 5 5 5zm0-8c1.654 0 3 1.346 3 3s-1.346 3-3 3-3-1.346-3-3 1.346-3 3-3z"/><path d="m39 34h4v2h-4z"/><path d="m39 11h-4v-2c0-.347-.18-.668-.475-.851s-.663-.199-.973-.044l-12 6c-.338.17-.552.516-.552.895s.214.725.553.895l12 6c.311.154.679.138.973-.044.294-.183.474-.504.474-.851v-2h4c8.822 0 16 7.178 16 16 0 .552.447 1 1 1h6c.553 0 1-.448 1-1 0-13.233-10.767-24-24-24zm17.973 23c-.521-9.462-8.383-17-17.973-17h-5c-.553 0-1 .448-1 1v1.382l-8.764-4.382 8.764-4.382v1.382c0 .552.447 1 1 1h5c11.796 0 21.452 9.332 21.978 21z"/></g></svg>