<?xml version="1.0" encoding="utf-8"?>
<!-- Generator: Adobe Illustrator 26.5.0, SVG Export Plug-In . SVG Version: 6.00 Build 0)  -->
<svg version="1.1" id="Layer_1" xmlns="http://www.w3.org/2000/svg" xmlns:xlink="http://www.w3.org/1999/xlink" x="0px" y="0px"
	 viewBox="0 0 1000 1000" style="enable-background:new 0 0 1000 1000;" xml:space="preserve">
<style type="text/css">
	.st0{fill:#BAACD2;}
</style>
<g>
	<g transform="translate(0.000000,512.000000) scale(0.100000,-0.100000)">
		<path class="st0" d="M2885.699951,4994.600098C2575.599854,4918,2332.5,4665.300293,2265.5,4355.200195
			c-13.399902-61.299805-21.100098-312-21.100098-635.600098v-536h-536c-323.5,0-574.300049-7.699951-635.599976-21.100098
			c-317.799988-68.899902-576.200012-327.399902-645.099976-645.100098
			c-34.5-160.800049-28.700012-6527.899902,5.700012-6656.200195c80.400024-306.299805,308.200012-534.100098,614.499939-614.5
			c78.5-21.100098,641.300049-26.799805,3034.199951-26.799805s2955.699951,5.799805,3034.199951,26.799805
			c304.399902,80.399902,534.100098,310.100098,614.5,614.5c19.100098,68.899902,26.799805,247,26.799805,647v549.399902h536
			c323.5,0,574.299805,7.699951,635.599609,21.100098c306.299805,65.100098,557.099609,308.199951,639.400391,620.300049
			c21.099609,78.5,26.799805,572.400024,26.799805,2609.199951c0,2262.800049-3.799805,2519.300049-30.599609,2574.800049
			c-42.099609,84.199951-2010,2056.000244-2098.100098,2101.899658c-68.899902,34.5-132.100098,36.399902-2278,34.5
			C3500.199951,5017.600098,2958.399902,5011.799805,2885.699951,4994.600098z M6900.100098,3463.100098
			C6905.800293,2542.300049,6907.700195,2515.5,6946,2461.900146c21.100098-28.699951,76.600098-72.699951,122.5-95.699951
			c84.200195-44,88-44,999.299805-44h915L8979,63.299999l-5.700195-2258.899902l-63.200195-61.300049l-61.299805-63.199951
			H5919.899902H2991l-61.300049,63.199951L2866.5-2195.599854v3233.300049V4271l47.899902,51.700195
			c26.800049,28.700195,65.100098,59.299805,86.100098,67c21.100098,9.600098,905.5,17.200195,1966,17.200195l1927.700195,1.899902
			L6900.100098,3463.100098z M8092.700195,3509.100098L8667,2934.800049h-580h-578.100098v574.300049
			c0,315.899902,1.899902,574.300049,5.700195,574.300049C7516.5,4083.399902,7776.799805,3825,8092.700195,3509.100098z
			 M2244.399902,183.899994c0-1933.5,5.699951-2408.199951,26.800049-2484.800049
			c82.300049-312,333.100098-555.199951,639.400146-620.300049c70.800049-15.300049,710.199951-21.100098,2168.899902-21.100098
			H7147l-5.700195-545.600098l-5.700195-545.600098l-63.200195-61.300049l-61.299805-63.199951H4082.199951h-2929
			l-61.300049,63.199951l-63.199951,61.300049v3233.300049v3233.300049l47.900024,51.699951
			c26.800049,28.699951,65.099976,59.399902,86.099976,67c21.099976,9.600098,273.800049,17.199951,560.900024,17.199951
			l520.700073,1.899902V183.899994H2244.399902z"/>
		<path class="st0" d="M3651.399902,3769.399902c-128.300049-55.5-201-202.899902-174.199951-346.5
			c17.199951-90,112.899902-195.300049,199.100098-220.100098c47.899902-15.300049,453.699951-19.100098,1242.400146-15.300049
			c1152.399902,5.699951,1171.600098,5.699951,1225.200195,45.899902c187.600098,139.699951,187.600098,373.300049,0,513
			c-53.600098,40.199951-70.799805,40.199951-1244.299805,44C3938.600098,3794.300049,3697.399902,3790.5,3651.399902,3769.399902z"
			/>
		<path class="st0" d="M3651.399902,2544.300049c-128.300049-55.5-201-202.899902-174.199951-346.5
			c17.199951-90,112.899902-195.300049,199.100098-220.199951c47.899902-15.300049,453.699951-19.099976,1242.400146-15.300049
			C6071.100098,1968,6090.300293,1968,6143.900391,2008.200073c187.600098,139.700073,187.600098,373.299927,0,513.000122
			c-53.600098,40.199951-70.799805,40.199951-1244.299805,44
			C3938.600098,2569.100098,3697.399902,2565.300049,3651.399902,2544.300049z"/>
		<path class="st0" d="M3651.399902,1319.099976c-128.300049-55.5-201-202.900024-174.199951-346.5
			c17.199951-90,112.899902-195.299988,199.100098-220.099976C3724.199951,737.200012,4443.899902,733.400024,5962,737.200012
			c2201.5,5.700012,2214.899902,5.700012,2266.599609,45.900024c101.5,74.700012,132.099609,135.899963,132.099609,256.500061
			c0,120.599976-30.599609,181.900024-132.099609,256.5c-51.700195,40.199951-63.200195,40.199951-2285.700195,44
			C4114.700195,1344,3697.399902,1340.199951,3651.399902,1319.099976z"/>
		<path class="st0" d="M3651.399902,93.900002c-128.300049-55.5-201-202.899994-174.199951-346.5
			c17.199951-90,112.899902-195.300018,199.100098-220.199982c47.899902-15.299988,629.800049-19.100006,1826.300049-15.299988
			c1738.199707,5.700012,1755.399902,5.700012,1807.100098,46c101.5,74.600006,132.100098,135.899994,132.100098,256.5
			s-30.600098,181.899994-132.100098,256.5c-51.700195,40.199997-68.899902,40.199997-1826.299805,44
			C4038.100098,118.800003,3697.399902,115,3651.399902,93.900002z"/>
	</g>
</g>
</svg>
