<svg width="12" height="16" viewBox="0 0 12 16" fill="none" xmlns="http://www.w3.org/2000/svg">
<path d="M10.4926 15.9998H1.50722C1.10762 15.9993 0.72449 15.8339 0.441899 15.5398C0.159317 15.2459 0.000467093 14.8473 0 14.4316V12.9713C0 8.15044 2.93655 4.90938 4.10166 3.81364C3.90415 3.69975 3.75829 3.50852 3.6966 3.28254C3.63491 3.05642 3.66239 2.81405 3.77301 2.60918C3.88362 2.40418 4.06812 2.25364 4.2857 2.19065L3.66467 0.944791C3.56511 0.746796 3.5731 0.508833 3.68554 0.318415C3.8818 -0.052309 4.29267 0.0230202 4.63648 0.0104349C5.12672 -0.0195789 5.70784 -0.0100883 6.00103 0.456719C6.28761 -0.010095 6.86828 -0.0206637 7.3641 0.0103134C7.72262 0.0249052 8.11559 -0.0601535 8.31699 0.31887C8.42921 0.509392 8.43673 0.747236 8.33695 0.945004L7.71624 2.19098C7.93382 2.25421 8.11823 2.405 8.22861 2.61012C8.339 2.81511 8.36626 3.05746 8.30434 3.2836C8.24253 3.50959 8.09656 3.7007 7.89881 3.81446C9.06473 4.91108 11.9999 8.15187 11.9999 12.9716V14.4318H12C11.9995 14.8475 11.8407 15.2461 11.5581 15.54C11.2755 15.8341 10.8925 15.9995 10.4928 16L10.4926 15.9998ZM4.80957 3.88225C4.26823 4.33175 0.510854 7.64658 0.510854 12.9716V14.4319C0.511196 14.7066 0.616224 14.9701 0.80302 15.1645C0.98981 15.3588 1.24296 15.4682 1.50719 15.4686H10.4926C10.7568 15.4682 11.0101 15.3589 11.1969 15.1645C11.3836 14.9702 11.4887 14.7067 11.4889 14.4319V12.9716C11.4889 7.64658 7.73176 4.33202 7.19022 3.88225H4.80957ZM4.40393 2.71207C4.095 2.71859 4.09693 3.34795 4.40837 3.35065C4.42536 3.34971 7.13987 3.35137 7.27912 3.35065H7.59797C7.81897 3.34603 7.82548 3.06368 7.82548 3.03141C7.82548 2.99949 7.81852 2.71799 7.59547 2.71192L4.40393 2.71207ZM4.85595 2.1806H7.14649L7.88339 0.700315V0.700433C7.90129 0.668402 7.90163 0.628897 7.88418 0.59663C7.86674 0.564362 7.83412 0.544075 7.79854 0.543364C7.42621 0.583224 6.68873 0.423191 6.47492 0.696993C6.31128 0.876721 6.08195 1.32386 5.80689 1.03795L5.53696 0.709474C5.30923 0.416928 4.57417 0.586571 4.19042 0.542322C4.1577 0.54861 4.12987 0.570913 4.11562 0.602233C4.10136 0.633553 4.1025 0.670091 4.11858 0.700461L4.85595 2.1806ZM6.001 12.7037C5.18861 12.7248 4.40314 12.4005 3.82587 11.8057C3.24851 11.2107 2.9292 10.3968 2.94163 9.55156C3.08156 5.32894 8.91575 5.32894 9.06026 9.54254C9.07462 10.3891 8.75612 11.2052 8.17865 11.8019C7.60129 12.3986 6.81465 12.7244 6.001 12.7037V12.7037ZM6.001 6.89125C2.48613 7.07668 2.77865 12.1902 6.001 12.1723C9.2146 12.1916 9.52405 7.07864 6.001 6.89156V6.89125ZM5.99998 11.5144C5.72492 11.5066 5.73541 11.2215 5.74453 11.0102H5.42227C5.28303 11.0074 5.17162 10.8892 5.17162 10.7445C5.17162 10.5997 5.28303 10.4815 5.42227 10.4788H5.99998C6.17548 10.4738 6.31494 10.3237 6.31369 10.1412C6.31243 9.95858 6.17103 9.81052 5.99554 9.80815C5.73075 9.80281 5.48419 9.66733 5.3306 9.44301C5.177 9.21868 5.13458 8.93207 5.21611 8.67001C5.29765 8.40795 5.49367 8.20165 5.74457 8.11364V7.83616C5.74719 7.69143 5.86077 7.57552 6.00001 7.57552C6.13925 7.57552 6.25283 7.69143 6.25545 7.83616V8.07461H6.57771V8.07473C6.71695 8.07746 6.82836 8.19561 6.82836 8.34046C6.82836 8.48519 6.71695 8.60335 6.57771 8.6062H6.00001C5.82451 8.61106 5.68504 8.76113 5.6863 8.9437C5.68755 9.12627 5.82896 9.27433 6.00445 9.2767C6.26924 9.28204 6.51591 9.4174 6.6695 9.64175C6.8231 9.86596 6.86564 10.1527 6.78399 10.4147C6.70234 10.6768 6.50631 10.8831 6.25545 10.971C6.25955 11.1874 6.29285 11.5064 6 11.5145L5.99998 11.5144Z" fill="#BAACD2"/>
</svg>
