<svg width="17" height="15" viewBox="0 0 17 15" fill="none" xmlns="http://www.w3.org/2000/svg">
<path d="M1.65839 14.0935H3.91139C4.07422 14.0935 4.18291 13.9851 4.18291 13.822L4.18272 3.04564C4.18272 2.8828 4.07422 2.77411 3.9112 2.77411H1.6582C1.49536 2.77411 1.38667 2.88261 1.38667 3.04564V13.822C1.38686 13.9849 1.49536 14.0934 1.65839 14.0934L1.65839 14.0935ZM1.92972 3.31716H3.63988V13.5507H1.92972V3.31716ZM5.45856 5.21723C5.29572 5.21723 5.18704 5.32573 5.18704 5.48875V13.8221C5.18704 13.985 5.29554 14.0937 5.45856 14.0937H7.71156C7.8744 14.0937 7.98308 13.9852 7.98308 13.8221V5.48875C7.98308 5.32591 7.87459 5.21723 7.71156 5.21723H5.45856ZM7.44007 13.5506H5.72991L5.7301 5.76012H7.44026L7.44007 13.5506ZM9.23166 7.44308C9.06882 7.44308 8.96013 7.55158 8.96013 7.71461V13.8493C8.96013 14.0121 9.06863 14.1208 9.23166 14.1208H11.4847C11.6475 14.1208 11.7562 14.0123 11.7562 13.8493V7.71461C11.7562 7.55177 11.6477 7.44308 11.4847 7.44308H9.23166ZM11.2132 13.5506H9.503L9.50319 7.98598H11.2133L11.2132 13.5506ZM12.7605 9.83185V13.8492C12.7605 14.012 12.869 14.1207 13.032 14.1207H15.285C15.4479 14.1207 15.5565 14.0122 15.5565 13.8492L15.5564 9.83185C15.5564 9.66901 15.4479 9.56033 15.2848 9.56033H13.0318C12.869 9.56033 12.7605 9.66883 12.7605 9.83185ZM13.3033 10.1032H15.0135V13.5777H13.3033V10.1032ZM13.4391 8.17602L2.9613 1.25416L3.2599 0.792725L13.8734 7.82317V6.84596C13.8734 6.68312 13.9819 6.57444 14.1449 6.57444C14.3078 6.57444 14.4165 6.68293 14.4165 6.84596V8.44744C14.4165 8.61028 14.308 8.71897 14.1449 8.71897H12.5433C12.3804 8.71897 12.2717 8.61047 12.2717 8.44744C12.2717 8.2846 12.3802 8.17592 12.5433 8.17592L13.4391 8.17602ZM16.615 14.555C16.615 14.7178 16.5065 14.8265 16.3435 14.8265H0.599648C0.43681 14.8265 0.328125 14.718 0.328125 14.555C0.328125 14.3922 0.43662 14.2835 0.599648 14.2835H16.3435C16.5063 14.2837 16.6148 14.4192 16.6148 14.555H16.615Z" fill="#BAACD2"/>
</svg>
