<svg width="17" height="13" viewBox="0 0 17 13" fill="none" xmlns="http://www.w3.org/2000/svg">
<path d="M11.9557 3.86191C11.3587 3.86191 10.7885 3.97867 10.2666 4.1903C10.2266 4.04514 10.1471 3.88219 10.0012 3.71493C10.1943 3.496 10.3031 3.24938 10.3031 2.97607C10.3031 1.68863 7.88954 0.993866 5.61865 0.993866C3.34784 0.993866 0.934177 1.68863 0.934177 2.97607C0.934177 3.24904 1.04273 3.49545 1.23542 3.71414C0.992777 3.99214 0.933594 4.25781 0.933594 4.45062C0.933594 4.64355 0.992771 4.90946 1.23519 5.18688C0.992658 5.46442 0.933594 5.73009 0.933594 5.92292C0.933594 6.11596 0.992885 6.38208 1.23621 6.66033C0.992882 6.93741 0.933594 7.20365 0.933594 7.39715C0.933594 7.59019 0.992885 7.85631 1.23621 8.13456C0.992882 8.41164 0.933594 8.67788 0.933594 8.87138C0.933594 10.1586 3.34717 10.8531 5.61806 10.8531C6.47518 10.8531 7.30345 10.7611 8.03184 10.586C8.80699 11.9526 10.2754 12.8768 11.9556 12.8768C14.4409 12.8769 16.4629 10.8549 16.4629 8.36947C16.4629 5.88406 14.4408 3.86219 11.9556 3.86219L11.9557 3.86191ZM5.61873 1.64776C8.11587 1.64776 9.64904 2.42142 9.64904 2.97604C9.64904 3.53065 8.11576 4.30431 5.61873 4.30431C3.1217 4.30431 1.58842 3.53077 1.58842 2.97604C1.58842 2.42142 3.1217 1.64776 5.61873 1.64776ZM7.45247 8.56587C6.88565 8.67032 6.2577 8.72516 5.61814 8.72516C4.04814 8.72516 2.5949 8.39152 1.91535 7.87453C1.76586 7.76142 1.58754 7.58684 1.58754 7.39721C1.58754 7.2793 1.65607 7.1679 1.74375 7.0736C2.19883 7.35274 2.82596 7.57372 3.57784 7.71818C4.21559 7.84202 4.902 7.90484 5.61798 7.90484C6.27296 7.90484 6.90283 7.85228 7.4906 7.74909C7.46255 7.95194 7.44807 8.15901 7.44807 8.36938C7.44807 8.43529 7.44956 8.50074 7.45241 8.56585L7.45247 8.56587ZM5.61814 10.1994C3.12088 10.1994 1.58754 9.42597 1.58754 8.87147C1.58754 8.75345 1.6563 8.64193 1.74398 8.54751C2.59027 9.06439 4.03723 9.37897 5.61783 9.37897C6.28031 9.37897 6.93333 9.32321 7.52776 9.2166C7.57816 9.48022 7.65148 9.73575 7.74578 9.98104C7.09971 10.1244 6.37222 10.1994 5.61794 10.1994H5.61814ZM7.64369 7.05472C7.60754 7.06213 7.57094 7.06943 7.53354 7.07615C6.35714 7.30455 4.88008 7.30466 3.70173 7.07604C2.92704 6.92712 2.29282 6.68722 1.91531 6.40011C1.76582 6.28711 1.5875 6.11254 1.5875 5.9229C1.5875 5.80569 1.65546 5.69451 1.74246 5.60009C2.19479 5.87797 2.82011 6.0993 3.57211 6.24581C4.20974 6.36964 4.89799 6.43247 5.61794 6.43247C6.32604 6.43247 7.0037 6.37169 7.63255 6.25185L7.66618 6.24581C7.78853 6.22186 7.90746 6.19587 8.02309 6.16793C7.86654 6.44649 7.73871 6.74353 7.64362 7.0547L7.64369 7.05472ZM7.5714 5.59794L7.53936 5.60399C6.36284 5.83261 4.87299 5.83238 3.69703 5.6041C2.92121 5.45279 2.28825 5.21242 1.91356 4.9261C1.76475 4.81355 1.58756 4.63978 1.58756 4.45061C1.58756 4.33283 1.65643 4.22085 1.74434 4.12576C2.64332 4.6717 4.16043 4.95815 5.61878 4.95815C7.07657 4.95815 8.59298 4.67183 9.49234 4.12622C9.58002 4.22121 9.64855 4.33295 9.64855 4.45061C9.64855 4.4676 9.64719 4.48425 9.64456 4.50079C9.28824 4.71447 8.96373 4.97604 8.67991 5.27637C8.36223 5.40625 7.98982 5.51434 7.57158 5.59794L7.5714 5.59794ZM11.9558 12.223C9.83094 12.223 8.10208 10.4942 8.10208 8.36928C8.10208 6.24431 9.83082 4.51557 11.9558 4.51557C14.0806 4.51557 15.8095 6.24431 15.8095 8.36928C15.8095 10.4942 14.0808 12.223 11.9558 12.223Z" fill="#BAACD2"/>
<path d="M11.9533 8.04254C11.6094 8.04254 11.3296 7.76272 11.3296 7.41895C11.3296 7.07435 11.6094 6.79398 11.9533 6.79398C12.1736 6.79398 12.3727 6.90618 12.4861 7.09397C12.5795 7.24836 12.7798 7.2983 12.9351 7.2048C13.0896 7.11153 13.1393 6.91051 13.0459 6.756C12.8741 6.47151 12.5962 6.26774 12.2808 6.18338L12.2807 5.74266C12.2807 5.56216 12.1343 5.41576 11.9538 5.41576C11.7733 5.41576 11.6269 5.56216 11.6269 5.74266V6.18244C11.08 6.32725 10.6758 6.82667 10.6758 7.41891C10.6758 8.12325 11.2489 8.69634 11.9533 8.69634C12.298 8.69634 12.5783 8.97616 12.5783 9.31994C12.5783 9.66453 12.298 9.9449 11.9533 9.9449C11.7339 9.9449 11.5346 9.83236 11.4197 9.64389C11.3256 9.48973 11.1245 9.4407 10.9703 9.535C10.8162 9.62895 10.7675 9.83008 10.8613 9.98427C11.0375 10.2731 11.3114 10.4746 11.6269 10.5571V10.9964C11.6269 11.1769 11.7733 11.3233 11.9538 11.3233C12.1343 11.3233 12.2807 11.1768 12.2807 10.9964V10.5563C12.8277 10.4113 13.2321 9.91211 13.2321 9.32007C13.2321 8.61562 12.6585 8.04252 11.9533 8.04252L11.9533 8.04254Z" fill="#BAACD2"/>
</svg>
