<?xml version="1.0" encoding="UTF-8"?>
<svg xmlns="http://www.w3.org/2000/svg" width="512" height="512" viewBox="0 0 128 128"><g><path d="M98,53.186A1.752,1.752,0,0,0,96.589,52L75.155,48.88,65.569,29.458a1.749,1.749,0,0,0-3.138,0L52.845,48.88,31.411,52a1.75,1.75,0,0,0-.97,2.985L45.951,70.1,42.29,91.446a1.749,1.749,0,0,0,2.539,1.845L64,83.212,83.171,93.291a1.749,1.749,0,0,0,2.539-1.845L82.049,70.1,97.559,54.98A1.752,1.752,0,0,0,98,53.186ZM78.947,68.235a1.749,1.749,0,0,0-.5,1.549l3.218,18.759L64.814,79.686a1.751,1.751,0,0,0-1.629,0L46.338,88.543l3.218-18.759a1.749,1.749,0,0,0-.5-1.549L35.423,54.949l18.836-2.737a1.751,1.751,0,0,0,1.318-.958L64,34.186l8.423,17.068a1.751,1.751,0,0,0,1.318.958l18.836,2.737Z"/><path d="M64,5.25A58.75,58.75,0,1,0,122.75,64,58.816,58.816,0,0,0,64,5.25Zm0,114A55.25,55.25,0,1,1,119.25,64,55.313,55.313,0,0,1,64,119.25Z"/><path d="M64,18.31A45.69,45.69,0,1,0,109.69,64,45.741,45.741,0,0,0,64,18.31Zm0,87.88A42.19,42.19,0,1,1,106.19,64,42.237,42.237,0,0,1,64,106.19Z"/></g></svg>
