<svg width="13" height="21" viewBox="0 0 13 21" fill="none" xmlns="http://www.w3.org/2000/svg">
<path d="M8.09522 7.80844C8.09522 6.7933 7.38792 6.36741 6.69689 6.08499C6.01338 5.79444 6.01338 5.69106 6.01338 5.59975C6.01338 5.43637 6.15312 5.34653 6.40764 5.34653C6.78657 5.34653 7.02316 5.48235 7.15051 5.55524L7.55324 5.78677L8.02609 4.54139L7.73031 4.37458C7.48981 4.23779 7.23727 4.14794 6.96069 4.10066V3.33759H5.69769V4.17112C5.0057 4.40542 4.57836 4.97872 4.57836 5.68131C4.57836 6.63793 5.32644 7.06039 6.05741 7.3472C6.65256 7.58868 6.65256 7.77033 6.65256 7.868C6.65256 8.06823 6.4551 8.20274 6.16143 8.20274C5.87267 8.20274 5.55568 8.10703 5.31258 7.94692L4.89158 7.67006L4.44141 8.92717L4.68533 9.10147C4.93513 9.27969 5.27672 9.40899 5.65368 9.46834V10.249H6.91635V9.38812C7.63476 9.1499 8.0952 8.53635 8.0952 7.80847L8.09522 7.80844ZM6.70716 9.10191L6.58194 9.13452V9.91537H5.9873V9.17171L5.83778 9.15606C5.46945 9.11742 5.11123 8.99529 4.87919 8.82947L4.84055 8.80192L5.06263 8.18168L5.12882 8.22522C5.42395 8.42007 5.80987 8.53616 6.16142 8.53616C6.65463 8.53616 6.9863 8.26729 6.9863 7.86747C6.9863 7.60577 6.88896 7.32416 6.18082 7.0364C5.55358 6.79052 4.91198 6.43687 4.91198 5.68094C4.91198 5.09022 5.29352 4.6208 5.90805 4.45576L6.03131 4.42233V3.67116H6.62612V4.39378L6.77418 4.41058C7.06392 4.444 7.32269 4.527 7.56496 4.66477L7.61127 4.69053L7.37925 5.3015L7.31566 5.26514C7.16174 5.17676 6.87525 5.01208 6.40666 5.01208C5.69902 5.01208 5.67866 5.53906 5.67866 5.59904C5.67866 5.95449 5.95258 6.13108 6.56795 6.39263C7.15771 6.63345 7.76033 6.99019 7.76033 7.80807C7.76114 8.427 7.34748 8.93458 6.7072 9.10187L6.70716 9.10191Z" fill="#BAACD2"/>
<path d="M12.4245 6.63009C12.4245 3.24889 9.67387 0.498322 6.29234 0.498322C2.91081 0.498322 0.160156 3.24898 0.160156 6.63009C0.160156 9.36037 1.98178 11.768 4.60183 12.5177V15.2574H2.75854L6.29184 20.6658L9.82581 15.2574H7.98286L7.98302 12.5175C10.6024 11.7675 12.4243 9.35954 12.4243 6.62992L12.4245 6.63009ZM8.92612 15.7443L6.29234 19.7757L3.6589 15.7443H5.08965V12.1418L4.90557 12.0953C2.39864 11.4606 0.647976 9.21289 0.647976 6.62974C0.647813 5.12448 1.23544 3.70787 2.30293 2.64038C3.37041 1.57306 4.78702 0.985261 6.29246 0.985261C9.40492 0.985261 11.9375 3.51728 11.9375 6.62991C11.9375 9.21314 10.1869 11.4606 7.67993 12.0959L7.49634 12.1424V15.7443L8.92612 15.7443Z" fill="#BAACD2"/>
</svg>
