<svg width="16" height="16" viewBox="0 0 16 16" fill="none" xmlns="http://www.w3.org/2000/svg">
<path d="M11.8108 6.08224C10.25 6.08224 8.86587 6.8367 7.99609 7.99625C8.79444 6.95966 10.0088 6.37524 11.2612 6.3471C12.011 6.33024 12.773 6.5143 13.47 6.91663C14.2811 7.38492 14.8602 8.0888 15.2283 8.877C15.3241 9.08226 15.5917 9.13928 15.7879 9.02599C15.9842 8.9127 16.0505 8.66232 15.9369 8.46635C15.1123 7.04255 13.5747 6.08218 11.811 6.08218L11.8108 6.08224Z" fill="#BAACD2"/>
<path d="M7.74507 12.2568C8.52546 10.9051 8.56411 9.3292 7.99483 7.99625C8.49335 9.20586 8.39232 10.5499 7.79043 11.6485C7.43013 12.3062 6.88969 12.8742 6.19285 13.2766C5.38174 13.7448 4.48261 13.8945 3.61595 13.8192C3.39036 13.7996 3.20703 14.0029 3.20703 14.2294C3.20703 14.4558 3.39072 14.6385 3.61719 14.6383C5.26259 14.6361 6.86294 13.7847 7.74506 12.2571L7.74507 12.2568Z" fill="#BAACD2"/>
<path d="M4.43069 5.64943C5.21108 7.0011 6.55653 7.82249 7.99566 7.99615C6.69878 7.82312 5.58547 7.06355 4.93499 5.99301C4.54555 5.35221 4.32391 4.60009 4.32391 3.79539C4.32391 2.85882 4.64395 2.00533 5.14248 1.29236C5.27225 1.10669 5.18784 0.846386 4.99175 0.733233C4.79554 0.619944 4.54555 0.687744 4.43262 0.883955C3.61184 2.30997 3.54885 4.12178 4.43089 5.6493L4.43069 5.64943Z" fill="#BAACD2"/>
<path d="M8.24618 3.73573C7.46579 5.08741 7.42714 6.66329 7.99642 7.99624C7.4979 6.78663 7.59893 5.44263 8.20081 4.34402C8.56112 3.68633 9.10156 3.11828 9.7984 2.71593C10.6095 2.24765 11.5086 2.09804 12.3753 2.17327C12.6009 2.19286 12.7842 1.98958 12.7842 1.76312C12.7842 1.53666 12.6005 1.35395 12.3741 1.3542C10.7287 1.35643 9.12831 2.20783 8.24619 3.73538L8.24618 3.73573Z" fill="#BAACD2"/>
<path d="M11.5611 10.3431C10.7807 8.99139 9.43522 8.17 7.99609 7.99634C9.29297 8.16937 10.4063 8.92894 11.0568 9.99948C11.4462 10.6403 11.6678 11.3924 11.6678 12.1971C11.6678 13.1337 11.3478 13.9872 10.8493 14.7001C10.7195 14.8858 10.8039 15.1461 11 15.2593C11.1962 15.3725 11.4462 15.3047 11.5591 15.1085C12.3799 13.6825 12.4428 11.8707 11.5609 10.3432L11.5611 10.3431Z" fill="#BAACD2"/>
<path d="M4.18158 9.91024C5.74236 9.91024 7.12649 9.15578 7.99627 7.99624C7.19792 9.03282 5.98358 9.61724 4.73116 9.64539C3.98139 9.66212 3.21934 9.47818 2.5224 9.07585C1.7113 8.60756 1.13221 7.90368 0.764067 7.11548C0.668256 6.91022 0.400653 6.85321 0.204429 6.96649C0.0082052 7.07978 -0.0580935 7.33016 0.0554428 7.52613C0.880066 8.95006 2.41765 9.91042 4.18141 9.91042L4.18158 9.91024Z" fill="#BAACD2"/>
<path d="M10.3428 4.43127C8.99114 5.21166 8.16976 6.55711 7.99609 7.99624C8.16913 6.69936 8.9287 5.58605 9.99923 4.93557C10.64 4.54613 11.3922 4.32449 12.1969 4.32449C13.1334 4.32449 13.9869 4.64453 14.6999 5.14306C14.8856 5.27283 15.1459 5.18842 15.259 4.99233C15.3723 4.79612 15.3045 4.54613 15.1083 4.4332C13.6823 3.61242 11.8705 3.54943 10.3429 4.43147L10.3428 4.43127Z" fill="#BAACD2"/>
<path d="M9.91127 11.8109C9.91127 10.2502 9.1568 8.86602 7.99726 7.99625C9.03384 8.7946 9.61826 10.0089 9.64641 11.2614C9.66326 12.0111 9.4792 12.7732 9.07687 13.4701C8.60858 14.2812 7.9047 14.8603 7.1165 15.2285C6.91124 15.3243 6.85423 15.5919 6.96752 15.7881C7.08081 15.9843 7.33118 16.0506 7.52715 15.9371C8.95108 15.1125 9.91145 13.5749 9.91145 11.8111L9.91127 11.8109Z" fill="#BAACD2"/>
<path d="M3.737 7.74652C5.08867 8.52691 6.66456 8.56556 7.99751 7.99627C6.7879 8.4948 5.4439 8.39377 4.34528 7.79188C3.6876 7.43158 3.11955 6.89114 2.7172 6.1943C2.24892 5.38319 2.09931 4.48406 2.17454 3.6174C2.19412 3.39181 1.99085 3.20848 1.76439 3.20848C1.53793 3.20848 1.35522 3.39217 1.35547 3.61863C1.3577 5.26404 2.20909 6.86439 3.73665 7.74651L3.737 7.74652Z" fill="#BAACD2"/>
<path d="M6.08208 4.18155C6.08208 5.74233 6.83655 7.12646 7.99609 7.99624C6.95951 7.19789 6.37509 5.98355 6.34694 4.73113C6.33009 3.98136 6.51415 3.21931 6.91648 2.52237C7.38477 1.71127 8.08865 1.13218 8.87685 0.764037C9.08211 0.668226 9.13912 0.400623 9.02583 0.204399C8.91267 0.00831153 8.66229 -0.0581234 8.46632 0.0554129C7.0424 0.880036 6.08203 2.41762 6.08203 4.18138L6.08208 4.18155Z" fill="#BAACD2"/>
<path d="M5.65077 11.5612C7.00245 10.7808 7.82383 9.43537 7.9975 7.99625C7.82446 9.29312 7.06489 10.4064 5.99436 11.0569C5.35355 11.4463 4.60143 11.668 3.79674 11.668C2.86017 11.668 2.00667 11.348 1.29371 10.8494C1.10803 10.7197 0.847728 10.8041 0.734576 11.0001C0.621287 11.1964 0.689087 11.4463 0.885298 11.5593C2.31132 12.3801 4.12312 12.4429 5.65065 11.561L5.65077 11.5612Z" fill="#BAACD2"/>
<path d="M12.2566 8.24596C10.9049 7.46557 9.32905 7.42693 7.99609 7.99621C9.20571 7.49768 10.5497 7.59871 11.6483 8.2006C12.306 8.5609 12.8741 9.10134 13.2764 9.79819C13.7447 10.6093 13.8943 11.5084 13.8191 12.3751C13.7995 12.6007 14.0028 12.784 14.2292 12.784C14.4557 12.784 14.6384 12.6003 14.6381 12.3738C14.6358 10.7284 13.7844 9.12809 12.2568 8.24597L12.2566 8.24596Z" fill="#BAACD2"/>
</svg>
