<?xml version="1.0" encoding="utf-8"?>
<!-- Generator: Adobe Illustrator 26.5.0, SVG Export Plug-In . SVG Version: 6.00 Build 0)  -->
<svg version="1.1" id="Layer_1" xmlns="http://www.w3.org/2000/svg" xmlns:xlink="http://www.w3.org/1999/xlink" x="0px" y="0px"
	 viewBox="0 0 24 24" style="enable-background:new 0 0 24 24;" xml:space="preserve">
<style type="text/css">
	.st0{stroke:#FFFFFF;stroke-miterlimit:10;}
</style>
<path class="st0" d="M13.033,2V0l10.000001,3v18l-10,3v-2h-9v-7h1v6h8V3h-8v7h-1V2C4.033001,2,13.033001,2,13.033,2z M14.033,22.656
	l8.000001-2.4V3.744001l-8-2.4C14.033001,1.344001,14.033001,22.656002,14.033,22.656z M10.086,12L6.793,8.707L7.5,8l4.5,4.5L7.5,17
	l-0.707-0.707001l3.293-3.293H1.033v-1C1.033,11.999999,10.086,11.999999,10.086,12z"/>
</svg>
