<svg width="20" height="21" viewBox="0 0 20 21" fill="none" xmlns="http://www.w3.org/2000/svg">
<path d="M16.3748 17.2288C14.8079 18.7218 12.7565 19.6015 10.5947 19.7078V18.8662C10.5753 18.6447 10.3897 18.4747 10.1674 18.4747C9.94487 18.4747 9.75936 18.6447 9.74005 18.8662V19.7078C9.35789 19.696 8.97719 19.6577 8.60031 19.5932C6.59407 19.2407 4.76749 18.2149 3.42276 16.6848C2.07789 15.1548 1.29474 13.212 1.20264 11.1771H2.04428C2.27936 11.1771 2.47 10.9865 2.47 10.7514C2.47 10.5163 2.27936 10.3257 2.04428 10.3257H1.20586C1.21828 9.94629 1.25322 9.56795 1.31068 9.19268C1.66433 7.18629 2.69107 5.36023 4.22158 4.01551C5.75198 2.67078 7.69492 1.88764 9.72997 1.79493V2.63657C9.74942 2.85806 9.93494 3.02809 10.1575 3.02809C10.3798 3.02809 10.5653 2.85806 10.5848 2.63657V1.79815C10.9633 1.81102 11.3408 1.84815 11.7146 1.90956C13.0539 2.14405 14.322 2.68177 15.4217 3.48146H14.8584C14.6233 3.48146 14.4327 3.6721 14.4327 3.90718C14.4327 4.14226 14.6233 4.3329 14.8584 4.3329H16.5645C16.7499 4.33363 16.9138 4.21244 16.9673 4.03496C16.9923 3.96683 17.0012 3.89402 16.9936 3.8221V2.1847C16.9742 1.96306 16.7887 1.79303 16.5661 1.79303C16.3438 1.79303 16.1583 1.96306 16.1388 2.1847V2.9379C14.8853 1.98192 13.4191 1.34362 11.8651 1.0777C11.3137 0.980778 10.7549 0.930339 10.195 0.927124H10.1262C7.82177 0.934288 5.59318 1.75136 3.83041 3.23542C2.06745 4.71945 0.882231 6.77602 0.48207 9.04547C0.383826 9.59676 0.332365 10.1555 0.328125 10.7156V10.7516V10.7778C0.331634 13.0846 1.14813 15.3164 2.63407 17.0807C4.12 18.845 6.18035 20.0295 8.45272 20.4254C9.01367 20.5264 9.58255 20.5768 10.1524 20.576H10.1819C12.7094 20.5681 15.1375 19.5918 16.9673 17.8481C17.1382 17.6843 17.1442 17.4131 16.9805 17.2422C16.8167 17.0713 16.5455 17.0655 16.3746 17.2291L16.3748 17.2288Z" fill="#BAACD2"/>
<path d="M18.6216 14.8679C18.4145 14.756 18.1557 14.832 18.0421 15.0383C17.9013 15.2937 17.7506 15.5458 17.5869 15.7882V15.7881C17.4508 15.979 17.4948 16.2441 17.6851 16.3809C17.756 16.4279 17.8392 16.453 17.9242 16.4529C18.0658 16.4534 18.1984 16.3834 18.2778 16.2663C18.4579 16.0011 18.6249 15.7259 18.7788 15.4476H18.779C18.893 15.2438 18.8231 14.9861 18.6217 14.868L18.6216 14.8679Z" fill="#BAACD2"/>
<path d="M19.4879 11.9633C19.2565 11.9237 19.0368 12.0791 18.9967 12.3104C18.9508 12.5755 18.8919 12.8441 18.8198 13.1061V13.1063C18.7898 13.2156 18.8048 13.3326 18.8613 13.431C18.9179 13.5293 19.0115 13.601 19.1211 13.6302C19.2306 13.6621 19.3485 13.6479 19.4473 13.591C19.5461 13.5342 19.6176 13.4396 19.6451 13.3289C19.7238 13.0408 19.7892 12.7493 19.8384 12.4579V12.4577C19.8583 12.3456 19.8324 12.2303 19.7666 12.1373C19.7007 12.0444 19.6004 11.9817 19.4879 11.9633V11.9633Z" fill="#BAACD2"/>
<path d="M19.8767 9.29106C19.8605 9.17878 19.8003 9.07776 19.7092 9.01007C19.6183 8.94252 19.5041 8.91387 19.392 8.93083C19.1588 8.96782 18.9984 9.18492 19.0317 9.41868C19.0743 9.69704 19.1038 9.98198 19.1202 10.2603C19.1307 10.4878 19.3183 10.6666 19.5459 10.6665H19.5689C19.6836 10.6622 19.7918 10.6118 19.8688 10.5267C19.9459 10.4416 19.9854 10.3291 19.9782 10.2144C19.9553 9.90668 19.9225 9.59559 19.8767 9.29105V9.29106Z" fill="#BAACD2"/>
<path d="M10.1525 4.77183C9.92441 4.77505 9.73874 4.95633 9.72998 5.18438V9.54978C9.40133 9.66849 9.13569 9.91688 8.99489 10.2367C8.8541 10.5566 8.85059 10.9202 8.98524 11.2429C9.11989 11.5654 9.38069 11.8187 9.70716 11.9437C10.0335 12.0687 10.3968 12.0546 10.7124 11.9044L12.8542 14.0428C12.933 14.1243 13.0422 14.1693 13.1555 14.1673C13.2686 14.1686 13.3774 14.1235 13.4568 14.0428C13.5368 13.963 13.5816 13.8545 13.5816 13.7415C13.5816 13.6285 13.5368 13.5202 13.4568 13.4402L11.3184 11.3018H11.3182C11.3981 11.1294 11.4394 10.9417 11.4394 10.7517C11.4387 10.4875 11.3562 10.2302 11.203 10.0148C11.05 9.79962 10.834 9.63719 10.5847 9.54976V5.18437C10.5776 4.95177 10.385 4.768 10.1524 4.77182L10.1525 4.77183ZM9.72998 10.7514C9.72866 10.608 9.79913 10.4732 9.91769 10.3925C10.0364 10.312 10.1876 10.2959 10.3205 10.3498C10.4534 10.4039 10.5506 10.5207 10.5794 10.6614C10.608 10.8019 10.5646 10.9476 10.4636 11.0494C10.3417 11.1723 10.1579 11.2099 9.99753 11.1448C9.83715 11.0796 9.73174 10.9245 9.72999 10.7514L9.72998 10.7514Z" fill="#BAACD2"/>
</svg>
