<?xml version="1.0" encoding="utf-8"?>
<!-- Generator: Adobe Illustrator 24.1.2, SVG Export Plug-In . SVG Version: 6.00 Build 0)  -->
<svg version="1.1" id="Layer_1" xmlns="http://www.w3.org/2000/svg" xmlns:xlink="http://www.w3.org/1999/xlink" x="0px" y="0px"
	 viewBox="0 0 700 700" style="enable-background:new 0 0 700 700;" xml:space="preserve">
<style type="text/css">
	.st0{fill:#BAACD2;}
</style>
<path class="st0" d="M517.1,422.3c3.3,3.3,5.2,7.8,5.2,12.4c0,4.7-1.9,9.1-5.2,12.4c-3.3,3.3-7.8,5.1-12.4,5.1
	c-4.7,0-9.1-1.8-12.4-5.1L350,304.7L207.7,447.1c-3.3,3.3-7.8,5.1-12.4,5.1c-4.7,0-9.1-1.8-12.4-5.1c-3.3-3.3-5.2-7.8-5.2-12.4
	c0-4.7,1.9-9.1,5.2-12.4L325.3,280L182.9,137.7c-4.4-4.4-6.2-10.9-4.5-17c1.6-6.1,6.4-10.8,12.4-12.4c6.1-1.6,12.5,0.1,17,4.5
	L350,255.3l142.3-142.4c4.4-4.4,10.9-6.2,17-4.5c6.1,1.6,10.8,6.4,12.4,12.4c1.6,6.1-0.1,12.5-4.5,17L374.7,280L517.1,422.3z"/>
</svg>
