<?xml version="1.0" encoding="utf-8"?>
<!-- Generator: Adobe Illustrator 24.1.2, SVG Export Plug-In . SVG Version: 6.00 Build 0)  -->
<svg version="1.1" id="Layer_1" xmlns="http://www.w3.org/2000/svg" xmlns:xlink="http://www.w3.org/1999/xlink" x="0px" y="0px"
	 viewBox="0 0 700 700" style="enable-background:new 0 0 700 700;" xml:space="preserve">
<style type="text/css">
	.st0{fill:#BAACD2;}
</style>
<path class="st0" d="M350,275.3c12.7,0,24.2,5.2,32.6,13.5l0.6,0.7c8,8.3,12.9,19.5,12.9,31.9c0,8.9-2.6,17.3-7.1,24.4
	c-3.3,5.3-7.6,9.8-12.6,13.3V406c0,7.2-2.9,13.8-7.7,18.5c-4.7,4.7-11.3,7.7-18.5,7.7h-0.4c-7.2,0-13.8-2.9-18.5-7.7
	c-4.7-4.7-7.7-11.3-7.7-18.5v-46.9c-5.1-3.5-9.4-8.1-12.6-13.3l-0.4-0.8c-4.2-7-6.6-15.1-6.6-23.7c0-12.7,5.2-24.2,13.5-32.5
	C325.8,280.4,337.3,275.3,350,275.3L350,275.3z M184.3,186.3h37.9v-25.6c0-68.4,33.6-112.6,76.4-132.1c16.7-7.6,34.7-11.4,52.8-11.4
	c18,0,36.1,3.8,52.8,11.3c42.5,19.4,75.7,63.4,75.8,132.2l0,25.6h35.7c13,0,24.9,5.3,33.5,13.9c8.6,8.6,13.9,20.5,13.9,33.5v239.9
	c0,13-5.3,24.9-13.9,33.5s-20.5,13.9-33.5,13.9H184.3c-13,0-24.9-5.3-33.5-13.9c-8.6-8.6-13.9-20.5-13.9-33.5V233.8
	c0-13,5.3-24.9,13.9-33.5S171.3,186.3,184.3,186.3L184.3,186.3z M244.6,186.3h212.9v-25.6c0-58.7-27.5-95.9-62.7-111.9
	c-13.7-6.2-28.6-9.3-43.5-9.3c-14.9,0-29.8,3.2-43.5,9.4c-35.5,16.2-63.3,53.5-63.3,111.8L244.6,186.3L244.6,186.3z M515.7,208.7
	H184.3c-6.9,0-13.1,2.8-17.7,7.4s-7.4,10.8-7.4,17.7v239.9c0,6.9,2.8,13.1,7.4,17.7s10.8,7.4,17.7,7.4h331.4
	c6.9,0,13.1-2.8,17.7-7.4s7.4-10.8,7.4-17.7V233.8c0-6.9-2.8-13.1-7.4-17.7S522.6,208.7,515.7,208.7z M366.7,304.6
	c-4.3-4.3-10.2-6.9-16.7-6.9s-12.5,2.7-16.7,6.9c-4.3,4.3-6.9,10.2-6.9,16.7c0,4.5,1.2,8.6,3.2,12.1l0.3,0.5
	c2.2,3.6,5.4,6.5,9.2,8.5c4.1,1.7,6.9,5.7,6.9,10.4V406c0,1,0.4,2,1.1,2.7c0.7,0.7,1.6,1.1,2.7,1.1h0.4c1,0,2-0.4,2.7-1.1
	c0.7-0.7,1.1-1.6,1.1-2.7v-53.3c0-4.2,2.4-8.1,6.4-10.1c4-1.9,7.4-5,9.8-8.8c2.3-3.6,3.6-7.9,3.6-12.5c0-6.3-2.5-12.1-6.5-16.3
	L366.7,304.6z"/>
</svg>
