<?xml version="1.0" encoding="utf-8"?>
<!-- Generator: Adobe Illustrator 24.1.2, SVG Export Plug-In . SVG Version: 6.00 Build 0)  -->
<svg version="1.1" id="Layer_1" xmlns="http://www.w3.org/2000/svg" xmlns:xlink="http://www.w3.org/1999/xlink" x="0px" y="0px"
	 viewBox="0 0 32 32" style="enable-background:new 0 0 32 32;" xml:space="preserve">
<style type="text/css">
	.st0{fill:#BAACD2;}
</style>
<path class="st0" d="M16.3,31.4c8.6,0,15.6-7,15.6-15.6c0-8.6-7-15.6-15.6-15.6c-8.6,0-15.6,7-15.6,15.6
	C0.7,24.4,7.7,31.4,16.3,31.4z M3.6,23.5l2.8-1.6c0.6,0.9,1.3,1.8,2.1,2.5l-2,2.4C5.4,25.9,4.4,24.8,3.6,23.5z M1.8,18.7l3.1-0.6
	c0.2,1.1,0.6,2.1,1.1,3.1l-2.8,1.6C2.6,21.6,2,20.2,1.8,18.7z M1.5,15.8c0-0.8,0.1-1.5,0.2-2.2l3.1,0.6c-0.1,0.6-0.1,1.1-0.1,1.7
	c0,0.5,0,1.1,0.1,1.6l-3.1,0.6C1.5,17.2,1.5,16.5,1.5,15.8z M3.3,8.7L6,10.3c-0.5,0.9-0.9,2-1.1,3.1l-3.1-0.6
	C2.1,11.3,2.6,9.9,3.3,8.7z M10.9,2L12,5c-1,0.4-2,1-2.8,1.6l-2-2.4C8.2,3.3,9.5,2.5,10.9,2z M25.5,4.2l-2,2.4
	c-0.9-0.7-1.8-1.2-2.8-1.6l1.1-3C23.1,2.5,24.4,3.3,25.5,4.2z M19.9,4.7c-1-0.3-2.1-0.5-3.2-0.6V0.9c1.5,0,2.9,0.3,4.3,0.8L19.9,4.7
	z M15.9,4.1c-1.1,0-2.2,0.2-3.2,0.6l-1.1-3C13,1.3,14.4,1,15.9,1V4.1z M16.3,4.9c6,0,10.9,4.9,10.9,10.9c0,6-4.9,10.9-10.9,10.9
	c-6,0-10.9-4.9-10.9-10.9C5.4,9.8,10.3,4.9,16.3,4.9z M30.9,12.8l-3.1,0.6c-0.2-1.1-0.6-2.1-1.1-3.1l2.8-1.6
	C30.1,9.9,30.6,11.3,30.9,12.8z M31.2,15.8c0,0.7-0.1,1.4-0.2,2.1l-3.1-0.6c0.1-0.5,0.1-1,0.1-1.6c0-0.6,0-1.1-0.1-1.7l3.1-0.6
	C31.1,14.3,31.2,15,31.2,15.8z M29.4,22.8l-2.8-1.6c0.5-1,0.9-2,1.1-3.1l3.1,0.6C30.6,20.2,30.1,21.6,29.4,22.8z M21.8,29.6l-1.1-3
	c1-0.4,2-1,2.8-1.7l2,2.4C24.5,28.3,23.2,29.1,21.8,29.6z M7.1,27.4l2-2.4c0.9,0.7,1.8,1.2,2.8,1.7l-1.1,3
	C9.5,29.1,8.2,28.3,7.1,27.4z M12.7,26.9c1,0.3,2.1,0.5,3.2,0.6v3.2c-1.5,0-3-0.3-4.3-0.8L12.7,26.9z M16.7,27.5
	c1.1,0,2.2-0.2,3.2-0.6l1.1,3c-1.4,0.5-2.8,0.7-4.3,0.8V27.5z M26.2,26.9l-2-2.4c0.8-0.7,1.5-1.6,2.1-2.5l2.8,1.6
	C28.2,24.8,27.3,25.9,26.2,26.9z M29,8l-2.8,1.6c-0.6-0.9-1.3-1.8-2.1-2.5l2-2.4C27.2,5.6,28.2,6.8,29,8z M6.5,4.7l2,2.4
	C7.7,7.8,7,8.7,6.4,9.6L3.7,8C4.5,6.8,5.4,5.6,6.5,4.7z"/>
<path class="st0" d="M12.6,9.8c-1.4,0-2.5,0.4-3.3,1.2c-0.8,0.8-1.1,2-1.1,3.4c0,2.1,1.4,4,3,5.5c1.7,1.5,3.6,2.7,5,3.1
	c0.1,0,0.2,0,0.2,0c1.3-0.5,3.3-1.6,5-3.1c1.7-1.5,3-3.4,3-5.5c0-1.4-0.4-2.6-1.1-3.4c-0.8-0.8-1.9-1.2-3.3-1.2
	c-1.4,0-2.8,0.8-3.7,1.8C15.4,10.5,14.1,9.8,12.6,9.8z M12.6,10.5c1.3,0,2.7,0.8,3.4,1.8c0.1,0.1,0.2,0.2,0.3,0.2s0.2-0.1,0.3-0.2
	c0.7-1,2.1-1.8,3.4-1.8c1.3,0,2.2,0.4,2.8,1c0.6,0.6,0.9,1.6,0.9,2.9c0,1.7-1.2,3.5-2.8,4.9c-1.5,1.4-3.4,2.5-4.6,2.9
	c-1.2-0.5-3.1-1.5-4.6-2.9c-1.6-1.5-2.8-3.2-2.8-4.9c0-1.3,0.3-2.3,0.9-2.9C10.5,10.9,11.4,10.5,12.6,10.5z M15.4,13.6
	c-0.2,0-0.3,0.2-0.3,0.4v1.4h-1.4c-0.2,0-0.4,0.2-0.4,0.4v1.7c0,0.2,0.2,0.4,0.4,0.4h1.4v1.4c0,0.2,0.2,0.4,0.4,0.4h1.7
	c0.2,0,0.4-0.2,0.4-0.4v-1.4h1.4c0.2,0,0.4-0.2,0.4-0.4v-1.7c0-0.2-0.2-0.4-0.4-0.4h-1.4V14c0-0.2-0.2-0.4-0.4-0.4H15.4
	C15.5,13.6,15.4,13.6,15.4,13.6z M15.8,14.3h1v1.4c0,0.2,0.2,0.4,0.4,0.4h1.4v1h-1.4c-0.2,0-0.4,0.2-0.4,0.4v1.4h-1v-1.4
	c0-0.2-0.2-0.4-0.4-0.4h-1.4v-1h1.4c0.2,0,0.4-0.2,0.4-0.4V14.3z"/>
</svg>
