<?xml version="1.0" encoding="utf-8"?>
<!-- Generator: Adobe Illustrator 26.5.0, SVG Export Plug-In . SVG Version: 6.00 Build 0)  -->
<svg version="1.1" id="Layer_1" xmlns="http://www.w3.org/2000/svg" xmlns:xlink="http://www.w3.org/1999/xlink" x="0px" y="0px"
	 viewBox="0 0 122.879997 122.879997" style="enable-background:new 0 0 122.879997 122.879997;" xml:space="preserve">
<style type="text/css">
	.st0{fill-rule:evenodd;clip-rule:evenodd;fill:#FFFFFF;}
</style>
<g>
	<path class="st0" d="M1.04,79.959999l63.659996-63.66c0.550003,0.07,1.129997-0.1,1.550003-0.52
		c0.419998-0.42,0.599998-1,0.519997-1.55L79.959999,1.04c1.389999-1.39,3.660004-1.39,5.050003,0l10.43,10.44
		c-2.739998,4.469999-2.169998,10.389999,1.699997,14.26c3.870003,3.870001,9.790001,4.43,14.260002,1.700001l10.43,10.430002
		c1.389999,1.389999,1.389999,3.66,0,5.049999l-13.190002,13.189999c-0.550003-0.07-1.120003,0.099998-1.550003,0.52
		c-0.419998,0.419998-0.599998,1-0.519997,1.549999l-63.650002,63.650002c-1.389999,1.389999-3.66,1.389999-5.049999,0
		L27.5,111.470001c2.98-4.510002,2.48-10.629997-1.48-14.599998c-3.969999-3.970001-10.09-4.459999-14.6-1.480003L1.04,85.010002
		C-0.35,83.620003-0.35,81.349998,1.04,79.959999L1.04,79.959999z M102.269997,51.810001
		c0.720001-0.720001,1.889999-0.720001,2.610001,0s0.720001,1.889999,0,2.610001s-1.889999,0.720001-2.610001,0
		C101.550003,53.700001,101.550003,52.529999,102.269997,51.810001L102.269997,51.810001z M97.440002,46.98
		c0.720001-0.720001,1.889999-0.720001,2.610001,0s0.720001,1.889999,0,2.610001s-1.889999,0.720001-2.610001,0
		S96.720001,47.700001,97.440002,46.98L97.440002,46.98z M92.610001,42.150002c0.720001-0.720001,1.889999-0.720001,2.610001,0
		s0.720001,1.889999,0,2.610001s-1.889999,0.720001-2.610001,0S91.889999,42.869999,92.610001,42.150002L92.610001,42.150002z
		 M87.779999,37.32c0.720001-0.720001,1.889999-0.720001,2.610001,0s0.720001,1.889999,0,2.610001s-1.889999,0.720001-2.610001,0
		S87.059998,38.040001,87.779999,37.32L87.779999,37.32z M82.949997,32.490002c0.720001-0.719999,1.889999-0.719999,2.610001,0
		c0.720001,0.720001,0.720001,1.889999,0,2.610001s-1.889999,0.720001-2.610001,0
		C82.230003,34.380001,82.230003,33.209999,82.949997,32.490002L82.949997,32.490002z M78.120003,27.66
		c0.720001-0.719999,1.889999-0.719999,2.610001,0s0.720001,1.889999,0,2.610001c-0.720001,0.719999-1.889999,0.719999-2.610001,0
		C77.400002,29.549999,77.400002,28.379999,78.120003,27.66L78.120003,27.66z M73.290001,22.83
		c0.720001-0.719999,1.889999-0.719999,2.610001,0s0.720001,1.889999,0,2.610001c-0.720001,0.719999-1.889999,0.719999-2.610001,0
		C72.57,24.719999,72.57,23.549999,73.290001,22.83L73.290001,22.83z M68.459999,18C69.18,17.280001,70.349998,17.280001,71.07,18
		s0.720001,1.889999,0,2.610001c-0.720001,0.719999-1.889999,0.719999-2.610001,0
		C67.739998,19.889999,67.739998,18.719999,68.459999,18L68.459999,18z M25.450001,74.910004l39.380001-39.380001
		c1.620003-1.619999,4.269997-1.619999,5.889999,0L88.82,53.630005c1.620003,1.619999,1.620003,4.27,0,5.889999L49.439999,98.900002
		c-1.619999,1.620003-4.27,1.620003-5.889999,0l-18.1-18.099998C23.83,79.18,23.83,76.529999,25.450001,74.910004
		L25.450001,74.910004z"/>
</g>
</svg>
