<svg id="Layer_1" height="512" viewBox="0 0 64 64" width="512" xmlns="http://www.w3.org/2000/svg"><g><path d="m30.8 38c3.1 2.6 5 6.5 5 10.8 0 7.8-6.3 14.1-14.2 14.1s-14.1-6.2-14.1-14.1c0-5.3 2.9-9.8 7.1-12.3" style="fill:none;stroke:#231f20;stroke-linecap:round;stroke-linejoin:round;stroke-miterlimit:10;stroke-width:2"/><path d="m23.3 51.2c0-.4-.1-.7-.4-.9-.2-.2-.6-.5-1.2-.7s-1-.4-1.3-.5c-1-.5-1.5-1.4-1.5-2.4 0-.7.2-1.3.7-1.8.4-.5 1-.8 1.8-.8v-1.4h1.1v1.3c.8.1 1.4.4 1.8 1 .4.5.6 1.2.6 2.1h-1.6c0-.6-.1-1-.4-1.3-.2-.3-.6-.5-1-.5s-.8.1-1 .3-.4.6-.4 1 .1.7.4.9c.2.2.6.4 1.2.7.6.2 1 .4 1.3.6s.6.4.8.6.4.5.5.8.2.6.2 1c0 .7-.2 1.3-.7 1.8s-1.1.7-1.9.8v1.3h-1v-1.3c-.9-.1-1.5-.4-2-.9s-.7-1.2-.7-2.1h1.6c0 .6.1 1 .4 1.3s.7.5 1.2.5.9-.1 1.1-.4c.2-.2.4-.6.4-1z" fill="#231f20"/><g style="fill:none;stroke:#231f20;stroke-linecap:round;stroke-linejoin:round;stroke-miterlimit:10;stroke-width:2"><path d="m56.5 14.7c-4.5 5.3-10.3 9.1-18.6 10.5l-13.8 14c-1.1 1.1-2.9 1.3-4.2.3-1.4-1-1.7-2.9-.8-4.3l12.1-18.6-2-1.7-3.1 3.1-3.1 6.5"/><path d="m18.2 30.2-1-5.3c-.3-1.7-.2-3.4.4-4.9l3.7-10.3c1.2-3.3 4.1-5.6 7.6-6l20.3-2.7"/><path d="m43.8 27.1c-1.7 2.4-3.9 3.7-6.6 3.9"/></g></g></svg>