<svg width="14" height="14" viewBox="0 0 14 14" fill="none" xmlns="http://www.w3.org/2000/svg">
<path d="M2.18891 2.20405C-0.288231 4.68119 -0.288231 8.69818 2.18891 11.1753C4.66605 13.6525 8.68304 13.6525 11.1602 11.1753C13.6373 8.69818 13.6373 4.68119 11.1602 2.20405C8.68304 -0.273094 4.66605 -0.273094 2.18891 2.20405ZM6.92896 3.00749C7.46451 3.00749 7.89303 3.44936 7.89303 3.98494C7.89303 4.52049 7.45116 4.96238 6.92896 4.96238C6.3934 4.96238 5.95151 4.52051 5.95151 3.9715C5.95151 3.43602 6.39331 3.00752 6.92896 3.00752V3.00749ZM8.30812 9.55518C8.28131 9.63551 8.2278 9.72928 8.17418 9.7828C7.82607 10.1444 7.39756 10.3585 6.8887 10.3585C6.64773 10.3585 6.42 10.3585 6.17903 10.3184C5.79077 10.2648 5.29527 9.7828 5.36224 9.27394C5.41576 8.92582 5.46938 8.57764 5.52289 8.22952C5.63003 7.627 5.73716 7.01101 5.84428 6.40849C5.84428 6.36833 5.85763 6.32816 5.85763 6.288C5.85763 6.03357 5.77731 5.93989 5.52288 5.91308C5.41575 5.89973 5.30862 5.88628 5.2015 5.85956C5.08101 5.8194 5.01405 5.71227 5.0274 5.61859C5.04076 5.51146 5.10773 5.44449 5.24166 5.41778C5.30863 5.40442 5.38896 5.40442 5.46928 5.40442H6.36641H7.31714C7.54476 5.40442 7.6787 5.51156 7.6787 5.73917C7.6787 5.92663 7.65189 6.11409 7.61173 6.30155C7.49124 6.99785 7.3573 7.68072 7.23681 8.37702C7.19665 8.60463 7.14303 8.83225 7.11632 9.05988C7.10296 9.16701 7.11632 9.2875 7.14313 9.39463C7.18329 9.54192 7.29042 9.62225 7.43771 9.60889C7.55819 9.59553 7.67868 9.55537 7.79926 9.50176C7.89303 9.4616 7.97336 9.39463 8.06703 9.36782C8.22778 9.31421 8.34827 9.40789 8.3081 9.55518L8.30812 9.55518Z" fill="#FFDE01"/>
</svg>
