<svg width="36" height="36" viewBox="0 0 36 36" fill="none" xmlns="http://www.w3.org/2000/svg">
<path d="M3.72429 0.706665H32.2391C33.8039 0.706665 35.0844 1.98711 35.0844 3.55204V32.0668C35.0844 33.6318 33.8039 34.9122 32.2391 34.9122H3.72429C2.15931 34.9122 0.878906 33.6318 0.878906 32.0668V3.55204C0.878906 1.96675 2.139 0.706665 3.72429 0.706665Z" fill="#FDB913"/>
<path d="M32.2394 0.706658C33.8042 0.706658 35.0847 1.98706 35.0847 3.55204V32.0668C35.0847 33.6317 33.8042 34.9121 32.2394 34.9121H3.72465C2.15967 34.9121 0.879266 33.6317 0.879266 32.0668V3.55204C0.879266 1.98706 2.13936 0.706658 3.72465 0.706658H32.2394ZM32.2394 0.0969238H3.72465C1.81415 0.0969238 0.269531 1.64155 0.269531 3.55204V32.0668C0.269531 33.9773 1.81415 35.5219 3.72465 35.5219H32.2394C34.15 35.5219 35.6945 33.9773 35.6945 32.0668V3.55204C35.6945 1.64155 34.15 0.0969238 32.2394 0.0969238Z" fill="white"/>
<path d="M11.5498 20.1769C11.5498 20.1769 11.2856 19.7908 11.2856 18.4087V15.3398L10.4727 15.543V14.2829L11.3059 14.0797V12.718L13.0131 12.3115V13.6732L14.2123 13.3887V14.6488L13.0131 14.9333C13.0131 14.9333 13.0131 17.4332 13.0131 18.0429C13.0131 19.4453 13.379 19.7298 13.379 19.7298L11.5498 20.1769Z" fill="#231F20"/>
<path d="M14.375 16.5187C14.375 15.4212 14.5376 14.6286 14.8628 14.0189C15.249 13.2872 15.8993 12.8197 16.8546 12.6165C18.7246 12.1897 19.3953 13.2872 19.3745 14.7708C19.3745 15.2993 19.3745 15.5635 19.3745 15.5635L16.0822 16.3358V16.3968C16.0822 17.4333 16.3058 17.9211 16.9562 17.7788C17.5252 17.6569 17.6878 17.3114 17.7285 16.8642C17.7285 16.8033 17.7488 16.6203 17.7488 16.6203L19.2933 16.2545C19.2933 16.2545 19.2933 16.3765 19.2933 16.5187C19.273 17.1081 19.1105 18.5714 16.9765 19.0795C14.9034 19.547 14.375 18.3072 14.375 16.5187ZM16.9155 13.7546C16.3668 13.8765 16.0822 14.405 16.0822 15.2993L17.7285 14.9131C17.7285 14.8725 17.7285 14.7912 17.7285 14.6489C17.7285 13.9782 17.5252 13.6327 16.9155 13.7546Z" fill="#231F20"/>
<path d="M2.64743 24.4655C2.09867 24.4655 1.67188 24.0184 1.67188 23.49C1.67188 23.307 1.73285 23.1241 1.83445 22.9615L1.85481 22.9412H1.87512L4.19205 22.3925V24.1403H4.15143C3.62298 24.2623 2.99294 24.4045 2.87098 24.4452C2.7897 24.4452 2.72872 24.4655 2.64743 24.4655Z" fill="#231F20"/>
<path d="M2.64743 26.7012C2.09867 26.7012 1.67188 26.2541 1.67188 25.7257C1.67188 25.5428 1.73285 25.3599 1.83445 25.1972L1.85481 25.1769H1.87512L4.19205 24.6282V26.376H4.15143C3.62298 26.498 2.99294 26.6403 2.87098 26.6809C2.7897 26.7012 2.72872 26.7012 2.64743 26.7012Z" fill="#231F20"/>
<path d="M2.64743 28.9571C2.09867 28.9571 1.67188 28.5099 1.67188 27.9815C1.67188 27.7986 1.73285 27.6157 1.83445 27.4531L1.85481 27.4328L4.19205 26.884V28.6319H4.15143C3.60267 28.7742 2.97263 28.8961 2.87098 28.9367C2.7897 28.9571 2.72872 28.9571 2.64743 28.9571Z" fill="#231F20"/>
<path d="M2.38281 22.3111V12.4742L4.17135 12.0677V21.8843L2.38281 22.3111Z" fill="#231F20"/>
<path d="M6.85513 21.4778C6.85513 20.8681 6.36736 20.3804 5.75767 20.3804C5.14793 20.3804 4.66016 20.8681 4.66016 21.4778V30.6644C4.66016 32.3106 6.00153 33.652 7.6478 33.652C8.48109 33.652 10.7777 33.652 10.7777 33.652V29.8107C10.7777 27.7173 10.7777 25.5833 10.7777 25.5427C10.7777 25.0549 10.5338 24.6077 10.1274 24.3436L7.3226 22.4534C7.3226 22.4534 7.3226 26.5589 7.3226 26.7621C7.3226 26.8841 7.22101 27.006 7.07874 27.006C6.95678 27.006 6.83482 26.9044 6.83482 26.7621C6.85513 26.7012 6.85513 22.0469 6.85513 21.4778Z" fill="#231F20"/>
<path d="M8.3382 14.6286C7.64718 14.7912 7.07807 15.2383 6.75291 15.8684V15.1773L5.12695 15.5432V19.9535C5.69607 19.73 6.36673 19.8316 6.8342 20.2584V17.413C6.8342 16.722 7.17971 16.1936 7.66749 16.0716C8.03331 15.9903 8.3382 16.1123 8.3382 16.7626V20.9088L10.0454 20.5023V16.1326C10.0251 15.0757 9.6186 14.3237 8.3382 14.6286Z" fill="#231F20"/>
</svg>
