<svg width="128" height="98" viewBox="0 0 128 98" fill="none" xmlns="http://www.w3.org/2000/svg">
<rect x="31.8211" y="81.9141" width="3.24254" height="16.7005" rx="1.62127" transform="rotate(90 31.8211 81.9141)" fill="#00FEE8"/>
<rect x="12.8436" y="81.9141" width="3.24254" height="12.1736" rx="1.62127" transform="rotate(90 12.8436 81.9141)" fill="#00FEE8"/>
<rect x="31.8211" y="88.1001" width="3.24254" height="31.1512" rx="1.62127" transform="rotate(90 31.8211 88.1001)" fill="#00FEE8"/>
<rect x="16.4225" y="0.384277" width="3.24254" height="12.1736" rx="1.62127" fill="#00FEE8"/>
<rect x="24.1305" y="4.8501" width="3.24254" height="12.1736" rx="1.62127" transform="rotate(90 24.1305 4.8501)" fill="#00FEE8"/>
<rect x="120.028" y="72.4858" width="3.24254" height="12.1736" rx="1.62127" fill="#00FEE8"/>
<rect x="127.737" y="76.9517" width="3.24254" height="12.1736" rx="1.62127" transform="rotate(90 127.737 76.9517)" fill="#00FEE8"/>
<circle cx="102.931" cy="8.09223" r="5.6557" stroke="#00FEE8" stroke-width="3"/>
<path d="M40.1186 26.6787H72.2814L100.16 54.5574L102.931 52.085L74.3702 23.5029C74.0292 23.1619 73.5389 22.9487 73.0487 22.9487H38.2642C37.2412 22.9487 36.3886 23.78 36.3886 24.8244V59.6088C36.3886 60.0991 36.5804 60.568 36.9428 60.9303L40.1186 64.1061L42.8894 61.591L40.1399 58.8415V26.6787H40.1186Z" fill="#00FEE8"/>
<path d="M110.434 59.5658L106.597 55.708C106.597 55.708 103.912 58.2231 103.826 58.2231L106.469 60.866L74.3277 93.0502L47.6851 66.4076L45.1274 69.1358L73.0062 97.0146C73.3685 97.3769 73.8374 97.5687 74.3277 97.5687C74.7966 97.5687 75.2868 97.3769 75.6491 97.0146L110.455 62.2088C111.18 61.4841 111.18 60.2905 110.434 59.5658Z" fill="#00FEE8"/>
<path d="M69.3852 46.6327C68.4074 45.4004 66.7464 44.3154 64.1211 44.3154C60.4241 44.3154 57.4102 47.5034 57.4102 51.4281C57.4102 62.9342 68.4476 67.9573 68.9164 68.1716C69.0638 68.2386 69.2245 68.2788 69.3852 68.2788C69.546 68.2788 69.7067 68.252 69.854 68.1716C70.3229 67.9573 81.3602 62.9342 81.3602 51.4281C81.3602 47.5034 78.3464 44.3154 74.6494 44.3154C72.0106 44.3288 70.3497 45.4004 69.3852 46.6327ZM70.5372 49.5796C70.5908 49.2849 71.0864 46.6729 74.6494 46.6729C77.0605 46.6729 79.0161 48.8161 79.0161 51.4415C79.0161 60.1481 71.3811 64.7426 69.3852 65.8007C67.376 64.7426 59.7543 60.1347 59.7543 51.4415C59.7543 48.8027 61.71 46.6729 64.1211 46.6729C67.6707 46.6729 68.1797 49.2849 68.2333 49.5796C68.3136 50.1556 68.7959 50.5842 69.3852 50.5842H69.3986C69.9612 50.5842 70.4568 50.1556 70.5372 49.5796Z" fill="#00FEE8"/>
<path d="M99.9257 60.8666L98.05 62.7422C97.6877 63.1046 97.6877 63.7014 98.05 64.0637C98.2418 64.2555 98.4763 64.3408 98.7108 64.3408C98.9452 64.3408 99.1797 64.2555 99.3715 64.0637L101.908 61.5273C102.27 61.165 102.27 60.5682 101.908 60.2059L95.13 53.428C94.7677 53.0657 94.1709 53.0657 93.8085 53.428C93.4462 53.7903 93.4462 54.3871 93.8085 54.7495L99.9257 60.8666Z" fill="#00FEE8"/>
<path d="M96.1314 64.6599L88.9912 71.8001C88.6289 72.1625 88.6289 72.7593 88.9912 73.1216C89.183 73.3134 89.4175 73.3987 89.6519 73.3987C89.8864 73.3987 90.1209 73.3134 90.3127 73.1216L97.4529 65.9814C97.8152 65.6191 97.8152 65.0223 97.4529 64.6599C97.0905 64.2976 96.4937 64.2976 96.1314 64.6599Z" fill="#00FEE8"/>
<path d="M44.2959 42.3867C43.7844 42.3867 43.3581 42.813 43.3581 43.3245V45.3067C43.3581 45.8183 43.7844 46.2446 44.2959 46.2446C44.8075 46.2446 45.2338 45.8183 45.2338 45.3067V43.3245C45.2338 42.7917 44.8075 42.3867 44.2959 42.3867Z" fill="#00FEE8"/>
<path d="M50.072 29.918H44.2959C43.7844 29.918 43.3581 30.3443 43.3581 30.8558V39.8929C43.3581 40.4045 43.7844 40.8307 44.2959 40.8307C44.8075 40.8307 45.2338 40.4045 45.2338 39.8929V31.7936H50.072C50.5836 31.7936 51.0099 31.3673 51.0099 30.8558C51.0099 30.3443 50.5836 29.918 50.072 29.918Z" fill="#00FEE8"/>
<path d="M64.8978 47.6908C64.6834 47.6506 64.4691 47.6372 64.2548 47.6372C62.2188 47.6372 60.5712 49.2848 60.5712 51.3208V51.4413C60.5712 51.6155 60.5712 51.87 60.5712 51.9637C60.598 52.2584 60.8525 52.4861 61.1472 52.4861C61.1606 52.4861 61.1874 52.4861 61.2008 52.4861C61.5223 52.4593 61.75 52.1647 61.7232 51.8566C61.7232 51.7762 61.7232 51.6021 61.7232 51.4815V51.3342C61.7232 49.9545 62.8484 48.8293 64.228 48.8293C64.3754 48.8293 64.5227 48.8427 64.67 48.8695C64.9781 48.9231 65.2862 48.7088 65.3532 48.3873C65.4336 48.0524 65.2192 47.7444 64.8978 47.6908Z" fill="#00FEE8"/>
</svg>
