<?xml version="1.0" encoding="utf-8"?>
<!-- Generator: Adobe Illustrator 26.5.0, SVG Export Plug-In . SVG Version: 6.00 Build 0)  -->
<svg version="1.1" id="Layer_1" xmlns="http://www.w3.org/2000/svg" xmlns:xlink="http://www.w3.org/1999/xlink" x="0px" y="0px"
	 viewBox="0 0 67 16" style="enable-background:new 0 0 67 16;" xml:space="preserve">
<style type="text/css">
	.st0{fill:#FFFFFF;}
	.st1{fill:#FF5F00;}
	.st2{fill:#EB001B;}
	.st3{fill:#F79E1B;}
</style>
<path class="st0" d="M29.562086,10.114613v-2.15739c0-0.814068-0.519211-1.362042-1.35486-1.369242
	c-0.237961-0.015381-0.47574,0.033328-0.688499,0.14112c-0.212761,0.107757-0.39267,0.270612-0.521101,0.471591
	c-0.117001-0.195012-0.284399-0.354861-0.48465-0.462681c-0.200249-0.107847-0.425791-0.159669-0.65304-0.15003
	c-0.197821-0.00954-0.394739,0.032634-0.571321,0.122418c-0.176487,0.08982-0.326609,0.2241-0.435419,0.38961V6.668522h-0.749338
	v3.443202h0.756538V8.206037c0-0.598311,0.33075-0.914751,0.84276-0.914751c0.5121,0,0.74934,0.323604,0.74934,0.90756v1.915767
	h0.75654V8.206037c0-0.598311,0.34524-0.914751,0.84285-0.914751s0.75654,0.323604,0.75654,0.90756v1.915767H29.562086z
	 M40.756195,6.671384h-1.224178V5.627222h-0.749073v1.044162h-0.699116v0.68463h0.699116v1.570581
	c0,0.799677,0.309155,1.27575,1.195023,1.27575c0.330837,0.001053,0.65538-0.09117,0.936359-0.266068l-0.215641-0.641493
	c-0.201057,0.119772-0.429298,0.186552-0.663208,0.194176c-0.373951,0-0.497433-0.230122-0.497433-0.575316v-1.55763h1.223911
	L40.756195,6.671384z M47.146465,6.585092c-0.182789-0.005328-0.363689,0.038781-0.52335,0.127629
	c-0.15984,0.088848-0.292591,0.219159-0.38448,0.377199V6.671384h-0.742142v3.443229h0.749432V8.184455
	c0-0.575316,0.244438-0.885978,0.73494-0.885978c0.160473-0.002313,0.319771,0.027009,0.469082,0.086292l0.230038-0.706194
	C47.508625,6.617339,47.328266,6.585722,47.146465,6.585092z M37.488297,6.946118
	c-0.424263-0.252063-0.912064-0.376866-1.40517-0.359586c-0.871651,0-1.43829,0.417096-1.43829,1.101735
	c0,0.562365,0.417328,0.907524,1.188091,1.015408l0.352261,0.050337c0.410038,0.057537,0.605789,0.165384,0.605789,0.359559
	c0,0.266094-0.273418,0.417087-0.785519,0.417087c-0.413101,0.013131-0.818375-0.113571-1.150475-0.35955l-0.352619,0.58392
	c0.436592,0.305118,0.959309,0.461926,1.49157,0.447318c0.993961,0,1.57077-0.468873,1.57077-1.123281
	c0-0.605512-0.45459-0.921925-1.202492-1.029799L36.009956,7.99892c-0.323643-0.043146-0.584099-0.107874-0.584099-0.337996
	c0-0.251703,0.244438-0.404145,0.655739-0.404145c0.376919,0.005571,0.746368,0.107037,1.073067,0.294822L37.488297,6.946118z
	 M57.557934,6.586532c-0.182789-0.005328-0.363419,0.038781-0.523258,0.127638
	c-0.159569,0.088848-0.292412,0.219159-0.384209,0.37719V6.671384h-0.742142v3.443229h0.74934V8.184455
	c0-0.575316,0.24453-0.885978,0.734943-0.885978c0.160469-0.002313,0.319767,0.027009,0.468807,0.086292l0.230038-0.706194
	c-0.17136-0.061236-0.351627-0.092853-0.53352-0.093482V6.586532z M47.904266,8.394452
	c0,1.044162,0.727741,1.807893,1.836628,1.807893c0.449821,0.022248,0.891541-0.124497,1.238312-0.411336l-0.359459-0.605511
	c-0.261002,0.196875-0.578972,0.303848-0.906303,0.304901c-0.598228,0-1.036888-0.440118-1.036888-1.101726
	c0-0.661599,0.440193-1.0945,1.036888-1.101699c0.325802,0.003528,0.641613,0.111978,0.900635,0.309213l0.359459-0.605502
	c-0.346859-0.286848-0.788582-0.433593-1.2384-0.411345c-1.108894,0-1.83654,0.763731-1.83654,1.80792L47.904266,8.394452z
	 M54.920128,8.394452v-1.72593h-0.747902v0.418536c-0.127621-0.164871-0.293221-0.296721-0.482311-0.384543
	c-0.189091-0.087831-0.396542-0.129078-0.604889-0.120285c-0.965248,0-1.726109,0.756531-1.726109,1.807893
	c0,1.05138,0.756626,1.80792,1.726109,1.80792c0.208347,0.008794,0.415798-0.032454,0.604889-0.120285
	c0.189091-0.087858,0.354691-0.219699,0.482311-0.384579v0.417124h0.749428L54.920128,8.394452z M52.132736,8.394452
	c0-0.605503,0.39555-1.101727,1.04409-1.101727c0.62001,0,1.037251,0.476073,1.037251,1.101727
	c0,0.625626-0.41724,1.101699-1.037251,1.101699C52.528286,9.496151,52.132736,8.998523,52.132736,8.394452z M43.097454,6.585092
	c-1.006561,0-1.714409,0.734976-1.714409,1.80792c0,1.094499,0.735031,1.807893,1.764992,1.807893
	c0.513988,0.018,1.016727-0.154035,1.412369-0.483274l-0.366661-0.555174c-0.286377,0.228889-0.640709,0.355464-1.006832,0.359587
	c-0.483295,0-0.921959-0.222948-1.030045-0.842823h2.557438c0.007198-0.093483,0.0144-0.186975,0.0144-0.287659
	c0-1.072944-0.670502-1.807884-1.635483-1.807884L43.097454,6.585092z M43.083328,7.255331
	c0.483208,0,0.792446,0.302049,0.871647,0.835632h-1.79361c0.07893-0.497628,0.381241-0.835632,0.914761-0.835632H43.083328z
	 M61.878475,8.393012V5.289227h-0.749344V7.08992c-0.127708-0.164844-0.292946-0.296721-0.482395-0.384543
	c-0.189091-0.087831-0.396542-0.129078-0.604889-0.120285c-0.965252,0-1.726109,0.756531-1.726109,1.80792
	c0,1.051353,0.756626,1.807893,1.726109,1.807893c0.208347,0.008793,0.415798-0.032463,0.604889-0.120285
	c0.189449-0.08783,0.354687-0.219699,0.482395-0.384543v0.417088h0.749344V8.393012z M62.754353,9.79676
	c0.029797-0.000126,0.059048,0.005752,0.086403,0.017253c0.026188,0.011223,0.050308,0.027333,0.070469,0.047448
	c0.020161,0.019782,0.036091,0.0432,0.047523,0.069039c0.011517,0.026793,0.017456,0.055665,0.017456,0.084869
	c0,0.029179-0.005939,0.058051-0.017456,0.084852c-0.011433,0.02583-0.027363,0.049257-0.047523,0.069038
	c-0.020515,0.020053-0.044281,0.036154-0.070469,0.047476c-0.027355,0.011593-0.056606,0.017496-0.086403,0.017253
	c-0.043648,0.00054-0.086758-0.011862-0.123745-0.035649c-0.036724-0.023787-0.065609-0.057923-0.083435-0.098118
	c-0.011425-0.026829-0.017097-0.055674-0.017097-0.084852c0-0.029169,0.005672-0.05805,0.017097-0.084869
	c0.022591-0.052813,0.065075-0.094635,0.118084-0.116488c0.025829-0.010809,0.053905-0.016685,0.081902-0.017253H62.754353z
	 M62.754353,10.185092c0.022861,0.000333,0.045181-0.004059,0.066242-0.012942
	c0.019894-0.008586,0.037888-0.020781,0.053284-0.035982c0.031948-0.032066,0.049679-0.075509,0.049679-0.120798
	c0-0.045279-0.017731-0.088721-0.049679-0.120825c-0.015396-0.015264-0.03339-0.027459-0.053284-0.035946
	c-0.021061-0.00882-0.043381-0.013221-0.066242-0.012951c-0.023212-0.000297-0.046078,0.004095-0.067406,0.012951
	c-0.025921,0.010962-0.048512,0.027999-0.065975,0.04968c-0.017452,0.021682-0.029518,0.047305-0.034916,0.074664
	c-0.005402,0.027369-0.00396,0.055612,0.003868,0.082324c0.00819,0.026729,0.022591,0.051065,0.042213,0.070901
	c0.015656,0.01539,0.034286,0.027613,0.05481,0.035982c0.018894,0.00846,0.039421,0.013338,0.060211,0.014364L62.754353,10.185092z
	 M62.767319,9.911798c0.021683-0.001503,0.043018,0.004608,0.060478,0.017289
	c0.006927,0.005625,0.012691,0.012879,0.016556,0.021132c0.003605,0.008253,0.005405,0.017253,0.00486,0.026316
	c0.000275,0.007768-0.000896,0.015534-0.00396,0.022734c-0.002968,0.007192-0.007465,0.013662-0.013226,0.018964
	c-0.013233,0.011744-0.029793,0.018819-0.047611,0.020142l0.06633,0.076239h-0.051842l-0.061737-0.076239h-0.020161v0.076239
	h-0.043026V9.911798H62.767319z M62.717007,9.949193v0.054684h0.050312c0.008995,0.002584,0.01836,0.002584,0.027355,0
	c0.00333-0.002232,0.006027-0.005247,0.007561-0.008766c0.001797-0.003519,0.002697-0.007434,0.00243-0.011384
	c0.000267-0.003942-0.000633-0.007858-0.00243-0.011376c-0.001534-0.003529-0.00423-0.006535-0.007561-0.008766
	c-0.008995-0.002584-0.01836-0.002584-0.027355,0L62.717007,9.949193z M59.091087,8.391562
	c0-0.605511,0.395638-1.10169,1.04409-1.10169c0.620007,0,1.03698,0.476037,1.03698,1.10169s-0.416973,1.101699-1.03698,1.101699
	C59.486725,9.493261,59.091087,8.995634,59.091087,8.391562z M33.792175,8.391562v-1.72593h-0.76239v0.418536
	c-0.1278-0.164844-0.293221-0.296721-0.482399-0.384543c-0.189182-0.087831-0.396629-0.129078-0.60498-0.120285
	c-0.965071,0-1.725929,0.756531-1.725929,1.80792c0,1.051353,0.756538,1.807894,1.725929,1.807894
	c0.208351,0.008793,0.415798-0.032463,0.60498-0.120285c0.189178-0.087831,0.354599-0.219699,0.482399-0.384543v0.417087h0.749432
	L33.792175,8.391562z M31.004696,8.391562c0-0.605511,0.39546-1.10169,1.044178-1.10169
	c0.619831,0,1.03698,0.476037,1.03698,1.10169s-0.417149,1.101699-1.03698,1.101699
	c-0.657358-0.002862-1.052908-0.494739-1.052908-1.100249L31.004696,8.391562z"/>
<path class="st1" d="M14.542886,4.299578h-4.530528v8.141967h4.530528V4.299578z"/>
<path class="st2" d="M10.305236,8.371403c-0.000603-0.783999,0.177129-1.557873,0.519732-2.263077
	c0.342629-0.705168,0.841166-1.323171,1.45791-1.807227c-0.763857-0.6003-1.6812-0.973583-2.64717-1.077216
	c-0.965934-0.103603-1.94157,0.06663-2.815371,0.491244C5.946554,4.139783,5.20985,4.801688,4.694447,5.625179
	c-0.515409,0.823527-0.78873,1.77543-0.78873,2.746944c0,0.971505,0.273322,1.923417,0.78873,2.746908
	c0.515403,0.823554,1.252107,1.485414,2.12589,1.910034c0.873801,0.42471,1.849437,0.594899,2.815371,0.491309
	c0.96597-0.10368,1.883313-0.47691,2.64717-1.077209c-0.616923-0.48429-1.115578-1.102472-1.458216-1.807911
	C10.482032,9.929807,10.304417,9.155636,10.305236,8.371403z"/>
<path class="st3" d="M20.160057,11.578769v-0.166824h0.069029v-0.034533h-0.172621v0.034533h0.067591v0.166824H20.160057z
	 M20.492245,11.578769v-0.201357h-0.051748l-0.06039,0.14382l-0.06039-0.14382h-0.053278v0.201357h0.037439v-0.15102
	l0.056068,0.130878h0.038879l0.05607-0.130878v0.15247L20.492245,11.578769z"/>
<path class="st3" d="M20.661356,8.371673c0,0.971596-0.27342,1.923561-0.78894,2.747088
	c-0.515429,0.823554-1.25226,1.485414-2.12616,1.910034c-0.873899,0.424529-1.849681,0.59472-2.81565,0.490859
	c-0.966059-0.10368-1.88334-0.47718-2.647151-1.077659c0.616482-0.48447,1.114902-1.10269,1.457622-1.807894
	c0.342719-0.705222,0.52074-1.479069,0.52074-2.263122c0-0.784089-0.17802-1.557936-0.52074-2.263167
	c-0.34272-0.705195-0.84114-1.323378-1.457623-1.807857c0.763902-0.60057,1.681362-0.974066,2.647512-1.077789
	c0.966149-0.103693,1.94193,0.066539,2.815919,0.491305c0.873989,0.424746,1.610731,1.086858,2.12616,1.910592
	C20.388386,6.447833,20.661625,7.399979,20.661356,8.371673z"/>
</svg>
