<svg width="20" height="26" viewBox="0 0 20 26" fill="none" xmlns="http://www.w3.org/2000/svg">
<path fill-rule="evenodd" clip-rule="evenodd" d="M7.84467 8.24892L14.1426 9.88808C14.517 9.98553 14.7435 10.3714 14.6461 10.7458L13.0069 17.0438C12.9095 17.4182 12.5236 17.6447 12.1492 17.5472L5.85122 15.9081C5.47683 15.8106 5.25031 15.4247 5.34776 15.0503L6.98692 8.75239C7.08436 8.37799 7.47027 8.15148 7.84467 8.24892ZM8.67969 9.78143C8.99426 9.86331 9.18288 10.1846 9.10101 10.4992C9.01913 10.8138 8.6978 11.0024 8.38321 10.9205C8.06862 10.8387 7.88002 10.5173 7.96189 10.2028C8.04377 9.88816 8.3651 9.69955 8.67969 9.78143ZM12.6665 10.8191C12.981 10.9009 13.1697 11.2223 13.0878 11.5369C13.0059 11.8515 12.6846 12.0401 12.37 11.9582C12.0554 11.8763 11.8668 11.555 11.9487 11.2404C12.0306 10.9258 12.3519 10.7372 12.6665 10.8191ZM11.6106 14.8757C11.9252 14.9576 12.1138 15.2789 12.032 15.5935C11.9501 15.9081 11.6288 16.0967 11.3142 16.0148C10.9996 15.933 10.811 15.6116 10.8929 15.2971C10.9747 14.9825 11.2961 14.7939 11.6106 14.8757ZM7.62386 13.8381C7.93844 13.92 8.12706 14.2413 8.04518 14.5559C7.9633 14.8705 7.64198 15.0591 7.32739 14.9772C7.01279 14.8953 6.82419 14.574 6.90607 14.2594C6.98795 13.9448 7.30927 13.7562 7.62386 13.8381ZM10.1451 12.3287C10.4596 12.4105 10.6483 12.7319 10.5664 13.0465C10.4845 13.3611 10.1632 13.5497 9.84858 13.4678C9.53399 13.3859 9.34539 13.0646 9.42727 12.75C9.50914 12.4354 9.83047 12.2468 10.1451 12.3287Z" fill="white"/>
<path fill-rule="evenodd" clip-rule="evenodd" d="M6.5125 0.234601L19.2181 3.5415C19.4357 3.59811 19.5672 3.82217 19.5106 4.0397L13.9852 25.2691C13.9286 25.4867 13.7045 25.6182 13.487 25.5616L0.78134 22.2547C0.563814 22.198 0.432302 21.974 0.488917 21.7565L6.0143 0.527024C6.07092 0.309499 6.29497 0.177986 6.5125 0.234601ZM7.12855 22.1603L7.9911 22.3848C8.24878 22.4519 8.40474 22.7176 8.33767 22.9753C8.27061 23.2329 8.0049 23.3889 7.74722 23.3218L6.88466 23.0973C6.62698 23.0303 6.47102 22.7646 6.53809 22.5069C6.60516 22.2492 6.87086 22.0932 7.12855 22.1603ZM14.2998 3.75817C14.4293 3.79187 14.5614 3.71415 14.5951 3.58489C14.6288 3.45541 14.551 3.3233 14.4218 3.28966L10.8228 2.35294C10.6933 2.31925 10.5612 2.39697 10.5275 2.52623C10.4938 2.6557 10.5716 2.78782 10.7008 2.82146L14.2998 3.75817ZM17.8344 5.67461L6.68045 2.77158L2.1646 20.1222L13.3185 23.0253L17.8344 5.67461Z" fill="white"/>
</svg>
