<svg width="18" height="18" viewBox="0 0 18 18" fill="none" xmlns="http://www.w3.org/2000/svg">
<path d="M17.2176 3.40415V0.837402H14.6508L9.72266 6.33025L11.6221 8.43505L17.2176 3.40415Z" fill="white"/>
<path d="M0.789095 15.9811C0.789095 16.6997 1.35384 17.2645 2.07247 17.2645C2.8939 17.2645 3.50988 16.4945 3.30445 15.7244L5.8712 13.1577L7.9246 15.2111V13.671L6.8979 12.6443L8.18128 11.515L6.38455 9.87231L5.30645 11.0531L4.27975 10.0264H2.7397L4.7931 12.0798L2.22635 14.6465C1.50772 14.5437 0.789062 15.1597 0.789062 15.9812L0.789095 15.9811Z" fill="white"/>
<path d="M10.0294 13.671V15.211L12.0828 13.1576L14.6496 15.7244C14.4956 16.5458 15.1115 17.2644 15.8816 17.2644C16.6002 17.2644 17.1649 16.6997 17.1649 15.9811C17.1649 15.211 16.4463 14.595 15.6249 14.6977L13.0581 12.1309L15.1115 10.0775H13.5715L12.5448 11.0528L3.35581 0.837158H0.789062V3.40391L11.0561 12.6956L10.0294 13.671Z" fill="white"/>
</svg>
