<svg width="52" height="50" viewBox="0 0 52 50" fill="none" xmlns="http://www.w3.org/2000/svg">
<rect x="45.6699" y="27.3293" width="1.27567" height="4.78931" rx="0.637835" fill="#00FEE8"/>
<rect x="48.7024" y="29.0862" width="1.27567" height="4.78931" rx="0.637835" transform="rotate(90 48.7024 29.0862)" fill="#00FEE8"/>
<rect x="12.6222" y="5.77002" width="1.27567" height="6.57027" rx="0.637835" transform="rotate(90 12.6222 5.77002)" fill="#00FEE8"/>
<rect x="5.15619" y="5.77002" width="1.27567" height="4.78931" rx="0.637835" transform="rotate(90 5.15619 5.77002)" fill="#00FEE8"/>
<rect x="12.6223" y="8.20361" width="1.27567" height="12.2554" rx="0.637835" transform="rotate(90 12.6223 8.20361)" fill="#00FEE8"/>
<circle cx="48.7024" cy="2.95482" r="2.31518" stroke="#00FEE8"/>
<path d="M38.4221 20.4817L37.5752 14.5837C37.5343 14.3184 37.3405 14.1144 37.0752 14.0837L31.1772 13.2368C30.9731 13.2164 30.7691 13.2878 30.6364 13.4409L10.4834 36.6551C8.90182 35.2775 6.89163 34.5122 4.76919 34.5122C4.43246 34.5122 4.17736 34.7775 4.17736 35.1041V38.4714C4.17736 38.6245 4.23858 38.7775 4.36103 38.8898L6.46306 40.9918L2.91206 44.5428C1.7488 45.6958 1.7488 47.5938 2.91206 48.7571C3.49369 49.3387 4.25899 49.6244 5.01409 49.6244C5.77939 49.6244 6.53449 49.3387 7.11612 48.7571L10.6671 45.2061L12.7692 47.3081C12.8814 47.4203 13.0345 47.4918 13.1875 47.4918H16.5548C16.8916 47.4918 17.1467 47.2265 17.1467 46.8999C17.1467 44.7673 16.3814 42.7673 15.0038 41.1857L38.2282 21.0225C38.3711 20.8796 38.4527 20.6858 38.4221 20.4817ZM6.26918 47.9203C5.57531 48.6142 4.43246 48.6142 3.74879 47.9203C3.05491 47.2265 3.05491 46.0836 3.74879 45.3999L4.16715 44.9816L6.68755 47.502L6.26918 47.9203ZM7.52428 46.655L5.00388 44.1346L5.85082 43.2877L8.37121 45.8081L7.52428 46.655ZM9.21815 44.9816L6.68755 42.451L7.28959 41.8489L9.80998 44.3693L9.21815 44.9816ZM15.9324 46.2979H13.4324L5.36102 38.2265V35.7265C7.14673 35.8694 8.80999 36.6347 10.0855 37.9102L13.7385 41.5632C15.0344 42.8489 15.7998 44.5122 15.9324 46.2979ZM14.1773 40.3081L11.3508 37.4816L31.3405 14.4715L36.4731 15.2062L37.2078 20.3388L14.1773 40.3081Z" fill="#00FEE8"/>
<path d="M32.8711 21.6551L26.9731 20.8081C26.6568 20.7571 26.3405 20.9918 26.2997 21.3081C26.2589 21.6245 26.4834 21.9408 26.7997 21.9816L32.6976 22.8285H32.7792C33.0752 22.8285 33.3303 22.6142 33.3609 22.3183C33.4221 22.002 33.1976 21.7061 32.8711 21.6551Z" fill="#00FEE8"/>
<path d="M29.5345 25.0226L25.3202 24.1756C25.0039 24.1042 24.6876 24.3185 24.6161 24.645C24.5549 24.9613 24.759 25.2777 25.0855 25.3491L29.2998 26.196C29.3406 26.2062 29.3814 26.2062 29.4222 26.2062C29.6978 26.2062 29.9426 26.0123 30.0039 25.7266C30.0651 25.4103 29.861 25.094 29.5345 25.0226Z" fill="#00FEE8"/>
<path d="M8.26891 14.8998L13.4015 14.1652L21.0852 23.0121C21.1362 22.9712 21.1974 22.9304 21.2484 22.8896C21.2689 22.8794 21.2995 22.859 21.3403 22.8386L21.3505 22.8284C21.4525 22.7263 21.5546 22.6243 21.6566 22.5223C21.677 22.5019 21.6974 22.4814 21.7178 22.461C21.7995 22.3794 21.8913 22.2978 21.9729 22.2263L14.0852 13.1448C13.9526 12.9917 13.7485 12.9203 13.5444 12.9407L7.64647 13.7876C7.38116 13.8182 7.18729 14.0223 7.14647 14.2876L6.29953 20.1855C6.25872 20.3896 6.35055 20.5937 6.49341 20.7366L15.9526 28.9508C16.0036 28.91 16.0444 28.8692 16.0954 28.8284C16.1056 28.8284 16.1158 28.8181 16.126 28.8079C16.1566 28.7671 16.1974 28.7365 16.2281 28.6957C16.4219 28.4916 16.6362 28.3284 16.8199 28.1141L7.51381 20.0325L8.26891 14.8998Z" fill="#00FEE8"/>
<path d="M41.83 44.2469L38.279 40.6959L40.381 38.5939C40.5035 38.4919 40.5647 38.3286 40.5647 38.1755V34.8082C40.5647 34.4715 40.2994 34.2164 39.9729 34.2164C37.8504 34.2164 35.8402 34.9817 34.2586 36.3592L28.8096 30.0837C28.7892 30.1041 28.7586 30.1246 28.7382 30.1552C28.4729 30.4103 28.228 30.6858 27.9423 30.9103L33.3913 37.1755L30.5545 40.0021L24.228 34.5123C23.9933 34.8082 23.6974 35.1041 23.3607 35.298C23.3505 35.3082 23.3403 35.3184 23.3301 35.3286L29.728 40.8796C28.3505 42.4612 27.5852 44.4612 27.5852 46.5939C27.5852 46.9306 27.8505 47.1857 28.177 47.1857H31.5443C31.6974 47.1857 31.8504 47.1143 31.9627 47.002L34.0647 44.9L37.6157 48.451C38.1974 49.0326 38.9627 49.3183 39.7178 49.3183C40.4831 49.3183 41.2382 49.0326 41.8198 48.451C42.9932 47.2877 42.9933 45.4 41.83 44.2469ZM31.2994 45.9918H28.7994C28.9321 44.2061 29.6974 42.5429 30.9933 41.2572L34.6464 37.6041C35.9219 36.3286 37.5851 35.5633 39.3708 35.4205V37.9204L31.2994 45.9918ZM34.9117 44.0633L37.4321 41.5429L38.0341 42.1449L35.5137 44.6653L34.9117 44.0633ZM37.2076 46.349L36.3606 45.502L38.881 42.9816L39.728 43.8286L37.2076 46.349ZM40.9933 47.6143C40.2994 48.3081 39.1565 48.3081 38.4729 47.6143L38.0545 47.1959L40.5749 44.6755L40.9933 45.0939C41.6871 45.7775 41.6871 46.9204 40.9933 47.6143Z" fill="#00FEE8"/>
<path d="M11.8609 21.3489C11.5344 21.3999 11.3099 21.6959 11.3711 22.0122C11.4017 22.3081 11.6568 22.5224 11.9527 22.5224H12.0344L17.9323 21.6754C18.2486 21.6244 18.4833 21.3183 18.4323 21.002C18.3813 20.6857 18.0751 20.451 17.7588 20.502L11.8609 21.3489Z" fill="#00FEE8"/>
<path d="M15.1975 24.7164C14.8812 24.7878 14.6771 25.094 14.7281 25.4205C14.7894 25.7062 15.0343 25.9001 15.3098 25.9001C15.3506 25.9001 15.3914 25.9001 15.4322 25.8899L19.6465 25.0429C19.973 24.9715 20.1669 24.6654 20.1159 24.3389C20.0444 24.0123 19.7383 23.798 19.4118 23.8695L15.1975 24.7164Z" fill="#00FEE8"/>
</svg>
