<svg width="30" height="17" viewBox="0 0 30 17" fill="none" xmlns="http://www.w3.org/2000/svg">
<path d="M27.4535 3.15358C27.4535 2.7928 27.1614 2.50073 26.8006 2.50073H3.19875C2.83797 2.50073 2.5459 2.79283 2.5459 3.15358V13.4721C2.5459 13.8328 2.838 14.1249 3.19875 14.1249C3.55953 14.1249 3.8516 13.8328 3.8516 13.4721V3.80644H26.8006C27.1616 3.80644 27.4535 3.51434 27.4535 3.15358Z" fill="white"/>
<path d="M25.0228 0.715596C25.0228 0.354812 24.7307 0.0627441 24.3699 0.0627441H0.768087C0.407302 0.0627441 0.115234 0.354842 0.115234 0.715596V11.0341C0.115234 11.3948 0.407333 11.6869 0.768087 11.6869C1.12887 11.6869 1.42094 11.3948 1.42094 11.0341V1.36845H24.3699C24.731 1.36845 25.0228 1.07659 25.0228 0.715596Z" fill="white"/>
<path d="M29.1238 4.95801H5.52199C5.16121 4.95801 4.86914 5.25011 4.86914 5.61086V15.9293C4.86914 16.2901 5.16124 16.5822 5.52199 16.5822H29.1238C29.4846 16.5822 29.7767 16.2901 29.7767 15.9293V5.61086C29.7767 5.25008 29.4846 4.95801 29.1238 4.95801ZM28.471 15.2765H6.17484V6.26371H28.471V15.2765Z" fill="white"/>
<path d="M17.3232 13.7397C18.9605 13.7397 20.292 12.4078 20.292 10.771C20.292 9.13417 18.9605 7.80225 17.3232 7.80225C15.6859 7.80225 14.3545 9.13417 14.3545 10.771C14.3545 12.4078 15.6859 13.7397 17.3232 13.7397ZM17.3232 9.10825C18.2401 9.10825 18.9862 9.85432 18.9862 10.7712C18.9862 11.6881 18.2401 12.4342 17.3232 12.4342C16.4063 12.4342 15.6603 11.6881 15.6603 10.7712C15.6605 9.85432 16.4063 9.10825 17.3232 9.10825Z" fill="white"/>
</svg>
