<?xml version="1.0" encoding="utf-8"?>
<!-- Generator: Adobe Illustrator 26.4.1, SVG Export Plug-In . SVG Version: 6.00 Build 0)  -->
<svg version="1.1" id="Layer_1" xmlns="http://www.w3.org/2000/svg" xmlns:xlink="http://www.w3.org/1999/xlink" x="0px" y="0px"
	 viewBox="0 0 448 448" style="enable-background:new 0 0 448 448;" xml:space="preserve">
<style type="text/css">
	.st0{fill:#BAACD2;}
</style>
<path class="st0" d="M224,448c123.5,0,224-100.5,224-224S347.5,0,224,0S0,100.5,0,224S100.5,448,224,448z M42.2,334.6l39.5-22.8
	c8.3,13.5,18.5,25.7,30.2,36.2l-29.3,34.9C66.9,369,53.3,352.7,42.2,334.6L42.2,334.6z M15.3,265.7l44.9-7.9
	c3.2,15.7,8.7,30.5,16,44.3l-39.5,22.8C26.8,306.6,19.5,286.7,15.3,265.7L15.3,265.7z M11.2,224c0-10.9,0.8-21.7,2.4-32.2l44.9,7.9
	c-1.2,7.9-1.8,16-1.8,24.3c0,7.7,0.6,15.3,1.6,22.7l-44.9,7.9C12,244.7,11.2,234.4,11.2,224L11.2,224z M37.3,122l39.5,22.8
	c-7.4,13.6-12.9,28.4-16.3,44l-45-7.9C19.9,159.9,27.3,140.1,37.3,122L37.3,122z M146.2,26l15.6,42.9c-14.6,5.9-28.2,13.8-40.5,23.3
	L92,57.3C108.3,44.3,126.6,33.8,146.2,26z M355.9,57.3l-29.3,34.9c-12.3-9.6-25.9-17.5-40.5-23.3L301.7,26
	C321.4,33.8,339.6,44.3,355.9,57.3z M275.6,65c-14.6-4.7-30-7.5-46-8.1V11.3c21.5,0.6,42.2,4.3,61.6,10.8L275.6,65z M218.4,57
	c-16,0.5-31.5,3.3-46,8.1l-15.6-42.8c19.5-6.5,40.1-10.2,61.6-10.8V57z M224,68c86,0,156,70,156,156s-70,156-156,156S68,310,68,224
	S138,68,224,68z M432.4,180.8l-45,7.9c-3.4-15.6-8.9-30.4-16.3-44l39.5-22.8C420.6,140.1,428,159.9,432.4,180.8L432.4,180.8z
	 M436.8,224c0,10.4-0.8,20.6-2.2,30.6l-44.9-7.9c1-7.4,1.6-15,1.6-22.7c0-8.3-0.6-16.4-1.8-24.3l44.9-7.9
	C436,202.3,436.8,213.1,436.8,224L436.8,224z M411.3,324.9l-39.5-22.8c7.3-13.8,12.8-28.6,16-44.3l44.9,7.9
	C428.5,286.7,421.2,306.6,411.3,324.9L411.3,324.9z M302.2,421.9L286.6,379c14.8-6,28.5-14,40.8-23.8l29.3,34.9
	C340.4,403.3,322,414,302.2,421.9L302.2,421.9z M91.2,390.2l29.3-34.9c12.3,9.7,26,17.8,40.8,23.8L145.7,422
	C125.9,414,107.6,403.3,91.2,390.2L91.2,390.2z M171.8,382.9c14.7,4.8,30.3,7.7,46.5,8.2v45.6c-21.7-0.6-42.5-4.4-62.1-11
	L171.8,382.9z M229.6,391.1c16.2-0.5,31.8-3.4,46.5-8.2l15.6,42.8c-19.6,6.6-40.5,10.4-62.1,11V391.1z M365.3,383L336,348.1
	c11.7-10.6,21.9-22.8,30.2-36.2l39.5,22.8C394.7,352.7,381,369,365.3,383L365.3,383z M405,112.3l-39.5,22.8
	c-8.4-13.3-18.6-25.3-30.2-35.7l29.3-34.9C380.2,78.3,393.9,94.4,405,112.3z M83.4,64.5l29.3,34.9c-11.7,10.4-21.8,22.4-30.2,35.7
	L43,112.3C54.1,94.4,67.7,78.3,83.4,64.5L83.4,64.5z"/>
<path class="st0" d="M171.2,137.7c-20.3,0-36.5,6.1-47.5,17.8c-11,11.7-16.2,28.6-16.2,49.1c0,29.4,19.8,56.7,43.6,78.5
	s51.8,38.1,71.2,44.9c1.1,0.4,2.3,0.4,3.5,0c19.3-6.8,47.4-23.1,71.2-44.9c23.8-21.8,43.6-49.1,43.6-78.5c0-20.5-5.3-37.3-16.2-49.1
	c-11-11.7-27.3-17.8-47.5-17.8c-20.4,0-40,10.9-52.8,25.6C211.1,148.7,191.6,137.7,171.2,137.7L171.2,137.7z M171.2,148.3
	c18.4,0,38.1,11.6,48.5,25.9c1,1.4,2.6,2.2,4.3,2.2s3.3-0.8,4.3-2.2c10.4-14.3,30.1-25.9,48.5-25.9c18.2,0,31.1,5.1,39.7,14.4
	c8.7,9.3,13.4,23.2,13.4,41.9c0,24.5-17.5,49.9-40.1,70.7c-22,20.1-48.4,35.6-65.8,42.1c-17.4-6.5-43.8-22-65.8-42.1
	c-22.7-20.8-40.1-46.2-40.1-70.7c0-18.7,4.8-32.6,13.4-41.9C140.1,153.5,153,148.3,171.2,148.3L171.2,148.3z M211.1,192.4
	c-2.7,0.3-4.8,2.6-4.8,5.3v19.4h-19.4c-2.9,0-5.3,2.4-5.3,5.3v24.7c0,2.9,2.4,5.3,5.3,5.3h19.4v19.4c0,2.9,2.4,5.3,5.3,5.3h24.7
	c2.9,0,5.3-2.4,5.3-5.3v-19.4H261c2.9,0,5.3-2.4,5.3-5.3v-24.7c0-2.9-2.4-5.3-5.3-5.3h-19.4v-19.4c0-2.9-2.4-5.3-5.3-5.3h-24.7
	C211.5,192.4,211.3,192.4,211.1,192.4L211.1,192.4z M216.9,203H231v19.4c0,2.9,2.4,5.3,5.3,5.3h19.4v14.2h-19.4
	c-2.9,0-5.3,2.4-5.3,5.3v19.4h-14.1v-19.4c0-2.9-2.4-5.3-5.3-5.3h-19.4v-14.2h19.4c2.9,0,5.3-2.4,5.3-5.3V203z"/>
</svg>
