<?xml version="1.0" encoding="utf-8"?>
<!-- Generator: Adobe Illustrator 26.4.1, SVG Export Plug-In . SVG Version: 6.00 Build 0)  -->
<svg version="1.1" id="Layer_1" xmlns="http://www.w3.org/2000/svg" xmlns:xlink="http://www.w3.org/1999/xlink" x="0px" y="0px"
	 viewBox="0 0 472.1 559.6" style="enable-background:new 0 0 472.1 559.6;" xml:space="preserve">
<style type="text/css">
	.st0{fill:#BAACD2;}
</style>
<g>
	<path class="st0" d="M280.6,288.9c0,5.2,4.2,9.3,9.3,9.3s9.3-4.2,9.3-9.3c0-24.3-23-44.4-53-48.2v-14.1c0-5.2-4.2-9.3-9.3-9.3
		s-9.3,4.2-9.3,9.3v14c-30.9,3.2-54.8,23.5-54.8,48.3c0,31.6,39.5,49,54.8,54.6v70.3c-20.3-2.8-36.1-15.2-36.1-29.7
		c0-5.2-4.2-9.3-9.3-9.3s-9.3,4.2-9.3,9.3c0,24.8,24,45.1,54.8,48.3V447c0,5.2,4.2,9.3,9.3,9.3s9.3-4.2,9.3-9.3v-14.7
		c30-3.8,53-23.9,53-48.2c0-30.9-36.8-47.9-53-53.9v-70.5C265.6,262.8,280.6,274.9,280.6,288.9L280.6,288.9z M191.4,288.9
		c0-14.5,15.8-26.9,36.1-29.7v64.2C212.2,317,191.4,304.7,191.4,288.9z M280.6,384.1c0,14-14.9,26.1-34.3,29.4v-63.2
		C261.2,356.8,280.6,368.8,280.6,384.1z"/>
	<path class="st0" d="M464.8,547.6c3.7-7.4,2.8-16.4-2.1-22.9l-4.3-6c-4.2-6.1-8.1-11.5-13.1-16.5c-15.7-15.8-17-17.1-0.4-42.4
		c15.1-23,24.9-53.3,26.7-83.1c4.4-70.7-21.7-136.5-75.5-190.1c-15.7-15.6-33-29.4-50.6-42.5c22.8,2.4,51.6,8.6,67,23.5
		c7.5,7.3,11.1,15.9,11.1,26.3c0,5.2,4.2,9.3,9.3,9.3s9.3-4.2,9.3-9.3c0-15.5-5.6-28.8-16.8-39.6c-26.2-25.5-76.5-29.5-97.4-30.1
		c0-0.2,0.1-0.4,0.1-0.7c1.8,0,3.9,0.1,6.2,0.1c28.1,0,91-3.2,133.3-29.8c4.4-2.8,5.7-8.5,2.9-12.9s-8.5-5.6-12.9-2.9
		c-35.1,22.1-88.5,26.3-117,26.9c24-29.5,37.7-73.8,37.7-94.7c0-0.6-0.2-1.2-0.4-1.8c-0.1-0.5-0.1-1.1-0.3-1.6
		c-0.2-0.6-0.6-1.1-1-1.6c-0.3-0.5-0.5-1-0.9-1.4c-0.5-0.5-1.1-0.8-1.6-1.2c-0.4-0.3-0.8-0.6-1.3-0.9c-0.7-0.3-1.4-0.4-2.1-0.5
		c-0.4-0.1-0.8-0.3-1.3-0.3H369c0,0,0,0-0.1,0l0,0C302-2.5,274.6,16.4,263.8,29c-6.6-10.8-15.1-18.6-25.6-23.1
		c-37.6-16.2-84.6,15.1-86.5,16.4c-1.5,1-2.5,2.4-3.2,3.9C125.3,15.8,110,3.1,109.7,2.9c-2.8-2.4-6.6-2.9-10-1.4
		C96.4,3,94.3,6.3,94.3,10c0,26.5,22.1,90.6,59.1,114.4c-25.2,18-53.6,38.3-77.5,62.2C22.1,240.2-4,305.9,0.5,376.6
		c1.9,29.8,11.6,60.1,26.7,83.1c16.6,25.3,15.3,26.6-0.4,42.4c-5.2,5.3-9.5,11.3-14.4,18.2l-3.1,4.3c-5.1,6.6-5.9,15.4-2.2,22.8
		c3.6,7.4,11.3,12.2,19.6,12.2h418.7C453.6,559.7,461.3,554.9,464.8,547.6L464.8,547.6z M116.1,30.3c19.2,12,51.6,27.7,89.2,27.7
		c5.2,0,9.3-4.2,9.3-9.3s-4.2-9.3-9.3-9.3c-13,0-25.4-2.2-36.7-5.6c12.6-7,40.8-20,62.1-10.8c14.4,6.3,23.8,22.4,27.9,48
		c0.7,4.6,4.7,7.9,9.2,7.9c0.5,0,1,0,1.5-0.1c5.1-0.8,8.5-5.6,7.7-10.7c-1.1-7.1-2.8-13.4-4.7-19.4c1-0.9,2-1.8,2.5-3.1
		c0.1-0.3,12.3-27.6,84-26.6c-4.5,29.1-27.8,83.9-58.7,94.3c-0.3,0.1-0.5,0.3-0.8,0.5H175.1c-0.5,0-0.9,0.2-1.3,0.3
		c-0.4-0.2-0.7-0.5-1.2-0.7C145.4,104.2,124,60.5,116.1,30.3L116.1,30.3z M445.3,541H26.6c-1.2,0-2.3-0.7-2.8-1.8s-0.4-2.3,0.3-3.3
		l4.7-6.5c3.2-4.6,7-9.9,11.2-14.1c24-24.2,22-36.4,2.7-65.8c-13.4-20.4-22-47.4-23.7-74.1c-4.1-65.2,20.1-125.9,70-175.6
		c23.3-23.3,50.4-42.6,76.7-61.3l8.7-6.2c0.2,0,0.4,0.1,0.7,0.1h122.2l8.7,5.9c26.4,18.8,53.8,38.3,76.9,61.4
		c49.9,49.7,74.1,110.4,70,175.7c-1.6,26.7-10.3,53.6-23.7,74c-19.3,29.4-21.3,41.6,2.7,65.8c4,4,7.4,8.8,11.7,14.9l4.2,5.8
		c0.7,0.9,0.8,2.2,0.3,3.3C447.6,540.4,446.5,541,445.3,541L445.3,541z"/>
</g>
</svg>
