<svg width="31" height="28" viewBox="0 0 31 28" fill="none" xmlns="http://www.w3.org/2000/svg">
<path d="M3.01266 12.04C3.16225 12.04 3.31339 11.9977 3.44786 11.9099L9.47193 7.97023L15.4493 9.39588C15.7312 9.46301 16.027 9.3721 16.2224 9.15827L22.193 2.6221L28.0219 4.41737C28.4418 4.54695 28.8883 4.31112 29.0176 3.89059C29.1472 3.47029 28.9112 3.02417 28.4909 2.89483L22.1795 0.951105C21.8847 0.860417 21.5644 0.947549 21.3568 1.17515L15.3624 7.73694L9.50785 6.34065C9.29491 6.28953 9.07042 6.32887 8.88706 6.44889L2.57564 10.5762C2.20734 10.8171 2.10399 11.3108 2.34493 11.6789C2.49785 11.9127 2.75257 12.0396 3.01237 12.0396L3.01266 12.04Z" fill="white"/>
<path d="M29.9726 25.8565H29.0524V10.0284C29.0524 9.58833 28.6959 9.23181 28.2558 9.23181C27.8157 9.23181 27.4592 9.58833 27.4592 10.0284V25.8565H22.7413V8.0847C22.7413 7.6446 22.3848 7.28809 21.9447 7.28809C21.5046 7.28809 21.1481 7.6446 21.1481 8.0847V25.8565H16.4302V14.9936C16.4302 14.5535 16.0737 14.197 15.6336 14.197C15.1935 14.197 14.837 14.5535 14.837 14.9936V25.8565H10.1192V13.488C10.1192 13.0479 9.76263 12.6914 9.32254 12.6914C8.88245 12.6914 8.52593 13.0479 8.52593 13.488V25.8565L3.80807 25.8563V17.6153C3.80807 17.1752 3.45155 16.8187 3.01146 16.8187C2.57137 16.8187 2.21485 17.1752 2.21485 17.6153V25.8568L1.29466 25.8566C0.854564 25.8566 0.498047 26.2131 0.498047 26.6532C0.498047 27.0933 0.854564 27.4498 1.29466 27.4498H29.9726C30.4127 27.4498 30.7692 27.0933 30.7692 26.6532C30.7692 26.2133 30.4127 25.8566 29.9726 25.8566V25.8565Z" fill="white"/>
</svg>
