<?xml version="1.0" encoding="utf-8"?>
<!-- Generator: Adobe Illustrator 26.4.1, SVG Export Plug-In . SVG Version: 6.00 Build 0)  -->
<svg version="1.1" id="Layer_1" xmlns="http://www.w3.org/2000/svg" xmlns:xlink="http://www.w3.org/1999/xlink" x="0px" y="0px"
	 viewBox="0 0 347.2 347.2" style="enable-background:new 0 0 347.2 347.2;" xml:space="preserve">
<style type="text/css">
	.st0{fill:#BAACD2;}
</style>
<path class="st0" d="M78.4,173.6c0,52.5,42.7,95.2,95.2,95.2s95.2-42.7,95.2-95.2s-42.7-95.2-95.2-95.2S78.4,121.1,78.4,173.6
	L78.4,173.6z M257.6,173.6c0,46.3-37.7,84-84,84s-84-37.7-84-84s37.7-84,84-84S257.6,127.3,257.6,173.6z M319.2,145.6
	c-15.4,0-28,12.6-28,28s12.6,28,28,28s28-12.6,28-28S334.6,145.6,319.2,145.6z M319.2,190.4c-9.3,0-16.8-7.5-16.8-16.8
	s7.5-16.8,16.8-16.8s16.8,7.5,16.8,16.8S328.5,190.4,319.2,190.4L319.2,190.4z M173.6,56c15.4,0,28-12.6,28-28S189,0,173.6,0
	s-28,12.6-28,28S158.2,56,173.6,56z M173.6,11.2c9.3,0,16.8,7.5,16.8,16.8c0,9.3-7.5,16.8-16.8,16.8s-16.8-7.5-16.8-16.8
	C156.8,18.7,164.3,11.2,173.6,11.2z M56,173.6c0-15.4-12.6-28-28-28s-28,12.6-28,28s12.6,28,28,28S56,189,56,173.6z M28,190.4
	c-9.3,0-16.8-7.5-16.8-16.8s7.5-16.8,16.8-16.8s16.8,7.5,16.8,16.8S37.3,190.4,28,190.4z M173.6,291.2c-15.4,0-28,12.6-28,28
	s12.6,28,28,28s28-12.6,28-28S189,291.2,173.6,291.2z M173.6,336c-9.3,0-16.8-7.5-16.8-16.8s7.5-16.8,16.8-16.8s16.8,7.5,16.8,16.8
	S182.9,336,173.6,336z M40.4,130.5l-10.7-3.4C41.3,91,66.8,60.2,99.9,41.6l-4.5-10.1l33.3,3.6L109,62.2l-4.6-10.3
	C74.3,69.1,51.1,97.5,40.4,130.5L40.4,130.5z M216.7,40.4l3.4-10.7c36.1,11.7,66.9,37.1,85.5,70.2l10.1-4.5l-3.6,33.3L285,109
	l10.3-4.5C278.1,74.3,249.7,51.1,216.7,40.4L216.7,40.4z M130.5,306.8l-3.4,10.7c-36.1-11.6-66.9-37.1-85.5-70.2l-10.1,4.5l3.6-33.3
	l27.1,19.7l-10.3,4.5C69.1,272.9,97.5,296.1,130.5,306.8L130.5,306.8z M306.8,216.7l10.7,3.4c-11.6,36.1-37.1,66.9-70.2,85.5
	l4.5,10.1l-33.3-3.6l19.7-27.1l4.6,10.3C272.9,278.1,296.1,249.7,306.8,216.7L306.8,216.7z M173.6,123.2c18.5,0,33.6,15.1,33.6,33.6
	c0,8.7-3.4,16.9-9.3,23.1c8.9,4.9,16.2,12.5,20.8,21.7c1.4,2.8,0.3,6.1-2.5,7.5c-2.7,1.4-6.1,0.3-7.5-2.5
	c-4.8-9.6-13.3-16.9-23.3-20c-2.1-0.7-3.7-2.6-3.9-4.8c-0.2-2.2,0.9-4.4,2.9-5.5c7.2-4,11.7-11.5,11.7-19.5
	c0-12.4-10-22.4-22.4-22.4s-22.4,10-22.4,22.4c0,8.1,4.5,15.6,11.7,19.5c2,1.1,3.1,3.2,2.9,5.5c-0.2,2.2-1.8,4.1-3.9,4.8
	c-10.1,3.2-18.6,10.4-23.3,20c-1.4,2.8-4.8,3.9-7.5,2.5c-2.8-1.4-3.9-4.7-2.5-7.5c4.6-9.2,11.9-16.8,20.8-21.7
	c-5.9-6.1-9.3-14.4-9.3-23C140,138.3,155.1,123.2,173.6,123.2L173.6,123.2z"/>
</svg>
