<?xml version="1.0" encoding="utf-8"?>
<!-- Generator: Adobe Illustrator 26.4.1, SVG Export Plug-In . SVG Version: 6.00 Build 0)  -->
<svg version="1.1" id="Layer_1" xmlns="http://www.w3.org/2000/svg" xmlns:xlink="http://www.w3.org/1999/xlink" x="0px" y="0px"
	 viewBox="0 0 532 466.2" style="enable-background:new 0 0 532 466.2;" xml:space="preserve">
<style type="text/css">
	.st0{fill:#BAACD2;}
</style>
<path class="st0" d="M44.2,195.4c2.6,0,5.3-0.7,7.6-2.3l105.9-69.2L262.8,149c5,1.2,10.2-0.4,13.6-4.2L381.3,29.9l102.4,31.6
	c7.4,2.3,15.2-1.9,17.5-9.3s-1.9-15.2-9.3-17.5L381,0.6c-5.2-1.6-10.8-0.1-14.5,3.9L261.2,119.8L158.3,95.3
	c-3.7-0.9-7.7-0.2-10.9,1.9L36.5,169.7c-6.5,4.2-8.3,12.9-4.1,19.4C35.1,193.2,39.6,195.4,44.2,195.4L44.2,195.4z"/>
<path class="st0" d="M518,438.3h-16.2V160.1c0-7.7-6.3-14-14-14s-14,6.3-14,14v278.2h-82.9V125.9c0-7.7-6.3-14-14-14s-14,6.3-14,14
	v312.3H280V247.4c0-7.7-6.3-14-14-14s-14,6.3-14,14v190.9h-82.9V220.9c0-7.7-6.3-14-14-14s-14,6.3-14,14v217.4H58.2V293.4
	c0-7.7-6.3-14-14-14s-14,6.3-14,14v144.8H14c-7.7,0-14,6.3-14,14s6.3,14,14,14h504c7.7,0,14-6.3,14-14
	C532,444.5,525.7,438.3,518,438.3L518,438.3z"/>
</svg>
