<svg width="35" height="27" viewBox="0 0 35 27" fill="none" xmlns="http://www.w3.org/2000/svg">
<path d="M33.028 0.954803H1.79422C1.05691 0.957661 0.463386 1.66662 0.460938 2.54801V24.8506C0.463329 25.732 1.05689 26.4409 1.79422 26.4438H33.028C33.7654 26.4409 34.3589 25.732 34.3613 24.8506V2.54801C34.3592 1.66663 33.7656 0.957729 33.0283 0.954803H33.028ZM33.162 25.0106C33.1248 25.0537 33.0799 25.0779 33.028 25.0779H1.79422C1.74241 25.0779 1.69751 25.0537 1.66005 25.0106C1.62418 24.9658 1.60398 24.9121 1.60398 24.8502V2.54763C1.60398 2.4854 1.62418 2.43206 1.66031 2.38729C1.69751 2.34411 1.74241 2.31998 1.79423 2.31998H33.028C33.0799 2.31998 33.1248 2.34411 33.1622 2.38729C33.1989 2.43174 33.2185 2.48508 33.2185 2.54763V24.8502C33.2185 24.9121 33.1984 24.9658 33.1622 25.0106H33.162Z" fill="#BAACD2"/>
<path d="M21.6025 4.59601C21.2871 4.59601 21.0312 4.90175 21.0312 5.27861L21.032 22.1193C21.032 22.4962 21.2879 22.8019 21.6033 22.8019C21.9187 22.8019 22.1745 22.4962 22.1745 22.1193L22.1737 5.27861C22.1737 4.90175 21.9179 4.59601 21.6025 4.59601Z" fill="#BAACD2"/>
<path d="M18.9699 11.5697C18.8057 11.2472 18.4542 11.1446 18.1845 11.3411L16.6127 12.4844L16.6124 10.2851C16.6124 9.90824 16.3565 9.60249 16.0412 9.60249C15.7258 9.60249 15.4699 9.90824 15.4699 10.2851V12.4844L13.8981 11.3411C13.6287 11.1446 13.2772 11.2468 13.113 11.5697C12.9488 11.8917 13.0346 12.3117 13.3043 12.5079L14.9423 13.6988L13.304 14.89C13.0343 15.0856 12.9485 15.5062 13.1127 15.8282C13.2769 16.1504 13.6284 16.253 13.8978 16.0568L15.4696 14.9135V17.1125C15.4696 17.4894 15.7255 17.7951 16.0409 17.7951C16.3563 17.7951 16.6121 17.4894 16.6121 17.1125V14.9132L18.1839 16.0565C18.4536 16.2527 18.8051 16.1501 18.9694 15.8279C19.1336 15.5059 19.0477 15.0856 18.7781 14.8897L17.1403 13.6988L18.7786 12.5076C19.0483 12.3114 19.1336 11.8913 18.9699 11.5697H18.9699Z" fill="#BAACD2"/>
<path d="M10.9718 11.5697C10.8076 11.2472 10.4561 11.1446 10.1864 11.3411L8.61461 12.4844L8.61435 10.2851C8.61435 9.90824 8.35849 9.60249 8.04311 9.60249C7.72773 9.60249 7.47187 9.90824 7.47187 10.2851V12.4844L5.90004 11.3411C5.63063 11.1446 5.27911 11.2468 5.11491 11.5697C4.95071 11.8917 5.03653 12.3117 5.30621 12.5079L6.94422 13.6988L5.30594 14.89C5.03626 15.0856 4.95044 15.5062 5.11464 15.8282C5.27884 16.1504 5.63035 16.253 5.89977 16.0568L7.47159 14.9135L7.47186 17.1125C7.47186 17.4894 7.72772 17.7951 8.0431 17.7951C8.35848 17.7951 8.61434 17.4894 8.61434 17.1125V14.9132L10.1862 16.0565C10.4558 16.2527 10.8074 16.1501 10.9716 15.8279C11.1358 15.5059 11.0499 15.0856 10.7803 14.8897L9.14226 13.6988L10.7805 12.5076C11.0502 12.3114 11.1355 11.8913 10.9718 11.5697Z" fill="#BAACD2"/>
</svg>
