<svg width="17" height="10" viewBox="0 0 17 10" fill="none" xmlns="http://www.w3.org/2000/svg">
<path d="M15.4198 0.392395H1.57629C1.2495 0.393455 0.986437 0.656417 0.985352 0.983337V9.25568C0.986411 9.58259 1.24949 9.84553 1.57629 9.84662H15.4198C15.7466 9.84556 16.0097 9.5826 16.0107 9.25568V0.983337C16.0098 0.656423 15.7467 0.39348 15.4199 0.392395H15.4198ZM15.4792 9.31501C15.4627 9.33102 15.4428 9.33997 15.4198 9.33997H1.57629C1.55333 9.33997 1.53343 9.33102 1.51682 9.31501C1.50092 9.2984 1.49197 9.2785 1.49197 9.25553V0.983195C1.49197 0.960114 1.50092 0.940329 1.51694 0.923724C1.53343 0.907708 1.55333 0.898759 1.57629 0.898759H15.4198C15.4428 0.898759 15.4627 0.907709 15.4793 0.923724C15.4955 0.940211 15.5042 0.959994 15.5042 0.983195V9.25553C15.5042 9.2785 15.4953 9.2984 15.4793 9.31501H15.4792Z" fill="#BAACD2"/>
<path d="M10.3547 1.74297C10.215 1.74297 10.1016 1.85637 10.1016 1.99615L10.1019 8.24261C10.1019 8.3824 10.2153 8.4958 10.3551 8.4958C10.4949 8.4958 10.6083 8.3824 10.6083 8.24261L10.6079 1.99615C10.6079 1.85637 10.4945 1.74297 10.3547 1.74297Z" fill="#BAACD2"/>
<path d="M9.18964 4.32962C9.11686 4.20997 8.96107 4.17194 8.84153 4.24483L8.14487 4.66888L8.14475 3.85313C8.14475 3.71335 8.03134 3.59995 7.89156 3.59995C7.75178 3.59995 7.63838 3.71335 7.63838 3.85313V4.66888L6.94171 4.24483C6.8223 4.17194 6.6665 4.20986 6.59372 4.32962C6.52094 4.44903 6.55898 4.60483 6.67851 4.67761L7.40451 5.11932L6.67839 5.56116C6.55886 5.6337 6.52082 5.78973 6.5936 5.90914C6.66638 6.02867 6.82217 6.06671 6.94159 5.99393L7.63825 5.56988V6.38551C7.63825 6.52529 7.75166 6.6387 7.89144 6.6387C8.03122 6.6387 8.14463 6.52529 8.14463 6.38551V5.56976L8.84129 5.99381C8.96082 6.06659 9.11662 6.02855 9.1894 5.90902C9.26218 5.78961 9.22414 5.6337 9.10461 5.56104L8.37873 5.11932L9.10485 4.67749C9.22438 4.60471 9.26219 4.44891 9.18964 4.32962H9.18964Z" fill="#BAACD2"/>
<path d="M5.64374 4.32962C5.57096 4.20997 5.41517 4.17194 5.29563 4.24483L4.59897 4.66888L4.59885 3.85313C4.59885 3.71335 4.48545 3.59995 4.34566 3.59995C4.20588 3.59995 4.09248 3.71335 4.09248 3.85313V4.66888L3.39581 4.24483C3.2764 4.17194 3.1206 4.20986 3.04782 4.32962C2.97504 4.44903 3.01308 4.60483 3.13261 4.67761L3.85861 5.11932L3.13249 5.56116C3.01296 5.6337 2.97492 5.78973 3.0477 5.90914C3.12048 6.02867 3.27628 6.06671 3.39569 5.99393L4.09236 5.56988L4.09247 6.38551C4.09247 6.52529 4.20588 6.6387 4.34566 6.6387C4.48544 6.6387 4.59885 6.52529 4.59885 6.38551V5.56976L5.29551 5.99381C5.41504 6.06659 5.57084 6.02855 5.64362 5.90902C5.7164 5.78961 5.67836 5.6337 5.55883 5.56104L4.83283 5.11932L5.55895 4.67749C5.67848 4.60471 5.71629 4.44891 5.64374 4.32962Z" fill="#BAACD2"/>
</svg>
