<svg width="72" height="12" viewBox="0 0 72 12" fill="none" xmlns="http://www.w3.org/2000/svg">
<path d="M13.2835 5.05416C13.2764 4.80537 13.1563 4.67742 12.9302 4.6703H11.7147C11.425 4.68454 11.2766 4.84801 11.2695 5.1466V7.34315C11.2766 7.64882 11.4391 7.80521 11.7571 7.81945H12.8666C12.9796 7.81945 13.0785 7.77677 13.1563 7.6915C13.234 7.6275 13.2764 7.54218 13.2764 7.43559V5.05416H13.2835ZM9.71484 4.74137C9.72192 4.19404 9.84203 3.77461 10.0823 3.49026C10.2025 3.36943 10.3579 3.26991 10.5487 3.1846C10.7466 3.09928 10.9303 3.05664 11.114 3.05664H13.34C14.3223 3.06376 14.824 3.60402 14.8381 4.67742V7.98292C14.8311 8.36679 14.6827 8.69382 14.3929 8.97105C14.1103 9.26252 13.7711 9.41179 13.3753 9.41887H11.2695V11.8003H9.71484V4.74137Z" fill="white"/>
<path d="M17.6579 7.49243C17.6579 7.58486 17.7003 7.65594 17.7851 7.71282C17.8558 7.77677 17.9547 7.81233 18.0678 7.81233H19.2621C19.5306 7.81233 19.6719 7.7057 19.679 7.49243V7.0446C19.679 6.79577 19.5377 6.67494 19.2479 6.67494H18.0607C17.9053 6.67494 17.7993 6.70338 17.7357 6.75313C17.6791 6.81001 17.6509 6.92373 17.6509 7.09436V7.49243H17.6579ZM19.6861 5.01152C19.6931 4.76981 19.5518 4.6561 19.2691 4.66318H16.1315V3.05664H19.6649C20.6966 3.07084 21.2195 3.57558 21.2336 4.56366V7.93317C21.2266 8.35971 21.0923 8.70802 20.845 8.99237C20.5835 9.28383 20.2443 9.42599 19.8274 9.42599H17.6933C16.6545 9.41887 16.1245 8.94261 16.1104 7.99005V6.68918C16.1174 5.69394 16.6192 5.18924 17.6226 5.17504H19.6931V5.01152" fill="white"/>
<path d="M25.6073 10.1937C25.7275 10.1866 25.8405 10.144 25.9253 10.0586C26.0101 9.98045 26.0525 9.89517 26.0525 9.80273V9.41887H24.0597C23.7983 9.41887 23.5934 9.38335 23.4379 9.31935C23.2753 9.25539 23.1128 9.14876 22.9432 8.98524C22.7878 8.81465 22.6747 8.63694 22.604 8.45211C22.5334 8.28151 22.498 8.06824 22.498 7.80521V3.05664H24.0597V7.30051C24.0597 7.64174 24.2011 7.81233 24.4767 7.81233H25.5791C25.7133 7.81233 25.8264 7.76969 25.9182 7.68438C26.0101 7.60618 26.0525 7.52086 26.0525 7.41423V3.05664H27.6001V10.0729C27.5931 10.5918 27.4588 11.0112 27.2044 11.324C26.9429 11.6368 26.5896 11.8003 26.1373 11.8074H22.498V10.1937H25.6073Z" fill="white"/>
<path d="M28.8223 7.81233H31.5994C31.8538 7.80521 31.9881 7.69858 31.9952 7.50667V7.36447C31.9952 7.32183 31.9811 7.27919 31.9598 7.22944C31.8962 7.10856 31.8185 7.0446 31.7337 7.0446H30.3487C29.9388 7.03748 29.5925 6.89533 29.2957 6.61806C28.9989 6.36215 28.8505 6.05648 28.8364 5.68686V4.48546C28.8505 3.54714 29.3594 3.07084 30.3557 3.05664H33.5781V4.6703H30.8504C30.5324 4.6703 30.3698 4.76981 30.3698 4.96889V5.12524C30.3698 5.33139 30.5324 5.43095 30.8645 5.43095H32.2354C32.6029 5.43803 32.9139 5.58022 33.1753 5.85745C33.4368 6.13468 33.571 6.46167 33.5852 6.84557V8.01848C33.5781 8.34547 33.4226 8.67958 33.1329 9.00657C32.9916 9.17008 32.8432 9.27671 32.7018 9.34067C32.5534 9.39755 32.3485 9.42599 32.087 9.42599H28.8293V7.81233" fill="white"/>
<path d="M36.2503 7.49243C36.2503 7.58486 36.2927 7.65594 36.3773 7.71282C36.4481 7.77677 36.54 7.81233 36.66 7.81233H37.8615C38.13 7.81233 38.2712 7.7057 38.2785 7.49243V7.0446C38.2785 6.79577 38.1369 6.67494 37.8472 6.67494H36.66C36.5046 6.67494 36.3984 6.70338 36.335 6.75313C36.2784 6.81001 36.2503 6.92373 36.2503 7.09436V7.49243ZM38.2785 5.01152C38.2854 4.76981 38.1442 4.6561 37.8541 4.66318H34.7168V3.05664H38.25C39.2818 3.07084 39.8046 3.57558 39.8188 4.56366V7.93317C39.8119 8.35971 39.6777 8.70802 39.4303 8.99237C39.1687 9.28383 38.8294 9.42599 38.4128 9.42599H36.2715C35.2326 9.41887 34.7026 8.94261 34.6885 7.99005V6.68918C34.6956 5.69394 35.1972 5.18924 36.2007 5.17504H38.2785V5.01152Z" fill="white"/>
<path d="M41.0898 2.13988C41.0972 1.70626 41.2595 1.35791 41.5707 1.09492C41.8743 0.831892 42.2701 0.689696 42.7649 0.682617H43.7543V2.2394H43.1534C42.8214 2.24652 42.6587 2.40291 42.6517 2.71566V3.05688H43.7543V4.67054H42.6517V9.42623H41.0898V2.13988Z" fill="white"/>
<path d="M48.1852 4.98308V4.94753C48.1852 4.86225 48.1498 4.79113 48.0863 4.74137C48.0155 4.69162 47.9236 4.66318 47.8178 4.66318H46.7295C46.5879 4.66318 46.4748 4.70586 46.3902 4.78405C46.284 4.85513 46.2274 4.95465 46.2274 5.07548V5.72238L48.1852 4.98308ZM46.2559 7.26495V7.36447C46.2559 7.49242 46.2913 7.59906 46.3548 7.67014C46.4044 7.76257 46.4679 7.81233 46.5598 7.81233H49.7609V9.42599H46.3548C46.0439 9.42599 45.8035 9.39755 45.6338 9.34067C45.4503 9.27671 45.2807 9.1772 45.1322 9.035C44.9625 8.86441 44.8425 8.69382 44.786 8.50899C44.7225 8.32415 44.6871 8.07536 44.6871 7.76969L44.6729 4.54234C44.6871 3.56846 45.1961 3.07084 46.1924 3.05664H48.2983C49.2662 3.07084 49.7609 3.58978 49.7752 4.59922V5.87165L46.2559 7.26495Z" fill="white"/>
<path d="M53.0749 9.42598C52.8418 9.42598 52.6225 9.40466 52.4248 9.36198C52.2197 9.32647 52.0151 9.23403 51.81 9.07052C51.5981 8.88572 51.4496 8.67245 51.3649 8.43786C51.2799 8.21039 51.2376 7.94736 51.2376 7.66301V4.65605C51.2307 4.41438 51.2518 4.19399 51.3084 4.00916C51.3576 3.82436 51.4707 3.63953 51.6404 3.46182C51.8312 3.27699 52.022 3.14903 52.2271 3.08503C52.4248 3.03527 52.6441 3.00684 52.891 3.00684H55.2797V3.38362H52.9476C52.5379 3.38362 52.2128 3.4689 51.9724 3.63953C51.7323 3.82436 51.605 4.14423 51.605 4.59917V7.60613C51.605 7.81941 51.6404 8.02556 51.7038 8.22459C51.7677 8.41654 51.8808 8.59425 52.0362 8.74353C52.2059 8.87148 52.3756 8.9568 52.5379 8.98524C52.7075 9.02076 52.891 9.04212 53.0892 9.04212H55.3151V9.41886H53.0749" fill="white"/>
<path d="M61.4282 5.52354H58.2979C57.9232 5.53062 57.6266 5.6515 57.4146 5.87185C57.1953 6.09932 57.0896 6.41211 57.0896 6.81017V7.76985C57.0896 7.95468 57.1107 8.12528 57.1461 8.28167C57.1884 8.44518 57.2804 8.58734 57.4358 8.70821C57.7043 8.93569 58.0082 9.04232 58.3333 9.04232H60.241C61.0328 9.0352 61.4355 8.61578 61.4355 7.77697V5.52354H61.4282ZM61.8029 7.69165C61.8029 7.93336 61.7818 8.1466 61.7533 8.33143C61.7041 8.53758 61.5979 8.72953 61.4425 8.91433C61.1174 9.26267 60.7077 9.43327 60.2272 9.41907H58.3614C57.874 9.41907 57.485 9.27687 57.1815 8.98544C56.8703 8.70109 56.7148 8.30299 56.7148 7.79117V6.82441C56.7291 5.72965 57.273 5.16807 58.3402 5.14676H61.4425V4.72025C61.4425 4.37191 61.3436 4.06624 61.1385 3.80321C61.0116 3.63262 60.8631 3.5189 60.6935 3.46202C60.5238 3.41934 60.3261 3.39095 60.1141 3.39095H56.7291V3.01416H59.9375C60.2341 3.01416 60.4957 3.03548 60.7358 3.07816C60.8558 3.09948 60.9689 3.14923 61.0751 3.22031C61.1882 3.28431 61.287 3.38383 61.379 3.51178C61.6687 3.88852 61.8098 4.31507 61.8029 4.79845V7.69165Z" fill="white"/>
<path d="M65.308 3.39095C64.439 3.40515 64.0077 3.88141 64.0289 4.81977V9.41907H63.6546V4.82689C63.6403 3.61842 64.2054 3.01416 65.3715 3.01416H65.7885V3.39095H65.308Z" fill="white"/>
<path d="M71.6184 3.39094H68.6646C68.4527 3.39094 68.2618 3.41226 68.0922 3.46202C67.9156 3.5047 67.739 3.61133 67.5763 3.78904C67.4209 3.95252 67.322 4.11603 67.2797 4.27242C67.2231 4.43594 67.202 4.62785 67.2089 4.85532V7.7912C67.2089 8.2817 67.3505 8.60869 67.6329 8.78641C67.7744 8.87172 67.9298 8.9286 68.0995 8.97124C68.2688 9.01388 68.4669 9.04231 68.6789 9.04231H69.9718C70.4523 9.04231 70.8482 8.9286 71.1521 8.70821C71.456 8.49498 71.6115 8.13243 71.6257 7.61349V3.39094H71.6184ZM71.9931 7.64193C71.9577 8.85752 71.3218 9.45462 70.078 9.42618H68.6931C68.403 9.42618 68.1418 9.39774 67.9087 9.34798C67.6682 9.28403 67.442 9.14183 67.2232 8.91436C67.0604 8.70821 66.9546 8.50206 66.9123 8.28883C66.8558 8.07555 66.8273 7.84096 66.8415 7.58505V4.85532C66.8558 3.62553 67.4774 3.00707 68.6931 3.02131H71.6257V0.938477H72V7.64193" fill="white"/>
<path d="M5.59479 3.05664H1.78592C1.60219 3.05664 1.41138 3.09928 1.22056 3.1846C1.02979 3.26991 0.874331 3.36943 0.754187 3.49026C0.52098 3.77461 0.393798 4.19404 0.386719 4.74137V7.73413C0.393798 8.28151 0.513901 8.7009 0.754187 8.98524C0.881369 9.10612 1.02979 9.20564 1.22056 9.29091C1.41845 9.37623 1.60923 9.41887 1.78592 9.41887H5.59479C6.57705 9.41179 7.07878 8.86441 7.09294 7.79101V4.67742C7.07878 3.60402 6.57705 3.06376 5.59479 3.05664Z" fill="white"/>
</svg>
