<svg width="61" height="48" viewBox="0 0 61 48" fill="none" xmlns="http://www.w3.org/2000/svg">
<rect x="57.2521" y="13.8384" width="1.27567" height="4.78931" rx="0.637835" fill="#00FEE8"/>
<rect x="60.2846" y="15.5952" width="1.27567" height="4.78931" rx="0.637835" transform="rotate(90 60.2846 15.5952)" fill="#00FEE8"/>
<rect x="12.3577" y="40.5685" width="1.27567" height="6.57027" rx="0.637835" transform="rotate(90 12.3577 40.5685)" fill="#00FEE8"/>
<rect x="4.89163" y="40.5685" width="1.27567" height="4.78931" rx="0.637835" transform="rotate(90 4.89163 40.5685)" fill="#00FEE8"/>
<rect x="12.3577" y="43.0021" width="1.27567" height="12.2554" rx="0.637835" transform="rotate(90 12.3577 43.0021)" fill="#00FEE8"/>
<circle cx="18.2338" cy="3.26" r="2.31518" stroke="#00FEE8"/>
<path d="M36.2461 44.0836H35.6885V37.6559C35.6885 37.3209 35.4172 37.0495 35.0821 37.0495H33.4036C33.2192 35.3945 31.6121 34.0652 29.5672 33.8415V29.232C32.8076 28.9793 35.4927 26.7328 36.3902 23.7177C39.0209 23.5693 41.1171 21.3885 41.1171 18.7215L41.1168 11.84C41.1168 11.505 40.8455 11.2336 40.5104 11.2336H21.8174C21.812 11.2336 21.807 11.2353 21.8016 11.2353C21.7962 11.2353 21.7909 11.2336 21.7858 11.2336H17.3816C17.0466 11.2336 16.7752 11.505 16.7752 11.84V18.7215C16.7752 21.3995 18.8892 23.5874 21.5351 23.7191C22.4323 26.7331 25.116 28.9793 28.3539 29.2321V33.8416C26.3088 34.0647 24.7014 35.3946 24.5175 37.0496H22.8094C22.4743 37.0496 22.203 37.3209 22.203 37.656V44.0837H21.6454C21.3103 44.0837 21.039 44.355 21.039 44.6901V47.0184C21.039 47.3534 21.3103 47.6248 21.6454 47.6248H36.2459C36.5809 47.6248 36.8523 47.3534 36.8523 47.0184V44.6901C36.8525 44.3547 36.5812 44.0837 36.2461 44.0837L36.2461 44.0836ZM39.9034 18.7218C39.9034 20.6093 38.5194 22.1797 36.7123 22.4708V21.5366C36.7123 21.529 36.7134 21.5214 36.7134 21.5132V12.4465H39.9034L39.9034 18.7218ZM21.1786 22.4708C19.3721 22.1797 17.9876 20.6093 17.9876 18.7218V12.4468H21.1786V22.4708ZM22.4233 21.5132V12.4465H35.4988V21.5363C35.4858 25.1296 32.5584 28.0494 28.9598 28.0494C25.3552 28.0494 22.4231 25.1172 22.4231 21.5126L22.4233 21.5132ZM28.96 35.0176C30.603 35.0176 31.9616 35.9038 32.1771 37.0495H25.743C25.9585 35.9038 27.3172 35.0176 28.9601 35.0176H28.96ZM23.4155 38.2623H34.4751V44.0832L23.4155 44.0835V38.2623ZM35.639 46.4113H22.2516V45.2961H35.6397L35.639 46.4113Z" fill="#00FEE8"/>
<path d="M32.9471 38.8684H24.944C24.6089 38.8684 24.3376 39.1397 24.3376 39.4748V42.8701C24.3376 43.2051 24.6089 43.4765 24.944 43.4765H32.9478C33.2829 43.4765 33.5542 43.2051 33.5542 42.8701V39.4748C33.554 39.1403 33.2826 38.8684 32.9473 38.8684H32.9471ZM32.3407 42.2642H25.5501V40.082H32.341V42.2642H32.3407Z" fill="#00FEE8"/>
<path d="M18.2774 28.8051C18.5732 28.7752 18.8217 28.5832 18.9258 28.3045C19.0296 28.0258 18.9675 27.7181 18.7633 27.5015L17.7088 26.3835L18.0323 24.8813C18.0819 24.6508 18.0258 24.4139 17.8783 24.2312C17.6572 23.9567 17.2609 23.8653 16.9422 24.0165L15.5528 24.6737L14.2241 23.9018C13.911 23.7201 13.4891 23.7898 13.2513 24.0605C13.1046 24.2272 13.0367 24.4495 13.0649 24.6712L13.2606 26.1959L12.1155 27.2214C11.8938 27.42 11.8061 27.7212 11.8859 28.0075C11.966 28.2938 12.1967 28.5062 12.4895 28.5615L13.9996 28.8466L14.6209 30.2521C14.7451 30.5327 15.0237 30.7146 15.3306 30.7146C15.614 30.7146 15.8749 30.5601 16.0112 30.311L16.7487 28.9628L18.2774 28.8051ZM15.7956 28.1778L15.3731 28.9506L15.0169 28.1451C14.9134 27.9113 14.7018 27.7435 14.4511 27.6964L13.5858 27.5331L14.243 26.9445C14.4325 26.7741 14.5262 26.5214 14.4937 26.2687L14.3817 25.3949L15.1427 25.8368C15.359 25.9635 15.6357 25.9756 15.8645 25.8676L16.6607 25.4908L16.4754 26.3524C16.4221 26.6015 16.4943 26.861 16.6694 27.0471L17.2736 27.6877L16.3969 27.7774C16.142 27.805 15.9177 27.9542 15.7956 28.1779L15.7956 28.1778Z" fill="#00FEE8"/>
<path d="M18.7921 32.7944C18.5577 32.2445 18.2914 31.6211 17.4653 30.7456C17.2352 30.5022 16.8516 30.491 16.6076 30.7211C16.3639 30.9513 16.3532 31.3348 16.5831 31.5788C17.2608 32.2961 17.4532 32.7479 17.676 33.2706C17.9104 33.8206 18.1767 34.4439 19.0028 35.3194C19.1221 35.446 19.2829 35.5095 19.4439 35.5095C19.5931 35.5095 19.7426 35.4545 19.8599 35.3442C20.1036 35.114 20.1143 34.7305 19.8845 34.4865C19.2073 33.7687 19.0149 33.3174 18.7921 32.7944L18.7921 32.7944Z" fill="#00FEE8"/>
<path d="M17.9307 29.4717C17.687 29.7019 17.6763 30.0855 17.9062 30.3294C18.8408 31.3197 19.1613 31.9289 19.5 32.5743C19.8624 33.2636 20.2367 33.976 21.2859 35.0873C21.4052 35.214 21.566 35.2774 21.727 35.2774C21.8762 35.2774 22.0257 35.2224 22.143 35.1122C22.3867 34.882 22.3975 34.4984 22.1676 34.2544C21.2329 33.2642 20.9125 32.655 20.5732 32.0099C20.2107 31.3206 19.8365 30.6081 18.7873 29.4965C18.5582 29.2528 18.1747 29.2421 17.9307 29.4717L17.9307 29.4717Z" fill="#00FEE8"/>
<path d="M44.6644 31.0249L44.892 29.5058C44.9256 29.2821 44.861 29.0556 44.7137 28.8847C44.4805 28.6136 44.0648 28.5369 43.7495 28.7112L42.4047 29.4553L41.0294 28.7691C40.7126 28.6108 40.3085 28.698 40.0839 28.9705C39.9364 29.1493 39.8772 29.3828 39.9215 29.611L40.2134 31.1197L39.1357 32.2155C38.927 32.4273 38.8579 32.7339 38.956 33.0148C39.0542 33.2957 39.2981 33.4931 39.5931 33.5295L41.1185 33.7182L41.8278 35.0822C41.9621 35.3397 42.2252 35.4994 42.516 35.4994C42.8161 35.4994 43.0917 35.3239 43.2189 35.052L43.8696 33.6599L45.3856 33.4069C45.6792 33.3581 45.9144 33.1505 46.0007 32.8659C46.0867 32.5813 46.0052 32.2781 45.7875 32.075L44.6644 31.0249ZM43.4437 32.5003C43.1921 32.542 42.9772 32.7045 42.868 32.9369L42.4952 33.7351L42.0887 32.9539C41.9706 32.7265 41.7483 32.5725 41.4956 32.5418L40.6216 32.4335L41.2387 31.8059C41.4178 31.6243 41.4959 31.3659 41.4477 31.1141L41.2801 30.2496L42.0679 30.6425C42.291 30.7542 42.5685 30.7491 42.7899 30.6272L43.5605 30.2011L43.4302 31.0718C43.3921 31.3245 43.4812 31.58 43.668 31.7543L44.3113 32.3556L43.4437 32.5003Z" fill="#00FEE8"/>
<path d="M38.6519 36.5006C39.0228 36.2504 39.484 35.9393 39.9014 35.1403C40.0568 34.8435 39.9418 34.4772 39.6451 34.3217C39.3486 34.1663 38.982 34.2817 38.8265 34.5781C38.5513 35.105 38.296 35.2768 37.9734 35.4945C37.6025 35.7444 37.1414 36.0557 36.7239 36.8542C36.5685 37.1509 36.6836 37.5179 36.9803 37.6727C37.07 37.7196 37.1659 37.7418 37.2603 37.7418C37.4792 37.7418 37.6902 37.6234 37.7985 37.4161C38.0746 36.8901 38.3293 36.7183 38.6519 36.5005V36.5006Z" fill="#00FEE8"/>
<path d="M41.2578 35.1649C40.9614 35.0095 40.5947 35.1248 40.4393 35.4213C40.0374 36.1896 39.7018 36.4725 39.3137 36.7997C38.8886 37.1576 38.4066 37.5634 37.8944 38.5435C37.739 38.8402 37.8541 39.2066 38.1508 39.362C38.2405 39.4089 38.3364 39.4311 38.4309 39.4311C38.6497 39.4311 38.8607 39.3127 38.969 39.1054C39.3709 38.3371 39.7066 38.0542 40.0947 37.727C40.5197 37.3691 41.0017 36.9632 41.5139 35.9831C41.6696 35.6864 41.5546 35.3203 41.2578 35.1649L41.2578 35.1649Z" fill="#00FEE8"/>
</svg>
