<svg width="14" height="21" viewBox="0 0 14 21" fill="none" xmlns="http://www.w3.org/2000/svg">
<path d="M9.43197 6.93184C10.2656 7.28134 11.0167 7.7928 11.6444 8.42911C12.8791 9.68001 13.6425 11.4076 13.6425 13.3161C13.6424 17.1305 10.5882 20.2247 6.82163 20.2247C3.05339 20.2247 0 17.1305 0 13.3159C0 11.4074 0.764398 9.67979 1.9981 8.42887C3.33022 7.08008 3.9962 5.31122 3.9962 3.54233C3.9962 2.60571 3.80965 1.71277 3.47633 0.897949C6.1857 2.73225 6.91529 6.44546 5.10488 9.19034C4.93451 9.44884 4.85312 9.74123 4.85414 10.0307C4.85532 10.5166 5.08686 10.9925 5.51608 11.2836C6.20008 11.7462 7.12525 11.5595 7.58242 10.8664C7.80352 10.5316 7.90801 10.1538 7.91153 9.7793C7.91693 9.12985 7.61192 8.48999 7.03896 8.10222C8.72816 8.81101 9.71016 10.514 9.60676 12.264C10.932 10.7293 10.8764 8.39599 9.43201 6.93174L9.43197 6.93184Z" fill="white"/>
</svg>
