<svg width="25" height="28" viewBox="0 0 25 28" fill="none" xmlns="http://www.w3.org/2000/svg">
<path d="M24.1246 5.82048H23.6351C24.3791 4.96882 24.849 3.8137 24.614 2.74667C24.3693 1.66986 23.3708 0.387475 19.9348 0.387475C17.1938 0.387475 14.6389 1.4545 13.19 3.16761C12.9747 3.11866 12.7397 3.07951 12.5146 3.07951C12.2111 3.07951 11.9174 3.12845 11.6434 3.21655C10.2043 1.46429 7.64936 0.377686 4.84965 0.377686C1.41363 0.377686 0.415135 1.66007 0.170405 2.73688C-0.0645361 3.80391 0.415135 4.95903 1.1689 5.81069H0.659865C0.3564 5.81069 0.11167 6.05542 0.11167 6.35889V11.6255C0.11167 11.9289 0.3564 12.1737 0.659865 12.1737H1.51153V26.2114V27.3078H23.2827V26.4659V26.3778V26.2114V12.1835H24.1344C24.4378 12.1835 24.6826 11.9387 24.6826 11.6353V6.36868C24.6728 6.06521 24.4183 5.82048 24.1246 5.82048ZM19.925 1.48387C22.0395 1.48387 23.3121 2.02227 23.5372 2.98161C23.7624 4.00948 22.8324 5.3506 21.9024 5.81069H15.4514C15.3535 4.91988 14.8934 4.14653 14.2277 3.64728C15.4905 2.31595 17.6246 1.48387 19.925 1.48387ZM12.5048 4.18569C13.4152 4.18569 14.1788 4.89051 14.3354 5.82048H10.6742C10.8308 4.89051 11.5944 4.18569 12.5048 4.18569ZM1.23743 2.98161C1.45279 2.01248 2.73518 1.48387 4.84965 1.48387C7.23821 1.48387 9.40162 2.34532 10.6644 3.76475C10.0673 4.264 9.65615 4.9884 9.56804 5.82048H2.91138C1.96183 5.37997 1.01228 4.01927 1.23743 2.98161ZM14.541 26.2212C14.727 25.1444 15.6667 24.3123 16.7925 24.3123C17.928 24.3123 18.858 25.1346 19.044 26.2212H14.541ZM22.1765 13.3973C20.4438 13.554 19.0831 15.0028 19.0831 16.7746C19.0831 18.5367 20.4438 19.9953 22.1765 20.1519V26.2408H20.16C19.9642 24.557 18.535 23.2355 16.7925 23.2355C15.0598 23.2355 13.6208 24.5472 13.425 26.2408H2.58834V24.4885C4.26229 24.2829 5.57405 22.8537 5.57405 21.1308C5.57405 19.3981 4.27208 17.9689 2.58834 17.7731V12.2128H4.13503C4.30145 13.9259 5.75025 15.2769 7.50252 15.2769C9.25479 15.2769 10.7134 13.9259 10.87 12.2128H22.1765V13.3973ZM22.1765 14.5035V19.0261C21.0508 18.8793 20.1795 17.9297 20.1795 16.7648C20.1795 15.6097 21.0508 14.6503 22.1765 14.5035ZM2.59813 23.3529V18.8499C3.66515 19.0457 4.48744 19.9757 4.48744 21.1014C4.48744 22.2272 3.66515 23.167 2.59813 23.3529ZM5.26079 12.1835H9.77361C9.61699 13.2896 8.66744 14.1511 7.51231 14.1511C6.35718 14.1511 5.41742 13.2896 5.26079 12.1835ZM23.5764 11.0871H1.20806V6.91687H23.5764V11.0871Z" fill="#FFDE01"/>
<path d="M15.4607 19.3198C15.4607 17.45 13.9433 15.9327 12.0736 15.9327C10.2038 15.9327 8.68652 17.45 8.68652 19.3198C8.68652 21.1895 10.2038 22.7068 12.0736 22.7068C13.9433 22.7068 15.4607 21.1797 15.4607 19.3198ZM9.78291 19.3198C9.78291 18.057 10.8108 17.0291 12.0736 17.0291C13.3364 17.0291 14.3643 18.057 14.3643 19.3198C14.3643 20.5826 13.3364 21.6104 12.0736 21.6104C10.8108 21.6104 9.78291 20.5826 9.78291 19.3198Z" fill="#FFDE01"/>
</svg>
