<svg width="6" height="10" viewBox="0 0 6 10" fill="none" xmlns="http://www.w3.org/2000/svg">
<path d="M3.3837 6.15438C3.3837 5.27838 3.6237 5.01438 4.2957 4.46238C4.9077 3.95838 5.3997 3.51438 5.3997 2.48238C5.3997 1.12638 4.3557 0.370376 3.0717 0.370376C1.8357 0.370376 0.911703 1.13838 0.671703 2.37438L1.4877 2.51838C1.6077 1.70238 2.1837 1.11438 3.0357 1.11438C3.8637 1.11438 4.5357 1.63038 4.5357 2.53038C4.5357 3.15438 4.2357 3.53838 3.8397 3.86238L3.5037 4.16238C3.0117 4.59438 2.5437 5.07438 2.5437 5.98638V6.70638H3.3837V6.15438ZM3.6957 8.43438C3.6957 8.09838 3.4317 7.78638 3.0477 7.78638C2.6637 7.78638 2.3997 8.09838 2.3997 8.43438C2.3997 8.77038 2.6637 9.08238 3.0477 9.08238C3.4317 9.08238 3.6957 8.77038 3.6957 8.43438Z" fill="#BAACD2"/>
</svg>
