<svg width="17" height="17" viewBox="0 0 17 17" fill="none" xmlns="http://www.w3.org/2000/svg">
<path d="M16.0524 14.7609L12.0491 10.7576C14.0619 8.14086 13.8606 4.3612 11.4452 1.96815C10.1257 0.648662 8.42589 0 6.70388 0C4.98174 0 3.28205 0.648502 1.96252 1.96815C-0.654173 4.58484 -0.654173 8.83418 1.96252 11.4509C3.28201 12.7704 4.98186 13.419 6.70388 13.419C8.13523 13.419 9.56658 12.9718 10.7519 12.0548L14.7776 16.0356C14.9565 16.2145 15.1801 16.3039 15.4261 16.3039C15.6498 16.3039 15.8959 16.2145 16.0746 16.0356C16.4102 15.7001 16.4102 15.1186 16.0523 14.7608L16.0524 14.7609ZM6.72628 11.6074C5.40679 11.6074 4.19901 11.093 3.25968 10.176C1.35859 8.27493 1.35859 5.16629 3.25968 3.24291C4.17668 2.32591 5.40679 1.81156 6.72628 1.81156C8.04577 1.81156 9.25356 2.32591 10.1929 3.24291C11.1322 4.15991 11.6242 5.39002 11.6242 6.70951C11.6242 8.029 11.1099 9.23678 10.1929 10.1761C9.27588 11.1154 8.02349 11.6075 6.72628 11.6075V11.6074Z" fill="#BAACD2"/>
</svg>
