<svg width="48" height="17" viewBox="0 0 48 17" fill="none" xmlns="http://www.w3.org/2000/svg">
<path d="M34.4442 4.16781C35.4949 4.16781 36.3598 3.32396 36.3598 2.29924C36.3598 1.27452 35.4949 0.430664 34.4442 0.430664C33.3939 0.430664 32.5289 1.27452 32.5289 2.29924C32.5289 3.32396 33.3939 4.16781 34.4442 4.16781ZM19.7586 5.1724C19.6762 5.39344 19.0583 7.10128 17.5341 8.86937V1.27452L13.5383 2.05811V15.8414H17.5547V11.5818C18.7081 13.2897 19.2849 15.8414 19.2849 15.8414H24.084C23.6103 13.9125 21.53 10.3562 21.53 10.3562C23.4043 8.04561 24.2076 5.59435 24.3519 5.1724H19.7586ZM30.3045 5.03179C26.7203 5.15232 24.8872 6.7195 24.8872 9.83379V15.8213H28.8007V10.959C28.8007 9.09041 29.0479 8.28669 31.3342 8.20634V5.09205C30.9636 5.01167 30.3045 5.03179 30.3045 5.03179ZM6.80299 6.69942C6.30863 6.65924 5.17581 6.59898 5.17581 5.59435C5.17581 4.38881 6.82358 4.38881 7.4209 4.38881C8.49195 4.38881 9.89256 4.71028 10.9018 4.99158C10.9018 4.99158 11.458 5.19253 11.9317 5.37335L11.9729 5.39344V2.09833L11.9111 2.07824C10.737 1.67638 9.35702 1.29465 6.82358 1.29465C2.4364 1.27452 0.891602 3.76595 0.891602 5.91582C0.891602 7.14145 1.42714 10.0347 6.45283 10.3763C6.88536 10.3964 7.99763 10.4567 7.99763 11.5015C7.99763 12.3453 7.07074 12.8476 5.52598 12.8476C3.81639 12.8476 2.16862 12.4257 1.15935 12.0238V15.4194C2.66297 15.8012 4.35193 16.0021 6.34986 16.0021C10.6341 16.0021 12.5496 13.6513 12.5496 11.3005C12.5496 8.64838 10.4075 6.94054 6.80299 6.69942ZM32.5083 15.8414H36.4011V5.19253H32.5083V15.8414ZM43.7131 1.95768V15.8414H47.6059V1.27452L43.7131 1.95768ZM38.0283 1.95768L41.9212 1.27452V15.8213H38.0283V1.95768Z" fill="white"/>
</svg>
