<svg width="61" height="51" viewBox="0 0 61 51" fill="none" xmlns="http://www.w3.org/2000/svg">
<rect x="2.57214" y="40.9087" width="1.27567" height="4.78931" rx="0.637835" fill="#00FEE8"/>
<rect x="5.60461" y="42.6655" width="1.27567" height="4.78931" rx="0.637835" transform="rotate(90 5.60461 42.6655)" fill="#00FEE8"/>
<rect x="15.4921" y="0.241211" width="1.27567" height="4.78931" rx="0.637835" fill="#00FEE8"/>
<rect x="18.5245" y="1.99805" width="1.27567" height="4.78931" rx="0.637835" transform="rotate(90 18.5245 1.99805)" fill="#00FEE8"/>
<rect x="51.1935" y="46.8354" width="1.27567" height="6.57027" rx="0.637835" transform="rotate(90 51.1935 46.8354)" fill="#00FEE8"/>
<rect x="43.7275" y="46.8354" width="1.30682" height="4.78931" rx="0.653409" transform="rotate(90 43.7275 46.8354)" fill="#00FEE8"/>
<rect x="51.1935" y="49.3284" width="1.30682" height="12.2554" rx="0.653409" transform="rotate(90 51.1935 49.3284)" fill="#00FEE8"/>
<circle cx="57.5743" cy="8.49779" r="2.31518" stroke="#00FEE8"/>
<path d="M45.9226 22.6812H20.17C19.2001 22.6812 18.4108 23.4705 18.4108 24.4404V34.9755C18.4108 35.9454 19.2001 36.7347 20.17 36.7347H45.9226C46.8925 36.7347 47.6818 35.9454 47.6818 34.9755V24.4404C47.6818 23.4705 46.8925 22.6812 45.9226 22.6812ZM37.1466 35.5574H28.9526V31.912H27.782V35.5574H20.17C19.8489 35.5574 19.5814 35.2966 19.5814 34.9688V24.4404C19.5814 24.1193 19.8422 23.8517 20.17 23.8517H27.782V26.8283H28.9526V23.8517H37.1466V35.5574ZM46.5112 34.9755C46.5112 35.2966 46.2503 35.5641 45.9226 35.5641H38.3172V23.8584H45.9293C46.2503 23.8584 46.5179 24.1193 46.5179 24.447V34.9755H46.5112Z" fill="#00FEE8"/>
<path d="M44.1502 40.24H16.6584C15.6885 40.24 14.8992 39.4507 14.8992 38.4808V26.6279H13.7353V38.4875C13.7353 40.1062 15.0464 41.4173 16.6651 41.4173H44.1568V40.24H44.1502Z" fill="#00FEE8"/>
<path d="M51.1936 32.9822V38.4872C51.1936 39.4571 50.4043 40.2464 49.4344 40.2464H48.9661V41.4103H49.4344C51.0531 41.4103 52.3641 40.0993 52.3641 38.4805V32.9822H51.1936Z" fill="#00FEE8"/>
<path d="M52.364 30.9087H51.1935V31.9789H52.364V30.9087Z" fill="#00FEE8"/>
<path d="M42.5448 17.9991H33.6351V13.4104L35.8759 14.5877C36.304 14.8151 36.8057 14.4472 36.7254 13.9723L36.1836 10.8285L38.4645 8.59434C38.8124 8.2532 38.6184 7.66457 38.1368 7.59768L34.9863 7.13614L33.5682 4.27995C33.3541 3.84516 32.7321 3.84516 32.518 4.27995L31.1066 7.13614L27.9494 7.59768C27.4678 7.66457 27.2805 8.25989 27.6217 8.59434L29.9093 10.8218L29.3675 13.9656C29.2872 14.4405 29.7889 14.8084 30.217 14.581L32.4578 13.4037V17.9991H16.6584C15.0397 17.9991 13.7287 19.3101 13.7287 20.9288V24.4874H14.8992V20.9288C14.8992 19.9589 15.6885 19.1696 16.6584 19.1696H42.5448V17.9991ZM32.7722 11.9188L30.7254 12.9957L31.1133 10.7147C31.1468 10.5275 31.0799 10.3335 30.9461 10.1997L29.2872 8.58765L31.5749 8.2532C31.7689 8.22645 31.9294 8.10604 32.0163 7.93213L33.0398 5.85855L34.0632 7.93213C34.1501 8.10604 34.3107 8.22645 34.5047 8.2532L36.7923 8.58765L35.1334 10.1997C34.9929 10.3335 34.9327 10.5275 34.9662 10.7147L35.3542 12.9957L33.3073 11.9188C33.1468 11.8318 32.9461 11.8318 32.7722 11.9188Z" fill="#00FEE8"/>
<path d="M49.4345 17.999H43.2137V19.1696H49.4345C50.4044 19.1696 51.1937 19.9589 51.1937 20.9288V29.9054H52.3642V20.9288C52.3642 19.3101 51.0532 17.999 49.4345 17.999Z" fill="#00FEE8"/>
</svg>
