<svg width="203" height="76" viewBox="0 0 203 76" fill="none" xmlns="http://www.w3.org/2000/svg">
<rect x="202.237" y="63.8145" width="3.24254" height="16.7005" rx="1.62127" transform="rotate(90 202.237 63.8145)" fill="#00FEE8"/>
<rect x="183.26" y="63.8145" width="3.24254" height="12.1736" rx="1.62127" transform="rotate(90 183.26 63.8145)" fill="#00FEE8"/>
<rect x="202.237" y="70.0005" width="3.24254" height="31.1512" rx="1.62127" transform="rotate(90 202.237 70.0005)" fill="#00FEE8"/>
<rect x="38.0289" y="0.168457" width="3.24254" height="12.1736" rx="1.62127" fill="#00FEE8"/>
<rect x="45.737" y="4.63428" width="3.24254" height="12.1736" rx="1.62127" transform="rotate(90 45.737 4.63428)" fill="#00FEE8"/>
<rect x="5.37952" y="51.165" width="3.24254" height="12.1736" rx="1.62127" fill="#00FEE8"/>
<rect x="13.0876" y="55.6304" width="3.24254" height="12.1736" rx="1.62127" transform="rotate(90 13.0876 55.6304)" fill="#00FEE8"/>
<circle cx="179.506" cy="11.6699" r="5.6557" stroke="#00FEE8" stroke-width="3"/>
<path d="M80.7899 53.7824V53.7822C80.7891 53.2043 80.3213 52.7365 79.7428 52.7365H79.6862L79.6862 52.7365H71.8336C71.2551 52.7365 70.7871 53.2045 70.7871 53.783V62.9677C70.7871 63.5463 71.2551 64.0142 71.8336 64.0142H79.744C80.3226 64.0142 80.7905 63.5463 80.7905 62.9677L80.7899 53.7824ZM78.6974 61.9206H72.8794V54.8288H78.6974V61.9206Z" fill="#00FEE8" stroke="#00FEE8" stroke-width="0.4"/>
<path d="M92.1409 52.7365H84.4295C83.8509 52.7365 83.383 53.2045 83.383 53.783V62.9677C83.383 63.5463 83.8509 64.0142 84.4295 64.0142H92.3409C92.9195 64.0142 93.3874 63.5463 93.3874 62.9677V53.7824C93.3874 53.2043 92.9194 52.7365 92.3409 52.7365H92.1409V52.7365ZM91.2951 61.9206H85.4759V54.8288H91.2951V61.9206Z" fill="#00FEE8" stroke="#00FEE8" stroke-width="0.4"/>
<path d="M104.741 52.7365H97.0292C96.4506 52.7365 95.9827 53.2045 95.9827 53.783V62.9677C95.9827 63.5463 96.4506 64.0142 97.0292 64.0142H104.941C105.519 64.0142 105.987 63.5463 105.987 62.9677V53.7824C105.987 53.2042 105.518 52.7365 104.941 52.7365H104.741V52.7365ZM103.895 61.9206H98.0756V54.8288H103.895V61.9206Z" fill="#00FEE8" stroke="#00FEE8" stroke-width="0.4"/>
<path d="M74.063 44.208L74.063 44.208L70.767 40.9115H70.7669L70.7083 40.8528C70.3005 40.4442 70.2997 39.7829 70.709 39.3735L70.8504 39.515L70.7089 39.3737C71.1177 38.9642 71.7792 38.9644 72.1884 39.3735L72.1884 39.3736L75.5428 42.7285L74.063 44.208ZM74.063 44.208C74.2673 44.4123 74.5354 44.5145 74.8029 44.5145M74.063 44.208L74.8029 44.5145M74.8029 44.5145C75.0704 44.5145 75.3386 44.4123 75.5429 44.208M74.8029 44.5145L75.5429 44.208M75.5429 44.208C75.952 43.7989 75.9523 43.1375 75.5429 42.7287L75.5429 44.208Z" fill="#00FEE8" stroke="#00FEE8" stroke-width="0.4"/>
<path d="M71.625 35.1033L71.4836 34.9619C71.0745 35.3711 71.0743 36.0325 71.4836 36.4413C71.4837 36.4413 71.4837 36.4413 71.4838 36.4414L78.2323 43.1905L78.2323 43.1905L79.5708 41.8526L79.7122 41.7112L79.7121 41.711L72.963 34.9619C72.5538 34.5527 71.8923 34.5526 71.4835 34.962L71.625 35.1033ZM71.625 35.1033C71.2939 35.4345 71.2939 35.9693 71.625 36.2998L78.3737 43.0491C78.539 43.2144 78.7556 43.297 78.9723 43.297C79.1889 43.297 79.4055 43.2144 79.5708 43.0491L71.625 35.1033Z" fill="#00FEE8" stroke="#00FEE8" stroke-width="0.4"/>
<path d="M66.0359 23.3862H64.8269C64.5281 23.3862 64.2425 23.2587 64.0442 23.0335C63.846 22.8096 63.7526 22.5114 63.7884 22.2143L63.7884 22.2143L65.5078 7.96047C65.5078 7.96044 65.5078 7.96041 65.5078 7.96038L65.5079 7.96024L65.7064 7.98419C65.7572 7.55919 66.119 7.23926 66.547 7.23926H129.137C129.566 7.23926 129.927 7.55919 129.978 7.98419L66.0359 23.3862ZM66.0359 23.3862V66.7496H64.8499C64.2713 66.7496 63.8034 67.2175 63.8034 67.7961V74.0926C63.8034 74.6712 64.2713 75.1391 64.8499 75.1391H130.855C131.434 75.1391 131.902 74.6712 131.902 74.0926V67.7961C131.902 67.2171 131.434 66.7492 130.856 66.749H129.671V23.3856H130.857C131.156 23.3856 131.441 23.2582 131.639 23.0331L66.0359 23.3862ZM110.958 66.749V62.5507H127.578V66.749H110.958ZM127.578 60.4578H110.958V23.3867H127.578V60.4578ZM67.4731 9.13233H128.208L129.676 21.2935H66.0073L67.4731 9.13233ZM108.866 23.3858V47.8708H68.1274V23.3858H108.866ZM68.1274 49.9633H108.866V66.7492H68.1274V49.9633ZM129.809 73.046H65.8955V68.8418H129.809V73.046Z" fill="#00FEE8" stroke="#00FEE8" stroke-width="0.4"/>
</svg>
