<svg width="25" height="22" viewBox="0 0 25 22" fill="none" xmlns="http://www.w3.org/2000/svg">
<path d="M2.63672 15.3044V18.3272C2.63672 19.8714 3.89216 21.1267 5.43617 21.1267H5.64038L5.64057 12.5045H5.43636C3.89216 12.5045 2.63672 13.76 2.63672 15.3042L2.63672 15.3044Z" fill="#BAACD2"/>
<path d="M6.83562 12.5047H6.27734V21.1239H6.83562C7.01 21.1239 7.15153 20.9824 7.15153 20.808V12.8205C7.15153 12.6463 7.01 12.5046 6.83562 12.5046V12.5047Z" fill="#BAACD2"/>
<path d="M3.20581 12.6953V11.3255C3.20581 10.563 3.29832 9.80053 3.48353 9.06782C3.62791 8.49053 3.82945 7.92671 4.08533 7.38759C3.90563 7.3249 3.73675 7.22688 3.58974 7.1017C3.52705 7.23239 3.46722 7.36594 3.41004 7.49929C2.89811 8.71125 2.63672 9.99918 2.63672 11.3255V13.3163C2.74842 13.1611 2.87094 13.0141 3.00981 12.8753C3.07515 12.8124 3.1405 12.7525 3.20584 12.6954L3.20581 12.6953Z" fill="#BAACD2"/>
<path d="M2.00564 15.5903C1.382 15.6501 0.894531 16.1758 0.894531 16.8157C0.894531 17.4557 1.38463 17.9814 2.00564 18.0412V16.8157H2.00298V15.5903H2.00564Z" fill="#BAACD2"/>
<path d="M20.2461 6.84318C20.5185 6.86768 20.7854 6.77232 20.9786 6.57894L20.9868 6.57077C21.3 6.25752 21.3462 5.76477 21.0956 5.39985C20.7362 4.87688 20.3223 4.38129 19.8673 3.9265C18.9059 2.96508 17.7867 2.21078 16.5422 1.68513C15.2514 1.14052 13.8816 0.862793 12.4681 0.862793C11.0548 0.862793 9.685 1.14052 8.39401 1.68513C7.14675 2.21078 6.03014 2.96775 5.06892 3.9265C4.61415 4.38127 4.20024 4.87688 3.84062 5.39985C3.59006 5.76477 3.63641 6.25774 3.94946 6.57077C4.14285 6.76415 4.4124 6.86217 4.6848 6.83767C4.95721 6.81316 5.1996 6.66879 5.35478 6.44559C6.08463 5.3835 7.05952 4.48481 8.17344 3.84217C9.33906 3.17219 10.6135 2.79092 11.9615 2.71472C12.133 2.70389 12.3046 2.70104 12.4734 2.70104C14.6711 2.70104 16.7462 3.52625 18.3664 5.05392C18.8157 5.47868 19.2217 5.94998 19.5674 6.45092C19.7256 6.67432 19.9735 6.81869 20.2459 6.8432L20.2461 6.84318Z" fill="#BAACD2"/>
<path d="M21.3463 7.10189C21.1966 7.23258 21.0249 7.3306 20.8398 7.39595C21.0959 7.94056 21.3001 8.50968 21.4471 9.09251C21.635 9.83602 21.7277 10.6038 21.7277 11.3747V12.6929C21.7957 12.75 21.8611 12.8099 21.9237 12.8726C22.0626 13.0114 22.1851 13.1585 22.2968 13.3137V11.3228C22.2968 9.99653 22.0381 8.70836 21.5235 7.49659C21.4688 7.3659 21.409 7.23255 21.3463 7.10185L21.3463 7.10189Z" fill="#BAACD2"/>
<path d="M22.9336 15.5903V18.0385C23.5546 17.9787 24.0447 17.4531 24.0447 16.8131C24.0447 16.1758 23.5573 15.6504 22.9336 15.5903Z" fill="#BAACD2"/>
<path d="M19.4972 12.5047H19.293V21.124H19.4972C21.0414 21.124 22.2966 19.8685 22.2966 18.3245V15.3016C22.2968 13.7601 21.0414 12.5046 19.4972 12.5046V12.5047Z" fill="#BAACD2"/>
<path d="M17.7852 12.8203V20.8079C17.7852 20.9822 17.9267 21.1238 18.1011 21.1238H18.6593V12.5045H18.1011C17.9267 12.5045 17.7852 12.6462 17.7852 12.8204V12.8203Z" fill="#BAACD2"/>
</svg>
