<?xml version="1.0" encoding="utf-8"?>
<!-- Generator: Adobe Illustrator 26.5.0, SVG Export Plug-In . SVG Version: 6.00 Build 0)  -->
<svg width="24px" height="24px" version="1.1" id="Layer_1" xmlns="http://www.w3.org/2000/svg" xmlns:xlink="http://www.w3.org/1999/xlink" x="0px" y="0px"
	 viewBox="0 0 24 24" style="enable-background:new 0 0 24 24;" xml:space="preserve">
<path d="M17.902,12c1.142,0,2.066,0.925,2.066,2.066v3.867001c0,1.141001-0.924999,2.066-2.066,2.066H16v-8h1.902V12z M6.066,12
	C4.925,12,4,12.925,4,14.066v3.867001C4,19.075001,4.925,20,6.066,20H8v-8H6.066z M12,0C4.919,0,0,5.717,0,12.951V16h2v-3.085
	C2,6.609,7.022,3.01,12,3c4.978001,0.01,10,3.609,10,9.916V16h2v-3.049C24,5.717,19.080999,0,12,0z M10.998,23.028999
	C10.998,23.564999,11.434,24,11.97,24h3.028v-2H11.97C11.434,22,10.998,22.493,10.998,23.028999z M21.998001,18
	c0.002001,3.312-2.361,4.51-5.998001,4.51v1.021c3.959,0,7-1.594,6.998001-5.531H21.998001z"/>
</svg>
