<?xml version="1.0" encoding="iso-8859-1"?>
<!-- Generator: Adobe Illustrator 19.0.0, SVG Export Plug-In . SVG Version: 6.00 Build 0)  -->
<svg version="1.1" id="Capa_1" xmlns="http://www.w3.org/2000/svg" xmlns:xlink="http://www.w3.org/1999/xlink" x="0px" y="0px"
	 viewBox="0 0 512 512" style="enable-background:new 0 0 512 512;" xml:space="preserve">
<polygon style="fill:#E21500;" points="397.926,355.497 464.48,422.05 472.116,470.842 470.631,470.631 422.05,464.48 
	355.497,397.926 "/>
<polygon style="fill:#BF1600;" points="470.631,470.631 376.711,376.711 355.497,397.926 422.05,464.48 "/>
<polygon style="fill:#C5C9F7;" points="112.013,0 372.681,309.036 309.036,372.681 0,112.013 0,0 "/>
<polygon style="fill:#A8AFF1;" points="340.859,340.859 0,0 0,112.013 309.036,372.681 "/>
<polygon style="fill:#FF4412;" points="114.075,355.497 47.52,422.05 39.884,470.842 41.369,470.631 89.95,464.48 156.503,397.926 
	"/>
<polygon style="fill:#E21500;" points="89.95,464.48 156.503,397.926 135.289,376.711 41.369,470.631 "/>
<path style="fill:#FCBF29;" d="M349.768,298.006l-26.094,25.669l-21.427,21.002l-4.666,5.091l0.212,0.212
	c-11.245,13.365-17.185,29.913-17.185,47.733c-0.211,20.154,7.638,39.036,21.851,53.249l10.608,10.608l148.502-148.502
	l-10.608-10.608C423.384,274.881,379.044,273.396,349.768,298.006z"/>
<path style="fill:#FE9923;" d="M297.582,349.768l0.212,0.212c-11.244,13.365-17.185,29.913-17.185,47.733
	c-0.211,20.154,7.638,39.036,21.851,53.249l10.607,10.608l74.251-74.251l-63.644-63.644l-21.427,21.002L297.582,349.768z"/>
<rect x="41.902" y="102.611" transform="matrix(0.7071 0.7071 -0.7071 0.7071 117.6114 -48.7162)" style="fill:#A8AFF1;" width="151.419" height="30.002"/>
<rect x="36.587" y="115.402" transform="matrix(-0.7071 -0.7071 0.7071 -0.7071 104.7971 289.2132)" style="fill:#97A1ED;" width="151.419" height="15.001"/>
<polygon style="fill:#E1E4FB;" points="399.987,0 139.32,309.036 202.963,372.681 512,112.013 512,0 "/>
<g>
	<polygon style="fill:#C5C9F7;" points="512,0 171.141,340.859 202.963,372.681 512,112.013 	"/>
	
		<rect x="318.681" y="102.606" transform="matrix(-0.7071 0.7071 -0.7071 -0.7071 756.4278 -78.1081)" style="fill:#C5C9F7;" width="151.419" height="30.002"/>
</g>
<rect x="324.002" y="115.401" transform="matrix(0.7071 -0.7071 0.7071 0.7071 30.168 318.6353)" style="fill:#A8AFF1;" width="151.419" height="15.001"/>
<path style="fill:#FEDB41;" d="M61.038,302.46L50.43,313.068L198.933,461.57l10.608-10.608
	c14.213-14.213,22.062-33.095,21.851-53.249c0-17.819-5.94-34.367-17.185-47.733l0.212-0.212l-4.666-5.091l-21.427-21.002
	l-26.094-25.669C132.956,273.396,88.617,274.881,61.038,302.46z"/>
<path style="fill:#FCBF29;" d="M198.933,461.57l10.607-10.608c14.213-14.214,22.062-33.095,21.851-53.249
	c0-17.819-5.94-34.367-17.185-47.733l0.212-0.212l-4.666-5.091l-21.427-21.002l-63.644,63.644L198.933,461.57z"/>
<polygon style="fill:#FEDB41;" points="0,422.05 0,512 89.95,512 89.95,464.48 47.52,422.05 "/>
<g>
	<polygon style="fill:#FCBF29;" points="89.95,464.48 68.736,443.265 0,512 89.95,512 	"/>
	<polygon style="fill:#FCBF29;" points="512,422.05 512,512 422.05,512 422.05,464.48 464.48,422.05 	"/>
</g>
<polygon style="fill:#FE9923;" points="443.265,443.265 422.05,464.48 422.05,512 512,512 "/>
<g>
</g>
<g>
</g>
<g>
</g>
<g>
</g>
<g>
</g>
<g>
</g>
<g>
</g>
<g>
</g>
<g>
</g>
<g>
</g>
<g>
</g>
<g>
</g>
<g>
</g>
<g>
</g>
<g>
</g>
</svg>
