<svg width="22" height="22" viewBox="0 0 22 22" fill="none" xmlns="http://www.w3.org/2000/svg">
<path d="M10.5567 17.7121V21.0491C8.08787 20.9432 5.84335 19.9566 4.13672 18.3896L6.4914 16.0349C7.61792 17.0217 9.05359 17.6104 10.5568 17.7121H10.5567Z" fill="white"/>
<path d="M4.1846 11.3422H0.84375C0.950564 13.8129 1.9419 16.0563 3.50939 17.764L5.86504 15.4084C4.87391 14.2806 4.2817 12.8552 4.1846 11.342V11.3422Z" fill="white"/>
<path d="M10.5558 4.0893V0.746094C8.08608 0.851964 5.8415 1.84334 4.13281 3.41107L6.49905 5.7773C7.6393 4.77389 9.04629 4.18567 10.5559 4.0893H10.5558Z" fill="white"/>
<path d="M17.8613 3.41108L15.4983 5.77828C14.3593 4.77886 12.9489 4.18599 11.4414 4.08859V0.747314C13.9102 0.853421 16.1545 1.84431 17.8614 3.41108H17.8613Z" fill="white"/>
<path d="M17.8069 10.4583H21.1486C21.0428 7.98947 20.0524 5.74568 18.4858 4.03711L16.125 6.3979C17.1135 7.51523 17.7081 8.95059 17.8069 10.4583Z" fill="white"/>
<path d="M5.87042 6.40077C4.8753 7.53153 4.28236 8.95443 4.18502 10.4577H0.84375C0.94962 7.98883 1.94051 5.74431 3.50751 4.03345L5.87042 6.40077Z" fill="white"/>
<path d="M10.9975 0.734619C10.9696 0.734619 10.9419 0.73651 10.9141 0.736746H11.0809C11.053 0.73651 11.0254 0.734619 10.9975 0.734619Z" fill="white"/>
<path d="M10.9953 21.0618C11.0002 21.0618 11.005 21.0613 11.0099 21.0613H10.9805C10.9856 21.0613 10.9904 21.0618 10.9953 21.0618Z" fill="white"/>
<path d="M11.4414 17.7122V21.0507C13.91 20.9441 16.1531 19.9537 17.8614 18.3871L15.5057 16.0315C14.3643 17.0373 12.9544 17.6172 11.4415 17.7122H11.4414Z" fill="white"/>
<path d="M21.1434 11.343C21.0376 13.8119 20.0467 16.0564 18.4797 17.763L16.125 15.4043C17.1159 14.2653 17.7088 12.8549 17.8062 11.3432L21.1434 11.343Z" fill="white"/>
<path d="M13.9004 13.2061C14.0655 13.3713 14.0655 13.6381 13.9004 13.8033C13.8158 13.8837 13.7099 13.9262 13.5998 13.9262C13.4896 13.9262 13.3838 13.8839 13.2992 13.8033L11.9314 12.4355C11.6731 12.588 11.385 12.6728 11.0759 12.6728C10.7625 12.6728 10.462 12.5797 10.1994 12.4188L8.81884 13.8036C8.73424 13.884 8.62837 13.9265 8.51824 13.9265C8.40812 13.9265 8.30225 13.8842 8.21764 13.8036C8.05245 13.6384 8.05245 13.3716 8.21764 13.2064L9.60672 11.8131C9.46706 11.5633 9.38222 11.2753 9.38222 10.9789C9.38222 10.6741 9.47108 10.3817 9.6235 10.1234L8.21767 8.72158C8.05248 8.55639 8.05248 8.28959 8.21767 8.1244C8.38285 7.95496 8.65391 7.95496 8.81909 8.1244L10.2209 9.52601C10.4792 9.37358 10.7673 9.28472 11.0764 9.28472C11.3728 9.28472 11.6566 9.36932 11.9106 9.51348L13.2997 8.1244C13.4649 7.95495 13.736 7.95495 13.9011 8.1244C14.0663 8.28958 14.0663 8.55638 13.9011 8.72157L12.5163 10.1021C12.6772 10.3647 12.7703 10.6653 12.7703 10.9789C12.7703 11.288 12.6815 11.576 12.5291 11.8343L13.9004 13.2061Z" fill="white"/>
</svg>
