<svg width="66" height="41" viewBox="0 0 66 41" fill="none" xmlns="http://www.w3.org/2000/svg">
<rect x="1.87036" y="33.7302" width="1.27567" height="4.78931" rx="0.637835" fill="#00FEE8"/>
<rect x="4.90283" y="35.4871" width="1.27567" height="4.78931" rx="0.637835" transform="rotate(90 4.90283 35.4871)" fill="#00FEE8"/>
<rect x="65.922" y="0.539062" width="1.27567" height="6.57027" rx="0.637835" transform="rotate(90 65.922 0.539062)" fill="#00FEE8"/>
<rect x="58.456" y="0.539062" width="1.27567" height="4.78931" rx="0.637835" transform="rotate(90 58.456 0.539062)" fill="#00FEE8"/>
<rect x="65.9221" y="2.97266" width="1.27567" height="12.2554" rx="0.637835" transform="rotate(90 65.9221 2.97266)" fill="#00FEE8"/>
<circle cx="53.6668" cy="37.8848" r="2.31518" stroke="#00FEE8"/>
<path d="M38.2773 37.6504H21.079C20.8259 37.6504 20.5982 37.5155 20.4717 37.2962L14.1962 26.4407H13.2009L19.721 37.7348C19.9993 38.2155 20.5138 38.5107 21.0705 38.5192H38.2773V37.6504Z" fill="#00FEE8"/>
<path d="M51.0053 19.6761L46.0541 11.0896H45.0588L50.263 20.1063C50.3896 20.3256 50.3896 20.5871 50.263 20.8064L40.7318 37.3047C40.6053 37.524 40.3776 37.6589 40.1245 37.6589H39.1124V38.5193H40.1245C40.6812 38.5193 41.1957 38.2241 41.4741 37.7349L50.9969 21.2366C51.2836 20.7473 51.2836 20.1569 51.0053 19.6761Z" fill="#00FEE8"/>
<path d="M29.674 2.39355H21.079C20.5223 2.39355 20.0078 2.68877 19.7294 3.17798L10.1982 19.6763C9.91987 20.1571 9.91987 20.7559 10.1982 21.2367L12.813 25.7746H13.8083L10.9405 20.815C10.8139 20.5957 10.8139 20.3342 10.9405 20.1149L20.4717 3.59972C20.5982 3.38042 20.826 3.24546 21.079 3.24546H29.674V2.39355Z" fill="#00FEE8"/>
<path d="M41.4826 3.16955C41.2043 2.68877 40.6898 2.39355 40.1331 2.39355H30.3488V3.2539H40.1331C40.3861 3.2539 40.6138 3.38885 40.7404 3.60815L44.6203 10.3391H45.6156L41.4826 3.16955Z" fill="#00FEE8"/>
<path d="M18.6076 13.7043L22.6563 6.68662H38.5557L42.655 13.7887H43.6503L39.1799 6.04558C39.104 5.91063 38.9606 5.83472 38.8088 5.83472H22.4033C22.2514 5.83472 22.108 5.91906 22.0321 6.04558L17.6123 13.7043H18.6076Z" fill="#00FEE8"/>
<path d="M42.8911 26.694L38.5472 34.2177H22.6562L14.7107 20.4523L17.9749 14.801H16.9881L13.8504 20.2414C13.7744 20.3764 13.7744 20.5366 13.8504 20.6716L22.0405 34.8672C22.1164 35.0022 22.2598 35.0781 22.4116 35.0781H38.8002C38.9521 35.0781 39.0955 34.9937 39.1714 34.8672L43.8864 26.7024H42.8911V26.694Z" fill="#00FEE8"/>
<path d="M47.3616 20.2414L44.2239 14.801H43.2286L46.4928 20.4523L43.2286 26.1035H44.2239L47.3616 20.6716C47.4375 20.5366 47.4375 20.3679 47.3616 20.2414Z" fill="#00FEE8"/>
<path d="M32.3562 17.8373C32.3056 17.8373 32.255 17.8289 32.2128 17.812H28.9907C28.7967 17.8795 28.5774 17.8036 28.4762 17.6264L22.0321 6.47576C21.9562 6.3408 21.9562 6.18054 22.0321 6.04558C22.108 5.91063 22.2514 5.83472 22.4032 5.83472H38.7919C38.9437 5.83472 39.0871 5.91906 39.163 6.04558C39.2389 6.18054 39.2389 6.3408 39.163 6.47576L32.7273 17.6264C32.6514 17.753 32.5164 17.8373 32.3562 17.8373ZM29.0835 16.9517H32.1284L38.0581 6.68662H23.1539L29.0835 16.9517Z" fill="#00FEE8"/>
<path d="M39.1714 34.437L32.7357 23.2863C32.6345 23.1091 32.4152 23.0248 32.2212 23.1007H31.1078V23.961H32.1284L38.0581 34.2261H23.1539L29.0835 23.9526H30.5174V23.0923H28.9907C28.7967 23.0248 28.5774 23.1007 28.4762 23.2778L22.0321 34.4285C21.9562 34.5635 21.9562 34.7237 22.0321 34.8587C22.108 34.9936 22.2514 35.0696 22.4032 35.0696H38.7919C38.9437 35.0696 39.0871 34.9852 39.163 34.8587C39.2473 34.7322 39.2473 34.5635 39.1714 34.437Z" fill="#00FEE8"/>
<path d="M47.3615 20.2328L44.2238 14.8008H43.2369L46.2481 20.0219H34.3974L32.8707 17.3818L38.8003 7.11679L42.6549 13.7887H43.6418L39.1714 6.04558C39.0955 5.91063 38.9521 5.83472 38.8003 5.83472C38.6484 5.83472 38.5051 5.91906 38.4291 6.04558L31.9935 17.1963C31.8922 17.3734 31.926 17.6096 32.0947 17.7445L33.7057 20.528C33.7394 20.7389 33.9166 20.8907 34.1274 20.8907H46.9988C47.1506 20.8907 47.294 20.8063 47.3699 20.6798C47.4374 20.5364 47.4374 20.3677 47.3615 20.2328Z" fill="#00FEE8"/>
<path d="M47.3616 20.2411C47.2857 20.1062 47.1423 20.0303 46.9905 20.0303H34.1191C33.9082 20.0303 33.7311 20.1821 33.6974 20.3845L32.0863 23.168C31.9261 23.3029 31.8839 23.5307 31.9851 23.7162L38.4208 34.8669C38.4967 35.0019 38.6401 35.0778 38.7919 35.0778C38.9438 35.0778 39.0872 34.9935 39.1631 34.8669L43.8781 26.7021H42.8912L38.7919 33.7957L32.8623 23.5307L34.389 20.8906H46.2398L43.237 26.1033H44.2239L47.3616 20.6629C47.4375 20.5364 47.4375 20.3677 47.3616 20.2411Z" fill="#00FEE8"/>
<path d="M22.4031 35.0778C22.2512 35.0778 22.1079 34.9935 22.0319 34.8669L13.8418 20.6713C13.7659 20.5364 13.7659 20.3761 13.8418 20.2411C13.9177 20.1062 14.0611 20.0303 14.213 20.0303H27.0843C27.2952 20.0303 27.4723 20.1821 27.5061 20.3845L29.1171 23.168C29.2774 23.3029 29.3195 23.5307 29.2183 23.7162L22.7742 34.8669C22.6983 34.9935 22.5549 35.0778 22.4031 35.0778ZM14.9552 20.8822L22.4031 33.7873L28.3327 23.5222L26.806 20.8822H14.9552Z" fill="#00FEE8"/>
<path d="M29.2185 17.1964L22.7743 6.04569C22.69 5.91917 22.555 5.84326 22.4032 5.84326C22.2514 5.84326 22.1164 5.91917 22.0321 6.04569L17.6123 13.7044H18.6076L22.4116 7.1169L28.3413 17.382L26.8061 20.022H14.9554L17.9666 14.8009H16.9713L13.8335 20.2413C13.7576 20.3763 13.7576 20.5365 13.8335 20.6715C13.9095 20.8064 14.0528 20.8824 14.2047 20.8824H27.076C27.2869 20.8824 27.464 20.7305 27.4978 20.5281L29.1088 17.7446C29.2859 17.6013 29.3197 17.3735 29.2185 17.1964Z" fill="#00FEE8"/>
<path d="M34.4649 20.1401L32.8117 17.2723C32.7021 17.0783 32.4912 16.9602 32.2635 16.9602H28.9486C28.839 16.9602 28.7293 16.9855 28.6365 17.0446C28.5438 17.1036 28.4594 17.1795 28.4088 17.2723L26.7472 20.1485C26.6375 20.3425 26.6375 20.5787 26.7472 20.7727L28.4088 23.6489C28.5185 23.8429 28.7293 23.961 28.9486 23.961H30.5175V23.1007H29.0752L27.5569 20.4522L29.0836 17.8121H32.1285L33.6552 20.4522L32.1285 23.0922H31.1079V23.9526H32.2635C32.4912 23.9526 32.6936 23.8345 32.8117 23.6405L34.4734 20.7643C34.5746 20.5703 34.5746 20.3341 34.4649 20.1401Z" fill="#00FEE8"/>
<path d="M33.3344 33.0873C32.8874 33.0873 32.4656 32.9102 32.1451 32.5981C31.833 32.2861 31.6559 31.8559 31.6475 31.4173C31.6475 30.9702 31.8246 30.5485 32.1367 30.228C32.4488 29.9159 32.8789 29.7388 33.3176 29.7388C33.7646 29.7388 34.1863 29.9159 34.5068 30.228C34.8189 30.5401 34.9961 30.9702 34.9961 31.4088C34.9961 31.8559 34.8189 32.2776 34.5068 32.5897C34.2032 32.9018 33.7815 33.0873 33.3344 33.0873ZM33.3344 30.5991C33.0055 30.5991 32.7018 30.7931 32.5753 31.0968C32.4488 31.4004 32.5163 31.7547 32.7524 31.9908C32.9886 32.227 33.3344 32.2945 33.6465 32.168C33.9502 32.0414 34.1526 31.7378 34.1442 31.4088C34.1442 30.9618 33.7815 30.5991 33.3344 30.5991Z" fill="#00FEE8"/>
<path d="M30.0533 30.1183C29.5304 30.1183 29.0243 29.9159 28.6532 29.5448C28.282 29.1737 28.0712 28.676 28.0712 28.1531C28.0712 27.6301 28.2736 27.124 28.6447 26.7529C29.0159 26.3818 29.5135 26.1709 30.0365 26.1709C30.5594 26.1709 31.0655 26.3733 31.4366 26.7445C31.8077 27.1156 32.0186 27.6132 32.0186 28.1362C32.0186 28.6591 31.8077 29.1652 31.4451 29.5364C31.0824 29.9075 30.5763 30.1183 30.0533 30.1183ZM30.0533 27.0312C29.5979 27.0312 29.193 27.3012 29.0159 27.7229C28.8387 28.1446 28.9399 28.6254 29.2605 28.9375C29.581 29.258 30.0618 29.3508 30.4835 29.1737C30.8968 28.9965 31.1751 28.5917 31.1667 28.1362C31.1667 27.5289 30.6691 27.0312 30.0533 27.0312Z" fill="#00FEE8"/>
<path d="M38.5134 26.8793C37.9905 26.8793 37.4844 26.6769 37.1133 26.3058C36.7421 25.9346 36.5313 25.437 36.5313 24.914C36.5313 24.3911 36.7337 23.885 37.1048 23.5139C37.476 23.1428 37.9736 22.9319 38.4966 22.9319C39.0195 22.9319 39.5256 23.1343 39.8967 23.5054C40.2678 23.8766 40.4787 24.3742 40.4787 24.8972C40.4787 25.4201 40.2678 25.9262 39.8967 26.2973C39.5425 26.66 39.0364 26.8709 38.5134 26.8793ZM38.5134 23.7838C38.0579 23.7838 37.6531 24.0537 37.476 24.4754C37.2988 24.8972 37.4 25.378 37.7206 25.69C38.0411 26.0106 38.5219 26.1033 38.9352 25.9346C39.3485 25.7575 39.6268 25.3526 39.6184 24.8972C39.6268 24.2814 39.1292 23.7838 38.5134 23.7838Z" fill="#00FEE8"/>
<path d="M22.5465 26.9216C22.0236 26.9216 21.5175 26.7191 21.1464 26.348C20.7753 25.9769 20.5644 25.4792 20.5644 24.9563C20.5644 24.4333 20.7668 23.9272 21.138 23.5561C21.5091 23.185 22.0067 22.9741 22.5297 22.9741C23.0526 22.9741 23.5587 23.1766 23.9298 23.5477C24.301 23.9188 24.5118 24.4165 24.5118 24.9394C24.5118 25.4624 24.301 25.9684 23.9383 26.3396C23.5756 26.7023 23.0779 26.9131 22.5465 26.9216ZM22.5465 23.826C22.0911 23.826 21.6862 24.0959 21.5091 24.5177C21.332 24.9394 21.4332 25.4202 21.7537 25.7323C22.0742 26.0528 22.555 26.1456 22.9683 25.9769C23.39 25.7998 23.6599 25.3949 23.6599 24.9394C23.6599 24.3237 23.1623 23.826 22.5465 23.826Z" fill="#00FEE8"/>
</svg>
