<svg width="173" height="103" viewBox="0 0 173 103" fill="none" xmlns="http://www.w3.org/2000/svg">
<rect x="31.34" y="83.7217" width="3.24254" height="16.7005" rx="1.62127" transform="rotate(90 31.34 83.7217)" fill="#00FEE8"/>
<rect x="12.3625" y="83.7217" width="3.24254" height="12.1736" rx="1.62127" transform="rotate(90 12.3625 83.7217)" fill="#00FEE8"/>
<rect x="31.34" y="89.9077" width="3.24254" height="31.1512" rx="1.62127" transform="rotate(90 31.34 89.9077)" fill="#00FEE8"/>
<rect x="31.9421" y="0.471191" width="3.24254" height="12.1736" rx="1.62127" fill="#00FEE8"/>
<rect x="39.6502" y="4.93652" width="3.24254" height="12.1736" rx="1.62127" transform="rotate(90 39.6502 4.93652)" fill="#00FEE8"/>
<rect x="150.331" y="82.1001" width="3.24254" height="12.1736" rx="1.62127" fill="#00FEE8"/>
<rect x="158.039" y="86.5659" width="3.24254" height="12.1736" rx="1.62127" transform="rotate(90 158.039 86.5659)" fill="#00FEE8"/>
<circle cx="165.195" cy="18.7319" r="5.6557" stroke="#00FEE8" stroke-width="3"/>
<path d="M103.171 35.5882L103.172 35.5902C103.252 36.0978 103.04 36.6055 102.639 36.9027C102.414 37.0968 102.115 37.1751 101.852 37.1751C101.636 37.1751 101.42 37.1213 101.229 37.0134L93.0546 32.7282V42.0669H101.277C101.976 42.0669 102.568 42.6039 102.623 43.3056C102.623 43.3057 102.623 43.3058 102.623 43.306L106.51 89.9112H110.846C111.598 89.9112 112.192 90.5046 112.192 91.2571V100.826C112.192 101.579 111.598 102.172 110.846 102.172H72.5708C71.8184 102.172 71.225 101.579 71.225 100.826V91.2571C71.225 90.5046 71.8184 89.9112 72.5708 89.9112H76.9063L80.794 43.3061C80.794 43.306 80.794 43.3058 80.794 43.3056C80.8476 42.6038 81.4403 42.0669 82.1394 42.0669L90.3851 42.0662V32.7274L82.2087 37.0134C81.7476 37.2576 81.2097 37.2012 80.7855 36.9091C80.3496 36.61 80.1641 36.0947 80.2442 35.5902L80.2445 35.5882L82.0733 24.9961L74.38 17.4928C74.0027 17.1416 73.8688 16.6025 74.0303 16.1169L74.0304 16.1166C74.192 15.6345 74.5959 15.2841 75.1063 15.2031L75.1083 15.2028L75.1083 15.2028L85.7474 13.6595L90.4968 4.01758L90.4972 4.01673C90.7321 3.54739 91.2294 3.32412 91.7079 3.32412C92.1863 3.32412 92.6836 3.54739 92.9185 4.01673L92.919 4.01758L97.6684 13.6595L108.307 15.2028L108.31 15.2033L108.31 15.2033C108.794 15.2833 109.224 15.6312 109.385 16.1168L103.171 35.5882ZM103.171 35.5882L101.342 24.9961M103.171 35.5882L101.342 24.9961M101.342 24.9961L109.034 17.4941C109.035 17.4937 109.035 17.4932 109.036 17.4928C109.413 17.1416 109.547 16.6017 109.385 16.1169L101.342 24.9961ZM84.4707 23.5945L84.4695 23.5933L78.2275 17.4898L86.8726 16.2414C87.3107 16.1859 87.6822 15.8884 87.8919 15.5216L87.8922 15.5218L87.8965 15.5128L91.7097 7.67741L95.5689 15.5113C95.7589 15.9172 96.1382 16.1871 96.5938 16.2407C96.5945 16.2408 96.5953 16.2408 96.596 16.2409L105.238 17.489L98.9979 23.591C98.6716 23.8921 98.5385 24.3503 98.6187 24.7788C98.6188 24.7792 98.6189 24.7796 98.6189 24.78L100.098 33.3764L92.3792 29.3087C92.1886 29.2008 91.9722 29.147 91.7569 29.147C91.5416 29.147 91.3253 29.2007 91.1348 29.3086L83.3681 33.3781L84.8468 24.7808C84.8469 24.7804 84.847 24.78 84.8471 24.7796C84.9285 24.3446 84.7654 23.8891 84.4707 23.5945ZM109.501 92.6048V99.4816H73.9171V92.6048H109.501ZM83.3787 44.7579H100.04L103.818 89.9118H79.5999L83.3787 44.7579Z" fill="#00FEE8" stroke="#00FEE8" stroke-width="0.3"/>
</svg>
