<svg width="30" height="35" viewBox="0 0 30 35" fill="none" xmlns="http://www.w3.org/2000/svg">
<path d="M23.5081 12.503L15.2219 7.7191C15.0508 7.62007 14.8408 7.62007 14.6693 7.7191L6.38315 12.503C6.21206 12.602 6.10687 12.7843 6.10687 12.9812V22.549C6.10687 22.7462 6.21168 22.9289 6.38315 23.0268L14.6693 27.8107C14.8404 27.9101 15.0504 27.9101 15.2219 27.8107L23.5081 23.0268C23.6799 22.9285 23.7844 22.7462 23.7844 22.549V12.9812C23.7844 12.7835 23.6799 12.6012 23.5081 12.503ZM22.6792 22.2303L14.9457 26.6955L7.2121 22.2303V13.2998L14.9457 8.83457L22.6792 13.2998V22.2303ZM21.2982 18.2776H21.8508V21.5922C21.8508 21.6916 21.7976 21.7822 21.7128 21.8319L18.8428 23.4892L18.5666 23.011L21.2981 21.4347L21.2982 18.2776ZM21.2982 14.0971L18.5666 12.5199L18.8429 12.0417L21.7129 13.6991C21.798 13.7484 21.8508 13.8393 21.8508 13.9384V17.253H21.2983L21.2982 14.0971ZM15.0836 9.87113L17.9535 11.5285L17.6773 12.0067L14.9457 10.4295L12.2133 12.0071L11.937 11.5289L14.8074 9.87153C14.8926 9.82259 14.9989 9.82259 15.0837 9.87114L15.0836 9.87113ZM8.59303 17.2525H8.04046V13.9379C8.04046 13.8388 8.09286 13.7479 8.1784 13.6986L11.0488 12.0412L11.3251 12.5194L8.59308 14.097L8.59303 17.2525ZM8.59303 21.4338L11.3254 23.0101L11.0491 23.4883L8.17874 21.831C8.09319 21.7813 8.04079 21.6908 8.04079 21.5913V18.2767H8.59336L8.59303 21.4338ZM17.6772 23.5227L17.9535 24.0009L15.0835 25.6582C15.0412 25.6825 14.993 25.6948 14.9456 25.6948C14.8982 25.6948 14.85 25.6833 14.8077 25.6582L11.9373 24.0009L12.2136 23.5227L14.9455 25.1006L17.6772 23.5227ZM18.2602 16.1078C18.2602 16.9651 17.9227 17.7759 17.342 18.3827C18.2159 18.8678 18.9392 19.615 19.3919 20.5267C19.528 20.7995 19.417 21.1316 19.1438 21.2673C18.8702 21.4037 18.5384 21.2915 18.4032 21.0191C17.9331 20.0762 17.095 19.3568 16.102 19.047C15.8908 18.9807 15.7402 18.7946 15.7174 18.5746C15.6959 18.3546 15.8068 18.1419 16.0018 18.0355C16.7135 17.6436 17.1551 16.9049 17.1551 16.1077C17.1551 14.8889 16.164 13.8982 14.9456 13.8982C13.7269 13.8982 12.7362 14.8893 12.7362 16.1077C12.7362 16.9049 13.1782 17.6432 13.8902 18.0343C14.0848 18.1414 14.1958 18.353 14.1742 18.5734C14.1522 18.7927 14.0008 18.9795 13.7896 19.045C12.7974 19.356 11.9586 20.0754 11.4885 21.0183C11.3524 21.29 11.0207 21.4017 10.7479 21.2657C10.4743 21.1297 10.3641 20.7979 10.4997 20.5251C10.9532 19.6146 11.6757 18.8663 12.5496 18.3812C11.9686 17.7762 11.631 16.9651 11.631 16.1077C11.631 14.2797 13.1176 12.793 14.9457 12.793C16.7737 12.7934 18.2603 14.2796 18.2603 16.1077L18.2602 16.1078ZM14.3931 3.50193H13.2926L14.9457 0.639648L16.5984 3.50153L15.4983 3.50192V6.16375H14.3936L14.3931 3.50193ZM2.87036 10.1546L5.17539 11.4856L4.62282 12.4423L2.31779 11.111L1.76754 12.064L0.115234 9.20246H3.42023L2.87036 10.1546ZM5.17539 24.0429L2.87036 25.3738L3.42061 26.3267H0.115609L1.76791 23.464L2.31816 24.417L4.6232 23.0856L5.17539 24.0429ZM15.4986 32.0266H16.5991L14.946 34.8893L13.2933 32.0266H14.3934V29.3651H15.4981L15.4986 32.0266ZM28.1241 23.4641L29.7768 26.3268H26.4711L27.0213 25.3739L24.7167 24.0429L25.2692 23.0862L27.5739 24.4175L28.1241 23.4641ZM24.7174 11.4857L27.0221 10.1547L26.4711 9.20181H29.7769L28.1242 12.0645L27.5739 11.1116L25.2693 12.4429L24.7174 11.4857Z" fill="white"/>
</svg>
