<svg width="29" height="34" viewBox="0 0 29 34" fill="none" xmlns="http://www.w3.org/2000/svg">
<path d="M24.9039 23.0781C23.2529 21.1492 21.0881 19.6835 18.6285 18.9001C20.4479 18.0325 21.9557 16.609 22.9328 14.8569C23.6572 13.5176 23.8257 12.7258 23.8088 12.7174C24.9291 8.68256 23.3624 4.4456 20.0267 2.08706C20.0436 2.07021 18.2915 1.08467 18.2663 1.10152C15.8656 0.0738668 13.1027 0.0738668 10.7021 1.10152C9.80917 1.46373 8.94157 2.06179 8.94157 2.08706C5.60591 4.43718 4.03916 8.68256 5.15947 12.7174C5.15947 12.7258 5.61433 14.1156 6.0355 14.8569C7.01261 16.609 8.51197 18.0325 10.323 18.8917C7.85495 19.6751 5.68171 21.1408 4.01388 23.0781L2.6493 24.9565C1.38579 27.0624 0.644531 29.5389 0.644531 32.1922H0.652955C0.652955 32.7819 0.973043 33.203 1.52899 33.2367L27.3551 33.2452C27.8773 33.2452 28.2985 32.824 28.2985 32.3017C28.2985 29.7242 27.4983 27.0287 26.2516 24.9565L24.9039 23.0781ZM7.42536 13.4081C4.96573 8.04239 8.92472 2.22183 14.4673 2.22183C20.3384 2.29764 23.9268 8.2277 21.5429 13.4081C18.7548 19.4561 10.2135 19.4645 7.42536 13.4081ZM26.3527 31.3667H2.57349C2.76722 28.4354 4.056 25.6641 6.0355 23.6678C13.3049 16.3226 25.6788 21.166 26.3527 31.3667Z" fill="#BAACD2"/>
<path d="M17.1132 11.9593C17.686 10.8642 19.3538 11.7234 18.781 12.8185C16.9784 16.3142 11.9918 16.3142 10.1892 12.8185C9.6248 11.7234 11.2926 10.8642 11.857 11.9593C12.9689 14.0988 16.0013 14.1072 17.1132 11.9593Z" fill="#BAACD2"/>
</svg>
