<svg width="28" height="26" viewBox="0 0 28 26" fill="none" xmlns="http://www.w3.org/2000/svg">
<path d="M27.1579 25.7353H0.726368C0.388062 25.7353 0.115234 25.4624 0.115234 25.1241V21.2282C0.115234 21.0645 0.180713 20.9062 0.2953 20.7916C0.480823 20.6061 5.0043 16.2627 13.8657 16.2627C22.7163 16.2627 27.3871 20.6007 27.5781 20.7862C27.6981 20.9008 27.769 21.0645 27.769 21.2282V25.1241C27.769 25.4624 27.4962 25.7353 27.1579 25.7353ZM1.3375 24.513H26.5468V21.5064C25.6082 20.7316 21.243 17.485 13.8657 17.485C6.4612 17.485 2.23783 20.7262 1.3375 21.501V24.513Z" fill="#FEFFFF"/>
<path d="M8.46387 0.433105V14.0199H19.4315V0.433105H8.46387ZM18.4002 12.9886H9.4897V1.46439H18.3948V12.9886H18.4002Z" fill="#FEFFFF"/>
</svg>
