<svg width="11" height="13" viewBox="0 0 11 13" fill="none" xmlns="http://www.w3.org/2000/svg">
<path d="M9.49082 8.96162C8.91298 8.28648 8.15529 7.77349 7.29441 7.49931C7.93122 7.19565 8.45895 6.6974 8.80094 6.08417C9.05449 5.61541 9.11345 5.33828 9.10756 5.33533C9.49967 3.92314 8.9513 2.4402 7.78381 1.6147C7.78971 1.6088 7.17648 1.26386 7.16764 1.26976C6.3274 0.91008 5.36039 0.91008 4.52015 1.26976C4.20764 1.39653 3.90398 1.60586 3.90398 1.6147C2.73649 2.43725 2.18813 3.92314 2.58024 5.33533C2.58024 5.33828 2.73944 5.82473 2.88685 6.08417C3.22884 6.6974 3.75362 7.19565 4.38749 7.49636C3.52366 7.77055 2.76303 8.28353 2.17928 8.96162L1.70167 9.61907C1.25944 10.3561 1 11.2229 1 12.1516H1.00295C1.00295 12.3579 1.11498 12.5054 1.30956 12.5172L10.3487 12.5201C10.5315 12.5201 10.6789 12.3727 10.6789 12.1899C10.6789 11.2878 10.3989 10.3443 9.96254 9.61907L9.49082 8.96162ZM3.3733 5.57708C2.51243 3.69908 3.89808 1.66187 5.838 1.66187C7.8929 1.68841 9.14883 3.76394 8.31449 5.57708C7.33864 7.69389 4.34916 7.69684 3.3733 5.57708ZM9.99791 11.8627H1.67514C1.74295 10.8367 2.19402 9.86672 2.88685 9.16799C5.43115 6.59716 9.76206 8.29238 9.99791 11.8627Z" fill="#000000" stroke="#000000" stroke-width="0.3"/>
<path d="M6.76248 5.06994C6.96296 4.68667 7.5467 4.98739 7.34622 5.37065C6.71531 6.59416 4.96997 6.59416 4.33906 5.37065C4.14153 4.98739 4.72527 4.68667 4.9228 5.06994C5.31196 5.81878 6.37332 5.82173 6.76248 5.06994Z" fill="#000000" stroke="#000000" stroke-width="0.3"/>
</svg>
