<svg width="50" height="16" viewBox="0 0 50 16" fill="none" xmlns="http://www.w3.org/2000/svg">
<path d="M25.6282 5.58411C25.5789 7.66797 27.5984 8.82561 29.1251 9.52021C30.6519 10.2149 31.1942 10.6779 31.1942 11.3262C31.1942 12.2987 29.9627 12.7154 28.8299 12.7618C26.8102 12.8081 25.6774 12.2524 24.7416 11.8356L24.0028 14.9845C24.9386 15.4013 26.6626 15.7254 28.4359 15.7717C32.6222 15.7717 35.3311 13.8268 35.3806 10.8168C35.3806 7.01961 29.7656 6.78812 29.8151 5.0747C29.8151 4.56536 30.3567 4.00966 31.4895 3.87073C32.0805 3.77812 33.6073 3.73181 35.43 4.51907L36.1192 1.46275C35.1835 1.1386 33.952 0.814453 32.3757 0.814453C28.4359 0.814453 25.6774 2.75936 25.6282 5.58411ZM42.8181 1.04599C42.0794 1.04599 41.3895 1.46275 41.1431 2.11106L35.1835 15.4939H39.3705L40.2074 13.3174H45.3301L45.8223 15.4939H49.5164L46.3152 1.04599H42.8181ZM43.4092 4.98211L44.5914 10.4001H41.2913L43.4092 4.98211ZM20.6042 1.04599L17.3042 15.4939H21.2938L24.5939 1.04599H20.6042ZM14.6937 1.04599L10.5563 10.8632L8.88165 2.48152C8.68462 1.55537 7.89659 0.999677 7.05926 0.999677H0.311402L0.212891 1.41645C1.59201 1.69429 3.16815 2.15737 4.15322 2.66675C4.7443 2.94459 4.89203 3.22244 5.08906 3.91704L8.24134 15.4476H12.428L18.8803 0.999677L14.6937 1.04599Z" fill="white"/>
</svg>
