<svg width="35" height="22" viewBox="0 0 35 22" fill="none" xmlns="http://www.w3.org/2000/svg">
<path d="M17.9864 12.7331C17.7385 12.5731 17.4247 12.556 17.1609 12.6881C16.8972 12.8201 16.7227 13.0816 16.7022 13.3759C16.6819 13.6702 16.8185 13.9535 17.0614 14.1207C17.3092 14.2807 17.6232 14.2978 17.8869 14.1657C18.1507 14.0337 18.325 13.7721 18.3454 13.4779C18.3659 13.1836 18.2294 12.9003 17.9864 12.7331ZM21.827 9.94441H21.5043V7.59343C21.5033 6.96952 21.2695 6.36853 20.8484 5.90815C20.4273 5.44777 19.8494 5.16111 19.2281 5.10477L18.6334 3.19721V3.1974C18.5021 2.77589 18.2088 2.42397 17.818 2.21897C17.4271 2.0138 16.9709 1.97251 16.5493 2.10383L14.2192 2.83021L12.4679 0.815361C12.179 0.481843 11.7696 0.276506 11.3295 0.244316C10.8896 0.212322 10.4547 0.356296 10.1206 0.644609L4.9735 5.09344H3.17089C2.50794 5.09419 1.87251 5.35777 1.4038 5.82654C0.93524 6.29529 0.67166 6.93072 0.670898 7.59343V19.26C0.671642 19.923 0.935221 20.5584 1.4038 21.0271C1.87255 21.4957 2.50798 21.7593 3.17089 21.76H19.0041C19.6669 21.7593 20.3023 21.4957 20.771 21.0271C21.2398 20.5584 21.5034 19.9229 21.5041 19.26V16.9092H21.8269H21.8267C22.2134 16.9089 22.5841 16.755 22.8574 16.4816C23.1308 16.2082 23.2846 15.8377 23.285 15.4509V11.4027C23.2846 11.016 23.1308 10.6453 22.8574 10.372C22.5841 10.0986 22.2134 9.94474 21.8267 9.94437L21.827 9.94441ZM16.9213 3.2973C17.026 3.26438 17.1397 3.2748 17.237 3.32576C17.3341 3.37673 17.4072 3.46435 17.4397 3.56925L17.915 5.09344H11.1598L16.9213 3.2973ZM10.938 1.59027C11.1117 1.4409 11.3735 1.46043 11.523 1.63398L12.916 3.23645L7.22655 5.01025C7.16758 5.02959 7.11178 5.05768 7.06118 5.09358H6.88484L10.938 1.59027ZM20.2541 19.2602C20.2538 19.5916 20.1219 19.9094 19.8875 20.1437C19.6531 20.3781 19.3354 20.5098 19.0041 20.5102H3.17089C2.83942 20.5098 2.5217 20.3781 2.28732 20.1437C2.05294 19.9094 1.92125 19.5917 1.92088 19.2602V7.59357C1.92125 7.26228 2.05295 6.94457 2.28732 6.71019C2.5217 6.47582 2.83942 6.34394 3.17089 6.34357H19.0041C19.3354 6.34394 19.6531 6.47582 19.8875 6.71019C20.1219 6.94457 20.2538 7.26228 20.2541 7.59357V9.94437L15.7002 9.94455C15.3137 9.94492 14.943 10.0988 14.6695 10.3722C14.3963 10.6454 14.2424 11.0161 14.2419 11.4029V15.4511C14.2424 15.8378 14.3963 16.2083 14.6695 16.4818C14.9429 16.7552 15.3136 16.9091 15.7002 16.9094H20.2541V19.2602ZM22.0352 15.4511H22.035C22.035 15.5063 22.013 15.5593 21.974 15.5984C21.9349 15.6374 21.8819 15.6594 21.8267 15.6594H20.8912C20.8871 15.6594 20.8832 15.6583 20.8791 15.6583C20.875 15.6583 20.8711 15.6594 20.867 15.6594H15.7004C15.5854 15.6594 15.492 15.5662 15.492 15.4511V11.4029C15.492 11.2877 15.5854 11.1946 15.7004 11.1946H20.867C20.8711 11.1946 20.875 11.1957 20.8791 11.1957C20.8832 11.1957 20.8871 11.1946 20.8912 11.1946H21.8268C21.8821 11.1946 21.9351 11.2165 21.9741 11.2556C22.0132 11.2946 22.0351 11.3476 22.0351 11.4029L22.0352 15.4511Z" fill="#FFDE01"/>
<line x1="7.05469" y1="9.74078" x2="7.05469" y2="17.1755" stroke="#FFDE01"/>
<path d="M33.9912 13.12V11.608H31.4352V9.1H29.8752V11.608H27.3312V13.12H29.8872V15.628H31.4472V13.12H33.9912Z" fill="#FFDE01"/>
</svg>
