<svg width="16" height="20" viewBox="0 0 16 20" fill="none" xmlns="http://www.w3.org/2000/svg">
<path d="M13.5363 17.9999C13.5709 18.1085 13.541 18.2272 13.4589 18.3064C13.377 18.3855 13.2573 18.4112 13.15 18.3727L11.3673 17.7933L10.2336 19.2824C10.165 19.3701 10.0536 19.4125 9.94424 19.3926C9.83484 19.3728 9.74539 19.2938 9.71211 19.1878L8.47021 15.1839L9.50731 15.5702V15.5703C9.93129 15.7246 10.396 15.7246 10.8199 15.5703C11.2438 15.4159 11.5997 15.1171 11.8251 14.7262L12.2771 13.9537L13.5363 17.9999ZM15.1528 7.02367L14.3205 8.46643C14.2083 8.66017 14.168 8.88717 14.2065 9.10759L14.4962 10.7473V10.7475C14.5351 10.9679 14.4951 11.1951 14.3831 11.389C14.2712 11.583 14.0944 11.7312 13.884 11.8078L12.3196 12.3775C12.1094 12.4543 11.9329 12.6028 11.8212 12.7966L10.9888 14.2394C10.8767 14.4353 10.6986 14.585 10.4864 14.6618C10.2741 14.7384 10.0414 14.7373 9.83002 14.6585L8.26561 14.0888H8.26547C8.0553 14.0122 7.82494 14.0122 7.61462 14.0888L6.05601 14.6469C5.8445 14.7258 5.61196 14.7268 5.39965 14.6502C5.18746 14.5734 5.00936 14.4237 4.89713 14.2278L4.06466 12.7851H4.0648C3.95311 12.5912 3.77662 12.4427 3.56646 12.3659L2.00206 11.7962C1.79161 11.7197 1.61484 11.5715 1.50289 11.3774C1.39093 11.1836 1.35078 10.9563 1.38972 10.7359L1.67938 9.09614L1.67951 9.096C1.71764 8.88017 1.68005 8.65774 1.57322 8.46643L0.740746 7.02367C0.628925 6.8298 0.588914 6.6028 0.627714 6.38237C0.666649 6.16197 0.781841 5.96229 0.953208 5.8184L2.22797 4.74844C2.39975 4.60469 2.51534 4.40503 2.55441 4.18447L2.84406 2.54474C2.88273 2.32379 2.99805 2.12372 3.16983 1.97956C3.34147 1.8354 3.55852 1.75645 3.78281 1.75673H5.44771H5.44758C5.67176 1.75632 5.88853 1.67697 6.0599 1.53268L7.33467 0.462713L7.33453 0.462579C7.50617 0.318692 7.72295 0.239746 7.94686 0.239746C8.17076 0.239746 8.38753 0.318696 8.55918 0.462579L9.83395 1.53254L9.83381 1.53268C10.0055 1.6763 10.2222 1.75497 10.4461 1.7547H12.111H12.1109C12.3352 1.75457 12.5523 1.83352 12.7239 1.97767C12.8957 2.12183 13.011 2.32189 13.0497 2.54271L13.3393 4.18244V4.18258C13.3784 4.40299 13.494 4.6028 13.6657 4.74655L14.9405 5.81651C15.1123 5.96053 15.2279 6.16047 15.2667 6.38128C15.3056 6.60209 15.2653 6.82964 15.153 7.02364L15.1528 7.02367ZM10.9192 6.76487C10.8658 6.59929 10.7225 6.47858 10.5504 6.45392L9.03623 6.23378L8.3583 4.86241C8.28111 4.70627 8.122 4.60738 7.94781 4.60738C7.77361 4.60738 7.6145 4.70627 7.53745 4.86241L6.85953 6.23378L5.34538 6.45392H5.34524C5.17616 6.48073 5.03619 6.59983 4.98241 6.76244C4.92879 6.92519 4.97042 7.1041 5.09033 7.22643L6.1874 8.29453L5.9286 9.81841C5.90192 9.98951 5.97413 10.161 6.11505 10.2617C6.25611 10.3622 6.44176 10.3746 6.59494 10.2936L7.94689 9.58091L9.29884 10.2936C9.45202 10.3746 9.63767 10.3622 9.77873 10.2617C9.91965 10.161 9.99186 9.98953 9.96518 9.81841L9.70638 8.31005L10.8035 7.24195C10.9317 7.11908 10.977 6.93289 10.9193 6.76489L10.9192 6.76487ZM2.73215 18.3726L4.51484 17.7932L5.66013 19.2823C5.7287 19.37 5.84012 19.4124 5.94951 19.3925C6.05891 19.3727 6.14837 19.2937 6.18165 19.1877L7.42354 15.1876L6.38644 15.5739C5.96246 15.7283 5.49779 15.7283 5.07381 15.5739C4.64997 15.4195 4.29404 15.1206 4.06862 14.7298L3.61863 13.9457L2.35749 18.0017C2.32637 18.1073 2.35574 18.2214 2.43402 18.2989C2.51229 18.3765 2.62681 18.4046 2.73216 18.3724L2.73215 18.3726Z" fill="#FFFCFD"/>
</svg>
